%TF.GenerationSoftware,KiCad,Pcbnew,7.0.5*%
%TF.CreationDate,2024-07-10T14:16:31-04:00*%
%TF.ProjectId,homeWork2,686f6d65-576f-4726-9b32-2e6b69636164,V2*%
%TF.SameCoordinates,Original*%
%TF.FileFunction,Soldermask,Top*%
%TF.FilePolarity,Negative*%
%FSLAX46Y46*%
G04 Gerber Fmt 4.6, Leading zero omitted, Abs format (unit mm)*
G04 Created by KiCad (PCBNEW 7.0.5) date 2024-07-10 14:16:31*
%MOMM*%
%LPD*%
G01*
G04 APERTURE LIST*
G04 Aperture macros list*
%AMRoundRect*
0 Rectangle with rounded corners*
0 $1 Rounding radius*
0 $2 $3 $4 $5 $6 $7 $8 $9 X,Y pos of 4 corners*
0 Add a 4 corners polygon primitive as box body*
4,1,4,$2,$3,$4,$5,$6,$7,$8,$9,$2,$3,0*
0 Add four circle primitives for the rounded corners*
1,1,$1+$1,$2,$3*
1,1,$1+$1,$4,$5*
1,1,$1+$1,$6,$7*
1,1,$1+$1,$8,$9*
0 Add four rect primitives between the rounded corners*
20,1,$1+$1,$2,$3,$4,$5,0*
20,1,$1+$1,$4,$5,$6,$7,0*
20,1,$1+$1,$6,$7,$8,$9,0*
20,1,$1+$1,$8,$9,$2,$3,0*%
G04 Aperture macros list end*
%ADD10RoundRect,0.237500X-0.237500X0.250000X-0.237500X-0.250000X0.237500X-0.250000X0.237500X0.250000X0*%
%ADD11R,2.000000X2.000000*%
%ADD12C,2.000000*%
%ADD13R,2.200000X2.200000*%
%ADD14C,2.200000*%
%ADD15C,0.800000*%
%ADD16C,7.000000*%
%ADD17R,1.700000X1.700000*%
%ADD18O,1.700000X1.700000*%
%ADD19RoundRect,0.250000X0.900000X-1.000000X0.900000X1.000000X-0.900000X1.000000X-0.900000X-1.000000X0*%
%ADD20C,3.000000*%
%ADD21RoundRect,0.237500X-0.250000X-0.237500X0.250000X-0.237500X0.250000X0.237500X-0.250000X0.237500X0*%
%ADD22RoundRect,0.237500X-0.237500X0.300000X-0.237500X-0.300000X0.237500X-0.300000X0.237500X0.300000X0*%
%ADD23RoundRect,0.250000X-1.250000X-0.550000X1.250000X-0.550000X1.250000X0.550000X-1.250000X0.550000X0*%
%ADD24RoundRect,0.250000X0.550000X-1.250000X0.550000X1.250000X-0.550000X1.250000X-0.550000X-1.250000X0*%
%ADD25RoundRect,0.218750X0.218750X0.256250X-0.218750X0.256250X-0.218750X-0.256250X0.218750X-0.256250X0*%
%ADD26RoundRect,0.237500X0.250000X0.237500X-0.250000X0.237500X-0.250000X-0.237500X0.250000X-0.237500X0*%
%ADD27RoundRect,0.237500X0.237500X-0.250000X0.237500X0.250000X-0.237500X0.250000X-0.237500X-0.250000X0*%
%ADD28RoundRect,0.237500X0.237500X-0.300000X0.237500X0.300000X-0.237500X0.300000X-0.237500X-0.300000X0*%
%ADD29RoundRect,0.250000X1.250000X0.550000X-1.250000X0.550000X-1.250000X-0.550000X1.250000X-0.550000X0*%
%ADD30O,1.600000X1.600000*%
%ADD31C,1.800000*%
%ADD32R,2.000000X3.000000*%
%ADD33R,2.000000X2.999999*%
%ADD34RoundRect,0.237500X0.300000X0.237500X-0.300000X0.237500X-0.300000X-0.237500X0.300000X-0.237500X0*%
%ADD35RoundRect,0.237500X-0.300000X-0.237500X0.300000X-0.237500X0.300000X0.237500X-0.300000X0.237500X0*%
%ADD36R,1.905000X2.000000*%
%ADD37O,1.905000X2.000000*%
%TA.AperFunction,Profile*%
%ADD38C,0.100000*%
%TD*%
G04 APERTURE END LIST*
D10*
%TO.C,R14*%
X138176000Y-69699500D03*
X138176000Y-71524500D03*
%TD*%
D11*
%TO.C,D6-lostSock1*%
X142240000Y-53594000D03*
D12*
X144780000Y-53594000D03*
%TD*%
D13*
%TO.C,S2-RepeatCalculation1*%
X94452900Y-60128600D03*
D14*
X100952900Y-60128600D03*
X94452900Y-64628600D03*
X100952900Y-64628600D03*
%TD*%
D15*
%TO.C,H1*%
X52375000Y-55000000D03*
X53143845Y-53143845D03*
X53143845Y-56856155D03*
X55000000Y-52375000D03*
D16*
X55000000Y-55000000D03*
D15*
X55000000Y-57625000D03*
X56856155Y-53143845D03*
X56856155Y-56856155D03*
X57625000Y-55000000D03*
%TD*%
D17*
%TO.C,J2*%
X112522000Y-56642000D03*
D18*
X112522000Y-59182000D03*
X112522000Y-61722000D03*
X112522000Y-64262000D03*
X112522000Y-66802000D03*
X112522000Y-69342000D03*
X112522000Y-71882000D03*
X112522000Y-74422000D03*
X112522000Y-76962000D03*
X112522000Y-79502000D03*
X112522000Y-82042000D03*
X112522000Y-84582000D03*
X112522000Y-87122000D03*
X112522000Y-89662000D03*
X112522000Y-92202000D03*
%TD*%
D17*
%TO.C,J5_DFPLAYER1*%
X158750000Y-77978000D03*
D18*
X158750000Y-80518000D03*
X158750000Y-83058000D03*
X158750000Y-85598000D03*
%TD*%
D19*
%TO.C,D2*%
X84524750Y-93942750D03*
X84524750Y-89642750D03*
%TD*%
D20*
%TO.C,TP5*%
X139700000Y-98298000D03*
%TD*%
D10*
%TO.C,R12*%
X138430000Y-52785000D03*
X138430000Y-54610000D03*
%TD*%
D20*
%TO.C,TP2*%
X91398750Y-86792750D03*
%TD*%
D21*
%TO.C,R2*%
X54864000Y-64008000D03*
X56689000Y-64008000D03*
%TD*%
D15*
%TO.C,H2*%
X52317155Y-97360155D03*
X53086000Y-95504000D03*
X53086000Y-99216310D03*
X54942155Y-94735155D03*
D16*
X54942155Y-97360155D03*
D15*
X54942155Y-99985155D03*
X56798310Y-95504000D03*
X56798310Y-99216310D03*
X57567155Y-97360155D03*
%TD*%
D22*
%TO.C,C2*%
X63246000Y-79047000D03*
X63246000Y-80772000D03*
%TD*%
D23*
%TO.C,C4*%
X88470750Y-99220750D03*
X92870750Y-99220750D03*
%TD*%
D24*
%TO.C,C3*%
X104902000Y-94316000D03*
X104902000Y-89916000D03*
%TD*%
D25*
%TO.C,F1*%
X85099750Y-86792750D03*
X83524750Y-86792750D03*
%TD*%
D10*
%TO.C,R9*%
X138684000Y-77319500D03*
X138684000Y-79144500D03*
%TD*%
D26*
%TO.C,R10*%
X74064500Y-53340000D03*
X72239500Y-53340000D03*
%TD*%
D27*
%TO.C,R4*%
X103886000Y-64158500D03*
X103886000Y-62333500D03*
%TD*%
D28*
%TO.C,C1*%
X108712000Y-92370000D03*
X108712000Y-90645000D03*
%TD*%
D11*
%TO.C,D1*%
X54506500Y-68326000D03*
D12*
X57046500Y-68326000D03*
%TD*%
D10*
%TO.C,R3*%
X103886000Y-54817000D03*
X103886000Y-56642000D03*
%TD*%
D15*
%TO.C,H4*%
X155695155Y-97868155D03*
X156464000Y-96012000D03*
X156464000Y-99724310D03*
X158320155Y-95243155D03*
D16*
X158320155Y-97868155D03*
D15*
X158320155Y-100493155D03*
X160176310Y-96012000D03*
X160176310Y-99724310D03*
X160945155Y-97868155D03*
%TD*%
D11*
%TO.C,D3-babyCrying1*%
X142240000Y-76200000D03*
D12*
X144780000Y-76200000D03*
%TD*%
D13*
%TO.C,S1-morseCodeDanger1*%
X94452900Y-51878600D03*
D14*
X100952900Y-51878600D03*
X94452900Y-56378600D03*
X100952900Y-56378600D03*
%TD*%
D10*
%TO.C,R1*%
X104140000Y-97045500D03*
X104140000Y-98870500D03*
%TD*%
D29*
%TO.C,C7*%
X100998750Y-99220750D03*
X96598750Y-99220750D03*
%TD*%
D20*
%TO.C,TP4*%
X107188000Y-97958000D03*
%TD*%
D27*
%TO.C,R7*%
X144375500Y-99822000D03*
X144375500Y-97997000D03*
%TD*%
D11*
%TO.C,D5-coldFood1*%
X142240000Y-83820000D03*
D12*
X144780000Y-83820000D03*
%TD*%
D20*
%TO.C,TP3*%
X97748750Y-86792750D03*
%TD*%
D27*
%TO.C,R5*%
X103886000Y-72540500D03*
X103886000Y-70715500D03*
%TD*%
D11*
%TO.C,D9-MUTE1*%
X79223500Y-61722000D03*
D12*
X81763500Y-61722000D03*
%TD*%
D13*
%TO.C,S3-muteFiveMin1*%
X94452900Y-68378600D03*
D14*
X100952900Y-68378600D03*
X94452900Y-72878600D03*
X100952900Y-72878600D03*
%TD*%
D11*
%TO.C,D4-ONOFF1*%
X79248000Y-54356000D03*
D12*
X81788000Y-54356000D03*
%TD*%
D17*
%TO.C,J4_LCD1*%
X158750000Y-64008000D03*
D18*
X158750000Y-66548000D03*
X158750000Y-69088000D03*
X158750000Y-71628000D03*
%TD*%
D30*
%TO.C,J1*%
X52200000Y-79636000D03*
D31*
X56600000Y-79636000D03*
D32*
X58100000Y-74136000D03*
X58100000Y-85136000D03*
X52100000Y-85136000D03*
D33*
X52100000Y-74136000D03*
%TD*%
D34*
%TO.C,C6*%
X97629250Y-95410750D03*
X95904250Y-95410750D03*
%TD*%
D27*
%TO.C,R6*%
X103886000Y-80869400D03*
X103886000Y-79044400D03*
%TD*%
D35*
%TO.C,C5*%
X92348250Y-95410750D03*
X94073250Y-95410750D03*
%TD*%
D11*
%TO.C,D7-SheildFailure1*%
X142240000Y-60960000D03*
D12*
X144780000Y-60960000D03*
%TD*%
D10*
%TO.C,R11*%
X138430000Y-83265000D03*
X138430000Y-85090000D03*
%TD*%
D36*
%TO.C,U1*%
X92184750Y-92687750D03*
D37*
X94724750Y-92687750D03*
X97264750Y-92687750D03*
%TD*%
D26*
%TO.C,R8*%
X74469000Y-59436000D03*
X72644000Y-59436000D03*
%TD*%
D28*
%TO.C,C8*%
X139803500Y-93422000D03*
X139803500Y-91697000D03*
%TD*%
D10*
%TO.C,R13*%
X138430000Y-60198000D03*
X138430000Y-62023000D03*
%TD*%
D13*
%TO.C,S4-SendEmergMessage1*%
X94452900Y-76628600D03*
D14*
X100952900Y-76628600D03*
X94452900Y-81128600D03*
X100952900Y-81128600D03*
%TD*%
D24*
%TO.C,C9*%
X143613500Y-95013500D03*
X143613500Y-90613500D03*
%TD*%
D17*
%TO.C,J3*%
X135382000Y-56642000D03*
D18*
X135382000Y-59182000D03*
X135382000Y-61722000D03*
X135382000Y-64262000D03*
X135382000Y-66802000D03*
X135382000Y-69342000D03*
X135382000Y-71882000D03*
X135382000Y-74422000D03*
X135382000Y-76962000D03*
X135382000Y-79502000D03*
X135382000Y-82042000D03*
X135382000Y-84582000D03*
X135382000Y-87122000D03*
X135382000Y-89662000D03*
X135382000Y-92202000D03*
%TD*%
D11*
%TO.C,D8-highBP1*%
X142478000Y-68580000D03*
D12*
X145018000Y-68580000D03*
%TD*%
D20*
%TO.C,TP1*%
X64516000Y-83820000D03*
%TD*%
D15*
%TO.C,H3*%
X155538845Y-54434155D03*
X156307690Y-52578000D03*
X156307690Y-56290310D03*
X158163845Y-51809155D03*
D16*
X158163845Y-54434155D03*
D15*
X158163845Y-57059155D03*
X160020000Y-52578000D03*
X160020000Y-56290310D03*
X160788845Y-54434155D03*
%TD*%
D38*
X50000000Y-50000000D02*
X163062000Y-50000000D01*
X163062000Y-102706000D01*
X50000000Y-102706000D01*
X50000000Y-50000000D01*
M02*
