%TF.GenerationSoftware,KiCad,Pcbnew,7.0.5*%
%TF.CreationDate,2024-05-19T08:19:49-04:00*%
%TF.ProjectId,homeWork2,686f6d65-576f-4726-9b32-2e6b69636164,V2*%
%TF.SameCoordinates,Original*%
%TF.FileFunction,Legend,Bot*%
%TF.FilePolarity,Positive*%
%FSLAX46Y46*%
G04 Gerber Fmt 4.6, Leading zero omitted, Abs format (unit mm)*
G04 Created by KiCad (PCBNEW 7.0.5) date 2024-05-19 08:19:49*
%MOMM*%
%LPD*%
G01*
G04 APERTURE LIST*
%ADD10C,0.100000*%
%TA.AperFunction,Profile*%
%ADD11C,0.100000*%
%TD*%
G04 APERTURE END LIST*
D10*
%TO.C,ESP1*%
X106826319Y-85396560D02*
X106826319Y-85587036D01*
X106826319Y-85587036D02*
X106873938Y-85682274D01*
X106873938Y-85682274D02*
X106969176Y-85777512D01*
X106969176Y-85777512D02*
X107159652Y-85825131D01*
X107159652Y-85825131D02*
X107492985Y-85825131D01*
X107492985Y-85825131D02*
X107683461Y-85777512D01*
X107683461Y-85777512D02*
X107778700Y-85682274D01*
X107778700Y-85682274D02*
X107826319Y-85587036D01*
X107826319Y-85587036D02*
X107826319Y-85396560D01*
X107826319Y-85396560D02*
X107778700Y-85301322D01*
X107778700Y-85301322D02*
X107683461Y-85206084D01*
X107683461Y-85206084D02*
X107492985Y-85158465D01*
X107492985Y-85158465D02*
X107159652Y-85158465D01*
X107159652Y-85158465D02*
X106969176Y-85206084D01*
X106969176Y-85206084D02*
X106873938Y-85301322D01*
X106873938Y-85301322D02*
X106826319Y-85396560D01*
X106826319Y-86158465D02*
X106826319Y-86777512D01*
X106826319Y-86777512D02*
X107207271Y-86444179D01*
X107207271Y-86444179D02*
X107207271Y-86587036D01*
X107207271Y-86587036D02*
X107254890Y-86682274D01*
X107254890Y-86682274D02*
X107302509Y-86729893D01*
X107302509Y-86729893D02*
X107397747Y-86777512D01*
X107397747Y-86777512D02*
X107635842Y-86777512D01*
X107635842Y-86777512D02*
X107731080Y-86729893D01*
X107731080Y-86729893D02*
X107778700Y-86682274D01*
X107778700Y-86682274D02*
X107826319Y-86587036D01*
X107826319Y-86587036D02*
X107826319Y-86301322D01*
X107826319Y-86301322D02*
X107778700Y-86206084D01*
X107778700Y-86206084D02*
X107731080Y-86158465D01*
X106921557Y-87158465D02*
X106873938Y-87206084D01*
X106873938Y-87206084D02*
X106826319Y-87301322D01*
X106826319Y-87301322D02*
X106826319Y-87539417D01*
X106826319Y-87539417D02*
X106873938Y-87634655D01*
X106873938Y-87634655D02*
X106921557Y-87682274D01*
X106921557Y-87682274D02*
X107016795Y-87729893D01*
X107016795Y-87729893D02*
X107112033Y-87729893D01*
X107112033Y-87729893D02*
X107254890Y-87682274D01*
X107254890Y-87682274D02*
X107826319Y-87110846D01*
X107826319Y-87110846D02*
X107826319Y-87729893D01*
X146875961Y-127965706D02*
X146923580Y-128060944D01*
X146923580Y-128060944D02*
X146923580Y-128203801D01*
X146923580Y-128203801D02*
X146875961Y-128346658D01*
X146875961Y-128346658D02*
X146780723Y-128441896D01*
X146780723Y-128441896D02*
X146685485Y-128489515D01*
X146685485Y-128489515D02*
X146495009Y-128537134D01*
X146495009Y-128537134D02*
X146352152Y-128537134D01*
X146352152Y-128537134D02*
X146161676Y-128489515D01*
X146161676Y-128489515D02*
X146066438Y-128441896D01*
X146066438Y-128441896D02*
X145971200Y-128346658D01*
X145971200Y-128346658D02*
X145923580Y-128203801D01*
X145923580Y-128203801D02*
X145923580Y-128108563D01*
X145923580Y-128108563D02*
X145971200Y-127965706D01*
X145971200Y-127965706D02*
X146018819Y-127918087D01*
X146018819Y-127918087D02*
X146352152Y-127918087D01*
X146352152Y-127918087D02*
X146352152Y-128108563D01*
X145923580Y-127489515D02*
X146923580Y-127489515D01*
X146923580Y-127489515D02*
X145923580Y-126918087D01*
X145923580Y-126918087D02*
X146923580Y-126918087D01*
X145923580Y-126441896D02*
X146923580Y-126441896D01*
X146923580Y-126441896D02*
X146923580Y-126203801D01*
X146923580Y-126203801D02*
X146875961Y-126060944D01*
X146875961Y-126060944D02*
X146780723Y-125965706D01*
X146780723Y-125965706D02*
X146685485Y-125918087D01*
X146685485Y-125918087D02*
X146495009Y-125870468D01*
X146495009Y-125870468D02*
X146352152Y-125870468D01*
X146352152Y-125870468D02*
X146161676Y-125918087D01*
X146161676Y-125918087D02*
X146066438Y-125965706D01*
X146066438Y-125965706D02*
X145971200Y-126060944D01*
X145971200Y-126060944D02*
X145923580Y-126203801D01*
X145923580Y-126203801D02*
X145923580Y-126441896D01*
X106873938Y-126369893D02*
X106826319Y-126274655D01*
X106826319Y-126274655D02*
X106826319Y-126131798D01*
X106826319Y-126131798D02*
X106873938Y-125988941D01*
X106873938Y-125988941D02*
X106969176Y-125893703D01*
X106969176Y-125893703D02*
X107064414Y-125846084D01*
X107064414Y-125846084D02*
X107254890Y-125798465D01*
X107254890Y-125798465D02*
X107397747Y-125798465D01*
X107397747Y-125798465D02*
X107588223Y-125846084D01*
X107588223Y-125846084D02*
X107683461Y-125893703D01*
X107683461Y-125893703D02*
X107778700Y-125988941D01*
X107778700Y-125988941D02*
X107826319Y-126131798D01*
X107826319Y-126131798D02*
X107826319Y-126227036D01*
X107826319Y-126227036D02*
X107778700Y-126369893D01*
X107778700Y-126369893D02*
X107731080Y-126417512D01*
X107731080Y-126417512D02*
X107397747Y-126417512D01*
X107397747Y-126417512D02*
X107397747Y-126227036D01*
X107826319Y-126846084D02*
X106826319Y-126846084D01*
X106826319Y-126846084D02*
X107826319Y-127417512D01*
X107826319Y-127417512D02*
X106826319Y-127417512D01*
X107826319Y-127893703D02*
X106826319Y-127893703D01*
X106826319Y-127893703D02*
X106826319Y-128131798D01*
X106826319Y-128131798D02*
X106873938Y-128274655D01*
X106873938Y-128274655D02*
X106969176Y-128369893D01*
X106969176Y-128369893D02*
X107064414Y-128417512D01*
X107064414Y-128417512D02*
X107254890Y-128465131D01*
X107254890Y-128465131D02*
X107397747Y-128465131D01*
X107397747Y-128465131D02*
X107588223Y-128417512D01*
X107588223Y-128417512D02*
X107683461Y-128369893D01*
X107683461Y-128369893D02*
X107778700Y-128274655D01*
X107778700Y-128274655D02*
X107826319Y-128131798D01*
X107826319Y-128131798D02*
X107826319Y-127893703D01*
X146673480Y-97285639D02*
X146673480Y-97190401D01*
X146673480Y-97190401D02*
X146625861Y-97095163D01*
X146625861Y-97095163D02*
X146578242Y-97047544D01*
X146578242Y-97047544D02*
X146483004Y-96999925D01*
X146483004Y-96999925D02*
X146292528Y-96952306D01*
X146292528Y-96952306D02*
X146054433Y-96952306D01*
X146054433Y-96952306D02*
X145863957Y-96999925D01*
X145863957Y-96999925D02*
X145768719Y-97047544D01*
X145768719Y-97047544D02*
X145721100Y-97095163D01*
X145721100Y-97095163D02*
X145673480Y-97190401D01*
X145673480Y-97190401D02*
X145673480Y-97285639D01*
X145673480Y-97285639D02*
X145721100Y-97380877D01*
X145721100Y-97380877D02*
X145768719Y-97428496D01*
X145768719Y-97428496D02*
X145863957Y-97476115D01*
X145863957Y-97476115D02*
X146054433Y-97523734D01*
X146054433Y-97523734D02*
X146292528Y-97523734D01*
X146292528Y-97523734D02*
X146483004Y-97476115D01*
X146483004Y-97476115D02*
X146578242Y-97428496D01*
X146578242Y-97428496D02*
X146625861Y-97380877D01*
X146625861Y-97380877D02*
X146673480Y-97285639D01*
X146673480Y-96047544D02*
X146673480Y-96523734D01*
X146673480Y-96523734D02*
X146197290Y-96571353D01*
X146197290Y-96571353D02*
X146244909Y-96523734D01*
X146244909Y-96523734D02*
X146292528Y-96428496D01*
X146292528Y-96428496D02*
X146292528Y-96190401D01*
X146292528Y-96190401D02*
X146244909Y-96095163D01*
X146244909Y-96095163D02*
X146197290Y-96047544D01*
X146197290Y-96047544D02*
X146102052Y-95999925D01*
X146102052Y-95999925D02*
X145863957Y-95999925D01*
X145863957Y-95999925D02*
X145768719Y-96047544D01*
X145768719Y-96047544D02*
X145721100Y-96095163D01*
X145721100Y-96095163D02*
X145673480Y-96190401D01*
X145673480Y-96190401D02*
X145673480Y-96428496D01*
X145673480Y-96428496D02*
X145721100Y-96523734D01*
X145721100Y-96523734D02*
X145768719Y-96571353D01*
X146673480Y-67440639D02*
X146673480Y-67250163D01*
X146673480Y-67250163D02*
X146625861Y-67154925D01*
X146625861Y-67154925D02*
X146530623Y-67059687D01*
X146530623Y-67059687D02*
X146340147Y-67012068D01*
X146340147Y-67012068D02*
X146006814Y-67012068D01*
X146006814Y-67012068D02*
X145816338Y-67059687D01*
X145816338Y-67059687D02*
X145721100Y-67154925D01*
X145721100Y-67154925D02*
X145673480Y-67250163D01*
X145673480Y-67250163D02*
X145673480Y-67440639D01*
X145673480Y-67440639D02*
X145721100Y-67535877D01*
X145721100Y-67535877D02*
X145816338Y-67631115D01*
X145816338Y-67631115D02*
X146006814Y-67678734D01*
X146006814Y-67678734D02*
X146340147Y-67678734D01*
X146340147Y-67678734D02*
X146530623Y-67631115D01*
X146530623Y-67631115D02*
X146625861Y-67535877D01*
X146625861Y-67535877D02*
X146673480Y-67440639D01*
X146578242Y-66631115D02*
X146625861Y-66583496D01*
X146625861Y-66583496D02*
X146673480Y-66488258D01*
X146673480Y-66488258D02*
X146673480Y-66250163D01*
X146673480Y-66250163D02*
X146625861Y-66154925D01*
X146625861Y-66154925D02*
X146578242Y-66107306D01*
X146578242Y-66107306D02*
X146483004Y-66059687D01*
X146483004Y-66059687D02*
X146387766Y-66059687D01*
X146387766Y-66059687D02*
X146244909Y-66107306D01*
X146244909Y-66107306D02*
X145673480Y-66678734D01*
X145673480Y-66678734D02*
X145673480Y-66059687D01*
X146578242Y-65678734D02*
X146625861Y-65631115D01*
X146625861Y-65631115D02*
X146673480Y-65535877D01*
X146673480Y-65535877D02*
X146673480Y-65297782D01*
X146673480Y-65297782D02*
X146625861Y-65202544D01*
X146625861Y-65202544D02*
X146578242Y-65154925D01*
X146578242Y-65154925D02*
X146483004Y-65107306D01*
X146483004Y-65107306D02*
X146387766Y-65107306D01*
X146387766Y-65107306D02*
X146244909Y-65154925D01*
X146244909Y-65154925D02*
X145673480Y-65726353D01*
X145673480Y-65726353D02*
X145673480Y-65107306D01*
X106826319Y-80316560D02*
X106826319Y-80507036D01*
X106826319Y-80507036D02*
X106873938Y-80602274D01*
X106873938Y-80602274D02*
X106969176Y-80697512D01*
X106969176Y-80697512D02*
X107159652Y-80745131D01*
X107159652Y-80745131D02*
X107492985Y-80745131D01*
X107492985Y-80745131D02*
X107683461Y-80697512D01*
X107683461Y-80697512D02*
X107778700Y-80602274D01*
X107778700Y-80602274D02*
X107826319Y-80507036D01*
X107826319Y-80507036D02*
X107826319Y-80316560D01*
X107826319Y-80316560D02*
X107778700Y-80221322D01*
X107778700Y-80221322D02*
X107683461Y-80126084D01*
X107683461Y-80126084D02*
X107492985Y-80078465D01*
X107492985Y-80078465D02*
X107159652Y-80078465D01*
X107159652Y-80078465D02*
X106969176Y-80126084D01*
X106969176Y-80126084D02*
X106873938Y-80221322D01*
X106873938Y-80221322D02*
X106826319Y-80316560D01*
X106826319Y-81078465D02*
X106826319Y-81697512D01*
X106826319Y-81697512D02*
X107207271Y-81364179D01*
X107207271Y-81364179D02*
X107207271Y-81507036D01*
X107207271Y-81507036D02*
X107254890Y-81602274D01*
X107254890Y-81602274D02*
X107302509Y-81649893D01*
X107302509Y-81649893D02*
X107397747Y-81697512D01*
X107397747Y-81697512D02*
X107635842Y-81697512D01*
X107635842Y-81697512D02*
X107731080Y-81649893D01*
X107731080Y-81649893D02*
X107778700Y-81602274D01*
X107778700Y-81602274D02*
X107826319Y-81507036D01*
X107826319Y-81507036D02*
X107826319Y-81221322D01*
X107826319Y-81221322D02*
X107778700Y-81126084D01*
X107778700Y-81126084D02*
X107731080Y-81078465D01*
X106826319Y-82602274D02*
X106826319Y-82126084D01*
X106826319Y-82126084D02*
X107302509Y-82078465D01*
X107302509Y-82078465D02*
X107254890Y-82126084D01*
X107254890Y-82126084D02*
X107207271Y-82221322D01*
X107207271Y-82221322D02*
X107207271Y-82459417D01*
X107207271Y-82459417D02*
X107254890Y-82554655D01*
X107254890Y-82554655D02*
X107302509Y-82602274D01*
X107302509Y-82602274D02*
X107397747Y-82649893D01*
X107397747Y-82649893D02*
X107635842Y-82649893D01*
X107635842Y-82649893D02*
X107731080Y-82602274D01*
X107731080Y-82602274D02*
X107778700Y-82554655D01*
X107778700Y-82554655D02*
X107826319Y-82459417D01*
X107826319Y-82459417D02*
X107826319Y-82221322D01*
X107826319Y-82221322D02*
X107778700Y-82126084D01*
X107778700Y-82126084D02*
X107731080Y-82078465D01*
X146673480Y-82680639D02*
X146673480Y-82585401D01*
X146673480Y-82585401D02*
X146625861Y-82490163D01*
X146625861Y-82490163D02*
X146578242Y-82442544D01*
X146578242Y-82442544D02*
X146483004Y-82394925D01*
X146483004Y-82394925D02*
X146292528Y-82347306D01*
X146292528Y-82347306D02*
X146054433Y-82347306D01*
X146054433Y-82347306D02*
X145863957Y-82394925D01*
X145863957Y-82394925D02*
X145768719Y-82442544D01*
X145768719Y-82442544D02*
X145721100Y-82490163D01*
X145721100Y-82490163D02*
X145673480Y-82585401D01*
X145673480Y-82585401D02*
X145673480Y-82680639D01*
X145673480Y-82680639D02*
X145721100Y-82775877D01*
X145721100Y-82775877D02*
X145768719Y-82823496D01*
X145768719Y-82823496D02*
X145863957Y-82871115D01*
X145863957Y-82871115D02*
X146054433Y-82918734D01*
X146054433Y-82918734D02*
X146292528Y-82918734D01*
X146292528Y-82918734D02*
X146483004Y-82871115D01*
X146483004Y-82871115D02*
X146578242Y-82823496D01*
X146578242Y-82823496D02*
X146625861Y-82775877D01*
X146625861Y-82775877D02*
X146673480Y-82680639D01*
X146578242Y-81966353D02*
X146625861Y-81918734D01*
X146625861Y-81918734D02*
X146673480Y-81823496D01*
X146673480Y-81823496D02*
X146673480Y-81585401D01*
X146673480Y-81585401D02*
X146625861Y-81490163D01*
X146625861Y-81490163D02*
X146578242Y-81442544D01*
X146578242Y-81442544D02*
X146483004Y-81394925D01*
X146483004Y-81394925D02*
X146387766Y-81394925D01*
X146387766Y-81394925D02*
X146244909Y-81442544D01*
X146244909Y-81442544D02*
X145673480Y-82013972D01*
X145673480Y-82013972D02*
X145673480Y-81394925D01*
X145673480Y-80442544D02*
X145673480Y-81013972D01*
X145673480Y-80728258D02*
X146673480Y-80728258D01*
X146673480Y-80728258D02*
X146530623Y-80823496D01*
X146530623Y-80823496D02*
X146435385Y-80918734D01*
X146435385Y-80918734D02*
X146387766Y-81013972D01*
X107826319Y-120766084D02*
X106826319Y-120766084D01*
X106826319Y-120766084D02*
X106826319Y-121004179D01*
X106826319Y-121004179D02*
X106873938Y-121147036D01*
X106873938Y-121147036D02*
X106969176Y-121242274D01*
X106969176Y-121242274D02*
X107064414Y-121289893D01*
X107064414Y-121289893D02*
X107254890Y-121337512D01*
X107254890Y-121337512D02*
X107397747Y-121337512D01*
X107397747Y-121337512D02*
X107588223Y-121289893D01*
X107588223Y-121289893D02*
X107683461Y-121242274D01*
X107683461Y-121242274D02*
X107778700Y-121147036D01*
X107778700Y-121147036D02*
X107826319Y-121004179D01*
X107826319Y-121004179D02*
X107826319Y-120766084D01*
X107826319Y-122289893D02*
X107826319Y-121718465D01*
X107826319Y-122004179D02*
X106826319Y-122004179D01*
X106826319Y-122004179D02*
X106969176Y-121908941D01*
X106969176Y-121908941D02*
X107064414Y-121813703D01*
X107064414Y-121813703D02*
X107112033Y-121718465D01*
X106826319Y-122623227D02*
X106826319Y-123242274D01*
X106826319Y-123242274D02*
X107207271Y-122908941D01*
X107207271Y-122908941D02*
X107207271Y-123051798D01*
X107207271Y-123051798D02*
X107254890Y-123147036D01*
X107254890Y-123147036D02*
X107302509Y-123194655D01*
X107302509Y-123194655D02*
X107397747Y-123242274D01*
X107397747Y-123242274D02*
X107635842Y-123242274D01*
X107635842Y-123242274D02*
X107731080Y-123194655D01*
X107731080Y-123194655D02*
X107778700Y-123147036D01*
X107778700Y-123147036D02*
X107826319Y-123051798D01*
X107826319Y-123051798D02*
X107826319Y-122766084D01*
X107826319Y-122766084D02*
X107778700Y-122670846D01*
X107778700Y-122670846D02*
X107731080Y-122623227D01*
X106826319Y-110796560D02*
X106826319Y-110987036D01*
X106826319Y-110987036D02*
X106873938Y-111082274D01*
X106873938Y-111082274D02*
X106969176Y-111177512D01*
X106969176Y-111177512D02*
X107159652Y-111225131D01*
X107159652Y-111225131D02*
X107492985Y-111225131D01*
X107492985Y-111225131D02*
X107683461Y-111177512D01*
X107683461Y-111177512D02*
X107778700Y-111082274D01*
X107778700Y-111082274D02*
X107826319Y-110987036D01*
X107826319Y-110987036D02*
X107826319Y-110796560D01*
X107826319Y-110796560D02*
X107778700Y-110701322D01*
X107778700Y-110701322D02*
X107683461Y-110606084D01*
X107683461Y-110606084D02*
X107492985Y-110558465D01*
X107492985Y-110558465D02*
X107159652Y-110558465D01*
X107159652Y-110558465D02*
X106969176Y-110606084D01*
X106969176Y-110606084D02*
X106873938Y-110701322D01*
X106873938Y-110701322D02*
X106826319Y-110796560D01*
X107826319Y-112177512D02*
X107826319Y-111606084D01*
X107826319Y-111891798D02*
X106826319Y-111891798D01*
X106826319Y-111891798D02*
X106969176Y-111796560D01*
X106969176Y-111796560D02*
X107064414Y-111701322D01*
X107064414Y-111701322D02*
X107112033Y-111606084D01*
X107159652Y-113034655D02*
X107826319Y-113034655D01*
X106778700Y-112796560D02*
X107492985Y-112558465D01*
X107492985Y-112558465D02*
X107492985Y-113177512D01*
X146673480Y-103333972D02*
X146673480Y-102762544D01*
X145673480Y-103048258D02*
X146673480Y-103048258D01*
X146673480Y-102524448D02*
X145673480Y-101857782D01*
X146673480Y-101857782D02*
X145673480Y-102524448D01*
X146578242Y-101524448D02*
X146625861Y-101476829D01*
X146625861Y-101476829D02*
X146673480Y-101381591D01*
X146673480Y-101381591D02*
X146673480Y-101143496D01*
X146673480Y-101143496D02*
X146625861Y-101048258D01*
X146625861Y-101048258D02*
X146578242Y-101000639D01*
X146578242Y-101000639D02*
X146483004Y-100953020D01*
X146483004Y-100953020D02*
X146387766Y-100953020D01*
X146387766Y-100953020D02*
X146244909Y-101000639D01*
X146244909Y-101000639D02*
X145673480Y-101572067D01*
X145673480Y-101572067D02*
X145673480Y-100953020D01*
X146673480Y-92840639D02*
X146673480Y-92650163D01*
X146673480Y-92650163D02*
X146625861Y-92554925D01*
X146625861Y-92554925D02*
X146530623Y-92459687D01*
X146530623Y-92459687D02*
X146340147Y-92412068D01*
X146340147Y-92412068D02*
X146006814Y-92412068D01*
X146006814Y-92412068D02*
X145816338Y-92459687D01*
X145816338Y-92459687D02*
X145721100Y-92554925D01*
X145721100Y-92554925D02*
X145673480Y-92650163D01*
X145673480Y-92650163D02*
X145673480Y-92840639D01*
X145673480Y-92840639D02*
X145721100Y-92935877D01*
X145721100Y-92935877D02*
X145816338Y-93031115D01*
X145816338Y-93031115D02*
X146006814Y-93078734D01*
X146006814Y-93078734D02*
X146340147Y-93078734D01*
X146340147Y-93078734D02*
X146530623Y-93031115D01*
X146530623Y-93031115D02*
X146625861Y-92935877D01*
X146625861Y-92935877D02*
X146673480Y-92840639D01*
X145673480Y-91459687D02*
X145673480Y-92031115D01*
X145673480Y-91745401D02*
X146673480Y-91745401D01*
X146673480Y-91745401D02*
X146530623Y-91840639D01*
X146530623Y-91840639D02*
X146435385Y-91935877D01*
X146435385Y-91935877D02*
X146387766Y-92031115D01*
X146244909Y-90888258D02*
X146292528Y-90983496D01*
X146292528Y-90983496D02*
X146340147Y-91031115D01*
X146340147Y-91031115D02*
X146435385Y-91078734D01*
X146435385Y-91078734D02*
X146483004Y-91078734D01*
X146483004Y-91078734D02*
X146578242Y-91031115D01*
X146578242Y-91031115D02*
X146625861Y-90983496D01*
X146625861Y-90983496D02*
X146673480Y-90888258D01*
X146673480Y-90888258D02*
X146673480Y-90697782D01*
X146673480Y-90697782D02*
X146625861Y-90602544D01*
X146625861Y-90602544D02*
X146578242Y-90554925D01*
X146578242Y-90554925D02*
X146483004Y-90507306D01*
X146483004Y-90507306D02*
X146435385Y-90507306D01*
X146435385Y-90507306D02*
X146340147Y-90554925D01*
X146340147Y-90554925D02*
X146292528Y-90602544D01*
X146292528Y-90602544D02*
X146244909Y-90697782D01*
X146244909Y-90697782D02*
X146244909Y-90888258D01*
X146244909Y-90888258D02*
X146197290Y-90983496D01*
X146197290Y-90983496D02*
X146149671Y-91031115D01*
X146149671Y-91031115D02*
X146054433Y-91078734D01*
X146054433Y-91078734D02*
X145863957Y-91078734D01*
X145863957Y-91078734D02*
X145768719Y-91031115D01*
X145768719Y-91031115D02*
X145721100Y-90983496D01*
X145721100Y-90983496D02*
X145673480Y-90888258D01*
X145673480Y-90888258D02*
X145673480Y-90697782D01*
X145673480Y-90697782D02*
X145721100Y-90602544D01*
X145721100Y-90602544D02*
X145768719Y-90554925D01*
X145768719Y-90554925D02*
X145863957Y-90507306D01*
X145863957Y-90507306D02*
X146054433Y-90507306D01*
X146054433Y-90507306D02*
X146149671Y-90554925D01*
X146149671Y-90554925D02*
X146197290Y-90602544D01*
X146197290Y-90602544D02*
X146244909Y-90697782D01*
X146673480Y-87760639D02*
X146673480Y-87570163D01*
X146673480Y-87570163D02*
X146625861Y-87474925D01*
X146625861Y-87474925D02*
X146530623Y-87379687D01*
X146530623Y-87379687D02*
X146340147Y-87332068D01*
X146340147Y-87332068D02*
X146006814Y-87332068D01*
X146006814Y-87332068D02*
X145816338Y-87379687D01*
X145816338Y-87379687D02*
X145721100Y-87474925D01*
X145721100Y-87474925D02*
X145673480Y-87570163D01*
X145673480Y-87570163D02*
X145673480Y-87760639D01*
X145673480Y-87760639D02*
X145721100Y-87855877D01*
X145721100Y-87855877D02*
X145816338Y-87951115D01*
X145816338Y-87951115D02*
X146006814Y-87998734D01*
X146006814Y-87998734D02*
X146340147Y-87998734D01*
X146340147Y-87998734D02*
X146530623Y-87951115D01*
X146530623Y-87951115D02*
X146625861Y-87855877D01*
X146625861Y-87855877D02*
X146673480Y-87760639D01*
X145673480Y-86379687D02*
X145673480Y-86951115D01*
X145673480Y-86665401D02*
X146673480Y-86665401D01*
X146673480Y-86665401D02*
X146530623Y-86760639D01*
X146530623Y-86760639D02*
X146435385Y-86855877D01*
X146435385Y-86855877D02*
X146387766Y-86951115D01*
X145673480Y-85903496D02*
X145673480Y-85713020D01*
X145673480Y-85713020D02*
X145721100Y-85617782D01*
X145721100Y-85617782D02*
X145768719Y-85570163D01*
X145768719Y-85570163D02*
X145911576Y-85474925D01*
X145911576Y-85474925D02*
X146102052Y-85427306D01*
X146102052Y-85427306D02*
X146483004Y-85427306D01*
X146483004Y-85427306D02*
X146578242Y-85474925D01*
X146578242Y-85474925D02*
X146625861Y-85522544D01*
X146625861Y-85522544D02*
X146673480Y-85617782D01*
X146673480Y-85617782D02*
X146673480Y-85808258D01*
X146673480Y-85808258D02*
X146625861Y-85903496D01*
X146625861Y-85903496D02*
X146578242Y-85951115D01*
X146578242Y-85951115D02*
X146483004Y-85998734D01*
X146483004Y-85998734D02*
X146244909Y-85998734D01*
X146244909Y-85998734D02*
X146149671Y-85951115D01*
X146149671Y-85951115D02*
X146102052Y-85903496D01*
X146102052Y-85903496D02*
X146054433Y-85808258D01*
X146054433Y-85808258D02*
X146054433Y-85617782D01*
X146054433Y-85617782D02*
X146102052Y-85522544D01*
X146102052Y-85522544D02*
X146149671Y-85474925D01*
X146149671Y-85474925D02*
X146244909Y-85427306D01*
X106826319Y-115876560D02*
X106826319Y-116067036D01*
X106826319Y-116067036D02*
X106873938Y-116162274D01*
X106873938Y-116162274D02*
X106969176Y-116257512D01*
X106969176Y-116257512D02*
X107159652Y-116305131D01*
X107159652Y-116305131D02*
X107492985Y-116305131D01*
X107492985Y-116305131D02*
X107683461Y-116257512D01*
X107683461Y-116257512D02*
X107778700Y-116162274D01*
X107778700Y-116162274D02*
X107826319Y-116067036D01*
X107826319Y-116067036D02*
X107826319Y-115876560D01*
X107826319Y-115876560D02*
X107778700Y-115781322D01*
X107778700Y-115781322D02*
X107683461Y-115686084D01*
X107683461Y-115686084D02*
X107492985Y-115638465D01*
X107492985Y-115638465D02*
X107159652Y-115638465D01*
X107159652Y-115638465D02*
X106969176Y-115686084D01*
X106969176Y-115686084D02*
X106873938Y-115781322D01*
X106873938Y-115781322D02*
X106826319Y-115876560D01*
X107826319Y-117257512D02*
X107826319Y-116686084D01*
X107826319Y-116971798D02*
X106826319Y-116971798D01*
X106826319Y-116971798D02*
X106969176Y-116876560D01*
X106969176Y-116876560D02*
X107064414Y-116781322D01*
X107064414Y-116781322D02*
X107112033Y-116686084D01*
X106921557Y-117638465D02*
X106873938Y-117686084D01*
X106873938Y-117686084D02*
X106826319Y-117781322D01*
X106826319Y-117781322D02*
X106826319Y-118019417D01*
X106826319Y-118019417D02*
X106873938Y-118114655D01*
X106873938Y-118114655D02*
X106921557Y-118162274D01*
X106921557Y-118162274D02*
X107016795Y-118209893D01*
X107016795Y-118209893D02*
X107112033Y-118209893D01*
X107112033Y-118209893D02*
X107254890Y-118162274D01*
X107254890Y-118162274D02*
X107826319Y-117590846D01*
X107826319Y-117590846D02*
X107826319Y-118209893D01*
X106826319Y-75236560D02*
X106826319Y-75427036D01*
X106826319Y-75427036D02*
X106873938Y-75522274D01*
X106873938Y-75522274D02*
X106969176Y-75617512D01*
X106969176Y-75617512D02*
X107159652Y-75665131D01*
X107159652Y-75665131D02*
X107492985Y-75665131D01*
X107492985Y-75665131D02*
X107683461Y-75617512D01*
X107683461Y-75617512D02*
X107778700Y-75522274D01*
X107778700Y-75522274D02*
X107826319Y-75427036D01*
X107826319Y-75427036D02*
X107826319Y-75236560D01*
X107826319Y-75236560D02*
X107778700Y-75141322D01*
X107778700Y-75141322D02*
X107683461Y-75046084D01*
X107683461Y-75046084D02*
X107492985Y-74998465D01*
X107492985Y-74998465D02*
X107159652Y-74998465D01*
X107159652Y-74998465D02*
X106969176Y-75046084D01*
X106969176Y-75046084D02*
X106873938Y-75141322D01*
X106873938Y-75141322D02*
X106826319Y-75236560D01*
X106826319Y-75998465D02*
X106826319Y-76617512D01*
X106826319Y-76617512D02*
X107207271Y-76284179D01*
X107207271Y-76284179D02*
X107207271Y-76427036D01*
X107207271Y-76427036D02*
X107254890Y-76522274D01*
X107254890Y-76522274D02*
X107302509Y-76569893D01*
X107302509Y-76569893D02*
X107397747Y-76617512D01*
X107397747Y-76617512D02*
X107635842Y-76617512D01*
X107635842Y-76617512D02*
X107731080Y-76569893D01*
X107731080Y-76569893D02*
X107778700Y-76522274D01*
X107778700Y-76522274D02*
X107826319Y-76427036D01*
X107826319Y-76427036D02*
X107826319Y-76141322D01*
X107826319Y-76141322D02*
X107778700Y-76046084D01*
X107778700Y-76046084D02*
X107731080Y-75998465D01*
X107159652Y-77474655D02*
X107826319Y-77474655D01*
X106778700Y-77236560D02*
X107492985Y-76998465D01*
X107492985Y-76998465D02*
X107492985Y-77617512D01*
X106826319Y-100636560D02*
X106826319Y-100827036D01*
X106826319Y-100827036D02*
X106873938Y-100922274D01*
X106873938Y-100922274D02*
X106969176Y-101017512D01*
X106969176Y-101017512D02*
X107159652Y-101065131D01*
X107159652Y-101065131D02*
X107492985Y-101065131D01*
X107492985Y-101065131D02*
X107683461Y-101017512D01*
X107683461Y-101017512D02*
X107778700Y-100922274D01*
X107778700Y-100922274D02*
X107826319Y-100827036D01*
X107826319Y-100827036D02*
X107826319Y-100636560D01*
X107826319Y-100636560D02*
X107778700Y-100541322D01*
X107778700Y-100541322D02*
X107683461Y-100446084D01*
X107683461Y-100446084D02*
X107492985Y-100398465D01*
X107492985Y-100398465D02*
X107159652Y-100398465D01*
X107159652Y-100398465D02*
X106969176Y-100446084D01*
X106969176Y-100446084D02*
X106873938Y-100541322D01*
X106873938Y-100541322D02*
X106826319Y-100636560D01*
X106921557Y-101446084D02*
X106873938Y-101493703D01*
X106873938Y-101493703D02*
X106826319Y-101588941D01*
X106826319Y-101588941D02*
X106826319Y-101827036D01*
X106826319Y-101827036D02*
X106873938Y-101922274D01*
X106873938Y-101922274D02*
X106921557Y-101969893D01*
X106921557Y-101969893D02*
X107016795Y-102017512D01*
X107016795Y-102017512D02*
X107112033Y-102017512D01*
X107112033Y-102017512D02*
X107254890Y-101969893D01*
X107254890Y-101969893D02*
X107826319Y-101398465D01*
X107826319Y-101398465D02*
X107826319Y-102017512D01*
X106826319Y-102874655D02*
X106826319Y-102684179D01*
X106826319Y-102684179D02*
X106873938Y-102588941D01*
X106873938Y-102588941D02*
X106921557Y-102541322D01*
X106921557Y-102541322D02*
X107064414Y-102446084D01*
X107064414Y-102446084D02*
X107254890Y-102398465D01*
X107254890Y-102398465D02*
X107635842Y-102398465D01*
X107635842Y-102398465D02*
X107731080Y-102446084D01*
X107731080Y-102446084D02*
X107778700Y-102493703D01*
X107778700Y-102493703D02*
X107826319Y-102588941D01*
X107826319Y-102588941D02*
X107826319Y-102779417D01*
X107826319Y-102779417D02*
X107778700Y-102874655D01*
X107778700Y-102874655D02*
X107731080Y-102922274D01*
X107731080Y-102922274D02*
X107635842Y-102969893D01*
X107635842Y-102969893D02*
X107397747Y-102969893D01*
X107397747Y-102969893D02*
X107302509Y-102922274D01*
X107302509Y-102922274D02*
X107254890Y-102874655D01*
X107254890Y-102874655D02*
X107207271Y-102779417D01*
X107207271Y-102779417D02*
X107207271Y-102588941D01*
X107207271Y-102588941D02*
X107254890Y-102493703D01*
X107254890Y-102493703D02*
X107302509Y-102446084D01*
X107302509Y-102446084D02*
X107397747Y-102398465D01*
X106826319Y-90476560D02*
X106826319Y-90667036D01*
X106826319Y-90667036D02*
X106873938Y-90762274D01*
X106873938Y-90762274D02*
X106969176Y-90857512D01*
X106969176Y-90857512D02*
X107159652Y-90905131D01*
X107159652Y-90905131D02*
X107492985Y-90905131D01*
X107492985Y-90905131D02*
X107683461Y-90857512D01*
X107683461Y-90857512D02*
X107778700Y-90762274D01*
X107778700Y-90762274D02*
X107826319Y-90667036D01*
X107826319Y-90667036D02*
X107826319Y-90476560D01*
X107826319Y-90476560D02*
X107778700Y-90381322D01*
X107778700Y-90381322D02*
X107683461Y-90286084D01*
X107683461Y-90286084D02*
X107492985Y-90238465D01*
X107492985Y-90238465D02*
X107159652Y-90238465D01*
X107159652Y-90238465D02*
X106969176Y-90286084D01*
X106969176Y-90286084D02*
X106873938Y-90381322D01*
X106873938Y-90381322D02*
X106826319Y-90476560D01*
X106826319Y-91238465D02*
X106826319Y-91857512D01*
X106826319Y-91857512D02*
X107207271Y-91524179D01*
X107207271Y-91524179D02*
X107207271Y-91667036D01*
X107207271Y-91667036D02*
X107254890Y-91762274D01*
X107254890Y-91762274D02*
X107302509Y-91809893D01*
X107302509Y-91809893D02*
X107397747Y-91857512D01*
X107397747Y-91857512D02*
X107635842Y-91857512D01*
X107635842Y-91857512D02*
X107731080Y-91809893D01*
X107731080Y-91809893D02*
X107778700Y-91762274D01*
X107778700Y-91762274D02*
X107826319Y-91667036D01*
X107826319Y-91667036D02*
X107826319Y-91381322D01*
X107826319Y-91381322D02*
X107778700Y-91286084D01*
X107778700Y-91286084D02*
X107731080Y-91238465D01*
X106826319Y-92190846D02*
X106826319Y-92809893D01*
X106826319Y-92809893D02*
X107207271Y-92476560D01*
X107207271Y-92476560D02*
X107207271Y-92619417D01*
X107207271Y-92619417D02*
X107254890Y-92714655D01*
X107254890Y-92714655D02*
X107302509Y-92762274D01*
X107302509Y-92762274D02*
X107397747Y-92809893D01*
X107397747Y-92809893D02*
X107635842Y-92809893D01*
X107635842Y-92809893D02*
X107731080Y-92762274D01*
X107731080Y-92762274D02*
X107778700Y-92714655D01*
X107778700Y-92714655D02*
X107826319Y-92619417D01*
X107826319Y-92619417D02*
X107826319Y-92333703D01*
X107826319Y-92333703D02*
X107778700Y-92238465D01*
X107778700Y-92238465D02*
X107731080Y-92190846D01*
X106826319Y-70458227D02*
X107826319Y-70791560D01*
X107826319Y-70791560D02*
X106826319Y-71124893D01*
X107826319Y-71458227D02*
X106826319Y-71458227D01*
X106826319Y-71458227D02*
X107826319Y-72029655D01*
X107826319Y-72029655D02*
X106826319Y-72029655D01*
X145673480Y-77854687D02*
X146149671Y-78188020D01*
X145673480Y-78426115D02*
X146673480Y-78426115D01*
X146673480Y-78426115D02*
X146673480Y-78045163D01*
X146673480Y-78045163D02*
X146625861Y-77949925D01*
X146625861Y-77949925D02*
X146578242Y-77902306D01*
X146578242Y-77902306D02*
X146483004Y-77854687D01*
X146483004Y-77854687D02*
X146340147Y-77854687D01*
X146340147Y-77854687D02*
X146244909Y-77902306D01*
X146244909Y-77902306D02*
X146197290Y-77949925D01*
X146197290Y-77949925D02*
X146149671Y-78045163D01*
X146149671Y-78045163D02*
X146149671Y-78426115D01*
X146673480Y-77521353D02*
X145673480Y-76854687D01*
X146673480Y-76854687D02*
X145673480Y-77521353D01*
X146673480Y-76283258D02*
X146673480Y-76092782D01*
X146673480Y-76092782D02*
X146625861Y-75997544D01*
X146625861Y-75997544D02*
X146530623Y-75902306D01*
X146530623Y-75902306D02*
X146340147Y-75854687D01*
X146340147Y-75854687D02*
X146006814Y-75854687D01*
X146006814Y-75854687D02*
X145816338Y-75902306D01*
X145816338Y-75902306D02*
X145721100Y-75997544D01*
X145721100Y-75997544D02*
X145673480Y-76092782D01*
X145673480Y-76092782D02*
X145673480Y-76283258D01*
X145673480Y-76283258D02*
X145721100Y-76378496D01*
X145721100Y-76378496D02*
X145816338Y-76473734D01*
X145816338Y-76473734D02*
X146006814Y-76521353D01*
X146006814Y-76521353D02*
X146340147Y-76521353D01*
X146340147Y-76521353D02*
X146530623Y-76473734D01*
X146530623Y-76473734D02*
X146625861Y-76378496D01*
X146625861Y-76378496D02*
X146673480Y-76283258D01*
X146923580Y-133563153D02*
X146923580Y-132944106D01*
X146923580Y-132944106D02*
X146542628Y-133277439D01*
X146542628Y-133277439D02*
X146542628Y-133134582D01*
X146542628Y-133134582D02*
X146495009Y-133039344D01*
X146495009Y-133039344D02*
X146447390Y-132991725D01*
X146447390Y-132991725D02*
X146352152Y-132944106D01*
X146352152Y-132944106D02*
X146114057Y-132944106D01*
X146114057Y-132944106D02*
X146018819Y-132991725D01*
X146018819Y-132991725D02*
X145971200Y-133039344D01*
X145971200Y-133039344D02*
X145923580Y-133134582D01*
X145923580Y-133134582D02*
X145923580Y-133420296D01*
X145923580Y-133420296D02*
X145971200Y-133515534D01*
X145971200Y-133515534D02*
X146018819Y-133563153D01*
X146923580Y-132658391D02*
X145923580Y-132325058D01*
X145923580Y-132325058D02*
X146923580Y-131991725D01*
X146923580Y-131753629D02*
X146923580Y-131134582D01*
X146923580Y-131134582D02*
X146542628Y-131467915D01*
X146542628Y-131467915D02*
X146542628Y-131325058D01*
X146542628Y-131325058D02*
X146495009Y-131229820D01*
X146495009Y-131229820D02*
X146447390Y-131182201D01*
X146447390Y-131182201D02*
X146352152Y-131134582D01*
X146352152Y-131134582D02*
X146114057Y-131134582D01*
X146114057Y-131134582D02*
X146018819Y-131182201D01*
X146018819Y-131182201D02*
X145971200Y-131229820D01*
X145971200Y-131229820D02*
X145923580Y-131325058D01*
X145923580Y-131325058D02*
X145923580Y-131610772D01*
X145923580Y-131610772D02*
X145971200Y-131706010D01*
X145971200Y-131706010D02*
X146018819Y-131753629D01*
X146673480Y-72853972D02*
X146673480Y-72282544D01*
X145673480Y-72568258D02*
X146673480Y-72568258D01*
X146673480Y-72044448D02*
X145673480Y-71377782D01*
X146673480Y-71377782D02*
X145673480Y-72044448D01*
X146673480Y-70806353D02*
X146673480Y-70615877D01*
X146673480Y-70615877D02*
X146625861Y-70520639D01*
X146625861Y-70520639D02*
X146530623Y-70425401D01*
X146530623Y-70425401D02*
X146340147Y-70377782D01*
X146340147Y-70377782D02*
X146006814Y-70377782D01*
X146006814Y-70377782D02*
X145816338Y-70425401D01*
X145816338Y-70425401D02*
X145721100Y-70520639D01*
X145721100Y-70520639D02*
X145673480Y-70615877D01*
X145673480Y-70615877D02*
X145673480Y-70806353D01*
X145673480Y-70806353D02*
X145721100Y-70901591D01*
X145721100Y-70901591D02*
X145816338Y-70996829D01*
X145816338Y-70996829D02*
X146006814Y-71044448D01*
X146006814Y-71044448D02*
X146340147Y-71044448D01*
X146340147Y-71044448D02*
X146530623Y-70996829D01*
X146530623Y-70996829D02*
X146625861Y-70901591D01*
X146625861Y-70901591D02*
X146673480Y-70806353D01*
X146923580Y-123320639D02*
X146923580Y-123130163D01*
X146923580Y-123130163D02*
X146875961Y-123034925D01*
X146875961Y-123034925D02*
X146780723Y-122939687D01*
X146780723Y-122939687D02*
X146590247Y-122892068D01*
X146590247Y-122892068D02*
X146256914Y-122892068D01*
X146256914Y-122892068D02*
X146066438Y-122939687D01*
X146066438Y-122939687D02*
X145971200Y-123034925D01*
X145971200Y-123034925D02*
X145923580Y-123130163D01*
X145923580Y-123130163D02*
X145923580Y-123320639D01*
X145923580Y-123320639D02*
X145971200Y-123415877D01*
X145971200Y-123415877D02*
X146066438Y-123511115D01*
X146066438Y-123511115D02*
X146256914Y-123558734D01*
X146256914Y-123558734D02*
X146590247Y-123558734D01*
X146590247Y-123558734D02*
X146780723Y-123511115D01*
X146780723Y-123511115D02*
X146875961Y-123415877D01*
X146875961Y-123415877D02*
X146923580Y-123320639D01*
X145923580Y-121939687D02*
X145923580Y-122511115D01*
X145923580Y-122225401D02*
X146923580Y-122225401D01*
X146923580Y-122225401D02*
X146780723Y-122320639D01*
X146780723Y-122320639D02*
X146685485Y-122415877D01*
X146685485Y-122415877D02*
X146637866Y-122511115D01*
X146923580Y-121034925D02*
X146923580Y-121511115D01*
X146923580Y-121511115D02*
X146447390Y-121558734D01*
X146447390Y-121558734D02*
X146495009Y-121511115D01*
X146495009Y-121511115D02*
X146542628Y-121415877D01*
X146542628Y-121415877D02*
X146542628Y-121177782D01*
X146542628Y-121177782D02*
X146495009Y-121082544D01*
X146495009Y-121082544D02*
X146447390Y-121034925D01*
X146447390Y-121034925D02*
X146352152Y-120987306D01*
X146352152Y-120987306D02*
X146114057Y-120987306D01*
X146114057Y-120987306D02*
X146018819Y-121034925D01*
X146018819Y-121034925D02*
X145971200Y-121082544D01*
X145971200Y-121082544D02*
X145923580Y-121177782D01*
X145923580Y-121177782D02*
X145923580Y-121415877D01*
X145923580Y-121415877D02*
X145971200Y-121511115D01*
X145971200Y-121511115D02*
X146018819Y-121558734D01*
X106826319Y-105716560D02*
X106826319Y-105907036D01*
X106826319Y-105907036D02*
X106873938Y-106002274D01*
X106873938Y-106002274D02*
X106969176Y-106097512D01*
X106969176Y-106097512D02*
X107159652Y-106145131D01*
X107159652Y-106145131D02*
X107492985Y-106145131D01*
X107492985Y-106145131D02*
X107683461Y-106097512D01*
X107683461Y-106097512D02*
X107778700Y-106002274D01*
X107778700Y-106002274D02*
X107826319Y-105907036D01*
X107826319Y-105907036D02*
X107826319Y-105716560D01*
X107826319Y-105716560D02*
X107778700Y-105621322D01*
X107778700Y-105621322D02*
X107683461Y-105526084D01*
X107683461Y-105526084D02*
X107492985Y-105478465D01*
X107492985Y-105478465D02*
X107159652Y-105478465D01*
X107159652Y-105478465D02*
X106969176Y-105526084D01*
X106969176Y-105526084D02*
X106873938Y-105621322D01*
X106873938Y-105621322D02*
X106826319Y-105716560D01*
X106921557Y-106526084D02*
X106873938Y-106573703D01*
X106873938Y-106573703D02*
X106826319Y-106668941D01*
X106826319Y-106668941D02*
X106826319Y-106907036D01*
X106826319Y-106907036D02*
X106873938Y-107002274D01*
X106873938Y-107002274D02*
X106921557Y-107049893D01*
X106921557Y-107049893D02*
X107016795Y-107097512D01*
X107016795Y-107097512D02*
X107112033Y-107097512D01*
X107112033Y-107097512D02*
X107254890Y-107049893D01*
X107254890Y-107049893D02*
X107826319Y-106478465D01*
X107826319Y-106478465D02*
X107826319Y-107097512D01*
X106826319Y-107430846D02*
X106826319Y-108097512D01*
X106826319Y-108097512D02*
X107826319Y-107668941D01*
X146673480Y-62360639D02*
X146673480Y-62170163D01*
X146673480Y-62170163D02*
X146625861Y-62074925D01*
X146625861Y-62074925D02*
X146530623Y-61979687D01*
X146530623Y-61979687D02*
X146340147Y-61932068D01*
X146340147Y-61932068D02*
X146006814Y-61932068D01*
X146006814Y-61932068D02*
X145816338Y-61979687D01*
X145816338Y-61979687D02*
X145721100Y-62074925D01*
X145721100Y-62074925D02*
X145673480Y-62170163D01*
X145673480Y-62170163D02*
X145673480Y-62360639D01*
X145673480Y-62360639D02*
X145721100Y-62455877D01*
X145721100Y-62455877D02*
X145816338Y-62551115D01*
X145816338Y-62551115D02*
X146006814Y-62598734D01*
X146006814Y-62598734D02*
X146340147Y-62598734D01*
X146340147Y-62598734D02*
X146530623Y-62551115D01*
X146530623Y-62551115D02*
X146625861Y-62455877D01*
X146625861Y-62455877D02*
X146673480Y-62360639D01*
X146578242Y-61551115D02*
X146625861Y-61503496D01*
X146625861Y-61503496D02*
X146673480Y-61408258D01*
X146673480Y-61408258D02*
X146673480Y-61170163D01*
X146673480Y-61170163D02*
X146625861Y-61074925D01*
X146625861Y-61074925D02*
X146578242Y-61027306D01*
X146578242Y-61027306D02*
X146483004Y-60979687D01*
X146483004Y-60979687D02*
X146387766Y-60979687D01*
X146387766Y-60979687D02*
X146244909Y-61027306D01*
X146244909Y-61027306D02*
X145673480Y-61598734D01*
X145673480Y-61598734D02*
X145673480Y-60979687D01*
X146673480Y-60646353D02*
X146673480Y-60027306D01*
X146673480Y-60027306D02*
X146292528Y-60360639D01*
X146292528Y-60360639D02*
X146292528Y-60217782D01*
X146292528Y-60217782D02*
X146244909Y-60122544D01*
X146244909Y-60122544D02*
X146197290Y-60074925D01*
X146197290Y-60074925D02*
X146102052Y-60027306D01*
X146102052Y-60027306D02*
X145863957Y-60027306D01*
X145863957Y-60027306D02*
X145768719Y-60074925D01*
X145768719Y-60074925D02*
X145721100Y-60122544D01*
X145721100Y-60122544D02*
X145673480Y-60217782D01*
X145673480Y-60217782D02*
X145673480Y-60503496D01*
X145673480Y-60503496D02*
X145721100Y-60598734D01*
X145721100Y-60598734D02*
X145768719Y-60646353D01*
X106826319Y-95556560D02*
X106826319Y-95747036D01*
X106826319Y-95747036D02*
X106873938Y-95842274D01*
X106873938Y-95842274D02*
X106969176Y-95937512D01*
X106969176Y-95937512D02*
X107159652Y-95985131D01*
X107159652Y-95985131D02*
X107492985Y-95985131D01*
X107492985Y-95985131D02*
X107683461Y-95937512D01*
X107683461Y-95937512D02*
X107778700Y-95842274D01*
X107778700Y-95842274D02*
X107826319Y-95747036D01*
X107826319Y-95747036D02*
X107826319Y-95556560D01*
X107826319Y-95556560D02*
X107778700Y-95461322D01*
X107778700Y-95461322D02*
X107683461Y-95366084D01*
X107683461Y-95366084D02*
X107492985Y-95318465D01*
X107492985Y-95318465D02*
X107159652Y-95318465D01*
X107159652Y-95318465D02*
X106969176Y-95366084D01*
X106969176Y-95366084D02*
X106873938Y-95461322D01*
X106873938Y-95461322D02*
X106826319Y-95556560D01*
X106921557Y-96366084D02*
X106873938Y-96413703D01*
X106873938Y-96413703D02*
X106826319Y-96508941D01*
X106826319Y-96508941D02*
X106826319Y-96747036D01*
X106826319Y-96747036D02*
X106873938Y-96842274D01*
X106873938Y-96842274D02*
X106921557Y-96889893D01*
X106921557Y-96889893D02*
X107016795Y-96937512D01*
X107016795Y-96937512D02*
X107112033Y-96937512D01*
X107112033Y-96937512D02*
X107254890Y-96889893D01*
X107254890Y-96889893D02*
X107826319Y-96318465D01*
X107826319Y-96318465D02*
X107826319Y-96937512D01*
X106826319Y-97842274D02*
X106826319Y-97366084D01*
X106826319Y-97366084D02*
X107302509Y-97318465D01*
X107302509Y-97318465D02*
X107254890Y-97366084D01*
X107254890Y-97366084D02*
X107207271Y-97461322D01*
X107207271Y-97461322D02*
X107207271Y-97699417D01*
X107207271Y-97699417D02*
X107254890Y-97794655D01*
X107254890Y-97794655D02*
X107302509Y-97842274D01*
X107302509Y-97842274D02*
X107397747Y-97889893D01*
X107397747Y-97889893D02*
X107635842Y-97889893D01*
X107635842Y-97889893D02*
X107731080Y-97842274D01*
X107731080Y-97842274D02*
X107778700Y-97794655D01*
X107778700Y-97794655D02*
X107826319Y-97699417D01*
X107826319Y-97699417D02*
X107826319Y-97461322D01*
X107826319Y-97461322D02*
X107778700Y-97366084D01*
X107778700Y-97366084D02*
X107731080Y-97318465D01*
X106826319Y-65378227D02*
X107826319Y-65711560D01*
X107826319Y-65711560D02*
X106826319Y-66044893D01*
X107826319Y-66378227D02*
X106826319Y-66378227D01*
X106826319Y-66378227D02*
X106826319Y-66759179D01*
X106826319Y-66759179D02*
X106873938Y-66854417D01*
X106873938Y-66854417D02*
X106921557Y-66902036D01*
X106921557Y-66902036D02*
X107016795Y-66949655D01*
X107016795Y-66949655D02*
X107159652Y-66949655D01*
X107159652Y-66949655D02*
X107254890Y-66902036D01*
X107254890Y-66902036D02*
X107302509Y-66854417D01*
X107302509Y-66854417D02*
X107350128Y-66759179D01*
X107350128Y-66759179D02*
X107350128Y-66378227D01*
X145673480Y-107699687D02*
X146149671Y-108033020D01*
X145673480Y-108271115D02*
X146673480Y-108271115D01*
X146673480Y-108271115D02*
X146673480Y-107890163D01*
X146673480Y-107890163D02*
X146625861Y-107794925D01*
X146625861Y-107794925D02*
X146578242Y-107747306D01*
X146578242Y-107747306D02*
X146483004Y-107699687D01*
X146483004Y-107699687D02*
X146340147Y-107699687D01*
X146340147Y-107699687D02*
X146244909Y-107747306D01*
X146244909Y-107747306D02*
X146197290Y-107794925D01*
X146197290Y-107794925D02*
X146149671Y-107890163D01*
X146149671Y-107890163D02*
X146149671Y-108271115D01*
X146673480Y-107366353D02*
X145673480Y-106699687D01*
X146673480Y-106699687D02*
X145673480Y-107366353D01*
X146578242Y-106366353D02*
X146625861Y-106318734D01*
X146625861Y-106318734D02*
X146673480Y-106223496D01*
X146673480Y-106223496D02*
X146673480Y-105985401D01*
X146673480Y-105985401D02*
X146625861Y-105890163D01*
X146625861Y-105890163D02*
X146578242Y-105842544D01*
X146578242Y-105842544D02*
X146483004Y-105794925D01*
X146483004Y-105794925D02*
X146387766Y-105794925D01*
X146387766Y-105794925D02*
X146244909Y-105842544D01*
X146244909Y-105842544D02*
X145673480Y-106413972D01*
X145673480Y-106413972D02*
X145673480Y-105794925D01*
X107302509Y-59806084D02*
X107302509Y-60139417D01*
X107826319Y-60282274D02*
X107826319Y-59806084D01*
X107826319Y-59806084D02*
X106826319Y-59806084D01*
X106826319Y-59806084D02*
X106826319Y-60282274D01*
X107159652Y-60710846D02*
X107826319Y-60710846D01*
X107254890Y-60710846D02*
X107207271Y-60758465D01*
X107207271Y-60758465D02*
X107159652Y-60853703D01*
X107159652Y-60853703D02*
X107159652Y-60996560D01*
X107159652Y-60996560D02*
X107207271Y-61091798D01*
X107207271Y-61091798D02*
X107302509Y-61139417D01*
X107302509Y-61139417D02*
X107826319Y-61139417D01*
X146673480Y-112525639D02*
X146673480Y-112335163D01*
X146673480Y-112335163D02*
X146625861Y-112239925D01*
X146625861Y-112239925D02*
X146530623Y-112144687D01*
X146530623Y-112144687D02*
X146340147Y-112097068D01*
X146340147Y-112097068D02*
X146006814Y-112097068D01*
X146006814Y-112097068D02*
X145816338Y-112144687D01*
X145816338Y-112144687D02*
X145721100Y-112239925D01*
X145721100Y-112239925D02*
X145673480Y-112335163D01*
X145673480Y-112335163D02*
X145673480Y-112525639D01*
X145673480Y-112525639D02*
X145721100Y-112620877D01*
X145721100Y-112620877D02*
X145816338Y-112716115D01*
X145816338Y-112716115D02*
X146006814Y-112763734D01*
X146006814Y-112763734D02*
X146340147Y-112763734D01*
X146340147Y-112763734D02*
X146530623Y-112716115D01*
X146530623Y-112716115D02*
X146625861Y-112620877D01*
X146625861Y-112620877D02*
X146673480Y-112525639D01*
X146340147Y-111239925D02*
X145673480Y-111239925D01*
X146721100Y-111478020D02*
X146006814Y-111716115D01*
X146006814Y-111716115D02*
X146006814Y-111097068D01*
X106826319Y-130783227D02*
X107826319Y-131116560D01*
X107826319Y-131116560D02*
X106826319Y-131449893D01*
X107826319Y-131783227D02*
X106826319Y-131783227D01*
X107826319Y-132259417D02*
X106826319Y-132259417D01*
X106826319Y-132259417D02*
X107826319Y-132830845D01*
X107826319Y-132830845D02*
X106826319Y-132830845D01*
X146673480Y-117605639D02*
X146673480Y-117510401D01*
X146673480Y-117510401D02*
X146625861Y-117415163D01*
X146625861Y-117415163D02*
X146578242Y-117367544D01*
X146578242Y-117367544D02*
X146483004Y-117319925D01*
X146483004Y-117319925D02*
X146292528Y-117272306D01*
X146292528Y-117272306D02*
X146054433Y-117272306D01*
X146054433Y-117272306D02*
X145863957Y-117319925D01*
X145863957Y-117319925D02*
X145768719Y-117367544D01*
X145768719Y-117367544D02*
X145721100Y-117415163D01*
X145721100Y-117415163D02*
X145673480Y-117510401D01*
X145673480Y-117510401D02*
X145673480Y-117605639D01*
X145673480Y-117605639D02*
X145721100Y-117700877D01*
X145721100Y-117700877D02*
X145768719Y-117748496D01*
X145768719Y-117748496D02*
X145863957Y-117796115D01*
X145863957Y-117796115D02*
X146054433Y-117843734D01*
X146054433Y-117843734D02*
X146292528Y-117843734D01*
X146292528Y-117843734D02*
X146483004Y-117796115D01*
X146483004Y-117796115D02*
X146578242Y-117748496D01*
X146578242Y-117748496D02*
X146625861Y-117700877D01*
X146625861Y-117700877D02*
X146673480Y-117605639D01*
X146578242Y-116891353D02*
X146625861Y-116843734D01*
X146625861Y-116843734D02*
X146673480Y-116748496D01*
X146673480Y-116748496D02*
X146673480Y-116510401D01*
X146673480Y-116510401D02*
X146625861Y-116415163D01*
X146625861Y-116415163D02*
X146578242Y-116367544D01*
X146578242Y-116367544D02*
X146483004Y-116319925D01*
X146483004Y-116319925D02*
X146387766Y-116319925D01*
X146387766Y-116319925D02*
X146244909Y-116367544D01*
X146244909Y-116367544D02*
X145673480Y-116938972D01*
X145673480Y-116938972D02*
X145673480Y-116319925D01*
%TD*%
D11*
X50000000Y-50000000D02*
X175000000Y-50000000D01*
X175000000Y-149950000D01*
X50000000Y-149950000D01*
X50000000Y-50000000D01*
M02*
