%TF.GenerationSoftware,KiCad,Pcbnew,7.0.5*%
%TF.CreationDate,2024-05-19T08:19:49-04:00*%
%TF.ProjectId,homeWork2,686f6d65-576f-4726-9b32-2e6b69636164,V2*%
%TF.SameCoordinates,Original*%
%TF.FileFunction,Paste,Top*%
%TF.FilePolarity,Positive*%
%FSLAX46Y46*%
G04 Gerber Fmt 4.6, Leading zero omitted, Abs format (unit mm)*
G04 Created by KiCad (PCBNEW 7.0.5) date 2024-05-19 08:19:49*
%MOMM*%
%LPD*%
G01*
G04 APERTURE LIST*
G04 Aperture macros list*
%AMRoundRect*
0 Rectangle with rounded corners*
0 $1 Rounding radius*
0 $2 $3 $4 $5 $6 $7 $8 $9 X,Y pos of 4 corners*
0 Add a 4 corners polygon primitive as box body*
4,1,4,$2,$3,$4,$5,$6,$7,$8,$9,$2,$3,0*
0 Add four circle primitives for the rounded corners*
1,1,$1+$1,$2,$3*
1,1,$1+$1,$4,$5*
1,1,$1+$1,$6,$7*
1,1,$1+$1,$8,$9*
0 Add four rect primitives between the rounded corners*
20,1,$1+$1,$2,$3,$4,$5,0*
20,1,$1+$1,$4,$5,$6,$7,0*
20,1,$1+$1,$6,$7,$8,$9,0*
20,1,$1+$1,$8,$9,$2,$3,0*%
G04 Aperture macros list end*
%ADD10RoundRect,0.237500X0.250000X0.237500X-0.250000X0.237500X-0.250000X-0.237500X0.250000X-0.237500X0*%
%ADD11RoundRect,0.250000X0.900000X-1.000000X0.900000X1.000000X-0.900000X1.000000X-0.900000X-1.000000X0*%
%ADD12RoundRect,0.237500X0.237500X-0.250000X0.237500X0.250000X-0.237500X0.250000X-0.237500X-0.250000X0*%
%ADD13RoundRect,0.237500X0.237500X-0.300000X0.237500X0.300000X-0.237500X0.300000X-0.237500X-0.300000X0*%
%ADD14RoundRect,0.250000X0.550000X-1.250000X0.550000X1.250000X-0.550000X1.250000X-0.550000X-1.250000X0*%
%ADD15RoundRect,0.218750X0.218750X0.256250X-0.218750X0.256250X-0.218750X-0.256250X0.218750X-0.256250X0*%
%ADD16RoundRect,0.237500X-0.250000X-0.237500X0.250000X-0.237500X0.250000X0.237500X-0.250000X0.237500X0*%
%ADD17RoundRect,0.250000X1.250000X0.550000X-1.250000X0.550000X-1.250000X-0.550000X1.250000X-0.550000X0*%
%ADD18R,2.000000X3.000000*%
%ADD19R,2.000000X2.999999*%
%TA.AperFunction,Profile*%
%ADD20C,0.100000*%
%TD*%
G04 APERTURE END LIST*
D10*
%TO.C,R14*%
X153412500Y-97500000D03*
X151587500Y-97500000D03*
%TD*%
D11*
%TO.C,D2*%
X82500000Y-123500000D03*
X82500000Y-119200000D03*
%TD*%
D10*
%TO.C,R12*%
X153412500Y-87500000D03*
X151587500Y-87500000D03*
%TD*%
D12*
%TO.C,R2*%
X94500000Y-146662500D03*
X94500000Y-144837500D03*
%TD*%
D13*
%TO.C,C2*%
X81550000Y-136112500D03*
X81550000Y-134387500D03*
%TD*%
D14*
%TO.C,C4*%
X87750000Y-132350000D03*
X87750000Y-127950000D03*
%TD*%
%TO.C,C3*%
X96200000Y-132450000D03*
X96200000Y-128050000D03*
%TD*%
D15*
%TO.C,F1*%
X83075000Y-116350000D03*
X81500000Y-116350000D03*
%TD*%
D10*
%TO.C,R9*%
X153412500Y-112500000D03*
X151587500Y-112500000D03*
%TD*%
%TO.C,R10*%
X153412500Y-117500000D03*
X151587500Y-117500000D03*
%TD*%
D16*
%TO.C,R4*%
X99679000Y-68208000D03*
X101504000Y-68208000D03*
%TD*%
D13*
%TO.C,C1*%
X102300000Y-130812500D03*
X102300000Y-129087500D03*
%TD*%
D10*
%TO.C,R3*%
X101516500Y-60208000D03*
X99691500Y-60208000D03*
%TD*%
D12*
%TO.C,R1*%
X96200000Y-137350000D03*
X96200000Y-135525000D03*
%TD*%
D17*
%TO.C,C7*%
X91000000Y-143250000D03*
X86600000Y-143250000D03*
%TD*%
D16*
%TO.C,R7*%
X151587500Y-132500000D03*
X153412500Y-132500000D03*
%TD*%
%TO.C,R5*%
X99779000Y-76958000D03*
X101604000Y-76958000D03*
%TD*%
D18*
%TO.C,J1*%
X58100000Y-122650000D03*
X58100000Y-133650000D03*
X52100000Y-133650000D03*
D19*
X52100000Y-122650000D03*
%TD*%
D13*
%TO.C,C6*%
X90850000Y-137362500D03*
X90850000Y-135637500D03*
%TD*%
D16*
%TO.C,R6*%
X99579000Y-85008000D03*
X101404000Y-85008000D03*
%TD*%
D13*
%TO.C,C5*%
X86300000Y-137312500D03*
X86300000Y-135587500D03*
%TD*%
D10*
%TO.C,R11*%
X153412500Y-122500000D03*
X151587500Y-122500000D03*
%TD*%
%TO.C,R13*%
X153412500Y-92500000D03*
X151587500Y-92500000D03*
%TD*%
D20*
X50000000Y-50000000D02*
X175000000Y-50000000D01*
X175000000Y-149950000D01*
X50000000Y-149950000D01*
X50000000Y-50000000D01*
M02*
