M48
; DRILL file {KiCad 7.0.5} date Sun May 19 07:48:38 2024
; FORMAT={-:-/ absolute / inch / decimal}
; #@! TF.CreationDate,2024-05-19T07:48:38-04:00
; #@! TF.GenerationSoftware,Kicad,Pcbnew,7.0.5
; #@! TF.FileFunction,MixedPlating,1,2
FMAT,2
INCH
; #@! TA.AperFunction,Plated,PTH,ViaDrill
T1C0.0118
; #@! TA.AperFunction,Plated,PTH,ViaDrill
T2C0.0157
; #@! TA.AperFunction,Plated,PTH,ComponentDrill
T3C0.0197
; #@! TA.AperFunction,Plated,PTH,ComponentDrill
T4C0.0394
; #@! TA.AperFunction,Plated,PTH,ComponentDrill
T5C0.0433
; #@! TA.AperFunction,Plated,PTH,ComponentDrill
T6C0.0472
; #@! TA.AperFunction,Plated,PTH,ComponentDrill
T7C0.0591
; #@! TA.AperFunction,Plated,PTH,ComponentDrill
T8C0.1378
; #@! TA.AperFunction,NonPlated,NPTH,ComponentDrill
T9C0.0630
; #@! TA.AperFunction,NonPlated,NPTH,ComponentDrill
T10C0.0709
; #@! TA.AperFunction,NonPlated,NPTH,ComponentDrill
T11C0.0984
%
G90
G05
T1
X3.8236Y-3.3482
X3.8536Y-2.4382
X3.8536Y-2.7682
X3.8536Y-3.1082
X4.1339Y-5.2087
X6.07Y-5.32
T2
X4.1339Y-2.6083
X4.1339Y-2.8071
X4.1339Y-3.002
X4.1339Y-3.2087
X5.8465Y-4.6161
X5.8465Y-4.8031
X5.8563Y-3.8091
X5.8563Y-5.2165
X5.876Y-3.4154
X5.876Y-3.6122
X5.876Y-4.4094
T3
X2.062Y-2.1654
X2.062Y-5.7087
X2.0923Y-2.0923
X2.0923Y-2.2384
X2.0923Y-5.6356
X2.0923Y-5.7817
X2.1654Y-2.062
X2.1654Y-2.2687
X2.1654Y-5.6053
X2.1654Y-5.812
X2.2384Y-2.0923
X2.2384Y-2.2384
X2.2384Y-5.6356
X2.2384Y-5.7817
X2.2687Y-2.1654
X2.2687Y-5.7087
X6.5896Y-2.1654
X6.5896Y-5.7087
X6.6198Y-2.0923
X6.6198Y-2.2384
X6.6198Y-5.6356
X6.6198Y-5.7817
X6.6929Y-2.062
X6.6929Y-2.2687
X6.6929Y-5.6053
X6.6929Y-5.812
X6.766Y-2.0923
X6.766Y-2.2384
X6.766Y-5.6356
X6.766Y-5.7817
X6.7963Y-2.1654
X6.7963Y-5.7087
T4
X6.2295Y-4.5866
X6.2295Y-4.8819
X6.2386Y-4.2913
X6.2402Y-3.937
X6.2508Y-3.2677
X6.2508Y-3.563
X6.3295Y-4.5866
X6.3295Y-4.8819
X6.3386Y-4.2913
X6.3402Y-3.937
X6.3508Y-3.2677
X6.3508Y-3.563
T5
X3.5496Y-4.8128
X3.6496Y-4.8128
X3.7496Y-4.8128
T6
X3.4426Y-2.2031
X3.4426Y-2.3802
X3.4426Y-2.5279
X3.4426Y-2.705
X3.4426Y-2.8527
X3.4426Y-3.0298
X3.4426Y-3.1775
X3.4426Y-3.3546
X3.6985Y-2.2031
X3.6985Y-2.3802
X3.6985Y-2.5279
X3.6985Y-2.705
X3.6985Y-2.8527
X3.6985Y-3.0298
X3.6985Y-3.1775
X3.6985Y-3.3546
X4.2882Y-2.4046
X4.2922Y-2.6046
X4.2922Y-2.8046
X4.2922Y-3.0046
X4.2922Y-3.2046
X4.2922Y-3.4046
X4.2922Y-3.6046
X4.2922Y-3.8046
X4.2922Y-4.0046
X4.2922Y-4.2046
X4.2922Y-4.4046
X4.2922Y-4.6046
X4.2922Y-4.8046
X4.2922Y-5.0046
X4.2996Y-5.2078
X5.6922Y-2.4086
X5.6922Y-2.6086
X5.6922Y-2.8086
X5.6922Y-3.0086
X5.6922Y-3.2086
X5.6922Y-3.4086
X5.6922Y-3.6086
X5.6922Y-3.8086
X5.6922Y-4.0086
X5.6922Y-4.2086
X5.6922Y-4.4086
X5.6922Y-4.6086
X5.6922Y-4.8086
X5.6922Y-5.0086
X5.6922Y-5.2086
T7
X3.1929Y-5.5768
X3.563Y-4.4547
X4.0098Y-5.6358
T8
X2.1654Y-2.1654
X2.1654Y-5.7087
X6.6929Y-2.1654
X6.6929Y-5.7087
T10
X2.2283Y-5.0453
T11
X4.2942Y-5.3986
X4.3102Y-2.1706
X5.6862Y-2.1766
X5.6922Y-5.4026
T9
G00X2.0551Y-5.0453
M15
G01X2.0551Y-5.0453
M16
G05
T0
M30
