%TF.GenerationSoftware,KiCad,Pcbnew,7.0.5*%
%TF.CreationDate,2024-05-19T08:19:49-04:00*%
%TF.ProjectId,homeWork2,686f6d65-576f-4726-9b32-2e6b69636164,V2*%
%TF.SameCoordinates,Original*%
%TF.FileFunction,Soldermask,Bot*%
%TF.FilePolarity,Negative*%
%FSLAX46Y46*%
G04 Gerber Fmt 4.6, Leading zero omitted, Abs format (unit mm)*
G04 Created by KiCad (PCBNEW 7.0.5) date 2024-05-19 08:19:49*
%MOMM*%
%LPD*%
G01*
G04 APERTURE LIST*
%ADD10R,2.000000X2.000000*%
%ADD11C,2.000000*%
%ADD12R,2.200000X2.200000*%
%ADD13C,2.200000*%
%ADD14C,0.800000*%
%ADD15C,7.000000*%
%ADD16C,3.228898*%
%ADD17C,1.900000*%
%ADD18C,3.000000*%
%ADD19O,1.600000X1.600000*%
%ADD20C,1.800000*%
%ADD21R,1.905000X2.000000*%
%ADD22O,1.905000X2.000000*%
%TA.AperFunction,Profile*%
%ADD23C,0.100000*%
%TD*%
G04 APERTURE END LIST*
D10*
%TO.C,D6-lostSock1*%
X158770000Y-83000000D03*
D11*
X161310000Y-83000000D03*
%TD*%
D12*
%TO.C,S2-RepeatCalculation1*%
X87441500Y-64208000D03*
D13*
X93941500Y-64208000D03*
X87441500Y-68708000D03*
X93941500Y-68708000D03*
%TD*%
D14*
%TO.C,H1*%
X52375000Y-55000000D03*
X53143845Y-53143845D03*
X53143845Y-56856155D03*
X55000000Y-52375000D03*
D15*
X55000000Y-55000000D03*
D14*
X55000000Y-57625000D03*
X56856155Y-53143845D03*
X56856155Y-56856155D03*
X57625000Y-55000000D03*
%TD*%
D16*
%TO.C,ESP1*%
X109071500Y-137124600D03*
X109477900Y-55133400D03*
X144428300Y-55285800D03*
X144580700Y-137226200D03*
D17*
X109210700Y-132277000D03*
X109020700Y-127117000D03*
X109020700Y-122037000D03*
X109020700Y-116957000D03*
X109020700Y-111877000D03*
X109020700Y-106797000D03*
X109020700Y-101717000D03*
X109020700Y-96637000D03*
X109020700Y-91557000D03*
X109020700Y-86477000D03*
X109020700Y-81397000D03*
X109020700Y-76317000D03*
X109020700Y-71237000D03*
X109020700Y-66157000D03*
X108919100Y-61077000D03*
X144580700Y-61178600D03*
X144580700Y-66258600D03*
X144580700Y-71338600D03*
X144580700Y-76418600D03*
X144580700Y-81498600D03*
X144580700Y-86578600D03*
X144580700Y-91658600D03*
X144580700Y-96738600D03*
X144580700Y-101818600D03*
X144580700Y-106898600D03*
X144580700Y-111978600D03*
X144580700Y-117058600D03*
X144580700Y-122138600D03*
X144580700Y-127218600D03*
X144580700Y-132298600D03*
%TD*%
D18*
%TO.C,TP2*%
X90500000Y-113150000D03*
%TD*%
D14*
%TO.C,H2*%
X52375000Y-145000000D03*
X53143845Y-143143845D03*
X53143845Y-146856155D03*
X55000000Y-142375000D03*
D15*
X55000000Y-145000000D03*
D14*
X55000000Y-147625000D03*
X56856155Y-143143845D03*
X56856155Y-146856155D03*
X57625000Y-145000000D03*
%TD*%
%TO.C,H4*%
X167375000Y-145000000D03*
X168143845Y-143143845D03*
X168143845Y-146856155D03*
X170000000Y-142375000D03*
D15*
X170000000Y-145000000D03*
D14*
X170000000Y-147625000D03*
X171856155Y-143143845D03*
X171856155Y-146856155D03*
X172625000Y-145000000D03*
%TD*%
D10*
%TO.C,D3-babyCrying1*%
X158460000Y-109000000D03*
D11*
X161000000Y-109000000D03*
%TD*%
D12*
%TO.C,S1-morseCodeDanger1*%
X87441500Y-55958000D03*
D13*
X93941500Y-55958000D03*
X87441500Y-60458000D03*
X93941500Y-60458000D03*
%TD*%
D10*
%TO.C,D5-mute1*%
X158230000Y-124000000D03*
D11*
X160770000Y-124000000D03*
%TD*%
D18*
%TO.C,TP3*%
X101850000Y-143150000D03*
%TD*%
D12*
%TO.C,S3-muteFiveMin1*%
X87441500Y-72458000D03*
D13*
X93941500Y-72458000D03*
X87441500Y-76958000D03*
X93941500Y-76958000D03*
%TD*%
D10*
%TO.C,D4-coldFood1*%
X158230000Y-116500000D03*
D11*
X160770000Y-116500000D03*
%TD*%
D19*
%TO.C,J1*%
X52200000Y-128150000D03*
D20*
X56600000Y-128150000D03*
%TD*%
D10*
%TO.C,D7-unstableGround1*%
X158770000Y-90500000D03*
D11*
X161310000Y-90500000D03*
%TD*%
D21*
%TO.C,U1*%
X90160000Y-122245000D03*
D22*
X92700000Y-122245000D03*
X95240000Y-122245000D03*
%TD*%
D12*
%TO.C,S4-SendEmergMessage1*%
X87441500Y-80708000D03*
D13*
X93941500Y-80708000D03*
X87441500Y-85208000D03*
X93941500Y-85208000D03*
%TD*%
D10*
%TO.C,D8-highBloodPreasure1*%
X158500000Y-100000000D03*
D11*
X161040000Y-100000000D03*
%TD*%
D18*
%TO.C,TP1*%
X81100000Y-141650000D03*
%TD*%
D14*
%TO.C,H3*%
X167375000Y-55000000D03*
X168143845Y-53143845D03*
X168143845Y-56856155D03*
X170000000Y-52375000D03*
D15*
X170000000Y-55000000D03*
D14*
X170000000Y-57625000D03*
X171856155Y-53143845D03*
X171856155Y-56856155D03*
X172625000Y-55000000D03*
%TD*%
D23*
X50000000Y-50000000D02*
X175000000Y-50000000D01*
X175000000Y-149950000D01*
X50000000Y-149950000D01*
X50000000Y-50000000D01*
M02*
