%TF.GenerationSoftware,KiCad,Pcbnew,7.0.5*%
%TF.CreationDate,2024-07-10T14:16:31-04:00*%
%TF.ProjectId,homeWork2,686f6d65-576f-4726-9b32-2e6b69636164,V2*%
%TF.SameCoordinates,Original*%
%TF.FileFunction,Copper,L2,Bot*%
%TF.FilePolarity,Positive*%
%FSLAX46Y46*%
G04 Gerber Fmt 4.6, Leading zero omitted, Abs format (unit mm)*
G04 Created by KiCad (PCBNEW 7.0.5) date 2024-07-10 14:16:31*
%MOMM*%
%LPD*%
G01*
G04 APERTURE LIST*
%TA.AperFunction,ComponentPad*%
%ADD10R,2.000000X2.000000*%
%TD*%
%TA.AperFunction,ComponentPad*%
%ADD11C,2.000000*%
%TD*%
%TA.AperFunction,ComponentPad*%
%ADD12R,2.200000X2.200000*%
%TD*%
%TA.AperFunction,ComponentPad*%
%ADD13C,2.200000*%
%TD*%
%TA.AperFunction,ComponentPad*%
%ADD14C,0.800000*%
%TD*%
%TA.AperFunction,ComponentPad*%
%ADD15C,7.000000*%
%TD*%
%TA.AperFunction,ComponentPad*%
%ADD16R,1.700000X1.700000*%
%TD*%
%TA.AperFunction,ComponentPad*%
%ADD17O,1.700000X1.700000*%
%TD*%
%TA.AperFunction,ComponentPad*%
%ADD18C,3.000000*%
%TD*%
%TA.AperFunction,ComponentPad*%
%ADD19R,1.905000X2.000000*%
%TD*%
%TA.AperFunction,ComponentPad*%
%ADD20O,1.905000X2.000000*%
%TD*%
%TA.AperFunction,ViaPad*%
%ADD21C,0.762000*%
%TD*%
%TA.AperFunction,Conductor*%
%ADD22C,1.016000*%
%TD*%
%TA.AperFunction,Conductor*%
%ADD23C,0.500000*%
%TD*%
%TA.AperFunction,Profile*%
%ADD24C,0.100000*%
%TD*%
G04 APERTURE END LIST*
D10*
%TO.P,D6-lostSock1,1*%
%TO.N,Net-(D6-lostSock1-Pad1)*%
X142240000Y-53594000D03*
D11*
%TO.P,D6-lostSock1,2*%
%TO.N,GND*%
X144780000Y-53594000D03*
%TD*%
D12*
%TO.P,S2-RepeatCalculation1,1*%
%TO.N,GND*%
X94452900Y-60128600D03*
D13*
%TO.P,S2-RepeatCalculation1,2*%
X100952900Y-60128600D03*
%TO.P,S2-RepeatCalculation1,3*%
%TO.N,Net-(J2-Pin_3)*%
X94452900Y-64628600D03*
%TO.P,S2-RepeatCalculation1,4*%
X100952900Y-64628600D03*
%TD*%
D14*
%TO.P,H1,1,1*%
%TO.N,GND*%
X52375000Y-55000000D03*
X53143845Y-53143845D03*
X53143845Y-56856155D03*
X55000000Y-52375000D03*
D15*
X55000000Y-55000000D03*
D14*
X55000000Y-57625000D03*
X56856155Y-53143845D03*
X56856155Y-56856155D03*
X57625000Y-55000000D03*
%TD*%
D16*
%TO.P,J2,1,Pin_1*%
%TO.N,Net-(J2-Pin_1)*%
X112522000Y-56642000D03*
D17*
%TO.P,J2,2,Pin_2*%
%TO.N,Net-(J2-Pin_2)*%
X112522000Y-59182000D03*
%TO.P,J2,3,Pin_3*%
%TO.N,Net-(J2-Pin_3)*%
X112522000Y-61722000D03*
%TO.P,J2,4,Pin_4*%
%TO.N,Net-(J2-Pin_4)*%
X112522000Y-64262000D03*
%TO.P,J2,5,Pin_5*%
%TO.N,Net-(J2-Pin_5)*%
X112522000Y-66802000D03*
%TO.P,J2,6,Pin_6*%
%TO.N,Net-(J2-Pin_6)*%
X112522000Y-69342000D03*
%TO.P,J2,7,Pin_7*%
%TO.N,Net-(J2-Pin_7)*%
X112522000Y-71882000D03*
%TO.P,J2,8,Pin_8*%
%TO.N,Net-(J2-Pin_8)*%
X112522000Y-74422000D03*
%TO.P,J2,9,Pin_9*%
%TO.N,Net-(J2-Pin_9)*%
X112522000Y-76962000D03*
%TO.P,J2,10,Pin_10*%
%TO.N,Net-(J2-Pin_10)*%
X112522000Y-79502000D03*
%TO.P,J2,11,Pin_11*%
%TO.N,Net-(J2-Pin_11)*%
X112522000Y-82042000D03*
%TO.P,J2,12,Pin_12*%
%TO.N,Net-(J2-Pin_12)*%
X112522000Y-84582000D03*
%TO.P,J2,13,Pin_13*%
%TO.N,Net-(J2-Pin_13)*%
X112522000Y-87122000D03*
%TO.P,J2,14,Pin_14*%
%TO.N,GND*%
X112522000Y-89662000D03*
%TO.P,J2,15,Pin_15*%
%TO.N,/+5Vesp32*%
X112522000Y-92202000D03*
%TD*%
D16*
%TO.P,J5_DFPLAYER1,1,Pin_1*%
%TO.N,Net-(J3-Pin_9)*%
X158750000Y-77978000D03*
D17*
%TO.P,J5_DFPLAYER1,2,Pin_2*%
%TO.N,Net-(J3-Pin_10)*%
X158750000Y-80518000D03*
%TO.P,J5_DFPLAYER1,3,Pin_3*%
%TO.N,GND*%
X158750000Y-83058000D03*
%TO.P,J5_DFPLAYER1,4,Pin_4*%
%TO.N,/+3V3esp32*%
X158750000Y-85598000D03*
%TD*%
D18*
%TO.P,TP5,1,1*%
%TO.N,/+3V3esp32*%
X139700000Y-98298000D03*
%TD*%
%TO.P,TP2,1,1*%
%TO.N,Vin*%
X91398750Y-86792750D03*
%TD*%
D14*
%TO.P,H2,1,1*%
%TO.N,GND*%
X52317155Y-97360155D03*
X53086000Y-95504000D03*
X53086000Y-99216310D03*
X54942155Y-94735155D03*
D15*
X54942155Y-97360155D03*
D14*
X54942155Y-99985155D03*
X56798310Y-95504000D03*
X56798310Y-99216310D03*
X57567155Y-97360155D03*
%TD*%
D10*
%TO.P,D1,1*%
%TO.N,Net-(D1-Pad1)*%
X54506500Y-68326000D03*
D11*
%TO.P,D1,2*%
%TO.N,GND*%
X57046500Y-68326000D03*
%TD*%
D14*
%TO.P,H4,1,1*%
%TO.N,GND*%
X155695155Y-97868155D03*
X156464000Y-96012000D03*
X156464000Y-99724310D03*
X158320155Y-95243155D03*
D15*
X158320155Y-97868155D03*
D14*
X158320155Y-100493155D03*
X160176310Y-96012000D03*
X160176310Y-99724310D03*
X160945155Y-97868155D03*
%TD*%
D10*
%TO.P,D3-babyCrying1,1*%
%TO.N,Net-(D3-babyCrying1-Pad1)*%
X142240000Y-76200000D03*
D11*
%TO.P,D3-babyCrying1,2*%
%TO.N,GND*%
X144780000Y-76200000D03*
%TD*%
D12*
%TO.P,S1-morseCodeDanger1,1*%
%TO.N,GND*%
X94452900Y-51878600D03*
D13*
%TO.P,S1-morseCodeDanger1,2*%
X100952900Y-51878600D03*
%TO.P,S1-morseCodeDanger1,3*%
%TO.N,Net-(J2-Pin_2)*%
X94452900Y-56378600D03*
%TO.P,S1-morseCodeDanger1,4*%
X100952900Y-56378600D03*
%TD*%
D18*
%TO.P,TP4,1,1*%
%TO.N,/+5Vesp32*%
X107188000Y-97958000D03*
%TD*%
D10*
%TO.P,D5-coldFood1,1*%
%TO.N,Net-(D5-coldFood1-Pad1)*%
X142240000Y-83820000D03*
D11*
%TO.P,D5-coldFood1,2*%
%TO.N,GND*%
X144780000Y-83820000D03*
%TD*%
D18*
%TO.P,TP3,1,1*%
%TO.N,+5V*%
X97748750Y-86792750D03*
%TD*%
D10*
%TO.P,D9-MUTE1,1*%
%TO.N,Net-(D9-MUTE1-Pad1)*%
X79223500Y-61722000D03*
D11*
%TO.P,D9-MUTE1,2*%
%TO.N,GND*%
X81763500Y-61722000D03*
%TD*%
D12*
%TO.P,S3-muteFiveMin1,1*%
%TO.N,GND*%
X94452900Y-68378600D03*
D13*
%TO.P,S3-muteFiveMin1,2*%
X100952900Y-68378600D03*
%TO.P,S3-muteFiveMin1,3*%
%TO.N,Net-(J2-Pin_4)*%
X94452900Y-72878600D03*
%TO.P,S3-muteFiveMin1,4*%
X100952900Y-72878600D03*
%TD*%
D10*
%TO.P,D4-ONOFF1,1*%
%TO.N,Net-(D4-ONOFF1-Pad1)*%
X79248000Y-54356000D03*
D11*
%TO.P,D4-ONOFF1,2*%
%TO.N,GND*%
X81788000Y-54356000D03*
%TD*%
D16*
%TO.P,J4_LCD1,1,Pin_1*%
%TO.N,Net-(J3-Pin_2)*%
X158750000Y-64008000D03*
D17*
%TO.P,J4_LCD1,2,Pin_2*%
%TO.N,Net-(J3-Pin_5)*%
X158750000Y-66548000D03*
%TO.P,J4_LCD1,3,Pin_3*%
%TO.N,GND*%
X158750000Y-69088000D03*
%TO.P,J4_LCD1,4,Pin_4*%
%TO.N,/+3V3esp32*%
X158750000Y-71628000D03*
%TD*%
D10*
%TO.P,D7-SheildFailure1,1*%
%TO.N,Net-(D7-SheildFailure1-Pad1)*%
X142240000Y-60960000D03*
D11*
%TO.P,D7-SheildFailure1,2*%
%TO.N,GND*%
X144780000Y-60960000D03*
%TD*%
D19*
%TO.P,U1,1,VI*%
%TO.N,Vin*%
X92184750Y-92687750D03*
D20*
%TO.P,U1,2,GND*%
%TO.N,GND*%
X94724750Y-92687750D03*
%TO.P,U1,3,VO*%
%TO.N,+5V*%
X97264750Y-92687750D03*
%TD*%
D12*
%TO.P,S4-SendEmergMessage1,1*%
%TO.N,GND*%
X94452900Y-76628600D03*
D13*
%TO.P,S4-SendEmergMessage1,2*%
X100952900Y-76628600D03*
%TO.P,S4-SendEmergMessage1,3*%
%TO.N,Net-(J2-Pin_5)*%
X94452900Y-81128600D03*
%TO.P,S4-SendEmergMessage1,4*%
X100952900Y-81128600D03*
%TD*%
D16*
%TO.P,J3,1,Pin_1*%
%TO.N,Net-(J3-Pin_1)*%
X135382000Y-56642000D03*
D17*
%TO.P,J3,2,Pin_2*%
%TO.N,Net-(J3-Pin_2)*%
X135382000Y-59182000D03*
%TO.P,J3,3,Pin_3*%
%TO.N,Net-(J3-Pin_3)*%
X135382000Y-61722000D03*
%TO.P,J3,4,Pin_4*%
%TO.N,Net-(J3-Pin_4)*%
X135382000Y-64262000D03*
%TO.P,J3,5,Pin_5*%
%TO.N,Net-(J3-Pin_5)*%
X135382000Y-66802000D03*
%TO.P,J3,6,Pin_6*%
%TO.N,Net-(J3-Pin_6)*%
X135382000Y-69342000D03*
%TO.P,J3,7,Pin_7*%
%TO.N,Net-(J3-Pin_7)*%
X135382000Y-71882000D03*
%TO.P,J3,8,Pin_8*%
%TO.N,Net-(J3-Pin_8)*%
X135382000Y-74422000D03*
%TO.P,J3,9,Pin_9*%
%TO.N,Net-(J3-Pin_9)*%
X135382000Y-76962000D03*
%TO.P,J3,10,Pin_10*%
%TO.N,Net-(J3-Pin_10)*%
X135382000Y-79502000D03*
%TO.P,J3,11,Pin_11*%
%TO.N,Net-(J3-Pin_11)*%
X135382000Y-82042000D03*
%TO.P,J3,12,Pin_12*%
%TO.N,Net-(J3-Pin_12)*%
X135382000Y-84582000D03*
%TO.P,J3,13,Pin_13*%
%TO.N,Net-(J3-Pin_13)*%
X135382000Y-87122000D03*
%TO.P,J3,14,Pin_14*%
%TO.N,GND*%
X135382000Y-89662000D03*
%TO.P,J3,15,Pin_15*%
%TO.N,/+3V3esp32*%
X135382000Y-92202000D03*
%TD*%
D10*
%TO.P,D8-highBP1,1*%
%TO.N,Net-(D8-highBP1-Pad1)*%
X142478000Y-68580000D03*
D11*
%TO.P,D8-highBP1,2*%
%TO.N,GND*%
X145018000Y-68580000D03*
%TD*%
D18*
%TO.P,TP1,1,1*%
%TO.N,GND*%
X64516000Y-83820000D03*
%TD*%
D14*
%TO.P,H3,1,1*%
%TO.N,GND*%
X155538845Y-54434155D03*
X156307690Y-52578000D03*
X156307690Y-56290310D03*
X158163845Y-51809155D03*
D15*
X158163845Y-54434155D03*
D14*
X158163845Y-57059155D03*
X160020000Y-52578000D03*
X160020000Y-56290310D03*
X160788845Y-54434155D03*
%TD*%
D21*
%TO.N,+5V*%
X88392000Y-82550000D03*
%TO.N,+3.3V*%
X147320000Y-98298000D03*
X104902000Y-86106000D03*
%TO.N,/PVRAW*%
X83566000Y-85598000D03*
X86868000Y-82804000D03*
%TO.N,Net-(J3-Pin_1)*%
X70612000Y-59182000D03*
%TO.N,Net-(J3-Pin_2)*%
X139192000Y-58420000D03*
%TO.N,Net-(J3-Pin_5)*%
X139192000Y-66548000D03*
%TO.N,Net-(J3-Pin_12)*%
X73660000Y-57150000D03*
%TD*%
D22*
%TO.N,+5V*%
X88392000Y-82550000D02*
X88392000Y-82804000D01*
X96402834Y-86868000D02*
X96478084Y-86792750D01*
X94596584Y-86868000D02*
X96402834Y-86868000D01*
X92056584Y-84328000D02*
X94596584Y-86868000D01*
X89916000Y-84328000D02*
X92056584Y-84328000D01*
X96478084Y-86792750D02*
X97748750Y-86792750D01*
X88392000Y-82804000D02*
X89916000Y-84328000D01*
%TO.N,+3.3V*%
X103886000Y-101346000D02*
X109728000Y-101346000D01*
X104902000Y-86106000D02*
X103886000Y-87122000D01*
X110058950Y-101676950D02*
X144957050Y-101676950D01*
X109728000Y-101346000D02*
X110058950Y-101676950D01*
X103886000Y-87122000D02*
X103886000Y-101346000D01*
X147320000Y-99314000D02*
X147320000Y-98298000D01*
X144957050Y-101676950D02*
X147320000Y-99314000D01*
%TO.N,/PVRAW*%
X86868000Y-82804000D02*
X84074000Y-85598000D01*
X84074000Y-85598000D02*
X83566000Y-85598000D01*
D23*
%TO.N,Net-(J3-Pin_1)*%
X108966000Y-87376000D02*
X108966000Y-94742000D01*
X70612000Y-61528599D02*
X93215401Y-84132000D01*
X105722000Y-84132000D02*
X108966000Y-87376000D01*
X142886610Y-56642000D02*
X135382000Y-56642000D01*
X110744000Y-96520000D02*
X137414000Y-96520000D01*
X137414000Y-96520000D02*
X147066000Y-86868000D01*
X147066000Y-86868000D02*
X147066000Y-60821390D01*
X147066000Y-60821390D02*
X142886610Y-56642000D01*
X93215401Y-84132000D02*
X105722000Y-84132000D01*
X108966000Y-94742000D02*
X110744000Y-96520000D01*
X70612000Y-59182000D02*
X70612000Y-61528599D01*
%TO.N,Net-(J3-Pin_2)*%
X136144000Y-58420000D02*
X135382000Y-59182000D01*
X139192000Y-58420000D02*
X136144000Y-58420000D01*
%TO.N,Net-(J3-Pin_5)*%
X139192000Y-66548000D02*
X135636000Y-66548000D01*
X135636000Y-66548000D02*
X135382000Y-66802000D01*
%TO.N,Net-(J3-Pin_12)*%
X137160000Y-85090000D02*
X136652000Y-84582000D01*
X111542030Y-95032030D02*
X136942030Y-95032030D01*
X105918000Y-82296000D02*
X110682000Y-87060000D01*
X136652000Y-84582000D02*
X135382000Y-84582000D01*
X137160000Y-94814060D02*
X137160000Y-85090000D01*
X73660000Y-57150000D02*
X74930000Y-57150000D01*
X102998600Y-82678600D02*
X103381200Y-82296000D01*
X110682000Y-94172000D02*
X111542030Y-95032030D01*
X103381200Y-82296000D02*
X105918000Y-82296000D01*
X76200000Y-58420000D02*
X76200000Y-66040000D01*
X76200000Y-66040000D02*
X92838600Y-82678600D01*
X136942030Y-95032030D02*
X137160000Y-94814060D01*
X74930000Y-57150000D02*
X76200000Y-58420000D01*
X92838600Y-82678600D02*
X102998600Y-82678600D01*
X110682000Y-87060000D02*
X110682000Y-94172000D01*
%TD*%
%TA.AperFunction,Conductor*%
%TO.N,GND*%
G36*
X111029330Y-67310000D02*
G01*
X107344520Y-71120000D01*
X104763209Y-73660000D01*
X104730721Y-70529279D01*
X110695757Y-64340757D01*
X111029330Y-67310000D01*
G37*
%TD.AperFunction*%
%TD*%
%TA.AperFunction,Conductor*%
%TO.N,GND*%
G36*
X92903850Y-50322445D02*
G01*
X92949605Y-50375249D01*
X92959549Y-50444407D01*
X92936077Y-50501072D01*
X92909547Y-50536510D01*
X92909545Y-50536513D01*
X92859303Y-50671220D01*
X92859301Y-50671227D01*
X92852900Y-50730755D01*
X92852900Y-51628600D01*
X93907018Y-51628600D01*
X93868344Y-51721969D01*
X93847723Y-51878600D01*
X93868344Y-52035231D01*
X93907018Y-52128600D01*
X92852900Y-52128600D01*
X92852900Y-53026444D01*
X92859301Y-53085972D01*
X92859303Y-53085979D01*
X92909545Y-53220686D01*
X92909549Y-53220693D01*
X92995709Y-53335787D01*
X92995712Y-53335790D01*
X93110806Y-53421950D01*
X93110813Y-53421954D01*
X93245520Y-53472196D01*
X93245527Y-53472198D01*
X93305055Y-53478599D01*
X93305072Y-53478600D01*
X94202900Y-53478600D01*
X94202899Y-52424481D01*
X94296269Y-52463156D01*
X94413577Y-52478600D01*
X94492223Y-52478600D01*
X94609531Y-52463156D01*
X94702900Y-52424481D01*
X94702900Y-53478600D01*
X95600728Y-53478600D01*
X95600744Y-53478599D01*
X95660272Y-53472198D01*
X95660279Y-53472196D01*
X95794986Y-53421954D01*
X95794993Y-53421950D01*
X95910087Y-53335790D01*
X95910090Y-53335787D01*
X95996250Y-53220693D01*
X95996254Y-53220686D01*
X96046496Y-53085979D01*
X96046498Y-53085972D01*
X96052899Y-53026444D01*
X96052900Y-53026427D01*
X96052900Y-52128600D01*
X94998782Y-52128600D01*
X95037456Y-52035231D01*
X95058077Y-51878600D01*
X95037456Y-51721969D01*
X94998782Y-51628600D01*
X96052900Y-51628600D01*
X96052900Y-50730772D01*
X96052899Y-50730755D01*
X96046498Y-50671227D01*
X96046496Y-50671220D01*
X95996254Y-50536513D01*
X95996252Y-50536510D01*
X95969723Y-50501072D01*
X95945305Y-50435608D01*
X95960156Y-50367335D01*
X96009561Y-50317929D01*
X96068989Y-50302760D01*
X100022556Y-50302760D01*
X100089595Y-50322445D01*
X100135350Y-50375249D01*
X100145294Y-50444407D01*
X100116269Y-50507963D01*
X100087346Y-50532487D01*
X100009537Y-50580168D01*
X100008720Y-50580866D01*
X100743680Y-51315826D01*
X100650312Y-51354501D01*
X100524975Y-51450675D01*
X100428801Y-51576011D01*
X100390126Y-51669380D01*
X99655166Y-50934420D01*
X99654468Y-50935237D01*
X99522880Y-51149968D01*
X99426503Y-51382643D01*
X99367712Y-51627527D01*
X99347952Y-51878599D01*
X99367712Y-52129672D01*
X99426503Y-52374556D01*
X99522880Y-52607231D01*
X99654466Y-52821958D01*
X99654477Y-52821974D01*
X99655164Y-52822778D01*
X99655166Y-52822778D01*
X100390126Y-52087817D01*
X100428801Y-52181188D01*
X100524975Y-52306525D01*
X100650312Y-52402699D01*
X100743679Y-52441372D01*
X100008719Y-53176332D01*
X100009536Y-53177030D01*
X100009538Y-53177032D01*
X100224268Y-53308619D01*
X100456943Y-53404996D01*
X100701827Y-53463787D01*
X100952899Y-53483547D01*
X101203972Y-53463787D01*
X101448856Y-53404996D01*
X101681531Y-53308619D01*
X101896260Y-53177032D01*
X101896271Y-53177024D01*
X101897079Y-53176332D01*
X101162120Y-52441372D01*
X101255488Y-52402699D01*
X101380825Y-52306525D01*
X101476999Y-52181189D01*
X101515673Y-52087820D01*
X102250632Y-52822779D01*
X102251324Y-52821971D01*
X102251332Y-52821960D01*
X102382919Y-52607231D01*
X102479296Y-52374556D01*
X102538087Y-52129672D01*
X102557847Y-51878599D01*
X102538087Y-51627527D01*
X102479296Y-51382643D01*
X102382919Y-51149968D01*
X102251332Y-50935238D01*
X102251330Y-50935236D01*
X102250632Y-50934419D01*
X101515672Y-51669379D01*
X101476999Y-51576012D01*
X101380825Y-51450675D01*
X101255488Y-51354501D01*
X101162119Y-51315826D01*
X101897078Y-50580866D01*
X101897078Y-50580864D01*
X101896274Y-50580177D01*
X101896258Y-50580166D01*
X101818454Y-50532487D01*
X101771579Y-50480675D01*
X101760156Y-50411746D01*
X101787813Y-50347583D01*
X101845769Y-50308558D01*
X101883244Y-50302760D01*
X157189685Y-50302760D01*
X157256724Y-50322445D01*
X157302479Y-50375249D01*
X157312423Y-50444407D01*
X157283398Y-50507963D01*
X157224620Y-50545737D01*
X157219814Y-50547044D01*
X157001299Y-50601778D01*
X157001296Y-50601779D01*
X156631285Y-50734171D01*
X156631269Y-50734178D01*
X156275980Y-50902217D01*
X155938886Y-51104264D01*
X155623213Y-51338383D01*
X155517467Y-51434224D01*
X156467054Y-52383811D01*
X156405235Y-52342505D01*
X156332314Y-52328000D01*
X156283066Y-52328000D01*
X156210145Y-52342505D01*
X156127450Y-52397760D01*
X156072195Y-52480455D01*
X156052792Y-52578000D01*
X156072195Y-52675545D01*
X156113501Y-52737364D01*
X155163914Y-51787777D01*
X155068073Y-51893523D01*
X154833954Y-52209196D01*
X154631907Y-52546290D01*
X154463868Y-52901579D01*
X154463861Y-52901595D01*
X154331470Y-53271605D01*
X154235974Y-53652846D01*
X154178306Y-54041604D01*
X154159021Y-54434154D01*
X154178306Y-54826705D01*
X154235974Y-55215463D01*
X154331470Y-55596704D01*
X154463861Y-55966714D01*
X154463868Y-55966730D01*
X154631907Y-56322019D01*
X154833954Y-56659113D01*
X155068073Y-56974787D01*
X155163913Y-57080531D01*
X155163914Y-57080531D01*
X156113503Y-56130941D01*
X156072195Y-56192765D01*
X156052792Y-56290310D01*
X156072195Y-56387855D01*
X156127450Y-56470550D01*
X156210145Y-56525805D01*
X156283066Y-56540310D01*
X156332314Y-56540310D01*
X156405235Y-56525805D01*
X156467050Y-56484501D01*
X155517467Y-57434084D01*
X155517467Y-57434085D01*
X155623212Y-57529926D01*
X155938886Y-57764045D01*
X156275980Y-57966092D01*
X156631269Y-58134131D01*
X156631285Y-58134138D01*
X157001295Y-58266529D01*
X157382536Y-58362025D01*
X157771294Y-58419693D01*
X158163845Y-58438978D01*
X158556395Y-58419693D01*
X158945153Y-58362025D01*
X159326394Y-58266529D01*
X159696404Y-58134138D01*
X159696420Y-58134131D01*
X160051709Y-57966092D01*
X160388803Y-57764045D01*
X160704477Y-57529925D01*
X160810221Y-57434084D01*
X159860635Y-56484498D01*
X159922455Y-56525805D01*
X159995376Y-56540310D01*
X160044624Y-56540310D01*
X160117545Y-56525805D01*
X160200240Y-56470550D01*
X160255495Y-56387855D01*
X160274898Y-56290310D01*
X160255495Y-56192765D01*
X160214188Y-56130945D01*
X161163774Y-57080531D01*
X161259615Y-56974787D01*
X161493735Y-56659113D01*
X161695782Y-56322019D01*
X161863821Y-55966730D01*
X161863828Y-55966714D01*
X161996219Y-55596704D01*
X162091715Y-55215463D01*
X162149383Y-54826705D01*
X162168668Y-54434154D01*
X162149383Y-54041604D01*
X162091715Y-53652846D01*
X161996219Y-53271605D01*
X161863828Y-52901595D01*
X161863821Y-52901579D01*
X161695782Y-52546290D01*
X161493735Y-52209196D01*
X161259616Y-51893522D01*
X161163775Y-51787777D01*
X161163774Y-51787777D01*
X160214191Y-52737359D01*
X160255495Y-52675545D01*
X160274898Y-52578000D01*
X160255495Y-52480455D01*
X160200240Y-52397760D01*
X160117545Y-52342505D01*
X160044624Y-52328000D01*
X159995376Y-52328000D01*
X159922455Y-52342505D01*
X159860632Y-52383813D01*
X160810221Y-51434224D01*
X160810221Y-51434223D01*
X160704477Y-51338383D01*
X160388803Y-51104264D01*
X160051709Y-50902217D01*
X159696420Y-50734178D01*
X159696404Y-50734171D01*
X159326393Y-50601779D01*
X159326390Y-50601778D01*
X159107876Y-50547044D01*
X159047628Y-50511660D01*
X159016075Y-50449321D01*
X159023233Y-50379819D01*
X159066831Y-50325220D01*
X159133026Y-50302860D01*
X159138005Y-50302760D01*
X162436000Y-50302760D01*
X162503039Y-50322445D01*
X162548794Y-50375249D01*
X162560000Y-50426760D01*
X162560000Y-97600916D01*
X162540315Y-97667955D01*
X162487511Y-97713710D01*
X162418353Y-97723654D01*
X162354797Y-97694629D01*
X162317023Y-97635851D01*
X162312149Y-97607000D01*
X162305693Y-97475604D01*
X162248025Y-97086846D01*
X162152529Y-96705605D01*
X162020138Y-96335595D01*
X162020131Y-96335579D01*
X161852092Y-95980290D01*
X161650045Y-95643196D01*
X161415926Y-95327522D01*
X161320085Y-95221777D01*
X161320084Y-95221777D01*
X160370501Y-96171359D01*
X160411805Y-96109545D01*
X160431208Y-96012000D01*
X160411805Y-95914455D01*
X160356550Y-95831760D01*
X160273855Y-95776505D01*
X160200934Y-95762000D01*
X160151686Y-95762000D01*
X160078765Y-95776505D01*
X160016942Y-95817813D01*
X160966531Y-94868224D01*
X160966531Y-94868223D01*
X160860787Y-94772383D01*
X160545113Y-94538264D01*
X160208019Y-94336217D01*
X159852730Y-94168178D01*
X159852714Y-94168171D01*
X159482704Y-94035780D01*
X159101463Y-93940284D01*
X158712705Y-93882616D01*
X158320155Y-93863331D01*
X157927604Y-93882616D01*
X157538846Y-93940284D01*
X157157605Y-94035780D01*
X156787595Y-94168171D01*
X156787579Y-94168178D01*
X156432290Y-94336217D01*
X156095196Y-94538264D01*
X155779523Y-94772383D01*
X155673777Y-94868224D01*
X156623364Y-95817811D01*
X156561545Y-95776505D01*
X156488624Y-95762000D01*
X156439376Y-95762000D01*
X156366455Y-95776505D01*
X156283760Y-95831760D01*
X156228505Y-95914455D01*
X156209102Y-96012000D01*
X156228505Y-96109545D01*
X156269811Y-96171364D01*
X155320224Y-95221777D01*
X155224383Y-95327523D01*
X154990264Y-95643196D01*
X154788217Y-95980290D01*
X154620178Y-96335579D01*
X154620171Y-96335595D01*
X154487780Y-96705605D01*
X154392284Y-97086846D01*
X154334616Y-97475604D01*
X154315331Y-97868154D01*
X154334616Y-98260705D01*
X154392284Y-98649463D01*
X154487780Y-99030704D01*
X154620171Y-99400714D01*
X154620178Y-99400730D01*
X154788217Y-99756019D01*
X154990264Y-100093113D01*
X155224383Y-100408787D01*
X155320223Y-100514531D01*
X155320224Y-100514531D01*
X156269813Y-99564941D01*
X156228505Y-99626765D01*
X156209102Y-99724310D01*
X156228505Y-99821855D01*
X156283760Y-99904550D01*
X156366455Y-99959805D01*
X156439376Y-99974310D01*
X156488624Y-99974310D01*
X156561545Y-99959805D01*
X156623360Y-99918501D01*
X155673777Y-100868084D01*
X155673777Y-100868085D01*
X155779522Y-100963926D01*
X156095196Y-101198045D01*
X156432290Y-101400092D01*
X156787579Y-101568131D01*
X156787595Y-101568138D01*
X157157605Y-101700529D01*
X157538846Y-101796025D01*
X157927604Y-101853693D01*
X158320155Y-101872978D01*
X158712705Y-101853693D01*
X159101463Y-101796025D01*
X159482704Y-101700529D01*
X159852714Y-101568138D01*
X159852730Y-101568131D01*
X160208019Y-101400092D01*
X160545113Y-101198045D01*
X160860787Y-100963925D01*
X160966531Y-100868084D01*
X160016945Y-99918498D01*
X160078765Y-99959805D01*
X160151686Y-99974310D01*
X160200934Y-99974310D01*
X160273855Y-99959805D01*
X160356550Y-99904550D01*
X160411805Y-99821855D01*
X160431208Y-99724310D01*
X160411805Y-99626765D01*
X160370498Y-99564945D01*
X161320084Y-100514531D01*
X161415925Y-100408787D01*
X161650045Y-100093113D01*
X161852092Y-99756019D01*
X162020131Y-99400730D01*
X162020138Y-99400714D01*
X162152529Y-99030704D01*
X162248025Y-98649463D01*
X162305693Y-98260705D01*
X162312149Y-98129309D01*
X162335100Y-98063316D01*
X162390085Y-98020207D01*
X162459648Y-98013669D01*
X162521703Y-98045777D01*
X162556548Y-98106338D01*
X162560000Y-98135393D01*
X162560000Y-102279240D01*
X162540315Y-102346279D01*
X162487511Y-102392034D01*
X162436000Y-102403240D01*
X145535676Y-102403240D01*
X145468637Y-102383555D01*
X145422882Y-102330751D01*
X145412938Y-102261593D01*
X145441963Y-102198037D01*
X145442858Y-102197016D01*
X145449146Y-102189917D01*
X145471951Y-102164175D01*
X145474485Y-102161483D01*
X147804533Y-99831435D01*
X147807208Y-99828916D01*
X147854215Y-99787273D01*
X147889870Y-99735615D01*
X147892067Y-99732631D01*
X147898587Y-99724310D01*
X147930775Y-99683226D01*
X147935033Y-99673764D01*
X147946060Y-99654213D01*
X147951954Y-99645675D01*
X147974213Y-99586978D01*
X147975622Y-99583577D01*
X148001389Y-99526329D01*
X148003260Y-99516116D01*
X148009288Y-99494495D01*
X148012965Y-99484801D01*
X148020527Y-99422521D01*
X148021090Y-99418817D01*
X148032402Y-99357092D01*
X148028613Y-99294447D01*
X148028500Y-99290703D01*
X148028500Y-98255138D01*
X148017994Y-98168620D01*
X148012965Y-98127199D01*
X147951954Y-97966325D01*
X147854215Y-97824727D01*
X147854213Y-97824725D01*
X147854210Y-97824722D01*
X147725432Y-97710634D01*
X147573079Y-97630673D01*
X147406028Y-97589500D01*
X147233972Y-97589500D01*
X147066920Y-97630673D01*
X146914567Y-97710634D01*
X146785789Y-97824722D01*
X146785786Y-97824725D01*
X146688045Y-97966326D01*
X146627035Y-98127197D01*
X146611500Y-98255138D01*
X146611500Y-98969167D01*
X146591815Y-99036206D01*
X146575181Y-99056848D01*
X144699899Y-100932131D01*
X144638576Y-100965616D01*
X144612218Y-100968450D01*
X110403782Y-100968450D01*
X110336743Y-100948765D01*
X110316101Y-100932131D01*
X110316100Y-100932131D01*
X110245434Y-100861464D01*
X110242900Y-100858772D01*
X110201273Y-100811785D01*
X110201272Y-100811784D01*
X110201271Y-100811783D01*
X110149628Y-100776136D01*
X110146611Y-100773916D01*
X110097227Y-100735225D01*
X110091235Y-100732528D01*
X110087760Y-100730964D01*
X110068216Y-100719941D01*
X110063210Y-100716486D01*
X110059677Y-100714047D01*
X110059672Y-100714044D01*
X110001015Y-100691798D01*
X109997555Y-100690365D01*
X109940331Y-100664611D01*
X109940332Y-100664611D01*
X109930110Y-100662738D01*
X109908510Y-100656716D01*
X109898801Y-100653035D01*
X109898797Y-100653034D01*
X109898796Y-100653034D01*
X109836511Y-100645470D01*
X109832810Y-100644907D01*
X109771096Y-100633598D01*
X109771090Y-100633598D01*
X109708455Y-100637387D01*
X109704710Y-100637500D01*
X104718500Y-100637500D01*
X104651461Y-100617815D01*
X104605706Y-100565011D01*
X104594500Y-100513500D01*
X104594500Y-97958004D01*
X105482732Y-97958004D01*
X105501777Y-98212154D01*
X105557050Y-98454322D01*
X105558492Y-98460637D01*
X105651607Y-98697888D01*
X105779041Y-98918612D01*
X105937950Y-99117877D01*
X106124783Y-99291232D01*
X106335366Y-99434805D01*
X106335371Y-99434807D01*
X106335372Y-99434808D01*
X106335373Y-99434809D01*
X106439184Y-99484801D01*
X106564992Y-99545387D01*
X106564993Y-99545387D01*
X106564996Y-99545389D01*
X106808542Y-99620513D01*
X107060565Y-99658500D01*
X107315435Y-99658500D01*
X107567458Y-99620513D01*
X107811004Y-99545389D01*
X108040634Y-99434805D01*
X108251217Y-99291232D01*
X108438050Y-99117877D01*
X108596959Y-98918612D01*
X108724393Y-98697888D01*
X108817508Y-98460637D01*
X108854628Y-98298004D01*
X137994732Y-98298004D01*
X138013777Y-98552154D01*
X138047040Y-98697890D01*
X138070492Y-98800637D01*
X138163607Y-99037888D01*
X138291041Y-99258612D01*
X138449950Y-99457877D01*
X138636783Y-99631232D01*
X138847366Y-99774805D01*
X138847371Y-99774807D01*
X138847372Y-99774808D01*
X138847373Y-99774809D01*
X138945066Y-99821855D01*
X139076992Y-99885387D01*
X139076993Y-99885387D01*
X139076996Y-99885389D01*
X139320542Y-99960513D01*
X139572565Y-99998500D01*
X139827435Y-99998500D01*
X140079458Y-99960513D01*
X140323004Y-99885389D01*
X140552634Y-99774805D01*
X140763217Y-99631232D01*
X140950050Y-99457877D01*
X141108959Y-99258612D01*
X141236393Y-99037888D01*
X141329508Y-98800637D01*
X141386222Y-98552157D01*
X141405268Y-98298000D01*
X141404770Y-98291358D01*
X141386222Y-98043845D01*
X141376510Y-98001295D01*
X141329508Y-97795363D01*
X141236393Y-97558112D01*
X141108959Y-97337388D01*
X140950050Y-97138123D01*
X140763217Y-96964768D01*
X140552634Y-96821195D01*
X140552630Y-96821193D01*
X140552627Y-96821191D01*
X140552626Y-96821190D01*
X140323006Y-96710612D01*
X140323008Y-96710612D01*
X140079466Y-96635489D01*
X140079462Y-96635488D01*
X140079458Y-96635487D01*
X139958231Y-96617214D01*
X139827440Y-96597500D01*
X139827435Y-96597500D01*
X139572565Y-96597500D01*
X139572559Y-96597500D01*
X139415609Y-96621157D01*
X139320542Y-96635487D01*
X139320538Y-96635488D01*
X139320539Y-96635488D01*
X139320533Y-96635489D01*
X139076992Y-96710612D01*
X138847373Y-96821190D01*
X138847372Y-96821191D01*
X138636782Y-96964768D01*
X138449952Y-97138121D01*
X138449950Y-97138123D01*
X138291041Y-97337388D01*
X138163608Y-97558109D01*
X138070492Y-97795362D01*
X138070490Y-97795369D01*
X138013777Y-98043845D01*
X137994732Y-98297995D01*
X137994732Y-98298004D01*
X108854628Y-98298004D01*
X108874222Y-98212157D01*
X108886835Y-98043843D01*
X108893268Y-97958004D01*
X108893268Y-97957995D01*
X108877730Y-97750659D01*
X108874222Y-97703843D01*
X108817508Y-97455363D01*
X108724393Y-97218112D01*
X108596959Y-96997388D01*
X108438050Y-96798123D01*
X108251217Y-96624768D01*
X108040634Y-96481195D01*
X108040630Y-96481193D01*
X108040627Y-96481191D01*
X108040626Y-96481190D01*
X107811006Y-96370612D01*
X107811008Y-96370612D01*
X107567466Y-96295489D01*
X107567462Y-96295488D01*
X107567458Y-96295487D01*
X107446231Y-96277214D01*
X107315440Y-96257500D01*
X107315435Y-96257500D01*
X107060565Y-96257500D01*
X107060559Y-96257500D01*
X106903609Y-96281157D01*
X106808542Y-96295487D01*
X106808538Y-96295488D01*
X106808539Y-96295488D01*
X106808533Y-96295489D01*
X106564992Y-96370612D01*
X106335373Y-96481190D01*
X106335372Y-96481191D01*
X106124782Y-96624768D01*
X105937952Y-96798121D01*
X105937950Y-96798123D01*
X105779041Y-96997388D01*
X105651608Y-97218109D01*
X105558492Y-97455362D01*
X105558490Y-97455369D01*
X105501777Y-97703845D01*
X105482732Y-97957995D01*
X105482732Y-97958004D01*
X104594500Y-97958004D01*
X104594500Y-87466832D01*
X104614185Y-87399793D01*
X104630819Y-87379151D01*
X105433288Y-86576682D01*
X105433291Y-86576679D01*
X105512775Y-86475226D01*
X105583389Y-86318329D01*
X105614402Y-86149092D01*
X105614261Y-86146769D01*
X105609401Y-86066417D01*
X105604014Y-85977351D01*
X105604013Y-85977347D01*
X105604013Y-85977346D01*
X105552829Y-85813093D01*
X105552828Y-85813089D01*
X105547294Y-85803934D01*
X105463816Y-85665846D01*
X105463814Y-85665844D01*
X105463813Y-85665842D01*
X105342157Y-85544186D01*
X105194910Y-85455171D01*
X105194906Y-85455170D01*
X105030651Y-85403986D01*
X104858910Y-85393597D01*
X104858905Y-85393598D01*
X104689669Y-85424611D01*
X104689668Y-85424611D01*
X104532777Y-85495222D01*
X104532776Y-85495223D01*
X104431317Y-85574711D01*
X103401480Y-86604548D01*
X103398753Y-86607115D01*
X103351782Y-86648728D01*
X103351780Y-86648731D01*
X103316138Y-86700367D01*
X103313920Y-86703382D01*
X103275223Y-86752777D01*
X103270962Y-86762243D01*
X103259947Y-86781774D01*
X103254048Y-86790320D01*
X103254044Y-86790328D01*
X103231794Y-86848995D01*
X103230361Y-86852454D01*
X103204610Y-86909670D01*
X103204609Y-86909673D01*
X103202737Y-86919889D01*
X103196715Y-86941494D01*
X103193035Y-86951198D01*
X103185470Y-87013490D01*
X103184908Y-87017179D01*
X103184427Y-87019809D01*
X103173598Y-87078903D01*
X103173598Y-87078908D01*
X103177387Y-87141544D01*
X103177500Y-87145289D01*
X103177500Y-101432027D01*
X103186933Y-101470298D01*
X103188283Y-101477669D01*
X103193034Y-101516798D01*
X103207013Y-101553663D01*
X103209242Y-101560814D01*
X103218675Y-101599082D01*
X103218676Y-101599086D01*
X103236991Y-101633983D01*
X103240065Y-101640813D01*
X103254044Y-101677672D01*
X103254045Y-101677674D01*
X103254046Y-101677675D01*
X103269821Y-101700529D01*
X103276435Y-101710110D01*
X103280312Y-101716523D01*
X103298633Y-101751430D01*
X103324777Y-101780940D01*
X103329385Y-101786822D01*
X103346927Y-101812235D01*
X103351784Y-101819272D01*
X103381288Y-101845410D01*
X103386588Y-101850710D01*
X103412727Y-101880215D01*
X103445171Y-101902609D01*
X103451056Y-101907219D01*
X103480570Y-101933367D01*
X103480569Y-101933367D01*
X103498040Y-101942536D01*
X103515478Y-101951687D01*
X103521882Y-101955559D01*
X103554325Y-101977954D01*
X103591190Y-101991935D01*
X103598011Y-101995005D01*
X103632917Y-102013325D01*
X103632919Y-102013325D01*
X103632920Y-102013326D01*
X103671188Y-102022758D01*
X103678330Y-102024982D01*
X103715199Y-102038965D01*
X103754347Y-102043717D01*
X103761687Y-102045063D01*
X103799972Y-102054500D01*
X103843141Y-102054500D01*
X109383168Y-102054500D01*
X109450207Y-102074185D01*
X109470849Y-102090819D01*
X109541513Y-102161483D01*
X109544064Y-102164194D01*
X109573140Y-102197014D01*
X109602861Y-102260246D01*
X109593677Y-102329510D01*
X109548505Y-102382813D01*
X109481686Y-102403233D01*
X109480324Y-102403240D01*
X50924000Y-102403240D01*
X50856961Y-102383555D01*
X50811206Y-102330751D01*
X50800000Y-102279240D01*
X50800000Y-98291358D01*
X50819685Y-98224319D01*
X50872489Y-98178564D01*
X50941647Y-98168620D01*
X51005203Y-98197645D01*
X51042977Y-98256423D01*
X51044284Y-98261229D01*
X51109778Y-98522700D01*
X51109779Y-98522703D01*
X51242171Y-98892714D01*
X51242178Y-98892730D01*
X51410217Y-99248019D01*
X51612264Y-99585113D01*
X51846383Y-99900787D01*
X51942223Y-100006531D01*
X51942224Y-100006531D01*
X52891813Y-99056941D01*
X52850505Y-99118765D01*
X52831102Y-99216310D01*
X52850505Y-99313855D01*
X52905760Y-99396550D01*
X52988455Y-99451805D01*
X53061376Y-99466310D01*
X53110624Y-99466310D01*
X53183545Y-99451805D01*
X53245360Y-99410501D01*
X52295777Y-100360084D01*
X52295777Y-100360085D01*
X52401522Y-100455926D01*
X52717196Y-100690045D01*
X53054290Y-100892092D01*
X53409579Y-101060131D01*
X53409595Y-101060138D01*
X53779605Y-101192529D01*
X54160846Y-101288025D01*
X54549604Y-101345693D01*
X54942154Y-101364978D01*
X55334705Y-101345693D01*
X55723463Y-101288025D01*
X56104704Y-101192529D01*
X56474714Y-101060138D01*
X56474730Y-101060131D01*
X56830019Y-100892092D01*
X57167113Y-100690045D01*
X57482787Y-100455925D01*
X57588531Y-100360084D01*
X56638945Y-99410498D01*
X56700765Y-99451805D01*
X56773686Y-99466310D01*
X56822934Y-99466310D01*
X56895855Y-99451805D01*
X56978550Y-99396550D01*
X57033805Y-99313855D01*
X57053208Y-99216310D01*
X57033805Y-99118765D01*
X56992499Y-99056946D01*
X57942084Y-100006531D01*
X58037925Y-99900787D01*
X58272045Y-99585113D01*
X58474092Y-99248019D01*
X58642131Y-98892730D01*
X58642138Y-98892714D01*
X58774529Y-98522704D01*
X58870025Y-98141463D01*
X58927693Y-97752705D01*
X58946978Y-97360155D01*
X58927693Y-96967604D01*
X58870025Y-96578846D01*
X58774529Y-96197605D01*
X58642138Y-95827595D01*
X58642131Y-95827579D01*
X58474092Y-95472290D01*
X58272045Y-95135196D01*
X58037926Y-94819522D01*
X57942085Y-94713777D01*
X57942084Y-94713777D01*
X56992502Y-95663358D01*
X57033805Y-95601545D01*
X57053208Y-95504000D01*
X57033805Y-95406455D01*
X56978550Y-95323760D01*
X56895855Y-95268505D01*
X56822934Y-95254000D01*
X56773686Y-95254000D01*
X56700765Y-95268505D01*
X56638942Y-95309813D01*
X57588531Y-94360224D01*
X57588531Y-94360223D01*
X57482787Y-94264383D01*
X57167113Y-94030264D01*
X56830019Y-93828217D01*
X56574788Y-93707502D01*
X91031750Y-93707502D01*
X91043381Y-93765979D01*
X91043382Y-93765980D01*
X91087697Y-93832302D01*
X91154019Y-93876617D01*
X91154020Y-93876618D01*
X91212497Y-93888249D01*
X91212500Y-93888250D01*
X91212502Y-93888250D01*
X93157000Y-93888250D01*
X93157001Y-93888249D01*
X93171818Y-93885302D01*
X93215479Y-93876618D01*
X93215479Y-93876617D01*
X93215481Y-93876617D01*
X93281802Y-93832302D01*
X93326117Y-93765981D01*
X93326117Y-93765979D01*
X93326118Y-93765979D01*
X93337749Y-93707502D01*
X93337750Y-93707498D01*
X93337750Y-93684441D01*
X93357431Y-93617405D01*
X93410234Y-93571648D01*
X93479392Y-93561703D01*
X93542949Y-93590725D01*
X93565556Y-93616617D01*
X93574594Y-93630451D01*
X93574601Y-93630460D01*
X93737623Y-93807547D01*
X93737633Y-93807556D01*
X93927581Y-93955399D01*
X93927590Y-93955405D01*
X94139281Y-94069965D01*
X94139295Y-94069971D01*
X94366957Y-94148129D01*
X94474750Y-94166116D01*
X94474750Y-93179433D01*
X94503569Y-93196959D01*
X94649154Y-93237750D01*
X94762372Y-93237750D01*
X94874533Y-93222334D01*
X94974750Y-93178803D01*
X94974750Y-94166115D01*
X95082542Y-94148129D01*
X95310204Y-94069971D01*
X95310218Y-94069965D01*
X95521909Y-93955405D01*
X95521918Y-93955399D01*
X95711866Y-93807556D01*
X95711876Y-93807547D01*
X95874898Y-93630460D01*
X95874906Y-93630449D01*
X96006561Y-93428937D01*
X96047912Y-93334665D01*
X96092868Y-93281179D01*
X96159604Y-93260488D01*
X96226932Y-93279162D01*
X96272469Y-93329201D01*
X96280249Y-93344825D01*
X96280251Y-93344829D01*
X96409023Y-93515351D01*
X96566934Y-93659305D01*
X96566936Y-93659307D01*
X96748608Y-93771793D01*
X96748614Y-93771796D01*
X96790824Y-93788148D01*
X96947865Y-93848986D01*
X97157909Y-93888250D01*
X97157911Y-93888250D01*
X97371589Y-93888250D01*
X97371591Y-93888250D01*
X97581635Y-93848986D01*
X97780888Y-93771795D01*
X97962565Y-93659306D01*
X98120478Y-93515349D01*
X98249250Y-93344827D01*
X98344497Y-93153546D01*
X98402974Y-92948021D01*
X98417750Y-92788561D01*
X98417750Y-92586939D01*
X98402974Y-92427479D01*
X98344497Y-92221954D01*
X98344492Y-92221943D01*
X98249253Y-92030678D01*
X98249248Y-92030670D01*
X98120476Y-91860148D01*
X97962565Y-91716194D01*
X97962563Y-91716192D01*
X97780891Y-91603706D01*
X97780885Y-91603703D01*
X97623847Y-91542867D01*
X97581635Y-91526514D01*
X97371591Y-91487250D01*
X97157909Y-91487250D01*
X96947865Y-91526514D01*
X96947862Y-91526514D01*
X96947862Y-91526515D01*
X96748614Y-91603703D01*
X96748608Y-91603706D01*
X96566936Y-91716192D01*
X96566934Y-91716194D01*
X96409023Y-91860148D01*
X96280251Y-92030670D01*
X96280248Y-92030675D01*
X96272468Y-92046300D01*
X96224963Y-92097535D01*
X96157300Y-92114955D01*
X96090960Y-92093027D01*
X96047913Y-92040834D01*
X96006564Y-91946567D01*
X95874906Y-91745050D01*
X95874898Y-91745039D01*
X95711876Y-91567952D01*
X95711866Y-91567943D01*
X95521918Y-91420100D01*
X95521909Y-91420094D01*
X95310218Y-91305534D01*
X95310204Y-91305528D01*
X95082541Y-91227369D01*
X94974750Y-91209383D01*
X94974750Y-92196066D01*
X94945931Y-92178541D01*
X94800346Y-92137750D01*
X94687128Y-92137750D01*
X94574967Y-92153166D01*
X94474750Y-92196696D01*
X94474750Y-91209383D01*
X94474749Y-91209383D01*
X94366958Y-91227369D01*
X94139295Y-91305528D01*
X94139281Y-91305534D01*
X93927590Y-91420094D01*
X93927581Y-91420100D01*
X93737633Y-91567943D01*
X93737623Y-91567952D01*
X93574601Y-91745039D01*
X93574593Y-91745050D01*
X93565554Y-91758885D01*
X93512405Y-91804239D01*
X93443174Y-91813659D01*
X93379839Y-91784154D01*
X93342511Y-91725091D01*
X93337750Y-91691061D01*
X93337750Y-91668002D01*
X93327317Y-91615550D01*
X93326118Y-91609520D01*
X93326117Y-91609519D01*
X93281802Y-91543197D01*
X93215480Y-91498882D01*
X93215479Y-91498881D01*
X93157002Y-91487250D01*
X93156998Y-91487250D01*
X91212502Y-91487250D01*
X91212497Y-91487250D01*
X91154020Y-91498881D01*
X91154019Y-91498882D01*
X91087697Y-91543197D01*
X91043382Y-91609519D01*
X91043381Y-91609520D01*
X91031750Y-91667997D01*
X91031750Y-93707502D01*
X56574788Y-93707502D01*
X56474730Y-93660178D01*
X56474714Y-93660171D01*
X56104704Y-93527780D01*
X55723463Y-93432284D01*
X55334705Y-93374616D01*
X54942154Y-93355331D01*
X54549604Y-93374616D01*
X54160846Y-93432284D01*
X53779605Y-93527780D01*
X53409595Y-93660171D01*
X53409579Y-93660178D01*
X53054290Y-93828217D01*
X52717196Y-94030264D01*
X52401523Y-94264383D01*
X52295777Y-94360224D01*
X53245364Y-95309811D01*
X53183545Y-95268505D01*
X53110624Y-95254000D01*
X53061376Y-95254000D01*
X52988455Y-95268505D01*
X52905760Y-95323760D01*
X52850505Y-95406455D01*
X52831102Y-95504000D01*
X52850505Y-95601545D01*
X52891810Y-95663363D01*
X51942224Y-94713777D01*
X51846383Y-94819523D01*
X51612264Y-95135196D01*
X51410217Y-95472290D01*
X51242178Y-95827579D01*
X51242171Y-95827595D01*
X51109780Y-96197605D01*
X51044284Y-96459081D01*
X51008900Y-96519328D01*
X50946561Y-96550881D01*
X50877059Y-96543723D01*
X50822460Y-96500125D01*
X50800100Y-96433930D01*
X50800000Y-96428951D01*
X50800000Y-83820001D01*
X62510891Y-83820001D01*
X62531300Y-84105362D01*
X62592109Y-84384895D01*
X62692091Y-84652958D01*
X62829191Y-84904038D01*
X62829196Y-84904046D01*
X62935882Y-85046561D01*
X62935883Y-85046562D01*
X63838803Y-84143641D01*
X63862059Y-84197553D01*
X63966756Y-84338185D01*
X64101062Y-84450882D01*
X64192665Y-84496886D01*
X63289436Y-85400115D01*
X63431960Y-85506807D01*
X63431961Y-85506808D01*
X63683042Y-85643908D01*
X63683041Y-85643908D01*
X63951104Y-85743890D01*
X64230637Y-85804699D01*
X64515999Y-85825109D01*
X64516001Y-85825109D01*
X64801362Y-85804699D01*
X65080895Y-85743890D01*
X65348958Y-85643908D01*
X65600047Y-85506803D01*
X65742561Y-85400116D01*
X65742562Y-85400115D01*
X64841946Y-84499498D01*
X64854891Y-84494787D01*
X65001373Y-84398445D01*
X65121688Y-84270918D01*
X65194447Y-84144894D01*
X66096115Y-85046562D01*
X66096116Y-85046561D01*
X66202803Y-84904047D01*
X66339908Y-84652958D01*
X66439890Y-84384895D01*
X66500699Y-84105362D01*
X66521109Y-83820001D01*
X66521109Y-83819998D01*
X66500699Y-83534637D01*
X66439890Y-83255104D01*
X66339908Y-82987041D01*
X66202808Y-82735961D01*
X66202807Y-82735960D01*
X66096115Y-82593436D01*
X65193195Y-83496356D01*
X65169941Y-83442447D01*
X65065244Y-83301815D01*
X64930938Y-83189118D01*
X64839333Y-83143112D01*
X65742562Y-82239883D01*
X65742561Y-82239882D01*
X65600046Y-82133196D01*
X65600038Y-82133191D01*
X65348957Y-81996091D01*
X65348958Y-81996091D01*
X65080895Y-81896109D01*
X64801362Y-81835300D01*
X64516001Y-81814891D01*
X64515999Y-81814891D01*
X64230637Y-81835300D01*
X63951104Y-81896109D01*
X63683041Y-81996091D01*
X63431961Y-82133191D01*
X63431953Y-82133196D01*
X63289437Y-82239882D01*
X63289436Y-82239883D01*
X64190054Y-83140501D01*
X64177109Y-83145213D01*
X64030627Y-83241555D01*
X63910312Y-83369082D01*
X63837552Y-83495105D01*
X62935883Y-82593436D01*
X62935882Y-82593437D01*
X62829196Y-82735953D01*
X62829191Y-82735961D01*
X62692091Y-82987041D01*
X62592109Y-83255104D01*
X62531300Y-83534637D01*
X62510891Y-83819998D01*
X62510891Y-83820001D01*
X50800000Y-83820001D01*
X50800000Y-79635999D01*
X51144417Y-79635999D01*
X51164699Y-79841932D01*
X51191883Y-79931547D01*
X51224768Y-80039954D01*
X51322315Y-80222450D01*
X51322317Y-80222452D01*
X51453589Y-80382410D01*
X51550209Y-80461702D01*
X51613550Y-80513685D01*
X51796046Y-80611232D01*
X51994066Y-80671300D01*
X51994065Y-80671300D01*
X52032647Y-80675100D01*
X52148392Y-80686500D01*
X52148395Y-80686500D01*
X52251605Y-80686500D01*
X52251608Y-80686500D01*
X52405934Y-80671300D01*
X52603954Y-80611232D01*
X52786450Y-80513685D01*
X52946410Y-80382410D01*
X53077685Y-80222450D01*
X53175232Y-80039954D01*
X53235300Y-79841934D01*
X53245083Y-79742610D01*
X55449500Y-79742610D01*
X55488679Y-79952198D01*
X55488680Y-79952200D01*
X55551377Y-80114043D01*
X55565702Y-80151019D01*
X55677948Y-80332302D01*
X55721141Y-80379682D01*
X55821593Y-80489872D01*
X55991746Y-80618367D01*
X56182606Y-80713403D01*
X56182608Y-80713403D01*
X56182611Y-80713405D01*
X56387690Y-80771756D01*
X56546806Y-80786500D01*
X56546810Y-80786500D01*
X56653190Y-80786500D01*
X56653194Y-80786500D01*
X56812310Y-80771756D01*
X57017389Y-80713405D01*
X57017393Y-80713403D01*
X57017394Y-80713403D01*
X57208253Y-80618367D01*
X57208253Y-80618366D01*
X57208255Y-80618366D01*
X57378407Y-80489872D01*
X57522052Y-80332302D01*
X57634298Y-80151019D01*
X57711321Y-79952198D01*
X57750500Y-79742610D01*
X57750500Y-79529390D01*
X57711321Y-79319802D01*
X57634298Y-79120981D01*
X57522052Y-78939698D01*
X57378407Y-78782128D01*
X57378406Y-78782127D01*
X57208253Y-78653632D01*
X57017393Y-78558596D01*
X56812310Y-78500244D01*
X56812309Y-78500244D01*
X56653194Y-78485500D01*
X56546806Y-78485500D01*
X56419513Y-78497295D01*
X56387689Y-78500244D01*
X56182607Y-78558596D01*
X56182605Y-78558596D01*
X55991746Y-78653632D01*
X55821593Y-78782127D01*
X55677947Y-78939699D01*
X55565702Y-79120980D01*
X55565701Y-79120982D01*
X55497874Y-79296066D01*
X55488679Y-79319802D01*
X55449500Y-79529390D01*
X55449500Y-79742610D01*
X53245083Y-79742610D01*
X53255583Y-79636000D01*
X53235300Y-79430066D01*
X53175232Y-79232046D01*
X53077685Y-79049550D01*
X53014495Y-78972552D01*
X52946410Y-78889589D01*
X52786452Y-78758317D01*
X52786453Y-78758317D01*
X52786450Y-78758315D01*
X52603954Y-78660768D01*
X52405934Y-78600700D01*
X52405932Y-78600699D01*
X52405934Y-78600699D01*
X52286805Y-78588966D01*
X52251608Y-78585500D01*
X52148392Y-78585500D01*
X52110298Y-78589251D01*
X51994067Y-78600699D01*
X51796043Y-78660769D01*
X51685898Y-78719643D01*
X51613550Y-78758315D01*
X51613548Y-78758316D01*
X51613547Y-78758317D01*
X51453589Y-78889589D01*
X51322317Y-79049547D01*
X51224769Y-79232043D01*
X51164699Y-79430067D01*
X51144417Y-79635999D01*
X50800000Y-79635999D01*
X50800000Y-69345752D01*
X53306000Y-69345752D01*
X53317631Y-69404229D01*
X53317632Y-69404230D01*
X53361947Y-69470552D01*
X53428269Y-69514867D01*
X53428270Y-69514868D01*
X53486747Y-69526499D01*
X53486750Y-69526500D01*
X53486752Y-69526500D01*
X55526250Y-69526500D01*
X55526251Y-69526499D01*
X55541068Y-69523552D01*
X55584729Y-69514868D01*
X55584729Y-69514867D01*
X55584731Y-69514867D01*
X55651052Y-69470552D01*
X55695367Y-69404231D01*
X55695367Y-69404229D01*
X55695368Y-69404229D01*
X55706999Y-69345752D01*
X55707000Y-69345750D01*
X55707000Y-69321370D01*
X55726685Y-69254331D01*
X55779489Y-69208576D01*
X55816428Y-69202518D01*
X56563423Y-68455523D01*
X56587007Y-68535844D01*
X56664739Y-68656798D01*
X56773400Y-68750952D01*
X56904185Y-68810680D01*
X56913966Y-68812086D01*
X56176442Y-69549609D01*
X56223268Y-69586055D01*
X56223270Y-69586056D01*
X56441885Y-69704364D01*
X56441896Y-69704369D01*
X56677006Y-69785083D01*
X56922207Y-69826000D01*
X57170793Y-69826000D01*
X57415993Y-69785083D01*
X57651103Y-69704369D01*
X57651114Y-69704364D01*
X57869728Y-69586057D01*
X57869731Y-69586055D01*
X57916556Y-69549609D01*
X57179033Y-68812086D01*
X57188815Y-68810680D01*
X57319600Y-68750952D01*
X57428261Y-68656798D01*
X57505993Y-68535844D01*
X57529576Y-68455524D01*
X58269934Y-69195882D01*
X58370231Y-69042369D01*
X58470087Y-68814717D01*
X58531112Y-68573738D01*
X58531114Y-68573729D01*
X58551641Y-68326005D01*
X58551641Y-68325994D01*
X58531114Y-68078270D01*
X58531112Y-68078261D01*
X58470087Y-67837282D01*
X58370231Y-67609630D01*
X58269934Y-67456116D01*
X57529576Y-68196475D01*
X57505993Y-68116156D01*
X57428261Y-67995202D01*
X57319600Y-67901048D01*
X57188815Y-67841320D01*
X57179034Y-67839913D01*
X57916557Y-67102390D01*
X57916556Y-67102389D01*
X57869729Y-67065943D01*
X57651114Y-66947635D01*
X57651103Y-66947630D01*
X57415993Y-66866916D01*
X57170793Y-66826000D01*
X56922207Y-66826000D01*
X56677006Y-66866916D01*
X56441896Y-66947630D01*
X56441890Y-66947632D01*
X56223261Y-67065949D01*
X56176442Y-67102388D01*
X56176442Y-67102390D01*
X56913966Y-67839913D01*
X56904185Y-67841320D01*
X56773400Y-67901048D01*
X56664739Y-67995202D01*
X56587007Y-68116156D01*
X56563423Y-68196475D01*
X55815745Y-67448797D01*
X55775077Y-67441301D01*
X55724120Y-67393498D01*
X55707000Y-67330628D01*
X55707000Y-67306249D01*
X55706999Y-67306247D01*
X55695368Y-67247770D01*
X55695367Y-67247769D01*
X55651052Y-67181447D01*
X55584730Y-67137132D01*
X55584729Y-67137131D01*
X55526252Y-67125500D01*
X55526248Y-67125500D01*
X53486752Y-67125500D01*
X53486747Y-67125500D01*
X53428270Y-67137131D01*
X53428269Y-67137132D01*
X53361947Y-67181447D01*
X53317632Y-67247769D01*
X53317631Y-67247770D01*
X53306000Y-67306247D01*
X53306000Y-69345752D01*
X50800000Y-69345752D01*
X50800000Y-59182001D01*
X70025482Y-59182001D01*
X70045466Y-59333800D01*
X70045467Y-59333802D01*
X70097609Y-59459684D01*
X70104061Y-59475259D01*
X70135876Y-59516722D01*
X70161070Y-59581890D01*
X70161500Y-59592207D01*
X70161500Y-61499816D01*
X70161110Y-61506754D01*
X70160061Y-61516067D01*
X70156729Y-61545635D01*
X70167571Y-61602934D01*
X70167959Y-61605218D01*
X70176652Y-61662890D01*
X70179162Y-61671026D01*
X70181976Y-61679069D01*
X70209229Y-61730635D01*
X70210274Y-61732704D01*
X70235574Y-61785241D01*
X70240362Y-61792264D01*
X70245431Y-61799131D01*
X70245434Y-61799137D01*
X70245438Y-61799141D01*
X70286667Y-61840370D01*
X70288276Y-61842040D01*
X70327947Y-61884795D01*
X70335210Y-61890587D01*
X70334689Y-61891240D01*
X70346930Y-61900633D01*
X81129880Y-72683583D01*
X91854117Y-83407819D01*
X91887602Y-83469142D01*
X91882618Y-83538834D01*
X91840746Y-83594767D01*
X91775282Y-83619184D01*
X91766436Y-83619500D01*
X90260833Y-83619500D01*
X90193794Y-83599815D01*
X90173152Y-83583181D01*
X89131225Y-82541254D01*
X89097740Y-82479931D01*
X89095810Y-82468519D01*
X89093421Y-82448843D01*
X89084965Y-82379199D01*
X89023954Y-82218325D01*
X88926215Y-82076727D01*
X88926213Y-82076725D01*
X88926210Y-82076722D01*
X88797432Y-81962634D01*
X88665150Y-81893207D01*
X88645083Y-81882675D01*
X88645082Y-81882674D01*
X88645079Y-81882673D01*
X88478028Y-81841500D01*
X88305972Y-81841500D01*
X88138920Y-81882673D01*
X87986567Y-81962634D01*
X87857789Y-82076722D01*
X87857786Y-82076725D01*
X87760045Y-82218326D01*
X87699035Y-82379197D01*
X87698871Y-82380550D01*
X87698475Y-82381469D01*
X87697240Y-82386481D01*
X87696406Y-82386275D01*
X87671248Y-82444728D01*
X87613314Y-82483783D01*
X87543461Y-82485318D01*
X87483868Y-82448843D01*
X87469659Y-82429753D01*
X87454609Y-82404858D01*
X87429816Y-82363846D01*
X87429815Y-82363845D01*
X87429812Y-82363841D01*
X87308158Y-82242187D01*
X87308154Y-82242184D01*
X87160913Y-82153172D01*
X87160912Y-82153171D01*
X86996654Y-82101987D01*
X86996649Y-82101986D01*
X86824910Y-82091597D01*
X86824905Y-82091598D01*
X86655671Y-82122610D01*
X86655667Y-82122612D01*
X86498776Y-82193224D01*
X86397317Y-82272711D01*
X83816849Y-84853181D01*
X83755526Y-84886666D01*
X83729168Y-84889500D01*
X83523139Y-84889500D01*
X83395197Y-84905035D01*
X83234326Y-84966045D01*
X83092725Y-85063786D01*
X83092722Y-85063789D01*
X82978634Y-85192567D01*
X82898673Y-85344920D01*
X82857500Y-85511972D01*
X82857500Y-85684027D01*
X82898673Y-85851079D01*
X82978634Y-86003432D01*
X83092722Y-86132210D01*
X83092724Y-86132212D01*
X83092727Y-86132215D01*
X83234325Y-86229954D01*
X83395199Y-86290965D01*
X83492068Y-86302727D01*
X83523139Y-86306500D01*
X83523141Y-86306500D01*
X84050710Y-86306500D01*
X84054455Y-86306613D01*
X84058612Y-86306864D01*
X84117093Y-86310402D01*
X84178818Y-86299090D01*
X84182514Y-86298527D01*
X84244801Y-86290965D01*
X84254499Y-86287286D01*
X84276116Y-86281260D01*
X84286329Y-86279389D01*
X84343577Y-86253622D01*
X84346978Y-86252213D01*
X84405675Y-86229954D01*
X84414213Y-86224060D01*
X84433764Y-86213033D01*
X84443226Y-86208775D01*
X84492640Y-86170060D01*
X84495615Y-86167870D01*
X84547273Y-86132215D01*
X84588916Y-86085208D01*
X84591435Y-86082533D01*
X87399291Y-83274679D01*
X87478775Y-83173225D01*
X87516285Y-83089880D01*
X87561750Y-83036826D01*
X87628681Y-83016774D01*
X87695827Y-83036090D01*
X87741871Y-83088642D01*
X87745297Y-83096788D01*
X87760046Y-83135675D01*
X87765941Y-83144216D01*
X87776966Y-83163763D01*
X87781225Y-83173227D01*
X87819916Y-83222611D01*
X87822136Y-83225628D01*
X87857783Y-83277271D01*
X87857784Y-83277272D01*
X87857785Y-83277273D01*
X87904771Y-83318899D01*
X87907463Y-83321433D01*
X89398587Y-84812558D01*
X89401106Y-84815235D01*
X89430068Y-84847926D01*
X89434723Y-84853181D01*
X89442727Y-84862215D01*
X89468071Y-84879709D01*
X89494379Y-84897869D01*
X89497379Y-84900076D01*
X89546774Y-84938774D01*
X89546775Y-84938774D01*
X89546776Y-84938775D01*
X89556231Y-84943031D01*
X89575775Y-84954053D01*
X89584322Y-84959952D01*
X89584323Y-84959953D01*
X89584324Y-84959953D01*
X89584325Y-84959954D01*
X89643009Y-84982209D01*
X89646447Y-84983634D01*
X89703670Y-85009388D01*
X89713880Y-85011258D01*
X89735492Y-85017283D01*
X89745199Y-85020965D01*
X89799638Y-85027574D01*
X89807484Y-85028527D01*
X89811190Y-85029091D01*
X89829794Y-85032500D01*
X89872907Y-85040401D01*
X89872907Y-85040400D01*
X89872908Y-85040401D01*
X89935535Y-85036613D01*
X89939279Y-85036500D01*
X90583110Y-85036500D01*
X90650149Y-85056185D01*
X90695904Y-85108989D01*
X90705848Y-85178147D01*
X90676823Y-85241703D01*
X90636912Y-85272220D01*
X90546120Y-85315942D01*
X90335532Y-85459518D01*
X90148702Y-85632871D01*
X90148700Y-85632873D01*
X89989791Y-85832138D01*
X89862358Y-86052859D01*
X89769242Y-86290112D01*
X89769240Y-86290119D01*
X89712527Y-86538595D01*
X89693482Y-86792745D01*
X89693482Y-86792754D01*
X89712527Y-87046904D01*
X89763814Y-87271608D01*
X89769242Y-87295387D01*
X89859734Y-87525956D01*
X89862358Y-87532640D01*
X89873106Y-87551256D01*
X89989791Y-87753362D01*
X90148700Y-87952627D01*
X90335533Y-88125982D01*
X90546116Y-88269555D01*
X90546121Y-88269557D01*
X90546122Y-88269558D01*
X90546123Y-88269559D01*
X90649778Y-88319476D01*
X90775742Y-88380137D01*
X90775743Y-88380137D01*
X90775746Y-88380139D01*
X91019292Y-88455263D01*
X91271315Y-88493250D01*
X91526185Y-88493250D01*
X91778208Y-88455263D01*
X92021754Y-88380139D01*
X92251384Y-88269555D01*
X92461967Y-88125982D01*
X92648800Y-87952627D01*
X92807709Y-87753362D01*
X92935143Y-87532638D01*
X93028258Y-87295387D01*
X93084972Y-87046907D01*
X93094054Y-86925713D01*
X93104018Y-86792754D01*
X93104018Y-86792745D01*
X93095345Y-86677012D01*
X93109964Y-86608689D01*
X93159201Y-86559116D01*
X93227424Y-86544033D01*
X93292971Y-86568227D01*
X93306677Y-86580063D01*
X94079154Y-87352541D01*
X94081706Y-87355253D01*
X94123306Y-87402210D01*
X94123308Y-87402211D01*
X94123311Y-87402215D01*
X94142514Y-87415470D01*
X94174963Y-87437869D01*
X94177963Y-87440076D01*
X94227358Y-87478774D01*
X94227359Y-87478774D01*
X94227360Y-87478775D01*
X94236815Y-87483031D01*
X94256359Y-87494053D01*
X94264906Y-87499952D01*
X94264907Y-87499953D01*
X94264908Y-87499953D01*
X94264909Y-87499954D01*
X94323593Y-87522209D01*
X94327031Y-87523634D01*
X94384254Y-87549388D01*
X94394464Y-87551258D01*
X94416076Y-87557283D01*
X94425783Y-87560965D01*
X94480222Y-87567574D01*
X94488068Y-87568527D01*
X94491774Y-87569091D01*
X94513064Y-87572992D01*
X94553491Y-87580401D01*
X94553491Y-87580400D01*
X94553492Y-87580401D01*
X94616119Y-87576613D01*
X94619863Y-87576500D01*
X96166089Y-87576500D01*
X96233128Y-87596185D01*
X96273477Y-87638501D01*
X96313862Y-87708452D01*
X96339791Y-87753362D01*
X96498700Y-87952627D01*
X96685533Y-88125982D01*
X96896116Y-88269555D01*
X96896121Y-88269557D01*
X96896122Y-88269558D01*
X96896123Y-88269559D01*
X96999778Y-88319476D01*
X97125742Y-88380137D01*
X97125743Y-88380137D01*
X97125746Y-88380139D01*
X97369292Y-88455263D01*
X97621315Y-88493250D01*
X97876185Y-88493250D01*
X98128208Y-88455263D01*
X98371754Y-88380139D01*
X98601384Y-88269555D01*
X98811967Y-88125982D01*
X98998800Y-87952627D01*
X99157709Y-87753362D01*
X99285143Y-87532638D01*
X99378258Y-87295387D01*
X99434972Y-87046907D01*
X99444054Y-86925713D01*
X99454018Y-86792754D01*
X99454018Y-86792745D01*
X99434972Y-86538595D01*
X99434276Y-86535547D01*
X99378258Y-86290113D01*
X99285143Y-86052862D01*
X99157709Y-85832138D01*
X98998800Y-85632873D01*
X98811967Y-85459518D01*
X98601384Y-85315945D01*
X98601378Y-85315942D01*
X98601377Y-85315941D01*
X98601376Y-85315940D01*
X98371756Y-85205362D01*
X98371758Y-85205362D01*
X98128216Y-85130239D01*
X98128212Y-85130238D01*
X98128208Y-85130237D01*
X98006114Y-85111834D01*
X97876190Y-85092250D01*
X97876185Y-85092250D01*
X97621315Y-85092250D01*
X97621309Y-85092250D01*
X97468391Y-85115300D01*
X97369292Y-85130237D01*
X97369288Y-85130238D01*
X97369289Y-85130238D01*
X97369283Y-85130239D01*
X97125742Y-85205362D01*
X96896123Y-85315940D01*
X96896122Y-85315941D01*
X96896116Y-85315944D01*
X96896116Y-85315945D01*
X96878484Y-85327966D01*
X96685532Y-85459518D01*
X96498702Y-85632871D01*
X96498700Y-85632873D01*
X96339791Y-85832138D01*
X96212358Y-86052859D01*
X96212354Y-86052867D01*
X96201391Y-86080802D01*
X96158576Y-86136016D01*
X96092706Y-86159317D01*
X96085963Y-86159500D01*
X94941417Y-86159500D01*
X94874378Y-86139815D01*
X94853736Y-86123181D01*
X94190073Y-85459518D01*
X93524734Y-84794180D01*
X93491250Y-84732858D01*
X93496234Y-84663166D01*
X93538106Y-84607233D01*
X93603570Y-84582816D01*
X93612416Y-84582500D01*
X105484034Y-84582500D01*
X105551073Y-84602185D01*
X105571715Y-84618819D01*
X108479180Y-87526284D01*
X108512665Y-87587607D01*
X108515499Y-87613965D01*
X108515499Y-94713212D01*
X108515109Y-94720158D01*
X108510729Y-94759037D01*
X108521571Y-94816334D01*
X108521959Y-94818619D01*
X108530652Y-94876291D01*
X108533162Y-94884427D01*
X108535976Y-94892470D01*
X108563229Y-94944036D01*
X108564274Y-94946105D01*
X108589574Y-94998642D01*
X108594362Y-95005665D01*
X108599431Y-95012532D01*
X108599434Y-95012538D01*
X108599438Y-95012542D01*
X108640666Y-95053770D01*
X108642275Y-95055440D01*
X108681947Y-95098196D01*
X108689210Y-95103988D01*
X108688689Y-95104641D01*
X108700930Y-95114034D01*
X110405090Y-96818193D01*
X110409726Y-96823380D01*
X110434121Y-96853970D01*
X110434123Y-96853972D01*
X110482321Y-96886833D01*
X110484212Y-96888175D01*
X110531118Y-96922793D01*
X110538654Y-96926776D01*
X110546319Y-96930467D01*
X110546327Y-96930472D01*
X110573121Y-96938736D01*
X110602089Y-96947672D01*
X110604284Y-96948394D01*
X110659301Y-96967646D01*
X110659305Y-96967646D01*
X110667698Y-96969234D01*
X110676095Y-96970500D01*
X110676098Y-96970500D01*
X110734405Y-96970500D01*
X110736692Y-96970542D01*
X110791592Y-96972597D01*
X110795009Y-96972725D01*
X110795009Y-96972724D01*
X110795010Y-96972725D01*
X110795010Y-96972724D01*
X110804242Y-96971685D01*
X110804335Y-96972513D01*
X110819639Y-96970500D01*
X137385217Y-96970500D01*
X137392155Y-96970889D01*
X137424050Y-96974483D01*
X137431034Y-96975270D01*
X137431034Y-96975269D01*
X137431035Y-96975270D01*
X137488382Y-96964418D01*
X137490577Y-96964045D01*
X137548287Y-96955348D01*
X137548291Y-96955345D01*
X137556447Y-96952830D01*
X137564469Y-96950024D01*
X137564470Y-96950023D01*
X137564472Y-96950023D01*
X137616123Y-96922723D01*
X137618038Y-96921756D01*
X137670642Y-96896425D01*
X137670643Y-96896423D01*
X137670645Y-96896423D01*
X137677695Y-96891616D01*
X137684537Y-96886567D01*
X137684538Y-96886566D01*
X137725822Y-96845280D01*
X137727421Y-96843740D01*
X137770194Y-96804055D01*
X137770196Y-96804050D01*
X137775987Y-96796790D01*
X137776643Y-96797313D01*
X137786032Y-96785070D01*
X147364205Y-87206896D01*
X147369373Y-87202277D01*
X147399970Y-87177879D01*
X147432865Y-87129629D01*
X147434131Y-87127845D01*
X147468793Y-87080882D01*
X147468793Y-87080879D01*
X147468795Y-87080878D01*
X147472778Y-87073341D01*
X147476468Y-87065677D01*
X147476472Y-87065673D01*
X147493677Y-87009890D01*
X147494388Y-87007734D01*
X147495708Y-87003964D01*
X147513646Y-86952700D01*
X147513646Y-86952698D01*
X147515228Y-86944336D01*
X147516500Y-86935899D01*
X147516500Y-86877578D01*
X147516542Y-86875294D01*
X147518724Y-86816990D01*
X147518723Y-86816989D01*
X147517684Y-86807761D01*
X147518513Y-86807667D01*
X147516500Y-86792366D01*
X147516500Y-83308000D01*
X157419364Y-83308000D01*
X157476567Y-83521486D01*
X157476570Y-83521492D01*
X157576399Y-83735578D01*
X157711894Y-83929082D01*
X157878917Y-84096105D01*
X158072421Y-84231600D01*
X158286507Y-84331429D01*
X158286516Y-84331433D01*
X158408649Y-84364158D01*
X158468310Y-84400523D01*
X158498839Y-84463369D01*
X158490545Y-84532745D01*
X158446059Y-84586623D01*
X158412552Y-84602593D01*
X158346046Y-84622767D01*
X158270467Y-84663166D01*
X158163550Y-84720315D01*
X158163548Y-84720316D01*
X158163547Y-84720317D01*
X158003589Y-84851589D01*
X157874089Y-85009388D01*
X157872315Y-85011550D01*
X157841704Y-85068819D01*
X157774769Y-85194043D01*
X157714699Y-85392067D01*
X157694417Y-85598000D01*
X157714699Y-85803932D01*
X157714700Y-85803934D01*
X157774768Y-86001954D01*
X157872315Y-86184450D01*
X157872317Y-86184452D01*
X158003589Y-86344410D01*
X158041583Y-86375590D01*
X158163550Y-86475685D01*
X158346046Y-86573232D01*
X158544066Y-86633300D01*
X158544065Y-86633300D01*
X158562529Y-86635118D01*
X158750000Y-86653583D01*
X158955934Y-86633300D01*
X159153954Y-86573232D01*
X159336450Y-86475685D01*
X159496410Y-86344410D01*
X159627685Y-86184450D01*
X159725232Y-86001954D01*
X159785300Y-85803934D01*
X159805583Y-85598000D01*
X159785300Y-85392066D01*
X159725232Y-85194046D01*
X159627685Y-85011550D01*
X159568578Y-84939527D01*
X159496410Y-84851589D01*
X159370588Y-84748331D01*
X159336450Y-84720315D01*
X159153954Y-84622768D01*
X159087447Y-84602593D01*
X159029009Y-84564296D01*
X159000553Y-84500484D01*
X159011113Y-84431417D01*
X159057337Y-84379023D01*
X159091350Y-84364158D01*
X159213483Y-84331433D01*
X159213492Y-84331429D01*
X159427578Y-84231600D01*
X159621082Y-84096105D01*
X159788105Y-83929082D01*
X159923600Y-83735578D01*
X160023429Y-83521492D01*
X160023432Y-83521486D01*
X160080636Y-83308000D01*
X159183686Y-83308000D01*
X159209493Y-83267844D01*
X159250000Y-83129889D01*
X159250000Y-82986111D01*
X159209493Y-82848156D01*
X159183686Y-82808000D01*
X160080636Y-82808000D01*
X160080635Y-82807999D01*
X160023432Y-82594513D01*
X160023429Y-82594507D01*
X159923600Y-82380422D01*
X159923599Y-82380420D01*
X159788113Y-82186926D01*
X159788108Y-82186920D01*
X159621082Y-82019894D01*
X159427578Y-81884399D01*
X159213492Y-81784570D01*
X159213486Y-81784567D01*
X159091349Y-81751841D01*
X159031689Y-81715476D01*
X159001160Y-81652629D01*
X159009455Y-81583253D01*
X159053940Y-81529375D01*
X159087444Y-81513407D01*
X159153954Y-81493232D01*
X159336450Y-81395685D01*
X159496410Y-81264410D01*
X159627685Y-81104450D01*
X159725232Y-80921954D01*
X159785300Y-80723934D01*
X159805583Y-80518000D01*
X159785300Y-80312066D01*
X159725232Y-80114046D01*
X159627685Y-79931550D01*
X159575702Y-79868209D01*
X159496410Y-79771589D01*
X159336452Y-79640317D01*
X159336453Y-79640317D01*
X159336450Y-79640315D01*
X159153954Y-79542768D01*
X158955934Y-79482700D01*
X158955932Y-79482699D01*
X158955934Y-79482699D01*
X158768463Y-79464235D01*
X158750000Y-79462417D01*
X158749999Y-79462417D01*
X158544067Y-79482699D01*
X158346043Y-79542769D01*
X158235898Y-79601643D01*
X158163550Y-79640315D01*
X158163548Y-79640316D01*
X158163547Y-79640317D01*
X158003589Y-79771589D01*
X157893319Y-79905956D01*
X157872315Y-79931550D01*
X157836780Y-79998031D01*
X157774769Y-80114043D01*
X157714699Y-80312067D01*
X157694417Y-80517999D01*
X157714699Y-80723932D01*
X157714700Y-80723934D01*
X157774768Y-80921954D01*
X157872315Y-81104450D01*
X157872317Y-81104452D01*
X158003589Y-81264410D01*
X158041583Y-81295590D01*
X158163550Y-81395685D01*
X158346046Y-81493232D01*
X158412551Y-81513405D01*
X158470989Y-81551702D01*
X158499446Y-81615514D01*
X158488887Y-81684581D01*
X158442663Y-81736975D01*
X158408650Y-81751841D01*
X158286514Y-81784567D01*
X158286507Y-81784570D01*
X158072422Y-81884399D01*
X158072420Y-81884400D01*
X157878926Y-82019886D01*
X157878920Y-82019891D01*
X157711891Y-82186920D01*
X157711886Y-82186926D01*
X157576400Y-82380420D01*
X157576399Y-82380422D01*
X157476570Y-82594507D01*
X157476567Y-82594513D01*
X157419364Y-82807999D01*
X157419364Y-82808000D01*
X158316314Y-82808000D01*
X158290507Y-82848156D01*
X158250000Y-82986111D01*
X158250000Y-83129889D01*
X158290507Y-83267844D01*
X158316314Y-83308000D01*
X157419364Y-83308000D01*
X147516500Y-83308000D01*
X147516500Y-78847752D01*
X157699500Y-78847752D01*
X157711131Y-78906229D01*
X157711132Y-78906230D01*
X157755447Y-78972552D01*
X157821769Y-79016867D01*
X157821770Y-79016868D01*
X157880247Y-79028499D01*
X157880250Y-79028500D01*
X157880252Y-79028500D01*
X159619750Y-79028500D01*
X159619751Y-79028499D01*
X159634568Y-79025552D01*
X159678229Y-79016868D01*
X159678229Y-79016867D01*
X159678231Y-79016867D01*
X159744552Y-78972552D01*
X159788867Y-78906231D01*
X159788867Y-78906229D01*
X159788868Y-78906229D01*
X159800499Y-78847752D01*
X159800500Y-78847750D01*
X159800500Y-77108249D01*
X159800499Y-77108247D01*
X159788868Y-77049770D01*
X159788867Y-77049769D01*
X159744552Y-76983447D01*
X159678230Y-76939132D01*
X159678229Y-76939131D01*
X159619752Y-76927500D01*
X159619748Y-76927500D01*
X157880252Y-76927500D01*
X157880247Y-76927500D01*
X157821770Y-76939131D01*
X157821769Y-76939132D01*
X157755447Y-76983447D01*
X157711132Y-77049769D01*
X157711131Y-77049770D01*
X157699500Y-77108247D01*
X157699500Y-78847752D01*
X147516500Y-78847752D01*
X147516500Y-69338000D01*
X157419364Y-69338000D01*
X157476567Y-69551486D01*
X157476570Y-69551492D01*
X157576399Y-69765578D01*
X157711894Y-69959082D01*
X157878917Y-70126105D01*
X158072421Y-70261600D01*
X158286507Y-70361429D01*
X158286516Y-70361433D01*
X158408649Y-70394158D01*
X158468310Y-70430523D01*
X158498839Y-70493369D01*
X158490545Y-70562745D01*
X158446059Y-70616623D01*
X158412552Y-70632593D01*
X158346046Y-70652767D01*
X158215358Y-70722622D01*
X158163550Y-70750315D01*
X158163548Y-70750316D01*
X158163547Y-70750317D01*
X158003589Y-70881589D01*
X157872317Y-71041547D01*
X157774769Y-71224043D01*
X157714699Y-71422067D01*
X157694417Y-71628000D01*
X157714699Y-71833932D01*
X157714700Y-71833934D01*
X157774768Y-72031954D01*
X157872315Y-72214450D01*
X157872317Y-72214452D01*
X158003589Y-72374410D01*
X158073899Y-72432111D01*
X158163550Y-72505685D01*
X158346046Y-72603232D01*
X158544066Y-72663300D01*
X158544065Y-72663300D01*
X158564348Y-72665297D01*
X158750000Y-72683583D01*
X158955934Y-72663300D01*
X159153954Y-72603232D01*
X159336450Y-72505685D01*
X159496410Y-72374410D01*
X159627685Y-72214450D01*
X159725232Y-72031954D01*
X159785300Y-71833934D01*
X159805583Y-71628000D01*
X159785300Y-71422066D01*
X159725232Y-71224046D01*
X159627685Y-71041550D01*
X159517074Y-70906769D01*
X159496410Y-70881589D01*
X159336452Y-70750317D01*
X159336453Y-70750317D01*
X159336450Y-70750315D01*
X159153954Y-70652768D01*
X159087447Y-70632593D01*
X159029009Y-70594296D01*
X159000553Y-70530484D01*
X159011113Y-70461417D01*
X159057337Y-70409023D01*
X159091350Y-70394158D01*
X159213483Y-70361433D01*
X159213492Y-70361429D01*
X159427578Y-70261600D01*
X159621082Y-70126105D01*
X159788105Y-69959082D01*
X159923600Y-69765578D01*
X160023429Y-69551492D01*
X160023432Y-69551486D01*
X160080636Y-69338000D01*
X159183686Y-69338000D01*
X159209493Y-69297844D01*
X159250000Y-69159889D01*
X159250000Y-69016111D01*
X159209493Y-68878156D01*
X159183686Y-68838000D01*
X160080636Y-68838000D01*
X160080635Y-68837999D01*
X160023432Y-68624513D01*
X160023429Y-68624507D01*
X159923600Y-68410422D01*
X159923599Y-68410420D01*
X159788113Y-68216926D01*
X159788108Y-68216920D01*
X159621082Y-68049894D01*
X159427578Y-67914399D01*
X159213492Y-67814570D01*
X159213486Y-67814567D01*
X159091349Y-67781841D01*
X159031689Y-67745476D01*
X159001160Y-67682629D01*
X159009455Y-67613253D01*
X159053940Y-67559375D01*
X159087444Y-67543407D01*
X159153954Y-67523232D01*
X159336450Y-67425685D01*
X159496410Y-67294410D01*
X159627685Y-67134450D01*
X159725232Y-66951954D01*
X159785300Y-66753934D01*
X159805583Y-66548000D01*
X159785300Y-66342066D01*
X159725232Y-66144046D01*
X159627685Y-65961550D01*
X159540522Y-65855341D01*
X159496410Y-65801589D01*
X159336452Y-65670317D01*
X159336453Y-65670317D01*
X159336450Y-65670315D01*
X159153954Y-65572768D01*
X158955934Y-65512700D01*
X158955932Y-65512699D01*
X158955934Y-65512699D01*
X158768463Y-65494235D01*
X158750000Y-65492417D01*
X158749999Y-65492417D01*
X158544067Y-65512699D01*
X158346043Y-65572769D01*
X158241508Y-65628645D01*
X158163550Y-65670315D01*
X158163548Y-65670316D01*
X158163547Y-65670317D01*
X158003589Y-65801589D01*
X157872317Y-65961547D01*
X157774769Y-66144043D01*
X157714699Y-66342067D01*
X157694417Y-66548000D01*
X157714699Y-66753932D01*
X157726675Y-66793412D01*
X157774768Y-66951954D01*
X157872315Y-67134450D01*
X157874516Y-67137132D01*
X158003589Y-67294410D01*
X158079111Y-67356388D01*
X158163550Y-67425685D01*
X158346046Y-67523232D01*
X158412551Y-67543405D01*
X158470989Y-67581702D01*
X158499446Y-67645514D01*
X158488887Y-67714581D01*
X158442663Y-67766975D01*
X158408650Y-67781841D01*
X158286514Y-67814567D01*
X158286507Y-67814570D01*
X158072422Y-67914399D01*
X158072420Y-67914400D01*
X157878926Y-68049886D01*
X157878920Y-68049891D01*
X157711891Y-68216920D01*
X157711886Y-68216926D01*
X157576400Y-68410420D01*
X157576399Y-68410422D01*
X157476570Y-68624507D01*
X157476567Y-68624513D01*
X157419364Y-68837999D01*
X157419364Y-68838000D01*
X158316314Y-68838000D01*
X158290507Y-68878156D01*
X158250000Y-69016111D01*
X158250000Y-69159889D01*
X158290507Y-69297844D01*
X158316314Y-69338000D01*
X157419364Y-69338000D01*
X147516500Y-69338000D01*
X147516500Y-64877752D01*
X157699500Y-64877752D01*
X157711131Y-64936229D01*
X157711132Y-64936230D01*
X157755447Y-65002552D01*
X157821769Y-65046867D01*
X157821770Y-65046868D01*
X157880247Y-65058499D01*
X157880250Y-65058500D01*
X157880252Y-65058500D01*
X159619750Y-65058500D01*
X159619751Y-65058499D01*
X159634568Y-65055552D01*
X159678229Y-65046868D01*
X159678229Y-65046867D01*
X159678231Y-65046867D01*
X159744552Y-65002552D01*
X159788867Y-64936231D01*
X159788867Y-64936229D01*
X159788868Y-64936229D01*
X159800499Y-64877752D01*
X159800500Y-64877750D01*
X159800500Y-63138249D01*
X159800499Y-63138247D01*
X159788868Y-63079770D01*
X159788867Y-63079769D01*
X159744552Y-63013447D01*
X159678230Y-62969132D01*
X159678229Y-62969131D01*
X159619752Y-62957500D01*
X159619748Y-62957500D01*
X157880252Y-62957500D01*
X157880247Y-62957500D01*
X157821770Y-62969131D01*
X157821769Y-62969132D01*
X157755447Y-63013447D01*
X157711132Y-63079769D01*
X157711131Y-63079770D01*
X157699500Y-63138247D01*
X157699500Y-64877752D01*
X147516500Y-64877752D01*
X147516500Y-60850172D01*
X147516889Y-60843233D01*
X147521270Y-60804355D01*
X147510416Y-60746997D01*
X147510037Y-60744757D01*
X147507305Y-60726628D01*
X147501348Y-60687103D01*
X147501346Y-60687099D01*
X147498833Y-60678951D01*
X147496021Y-60670913D01*
X147468770Y-60619354D01*
X147467724Y-60617283D01*
X147442425Y-60564747D01*
X147437624Y-60557706D01*
X147432567Y-60550855D01*
X147432566Y-60550852D01*
X147391331Y-60509617D01*
X147389722Y-60507947D01*
X147350053Y-60465194D01*
X147342790Y-60459402D01*
X147343310Y-60458749D01*
X147331070Y-60449356D01*
X143225518Y-56343805D01*
X143220881Y-56338617D01*
X143196489Y-56308030D01*
X143196488Y-56308029D01*
X143196487Y-56308028D01*
X143170499Y-56290310D01*
X143148279Y-56275161D01*
X143146413Y-56273836D01*
X143099496Y-56239210D01*
X143099492Y-56239207D01*
X143099487Y-56239205D01*
X143091907Y-56235198D01*
X143084285Y-56231528D01*
X143028551Y-56214337D01*
X143026362Y-56213617D01*
X143007907Y-56207160D01*
X142971305Y-56194352D01*
X142962936Y-56192768D01*
X142954514Y-56191500D01*
X142954512Y-56191500D01*
X142896188Y-56191500D01*
X142893904Y-56191457D01*
X142870012Y-56190563D01*
X142835599Y-56189275D01*
X142826366Y-56190316D01*
X142826272Y-56189486D01*
X142810974Y-56191500D01*
X136556500Y-56191500D01*
X136489461Y-56171815D01*
X136443706Y-56119011D01*
X136432500Y-56067500D01*
X136432500Y-55772249D01*
X136432499Y-55772247D01*
X136420868Y-55713770D01*
X136420867Y-55713769D01*
X136376552Y-55647447D01*
X136310230Y-55603132D01*
X136310229Y-55603131D01*
X136251752Y-55591500D01*
X136251748Y-55591500D01*
X134512252Y-55591500D01*
X134512247Y-55591500D01*
X134453770Y-55603131D01*
X134453769Y-55603132D01*
X134387447Y-55647447D01*
X134343132Y-55713769D01*
X134343131Y-55713770D01*
X134331500Y-55772247D01*
X134331500Y-57511752D01*
X134343131Y-57570229D01*
X134343132Y-57570230D01*
X134387447Y-57636552D01*
X134453769Y-57680867D01*
X134453770Y-57680868D01*
X134512247Y-57692499D01*
X134512250Y-57692500D01*
X134512252Y-57692500D01*
X136251750Y-57692500D01*
X136251751Y-57692499D01*
X136266568Y-57689552D01*
X136310229Y-57680868D01*
X136310229Y-57680867D01*
X136310231Y-57680867D01*
X136376552Y-57636552D01*
X136420867Y-57570231D01*
X136420867Y-57570229D01*
X136420868Y-57570229D01*
X136432499Y-57511752D01*
X136432500Y-57511750D01*
X136432500Y-57216500D01*
X136452185Y-57149461D01*
X136504989Y-57103706D01*
X136556500Y-57092500D01*
X142648644Y-57092500D01*
X142715683Y-57112185D01*
X142736325Y-57128819D01*
X144637705Y-59030199D01*
X144855826Y-59248319D01*
X144889311Y-59309642D01*
X144884327Y-59379334D01*
X144842455Y-59435267D01*
X144776991Y-59459684D01*
X144768145Y-59460000D01*
X144655707Y-59460000D01*
X144410506Y-59500916D01*
X144175396Y-59581630D01*
X144175390Y-59581632D01*
X143956761Y-59699949D01*
X143909942Y-59736388D01*
X143909942Y-59736390D01*
X144647466Y-60473913D01*
X144637685Y-60475320D01*
X144506900Y-60535048D01*
X144398239Y-60629202D01*
X144320507Y-60750156D01*
X144296923Y-60830474D01*
X143549245Y-60082797D01*
X143508577Y-60075302D01*
X143457620Y-60027498D01*
X143440500Y-59964628D01*
X143440500Y-59940249D01*
X143440499Y-59940247D01*
X143428868Y-59881770D01*
X143428867Y-59881769D01*
X143384552Y-59815447D01*
X143318230Y-59771132D01*
X143318229Y-59771131D01*
X143259752Y-59759500D01*
X143259748Y-59759500D01*
X141220252Y-59759500D01*
X141220247Y-59759500D01*
X141161770Y-59771131D01*
X141161769Y-59771132D01*
X141095447Y-59815447D01*
X141051132Y-59881769D01*
X141051131Y-59881770D01*
X141039500Y-59940247D01*
X141039500Y-61979752D01*
X141051131Y-62038229D01*
X141051132Y-62038230D01*
X141095447Y-62104552D01*
X141161769Y-62148867D01*
X141161770Y-62148868D01*
X141220247Y-62160499D01*
X141220250Y-62160500D01*
X141220252Y-62160500D01*
X143259750Y-62160500D01*
X143259751Y-62160499D01*
X143274568Y-62157552D01*
X143318229Y-62148868D01*
X143318229Y-62148867D01*
X143318231Y-62148867D01*
X143384552Y-62104552D01*
X143428867Y-62038231D01*
X143428867Y-62038229D01*
X143428868Y-62038229D01*
X143440499Y-61979752D01*
X143440500Y-61979750D01*
X143440500Y-61955370D01*
X143460185Y-61888331D01*
X143512989Y-61842576D01*
X143549928Y-61836518D01*
X144296923Y-61089523D01*
X144320507Y-61169844D01*
X144398239Y-61290798D01*
X144506900Y-61384952D01*
X144637685Y-61444680D01*
X144647466Y-61446086D01*
X143909942Y-62183609D01*
X143956768Y-62220055D01*
X143956770Y-62220056D01*
X144175385Y-62338364D01*
X144175396Y-62338369D01*
X144410506Y-62419083D01*
X144655707Y-62460000D01*
X144904293Y-62460000D01*
X145149493Y-62419083D01*
X145384603Y-62338369D01*
X145384614Y-62338364D01*
X145603228Y-62220057D01*
X145603231Y-62220055D01*
X145650056Y-62183609D01*
X144912533Y-61446086D01*
X144922315Y-61444680D01*
X145053100Y-61384952D01*
X145161761Y-61290798D01*
X145239493Y-61169844D01*
X145263076Y-61089524D01*
X146003434Y-61829882D01*
X146103731Y-61676369D01*
X146203587Y-61448717D01*
X146264612Y-61207739D01*
X146284655Y-60965849D01*
X146309809Y-60900664D01*
X146366210Y-60859425D01*
X146435954Y-60855227D01*
X146495912Y-60888405D01*
X146579182Y-60971675D01*
X146612666Y-61032996D01*
X146615500Y-61059355D01*
X146615500Y-67896377D01*
X146595815Y-67963416D01*
X146543011Y-68009171D01*
X146473853Y-68019115D01*
X146410297Y-67990090D01*
X146377944Y-67946187D01*
X146341731Y-67863630D01*
X146241434Y-67710116D01*
X145501076Y-68450474D01*
X145477493Y-68370156D01*
X145399761Y-68249202D01*
X145291100Y-68155048D01*
X145160315Y-68095320D01*
X145150534Y-68093913D01*
X145888057Y-67356390D01*
X145888056Y-67356389D01*
X145841229Y-67319943D01*
X145622614Y-67201635D01*
X145622603Y-67201630D01*
X145387493Y-67120916D01*
X145142293Y-67080000D01*
X144893707Y-67080000D01*
X144648506Y-67120916D01*
X144413396Y-67201630D01*
X144413390Y-67201632D01*
X144194761Y-67319949D01*
X144147942Y-67356388D01*
X144147942Y-67356390D01*
X144885466Y-68093913D01*
X144875685Y-68095320D01*
X144744900Y-68155048D01*
X144636239Y-68249202D01*
X144558507Y-68370156D01*
X144534923Y-68450475D01*
X143787245Y-67702797D01*
X143746577Y-67695301D01*
X143695620Y-67647498D01*
X143678500Y-67584628D01*
X143678500Y-67560249D01*
X143678499Y-67560247D01*
X143666868Y-67501770D01*
X143666867Y-67501769D01*
X143622552Y-67435447D01*
X143556230Y-67391132D01*
X143556229Y-67391131D01*
X143497752Y-67379500D01*
X143497748Y-67379500D01*
X141458252Y-67379500D01*
X141458247Y-67379500D01*
X141399770Y-67391131D01*
X141399769Y-67391132D01*
X141333447Y-67435447D01*
X141289132Y-67501769D01*
X141289131Y-67501770D01*
X141277500Y-67560247D01*
X141277500Y-69599752D01*
X141289131Y-69658229D01*
X141289132Y-69658230D01*
X141333447Y-69724552D01*
X141399769Y-69768867D01*
X141399770Y-69768868D01*
X141458247Y-69780499D01*
X141458250Y-69780500D01*
X141458252Y-69780500D01*
X143497750Y-69780500D01*
X143497751Y-69780499D01*
X143512568Y-69777552D01*
X143556229Y-69768868D01*
X143556229Y-69768867D01*
X143556231Y-69768867D01*
X143622552Y-69724552D01*
X143666867Y-69658231D01*
X143666867Y-69658229D01*
X143666868Y-69658229D01*
X143678499Y-69599752D01*
X143678500Y-69599750D01*
X143678500Y-69575370D01*
X143698185Y-69508331D01*
X143750989Y-69462576D01*
X143787928Y-69456518D01*
X144534923Y-68709523D01*
X144558507Y-68789844D01*
X144636239Y-68910798D01*
X144744900Y-69004952D01*
X144875685Y-69064680D01*
X144885466Y-69066086D01*
X144147942Y-69803609D01*
X144194768Y-69840055D01*
X144194770Y-69840056D01*
X144413385Y-69958364D01*
X144413396Y-69958369D01*
X144648506Y-70039083D01*
X144893707Y-70080000D01*
X145142293Y-70080000D01*
X145387493Y-70039083D01*
X145622603Y-69958369D01*
X145622614Y-69958364D01*
X145841228Y-69840057D01*
X145841231Y-69840055D01*
X145888056Y-69803609D01*
X145150533Y-69066086D01*
X145160315Y-69064680D01*
X145291100Y-69004952D01*
X145399761Y-68910798D01*
X145477493Y-68789844D01*
X145501077Y-68709523D01*
X146241434Y-69449882D01*
X146341733Y-69296367D01*
X146377944Y-69213813D01*
X146422899Y-69160326D01*
X146489635Y-69139636D01*
X146556963Y-69158310D01*
X146603507Y-69210420D01*
X146615500Y-69263622D01*
X146615500Y-86630035D01*
X146595815Y-86697074D01*
X146579181Y-86717716D01*
X137263716Y-96033181D01*
X137202393Y-96066666D01*
X137176035Y-96069500D01*
X110981965Y-96069500D01*
X110914926Y-96049815D01*
X110894284Y-96033181D01*
X109452818Y-94591715D01*
X109419333Y-94530392D01*
X109416500Y-94504043D01*
X109416500Y-87404780D01*
X109416889Y-87397844D01*
X109421270Y-87358965D01*
X109410418Y-87301615D01*
X109410037Y-87299364D01*
X109401347Y-87241709D01*
X109398831Y-87233552D01*
X109396024Y-87225528D01*
X109368764Y-87173951D01*
X109367718Y-87171880D01*
X109342424Y-87119356D01*
X109337642Y-87112342D01*
X109332567Y-87105466D01*
X109332566Y-87105463D01*
X109291345Y-87064242D01*
X109289752Y-87062590D01*
X109271543Y-87042965D01*
X109250059Y-87019809D01*
X109242792Y-87014014D01*
X109243312Y-87013361D01*
X109231067Y-87003964D01*
X106060908Y-83833805D01*
X106056271Y-83828617D01*
X106049399Y-83820000D01*
X106031879Y-83798030D01*
X106031878Y-83798029D01*
X106031877Y-83798028D01*
X105999705Y-83776094D01*
X105983669Y-83765161D01*
X105981803Y-83763836D01*
X105934886Y-83729210D01*
X105934882Y-83729207D01*
X105934877Y-83729205D01*
X105927297Y-83725198D01*
X105919675Y-83721528D01*
X105863941Y-83704337D01*
X105861752Y-83703617D01*
X105843297Y-83697160D01*
X105806695Y-83684352D01*
X105798326Y-83682768D01*
X105789904Y-83681500D01*
X105789902Y-83681500D01*
X105731578Y-83681500D01*
X105729294Y-83681457D01*
X105705402Y-83680563D01*
X105670989Y-83679275D01*
X105661756Y-83680316D01*
X105661662Y-83679486D01*
X105646364Y-83681500D01*
X93453366Y-83681500D01*
X93386327Y-83661815D01*
X93365685Y-83645181D01*
X93061285Y-83340781D01*
X93027800Y-83279458D01*
X93032784Y-83209766D01*
X93074656Y-83153833D01*
X93140120Y-83129416D01*
X93148966Y-83129100D01*
X102969817Y-83129100D01*
X102976755Y-83129489D01*
X103008650Y-83133083D01*
X103015634Y-83133870D01*
X103015634Y-83133869D01*
X103015635Y-83133870D01*
X103072982Y-83123018D01*
X103075177Y-83122645D01*
X103132887Y-83113948D01*
X103132891Y-83113945D01*
X103141047Y-83111430D01*
X103149069Y-83108624D01*
X103149070Y-83108623D01*
X103149072Y-83108623D01*
X103200723Y-83081323D01*
X103202638Y-83080356D01*
X103255242Y-83055025D01*
X103255243Y-83055023D01*
X103255245Y-83055023D01*
X103262295Y-83050216D01*
X103269137Y-83045167D01*
X103269138Y-83045166D01*
X103310420Y-83003882D01*
X103312019Y-83002342D01*
X103354794Y-82962655D01*
X103354796Y-82962650D01*
X103360587Y-82955390D01*
X103361243Y-82955913D01*
X103370629Y-82943673D01*
X103531486Y-82782816D01*
X103592807Y-82749334D01*
X103619165Y-82746500D01*
X105680034Y-82746500D01*
X105747073Y-82766185D01*
X105767715Y-82782819D01*
X110195181Y-87210285D01*
X110228666Y-87271608D01*
X110231500Y-87297966D01*
X110231500Y-94143217D01*
X110231110Y-94150155D01*
X110229502Y-94164430D01*
X110226729Y-94189036D01*
X110237571Y-94246335D01*
X110237959Y-94248619D01*
X110246652Y-94306291D01*
X110249162Y-94314427D01*
X110251976Y-94322470D01*
X110279229Y-94374036D01*
X110280274Y-94376105D01*
X110305574Y-94428642D01*
X110310362Y-94435665D01*
X110315431Y-94442532D01*
X110315434Y-94442538D01*
X110315438Y-94442542D01*
X110356666Y-94483770D01*
X110358275Y-94485440D01*
X110397947Y-94528196D01*
X110405210Y-94533988D01*
X110404689Y-94534641D01*
X110416930Y-94544034D01*
X111203120Y-95330223D01*
X111207756Y-95335410D01*
X111232151Y-95366000D01*
X111232153Y-95366002D01*
X111280351Y-95398863D01*
X111282242Y-95400205D01*
X111329148Y-95434823D01*
X111336684Y-95438806D01*
X111344349Y-95442497D01*
X111344357Y-95442502D01*
X111371151Y-95450766D01*
X111400119Y-95459702D01*
X111402314Y-95460424D01*
X111457331Y-95479676D01*
X111457335Y-95479676D01*
X111465709Y-95481260D01*
X111474126Y-95482529D01*
X111474128Y-95482530D01*
X111532452Y-95482530D01*
X111534735Y-95482572D01*
X111593040Y-95484754D01*
X111602274Y-95483714D01*
X111602367Y-95484543D01*
X111617666Y-95482530D01*
X136913247Y-95482530D01*
X136920185Y-95482919D01*
X136952080Y-95486513D01*
X136959064Y-95487300D01*
X136959064Y-95487299D01*
X136959065Y-95487300D01*
X137016412Y-95476448D01*
X137018607Y-95476075D01*
X137076317Y-95467378D01*
X137076321Y-95467375D01*
X137084477Y-95464860D01*
X137092499Y-95462054D01*
X137092500Y-95462053D01*
X137092502Y-95462053D01*
X137144153Y-95434753D01*
X137146068Y-95433786D01*
X137198672Y-95408455D01*
X137198673Y-95408453D01*
X137198675Y-95408453D01*
X137205725Y-95403646D01*
X137212567Y-95398597D01*
X137212568Y-95398596D01*
X137253850Y-95357312D01*
X137255449Y-95355772D01*
X137298224Y-95316085D01*
X137298226Y-95316080D01*
X137304017Y-95308820D01*
X137304673Y-95309343D01*
X137314060Y-95297101D01*
X137458209Y-95152952D01*
X137463378Y-95148333D01*
X137493970Y-95123939D01*
X137526865Y-95075689D01*
X137528131Y-95073905D01*
X137562793Y-95026942D01*
X137562793Y-95026939D01*
X137562795Y-95026938D01*
X137566787Y-95019384D01*
X137570471Y-95011735D01*
X137571728Y-95007660D01*
X137587673Y-94955962D01*
X137588382Y-94953809D01*
X137607646Y-94898759D01*
X137607646Y-94898756D01*
X137609232Y-94890371D01*
X137610500Y-94881964D01*
X137610500Y-94823638D01*
X137610542Y-94821354D01*
X137612724Y-94763050D01*
X137612723Y-94763049D01*
X137611684Y-94753821D01*
X137612513Y-94753727D01*
X137610500Y-94738426D01*
X137610500Y-85118782D01*
X137610889Y-85111843D01*
X137615270Y-85072965D01*
X137604416Y-85015607D01*
X137604037Y-85013367D01*
X137603719Y-85011256D01*
X137595348Y-84955713D01*
X137595346Y-84955709D01*
X137592836Y-84947571D01*
X137590023Y-84939532D01*
X137590023Y-84939528D01*
X137562760Y-84887948D01*
X137561727Y-84885900D01*
X137545971Y-84853181D01*
X137539504Y-84839752D01*
X141039500Y-84839752D01*
X141051131Y-84898229D01*
X141051132Y-84898230D01*
X141095447Y-84964552D01*
X141161769Y-85008867D01*
X141161770Y-85008868D01*
X141220247Y-85020499D01*
X141220250Y-85020500D01*
X141220252Y-85020500D01*
X143259750Y-85020500D01*
X143259751Y-85020499D01*
X143275906Y-85017286D01*
X143318229Y-85008868D01*
X143318229Y-85008867D01*
X143318231Y-85008867D01*
X143384552Y-84964552D01*
X143428867Y-84898231D01*
X143428867Y-84898229D01*
X143428868Y-84898229D01*
X143440499Y-84839752D01*
X143440500Y-84839750D01*
X143440500Y-84815370D01*
X143460185Y-84748331D01*
X143512989Y-84702576D01*
X143549928Y-84696518D01*
X144296923Y-83949523D01*
X144320507Y-84029844D01*
X144398239Y-84150798D01*
X144506900Y-84244952D01*
X144637685Y-84304680D01*
X144647466Y-84306086D01*
X143909942Y-85043609D01*
X143956768Y-85080055D01*
X143956770Y-85080056D01*
X144175385Y-85198364D01*
X144175396Y-85198369D01*
X144410506Y-85279083D01*
X144655707Y-85320000D01*
X144904293Y-85320000D01*
X145149493Y-85279083D01*
X145384603Y-85198369D01*
X145384614Y-85198364D01*
X145603228Y-85080057D01*
X145603231Y-85080055D01*
X145650056Y-85043609D01*
X144912533Y-84306086D01*
X144922315Y-84304680D01*
X145053100Y-84244952D01*
X145161761Y-84150798D01*
X145239493Y-84029844D01*
X145263076Y-83949524D01*
X146003434Y-84689882D01*
X146103731Y-84536369D01*
X146203587Y-84308717D01*
X146264612Y-84067738D01*
X146264614Y-84067729D01*
X146285141Y-83820005D01*
X146285141Y-83819994D01*
X146264614Y-83572270D01*
X146264612Y-83572261D01*
X146203587Y-83331282D01*
X146103731Y-83103630D01*
X146003434Y-82950116D01*
X145263076Y-83690473D01*
X145239493Y-83610156D01*
X145161761Y-83489202D01*
X145053100Y-83395048D01*
X144922315Y-83335320D01*
X144912534Y-83333913D01*
X145650057Y-82596390D01*
X145650056Y-82596389D01*
X145603229Y-82559943D01*
X145384614Y-82441635D01*
X145384603Y-82441630D01*
X145149493Y-82360916D01*
X144904293Y-82320000D01*
X144655707Y-82320000D01*
X144410506Y-82360916D01*
X144175396Y-82441630D01*
X144175390Y-82441632D01*
X143956761Y-82559949D01*
X143909942Y-82596388D01*
X143909942Y-82596390D01*
X144647466Y-83333913D01*
X144637685Y-83335320D01*
X144506900Y-83395048D01*
X144398239Y-83489202D01*
X144320507Y-83610156D01*
X144296923Y-83690475D01*
X143549245Y-82942797D01*
X143508577Y-82935301D01*
X143457620Y-82887498D01*
X143440500Y-82824628D01*
X143440500Y-82800249D01*
X143440499Y-82800247D01*
X143428868Y-82741770D01*
X143428867Y-82741769D01*
X143384552Y-82675447D01*
X143318230Y-82631132D01*
X143318229Y-82631131D01*
X143259752Y-82619500D01*
X143259748Y-82619500D01*
X141220252Y-82619500D01*
X141220247Y-82619500D01*
X141161770Y-82631131D01*
X141161769Y-82631132D01*
X141095447Y-82675447D01*
X141051132Y-82741769D01*
X141051131Y-82741770D01*
X141039500Y-82800247D01*
X141039500Y-84839752D01*
X137539504Y-84839752D01*
X137536425Y-84833358D01*
X137536423Y-84833356D01*
X137536423Y-84833355D01*
X137531642Y-84826342D01*
X137526566Y-84819465D01*
X137526565Y-84819462D01*
X137485345Y-84778242D01*
X137483752Y-84776590D01*
X137469597Y-84761334D01*
X137444059Y-84733809D01*
X137436792Y-84728014D01*
X137437312Y-84727361D01*
X137425067Y-84717964D01*
X136990908Y-84283805D01*
X136986271Y-84278617D01*
X136961879Y-84248030D01*
X136961878Y-84248029D01*
X136961877Y-84248028D01*
X136937781Y-84231600D01*
X136913669Y-84215161D01*
X136911803Y-84213836D01*
X136864886Y-84179210D01*
X136864882Y-84179207D01*
X136864877Y-84179205D01*
X136857297Y-84175198D01*
X136849675Y-84171528D01*
X136793941Y-84154337D01*
X136791752Y-84153617D01*
X136773297Y-84147160D01*
X136736695Y-84134352D01*
X136728326Y-84132768D01*
X136719904Y-84131500D01*
X136719902Y-84131500D01*
X136661578Y-84131500D01*
X136659294Y-84131457D01*
X136635402Y-84130563D01*
X136600989Y-84129275D01*
X136591756Y-84130316D01*
X136591662Y-84129486D01*
X136576364Y-84131500D01*
X136406675Y-84131500D01*
X136339636Y-84111815D01*
X136297317Y-84065953D01*
X136259688Y-83995555D01*
X136259684Y-83995549D01*
X136259682Y-83995547D01*
X136223225Y-83951123D01*
X136128410Y-83835589D01*
X135989424Y-83721528D01*
X135968450Y-83704315D01*
X135798554Y-83613502D01*
X135785956Y-83606769D01*
X135785955Y-83606768D01*
X135785954Y-83606768D01*
X135587934Y-83546700D01*
X135587932Y-83546699D01*
X135587934Y-83546699D01*
X135382000Y-83526417D01*
X135176067Y-83546699D01*
X134978043Y-83606769D01*
X134906181Y-83645181D01*
X134795550Y-83704315D01*
X134795548Y-83704316D01*
X134795547Y-83704317D01*
X134635589Y-83835589D01*
X134504317Y-83995547D01*
X134504315Y-83995550D01*
X134482391Y-84036567D01*
X134406769Y-84178043D01*
X134346699Y-84376067D01*
X134326417Y-84582000D01*
X134346699Y-84787932D01*
X134366492Y-84853181D01*
X134406768Y-84985954D01*
X134504315Y-85168450D01*
X134504317Y-85168452D01*
X134635589Y-85328410D01*
X134727680Y-85403986D01*
X134795550Y-85459685D01*
X134978046Y-85557232D01*
X135176066Y-85617300D01*
X135176065Y-85617300D01*
X135194529Y-85619118D01*
X135382000Y-85637583D01*
X135587934Y-85617300D01*
X135785954Y-85557232D01*
X135968450Y-85459685D01*
X136128410Y-85328410D01*
X136259685Y-85168450D01*
X136268248Y-85152429D01*
X136297317Y-85098047D01*
X136346279Y-85048203D01*
X136406675Y-85032500D01*
X136414034Y-85032500D01*
X136481073Y-85052185D01*
X136501715Y-85068819D01*
X136673181Y-85240285D01*
X136706666Y-85301608D01*
X136709500Y-85327966D01*
X136709500Y-88810935D01*
X136689815Y-88877974D01*
X136637011Y-88923729D01*
X136567853Y-88933673D01*
X136504297Y-88904648D01*
X136500990Y-88900981D01*
X136496925Y-88900625D01*
X135865076Y-89532475D01*
X135841493Y-89452156D01*
X135763761Y-89331202D01*
X135655100Y-89237048D01*
X135524315Y-89177320D01*
X135514533Y-89175913D01*
X136143373Y-88547073D01*
X136143373Y-88547072D01*
X136059583Y-88488402D01*
X136059579Y-88488400D01*
X135845492Y-88388570D01*
X135845486Y-88388567D01*
X135723349Y-88355841D01*
X135663689Y-88319476D01*
X135633160Y-88256629D01*
X135641455Y-88187253D01*
X135685940Y-88133375D01*
X135719444Y-88117407D01*
X135785954Y-88097232D01*
X135968450Y-87999685D01*
X136128410Y-87868410D01*
X136259685Y-87708450D01*
X136357232Y-87525954D01*
X136417300Y-87327934D01*
X136437583Y-87122000D01*
X136417300Y-86916066D01*
X136357232Y-86718046D01*
X136259685Y-86535550D01*
X136207702Y-86472209D01*
X136128410Y-86375589D01*
X136010677Y-86278969D01*
X135968450Y-86244315D01*
X135785954Y-86146768D01*
X135587934Y-86086700D01*
X135587932Y-86086699D01*
X135587934Y-86086699D01*
X135400463Y-86068235D01*
X135382000Y-86066417D01*
X135381999Y-86066417D01*
X135176067Y-86086699D01*
X134978043Y-86146769D01*
X134867898Y-86205643D01*
X134795550Y-86244315D01*
X134795548Y-86244316D01*
X134795547Y-86244317D01*
X134635589Y-86375589D01*
X134504317Y-86535547D01*
X134504315Y-86535550D01*
X134482331Y-86576679D01*
X134406769Y-86718043D01*
X134346699Y-86916067D01*
X134326417Y-87121999D01*
X134346699Y-87327932D01*
X134354987Y-87355253D01*
X134406768Y-87525954D01*
X134504315Y-87708450D01*
X134504317Y-87708452D01*
X134635589Y-87868410D01*
X134732209Y-87947702D01*
X134795550Y-87999685D01*
X134978046Y-88097232D01*
X135044551Y-88117405D01*
X135102989Y-88155702D01*
X135131446Y-88219514D01*
X135120887Y-88288581D01*
X135074663Y-88340975D01*
X135040650Y-88355841D01*
X134918514Y-88388567D01*
X134918507Y-88388570D01*
X134704419Y-88488401D01*
X134620625Y-88547072D01*
X135249466Y-89175913D01*
X135239685Y-89177320D01*
X135108900Y-89237048D01*
X135000239Y-89331202D01*
X134922507Y-89452156D01*
X134898923Y-89532476D01*
X134267072Y-88900625D01*
X134208401Y-88984419D01*
X134108570Y-89198507D01*
X134108566Y-89198516D01*
X134047432Y-89426673D01*
X134047430Y-89426684D01*
X134026843Y-89661998D01*
X134026843Y-89662001D01*
X134047430Y-89897315D01*
X134047432Y-89897326D01*
X134108566Y-90125483D01*
X134108570Y-90125492D01*
X134208400Y-90339579D01*
X134208402Y-90339583D01*
X134267072Y-90423373D01*
X134267073Y-90423373D01*
X134898923Y-89791523D01*
X134922507Y-89871844D01*
X135000239Y-89992798D01*
X135108900Y-90086952D01*
X135239685Y-90146680D01*
X135249466Y-90148086D01*
X134620625Y-90776925D01*
X134704421Y-90835599D01*
X134918507Y-90935429D01*
X134918516Y-90935433D01*
X135040649Y-90968158D01*
X135100310Y-91004523D01*
X135130839Y-91067369D01*
X135122545Y-91136745D01*
X135078059Y-91190623D01*
X135044552Y-91206593D01*
X134978046Y-91226767D01*
X134847358Y-91296622D01*
X134795550Y-91324315D01*
X134795548Y-91324316D01*
X134795547Y-91324317D01*
X134635589Y-91455589D01*
X134504317Y-91615547D01*
X134406769Y-91798043D01*
X134346699Y-91996067D01*
X134326417Y-92202000D01*
X134346699Y-92407932D01*
X134346700Y-92407934D01*
X134406768Y-92605954D01*
X134504315Y-92788450D01*
X134504317Y-92788452D01*
X134635589Y-92948410D01*
X134732209Y-93027702D01*
X134795550Y-93079685D01*
X134978046Y-93177232D01*
X135176066Y-93237300D01*
X135176065Y-93237300D01*
X135196347Y-93239297D01*
X135382000Y-93257583D01*
X135587934Y-93237300D01*
X135785954Y-93177232D01*
X135968450Y-93079685D01*
X136128410Y-92948410D01*
X136259685Y-92788450D01*
X136357232Y-92605954D01*
X136417300Y-92407934D01*
X136437583Y-92202000D01*
X136417300Y-91996066D01*
X136357232Y-91798046D01*
X136259685Y-91615550D01*
X136200307Y-91543197D01*
X136128410Y-91455589D01*
X135968452Y-91324317D01*
X135968453Y-91324317D01*
X135968450Y-91324315D01*
X135785954Y-91226768D01*
X135719447Y-91206593D01*
X135661009Y-91168296D01*
X135632553Y-91104484D01*
X135643113Y-91035417D01*
X135689337Y-90983023D01*
X135723350Y-90968158D01*
X135845483Y-90935433D01*
X135845492Y-90935429D01*
X136059578Y-90835600D01*
X136059582Y-90835598D01*
X136143373Y-90776926D01*
X136143373Y-90776925D01*
X135514533Y-90148086D01*
X135524315Y-90146680D01*
X135655100Y-90086952D01*
X135763761Y-89992798D01*
X135841493Y-89871844D01*
X135865076Y-89791524D01*
X136496925Y-90423373D01*
X136508408Y-90422368D01*
X136538501Y-90398315D01*
X136608000Y-90391121D01*
X136670355Y-90422643D01*
X136705769Y-90482873D01*
X136709500Y-90513063D01*
X136709500Y-94457530D01*
X136689815Y-94524569D01*
X136637011Y-94570324D01*
X136585500Y-94581530D01*
X111779996Y-94581530D01*
X111712957Y-94561845D01*
X111692315Y-94545211D01*
X111168819Y-94021715D01*
X111135334Y-93960392D01*
X111132500Y-93934034D01*
X111132500Y-90424519D01*
X111152185Y-90357480D01*
X111204989Y-90311725D01*
X111274147Y-90301781D01*
X111337703Y-90330806D01*
X111358075Y-90353396D01*
X111407073Y-90423373D01*
X112038923Y-89791523D01*
X112062507Y-89871844D01*
X112140239Y-89992798D01*
X112248900Y-90086952D01*
X112379685Y-90146680D01*
X112389466Y-90148086D01*
X111760625Y-90776925D01*
X111844421Y-90835599D01*
X112058507Y-90935429D01*
X112058516Y-90935433D01*
X112180649Y-90968158D01*
X112240310Y-91004523D01*
X112270839Y-91067369D01*
X112262545Y-91136745D01*
X112218059Y-91190623D01*
X112184552Y-91206593D01*
X112118046Y-91226767D01*
X111987358Y-91296622D01*
X111935550Y-91324315D01*
X111935548Y-91324316D01*
X111935547Y-91324317D01*
X111775589Y-91455589D01*
X111644317Y-91615547D01*
X111546769Y-91798043D01*
X111486699Y-91996067D01*
X111466417Y-92201999D01*
X111486699Y-92407932D01*
X111486700Y-92407934D01*
X111546768Y-92605954D01*
X111644315Y-92788450D01*
X111644317Y-92788452D01*
X111775589Y-92948410D01*
X111872209Y-93027702D01*
X111935550Y-93079685D01*
X112118046Y-93177232D01*
X112316066Y-93237300D01*
X112316065Y-93237300D01*
X112336348Y-93239297D01*
X112522000Y-93257583D01*
X112727934Y-93237300D01*
X112925954Y-93177232D01*
X113108450Y-93079685D01*
X113268410Y-92948410D01*
X113399685Y-92788450D01*
X113497232Y-92605954D01*
X113557300Y-92407934D01*
X113577583Y-92202000D01*
X113557300Y-91996066D01*
X113497232Y-91798046D01*
X113399685Y-91615550D01*
X113340307Y-91543197D01*
X113268410Y-91455589D01*
X113108452Y-91324317D01*
X113108453Y-91324317D01*
X113108450Y-91324315D01*
X112925954Y-91226768D01*
X112859447Y-91206593D01*
X112801009Y-91168296D01*
X112772553Y-91104484D01*
X112783113Y-91035417D01*
X112829337Y-90983023D01*
X112863350Y-90968158D01*
X112985483Y-90935433D01*
X112985492Y-90935429D01*
X113199578Y-90835600D01*
X113199582Y-90835598D01*
X113283373Y-90776926D01*
X113283373Y-90776925D01*
X112654533Y-90148086D01*
X112664315Y-90146680D01*
X112795100Y-90086952D01*
X112903761Y-89992798D01*
X112981493Y-89871844D01*
X113005076Y-89791524D01*
X113636925Y-90423373D01*
X113636926Y-90423373D01*
X113695598Y-90339582D01*
X113695600Y-90339578D01*
X113795429Y-90125492D01*
X113795433Y-90125483D01*
X113856567Y-89897326D01*
X113856569Y-89897315D01*
X113877157Y-89662001D01*
X113877157Y-89661998D01*
X113856569Y-89426684D01*
X113856567Y-89426673D01*
X113795433Y-89198516D01*
X113795429Y-89198507D01*
X113695600Y-88984423D01*
X113695599Y-88984421D01*
X113636925Y-88900626D01*
X113636925Y-88900625D01*
X113005076Y-89532475D01*
X112981493Y-89452156D01*
X112903761Y-89331202D01*
X112795100Y-89237048D01*
X112664315Y-89177320D01*
X112654532Y-89175913D01*
X113283373Y-88547073D01*
X113283373Y-88547072D01*
X113199583Y-88488402D01*
X113199579Y-88488400D01*
X112985492Y-88388570D01*
X112985486Y-88388567D01*
X112863349Y-88355841D01*
X112803689Y-88319476D01*
X112773160Y-88256629D01*
X112781455Y-88187253D01*
X112825940Y-88133375D01*
X112859444Y-88117407D01*
X112925954Y-88097232D01*
X113108450Y-87999685D01*
X113268410Y-87868410D01*
X113399685Y-87708450D01*
X113497232Y-87525954D01*
X113557300Y-87327934D01*
X113577583Y-87122000D01*
X113557300Y-86916066D01*
X113497232Y-86718046D01*
X113399685Y-86535550D01*
X113347702Y-86472209D01*
X113268410Y-86375589D01*
X113150677Y-86278969D01*
X113108450Y-86244315D01*
X112925954Y-86146768D01*
X112727934Y-86086700D01*
X112727932Y-86086699D01*
X112727934Y-86086699D01*
X112540463Y-86068235D01*
X112522000Y-86066417D01*
X112521999Y-86066417D01*
X112316067Y-86086699D01*
X112118043Y-86146769D01*
X112007898Y-86205643D01*
X111935550Y-86244315D01*
X111935548Y-86244316D01*
X111935547Y-86244317D01*
X111775589Y-86375589D01*
X111644317Y-86535547D01*
X111644315Y-86535550D01*
X111622331Y-86576679D01*
X111546769Y-86718043D01*
X111486699Y-86916067D01*
X111466417Y-87122000D01*
X111486699Y-87327932D01*
X111494987Y-87355253D01*
X111546768Y-87525954D01*
X111644315Y-87708450D01*
X111644317Y-87708452D01*
X111775589Y-87868410D01*
X111872209Y-87947702D01*
X111935550Y-87999685D01*
X112118046Y-88097232D01*
X112184551Y-88117405D01*
X112242989Y-88155702D01*
X112271446Y-88219514D01*
X112260887Y-88288581D01*
X112214663Y-88340975D01*
X112180650Y-88355841D01*
X112058514Y-88388567D01*
X112058507Y-88388570D01*
X111844419Y-88488401D01*
X111760625Y-88547072D01*
X111760625Y-88547073D01*
X112389465Y-89175913D01*
X112379685Y-89177320D01*
X112248900Y-89237048D01*
X112140239Y-89331202D01*
X112062507Y-89452156D01*
X112038923Y-89532474D01*
X111407073Y-88900625D01*
X111407072Y-88900625D01*
X111358076Y-88970602D01*
X111303499Y-89014228D01*
X111234001Y-89021422D01*
X111171646Y-88989900D01*
X111136231Y-88929670D01*
X111132500Y-88899480D01*
X111132500Y-87088782D01*
X111132889Y-87081843D01*
X111137270Y-87042965D01*
X111126416Y-86985607D01*
X111126037Y-86983367D01*
X111121189Y-86951198D01*
X111117348Y-86925713D01*
X111117346Y-86925709D01*
X111114836Y-86917571D01*
X111112023Y-86909532D01*
X111112023Y-86909528D01*
X111084760Y-86857948D01*
X111083727Y-86855900D01*
X111064990Y-86816991D01*
X111058425Y-86803358D01*
X111058423Y-86803356D01*
X111058423Y-86803355D01*
X111053642Y-86796342D01*
X111048566Y-86789465D01*
X111048565Y-86789462D01*
X111007345Y-86748242D01*
X111005752Y-86746590D01*
X110979265Y-86718043D01*
X110966059Y-86703809D01*
X110958792Y-86698014D01*
X110959312Y-86697361D01*
X110947067Y-86687964D01*
X108841103Y-84582000D01*
X111466417Y-84582000D01*
X111486699Y-84787932D01*
X111506492Y-84853181D01*
X111546768Y-84985954D01*
X111644315Y-85168450D01*
X111644317Y-85168452D01*
X111775589Y-85328410D01*
X111867680Y-85403986D01*
X111935550Y-85459685D01*
X112118046Y-85557232D01*
X112316066Y-85617300D01*
X112316065Y-85617300D01*
X112334529Y-85619118D01*
X112522000Y-85637583D01*
X112727934Y-85617300D01*
X112925954Y-85557232D01*
X113108450Y-85459685D01*
X113268410Y-85328410D01*
X113399685Y-85168450D01*
X113497232Y-84985954D01*
X113557300Y-84787934D01*
X113577583Y-84582000D01*
X113557300Y-84376066D01*
X113497232Y-84178046D01*
X113399685Y-83995550D01*
X113314613Y-83891889D01*
X113268410Y-83835589D01*
X113129424Y-83721528D01*
X113108450Y-83704315D01*
X112938554Y-83613502D01*
X112925956Y-83606769D01*
X112925955Y-83606768D01*
X112925954Y-83606768D01*
X112727934Y-83546700D01*
X112727932Y-83546699D01*
X112727934Y-83546699D01*
X112540463Y-83528235D01*
X112522000Y-83526417D01*
X112521999Y-83526417D01*
X112316067Y-83546699D01*
X112118043Y-83606769D01*
X112046181Y-83645181D01*
X111935550Y-83704315D01*
X111935548Y-83704316D01*
X111935547Y-83704317D01*
X111775589Y-83835589D01*
X111644317Y-83995547D01*
X111644315Y-83995550D01*
X111622391Y-84036567D01*
X111546769Y-84178043D01*
X111486699Y-84376067D01*
X111466417Y-84582000D01*
X108841103Y-84582000D01*
X106301102Y-82041999D01*
X111466417Y-82041999D01*
X111486699Y-82247932D01*
X111486700Y-82247934D01*
X111546768Y-82445954D01*
X111644315Y-82628450D01*
X111678969Y-82670677D01*
X111775589Y-82788410D01*
X111847096Y-82847093D01*
X111935550Y-82919685D01*
X112118046Y-83017232D01*
X112316066Y-83077300D01*
X112316065Y-83077300D01*
X112336348Y-83079297D01*
X112522000Y-83097583D01*
X112727934Y-83077300D01*
X112925954Y-83017232D01*
X113108450Y-82919685D01*
X113268410Y-82788410D01*
X113399685Y-82628450D01*
X113497232Y-82445954D01*
X113557300Y-82247934D01*
X113577583Y-82042000D01*
X134326417Y-82042000D01*
X134346699Y-82247932D01*
X134346700Y-82247934D01*
X134406768Y-82445954D01*
X134504315Y-82628450D01*
X134538969Y-82670677D01*
X134635589Y-82788410D01*
X134707096Y-82847093D01*
X134795550Y-82919685D01*
X134978046Y-83017232D01*
X135176066Y-83077300D01*
X135176065Y-83077300D01*
X135194529Y-83079118D01*
X135382000Y-83097583D01*
X135587934Y-83077300D01*
X135785954Y-83017232D01*
X135968450Y-82919685D01*
X136128410Y-82788410D01*
X136259685Y-82628450D01*
X136357232Y-82445954D01*
X136417300Y-82247934D01*
X136437583Y-82042000D01*
X136417300Y-81836066D01*
X136357232Y-81638046D01*
X136259685Y-81455550D01*
X136177401Y-81355286D01*
X136128410Y-81295589D01*
X135968452Y-81164317D01*
X135968453Y-81164317D01*
X135968450Y-81164315D01*
X135785954Y-81066768D01*
X135587934Y-81006700D01*
X135587932Y-81006699D01*
X135587934Y-81006699D01*
X135400463Y-80988235D01*
X135382000Y-80986417D01*
X135381999Y-80986417D01*
X135176067Y-81006699D01*
X134978043Y-81066769D01*
X134867898Y-81125643D01*
X134795550Y-81164315D01*
X134795548Y-81164316D01*
X134795547Y-81164317D01*
X134635589Y-81295589D01*
X134504317Y-81455547D01*
X134504315Y-81455550D01*
X134473391Y-81513405D01*
X134406769Y-81638043D01*
X134346699Y-81836067D01*
X134326417Y-82042000D01*
X113577583Y-82042000D01*
X113557300Y-81836066D01*
X113497232Y-81638046D01*
X113399685Y-81455550D01*
X113317401Y-81355286D01*
X113268410Y-81295589D01*
X113108452Y-81164317D01*
X113108453Y-81164317D01*
X113108450Y-81164315D01*
X112925954Y-81066768D01*
X112727934Y-81006700D01*
X112727932Y-81006699D01*
X112727934Y-81006699D01*
X112540463Y-80988235D01*
X112522000Y-80986417D01*
X112521999Y-80986417D01*
X112316067Y-81006699D01*
X112118043Y-81066769D01*
X112007898Y-81125643D01*
X111935550Y-81164315D01*
X111935548Y-81164316D01*
X111935547Y-81164317D01*
X111775589Y-81295589D01*
X111644317Y-81455547D01*
X111644315Y-81455550D01*
X111613391Y-81513405D01*
X111546769Y-81638043D01*
X111486699Y-81836067D01*
X111466417Y-82041999D01*
X106301102Y-82041999D01*
X106256908Y-81997805D01*
X106252271Y-81992617D01*
X106227879Y-81962030D01*
X106227878Y-81962029D01*
X106227877Y-81962028D01*
X106204973Y-81946412D01*
X106179669Y-81929161D01*
X106177803Y-81927836D01*
X106130886Y-81893210D01*
X106130882Y-81893207D01*
X106130877Y-81893205D01*
X106123297Y-81889198D01*
X106115675Y-81885528D01*
X106059941Y-81868337D01*
X106057752Y-81867617D01*
X106037842Y-81860651D01*
X106002695Y-81848352D01*
X105994326Y-81846768D01*
X105985904Y-81845500D01*
X105985902Y-81845500D01*
X105927578Y-81845500D01*
X105925294Y-81845457D01*
X105901402Y-81844563D01*
X105866989Y-81843275D01*
X105857756Y-81844316D01*
X105857662Y-81843486D01*
X105842364Y-81845500D01*
X103409983Y-81845500D01*
X103403044Y-81845110D01*
X103386753Y-81843275D01*
X103364163Y-81840729D01*
X103306872Y-81851570D01*
X103304587Y-81851958D01*
X103246915Y-81860651D01*
X103238732Y-81863175D01*
X103230729Y-81865976D01*
X103179161Y-81893230D01*
X103177092Y-81894275D01*
X103124557Y-81919574D01*
X103117538Y-81924359D01*
X103110660Y-81929435D01*
X103069439Y-81970656D01*
X103067771Y-81972263D01*
X103025004Y-82011946D01*
X103019213Y-82019208D01*
X103018563Y-82018690D01*
X103009166Y-82030929D01*
X102848314Y-82191782D01*
X102786994Y-82225266D01*
X102760635Y-82228100D01*
X101991949Y-82228100D01*
X101924910Y-82208415D01*
X101879155Y-82155611D01*
X101869211Y-82086453D01*
X101898236Y-82022897D01*
X101904268Y-82016419D01*
X101952945Y-81967741D01*
X101952944Y-81967741D01*
X101952947Y-81967739D01*
X102083468Y-81781334D01*
X102179639Y-81575096D01*
X102238535Y-81355292D01*
X102258368Y-81128600D01*
X102238535Y-80901908D01*
X102188026Y-80713405D01*
X102179641Y-80682111D01*
X102179638Y-80682102D01*
X102149917Y-80618366D01*
X102083468Y-80475866D01*
X101952947Y-80289461D01*
X101952945Y-80289458D01*
X101792041Y-80128554D01*
X101605634Y-79998032D01*
X101605632Y-79998031D01*
X101399397Y-79901861D01*
X101399388Y-79901858D01*
X101179597Y-79842966D01*
X101179593Y-79842965D01*
X101179592Y-79842965D01*
X101179591Y-79842964D01*
X101179586Y-79842964D01*
X100952902Y-79823132D01*
X100952898Y-79823132D01*
X100726213Y-79842964D01*
X100726202Y-79842966D01*
X100506411Y-79901858D01*
X100506402Y-79901861D01*
X100300167Y-79998031D01*
X100300165Y-79998032D01*
X100113758Y-80128554D01*
X99952854Y-80289458D01*
X99822332Y-80475865D01*
X99822331Y-80475867D01*
X99726161Y-80682102D01*
X99726158Y-80682111D01*
X99667266Y-80901902D01*
X99667264Y-80901913D01*
X99647432Y-81128598D01*
X99647432Y-81128601D01*
X99667264Y-81355286D01*
X99667266Y-81355297D01*
X99726158Y-81575088D01*
X99726161Y-81575097D01*
X99822331Y-81781332D01*
X99822332Y-81781334D01*
X99952854Y-81967741D01*
X100001532Y-82016419D01*
X100035017Y-82077742D01*
X100030033Y-82147434D01*
X99988161Y-82203367D01*
X99922697Y-82227784D01*
X99913851Y-82228100D01*
X95491949Y-82228100D01*
X95424910Y-82208415D01*
X95379155Y-82155611D01*
X95369211Y-82086453D01*
X95398236Y-82022897D01*
X95404268Y-82016419D01*
X95452945Y-81967741D01*
X95452944Y-81967741D01*
X95452947Y-81967739D01*
X95583468Y-81781334D01*
X95679639Y-81575096D01*
X95738535Y-81355292D01*
X95758368Y-81128600D01*
X95738535Y-80901908D01*
X95688026Y-80713405D01*
X95679641Y-80682111D01*
X95679638Y-80682102D01*
X95649917Y-80618366D01*
X95583468Y-80475866D01*
X95452947Y-80289461D01*
X95452945Y-80289458D01*
X95292041Y-80128554D01*
X95105634Y-79998032D01*
X95105632Y-79998031D01*
X94899397Y-79901861D01*
X94899388Y-79901858D01*
X94679597Y-79842966D01*
X94679593Y-79842965D01*
X94679592Y-79842965D01*
X94679591Y-79842964D01*
X94679586Y-79842964D01*
X94452902Y-79823132D01*
X94452898Y-79823132D01*
X94226213Y-79842964D01*
X94226202Y-79842966D01*
X94006411Y-79901858D01*
X94006402Y-79901861D01*
X93800167Y-79998031D01*
X93800165Y-79998032D01*
X93613758Y-80128554D01*
X93452854Y-80289458D01*
X93322332Y-80475865D01*
X93322331Y-80475867D01*
X93226161Y-80682102D01*
X93226158Y-80682111D01*
X93167266Y-80901902D01*
X93167264Y-80901913D01*
X93147432Y-81128598D01*
X93147432Y-81128601D01*
X93167264Y-81355286D01*
X93167266Y-81355297D01*
X93226158Y-81575088D01*
X93226161Y-81575097D01*
X93322331Y-81781332D01*
X93322332Y-81781334D01*
X93452854Y-81967741D01*
X93501532Y-82016419D01*
X93535017Y-82077742D01*
X93530033Y-82147434D01*
X93488161Y-82203367D01*
X93422697Y-82227784D01*
X93413851Y-82228100D01*
X93076565Y-82228100D01*
X93009526Y-82208415D01*
X92988884Y-82191781D01*
X90299102Y-79501999D01*
X111466417Y-79501999D01*
X111486699Y-79707932D01*
X111516733Y-79806944D01*
X111546768Y-79905954D01*
X111644315Y-80088450D01*
X111677227Y-80128554D01*
X111775589Y-80248410D01*
X111853157Y-80312067D01*
X111935550Y-80379685D01*
X112118046Y-80477232D01*
X112316066Y-80537300D01*
X112316065Y-80537300D01*
X112336347Y-80539297D01*
X112522000Y-80557583D01*
X112727934Y-80537300D01*
X112925954Y-80477232D01*
X113108450Y-80379685D01*
X113268410Y-80248410D01*
X113399685Y-80088450D01*
X113497232Y-79905954D01*
X113557300Y-79707934D01*
X113577583Y-79502000D01*
X134326417Y-79502000D01*
X134346699Y-79707932D01*
X134376733Y-79806944D01*
X134406768Y-79905954D01*
X134504315Y-80088450D01*
X134537227Y-80128554D01*
X134635589Y-80248410D01*
X134713157Y-80312067D01*
X134795550Y-80379685D01*
X134978046Y-80477232D01*
X135176066Y-80537300D01*
X135176065Y-80537300D01*
X135196348Y-80539297D01*
X135382000Y-80557583D01*
X135587934Y-80537300D01*
X135785954Y-80477232D01*
X135968450Y-80379685D01*
X136128410Y-80248410D01*
X136259685Y-80088450D01*
X136357232Y-79905954D01*
X136417300Y-79707934D01*
X136437583Y-79502000D01*
X136417300Y-79296066D01*
X136357232Y-79098046D01*
X136259685Y-78915550D01*
X136204042Y-78847748D01*
X136128410Y-78755589D01*
X136010677Y-78658969D01*
X135968450Y-78624315D01*
X135785954Y-78526768D01*
X135587934Y-78466700D01*
X135587932Y-78466699D01*
X135587934Y-78466699D01*
X135382000Y-78446417D01*
X135176067Y-78466699D01*
X134978043Y-78526769D01*
X134868167Y-78585500D01*
X134795550Y-78624315D01*
X134795548Y-78624316D01*
X134795547Y-78624317D01*
X134635589Y-78755589D01*
X134504317Y-78915547D01*
X134406769Y-79098043D01*
X134346699Y-79296067D01*
X134326417Y-79502000D01*
X113577583Y-79502000D01*
X113557300Y-79296066D01*
X113497232Y-79098046D01*
X113399685Y-78915550D01*
X113344042Y-78847748D01*
X113268410Y-78755589D01*
X113150677Y-78658969D01*
X113108450Y-78624315D01*
X112925954Y-78526768D01*
X112727934Y-78466700D01*
X112727932Y-78466699D01*
X112727934Y-78466699D01*
X112522000Y-78446417D01*
X112316067Y-78466699D01*
X112118043Y-78526769D01*
X112008167Y-78585500D01*
X111935550Y-78624315D01*
X111935548Y-78624316D01*
X111935547Y-78624317D01*
X111775589Y-78755589D01*
X111644317Y-78915547D01*
X111546769Y-79098043D01*
X111486699Y-79296067D01*
X111466417Y-79501999D01*
X90299102Y-79501999D01*
X88573547Y-77776444D01*
X92852900Y-77776444D01*
X92859301Y-77835972D01*
X92859303Y-77835979D01*
X92909545Y-77970686D01*
X92909549Y-77970693D01*
X92995709Y-78085787D01*
X92995712Y-78085790D01*
X93110806Y-78171950D01*
X93110813Y-78171954D01*
X93245520Y-78222196D01*
X93245527Y-78222198D01*
X93305055Y-78228599D01*
X93305072Y-78228600D01*
X94202900Y-78228600D01*
X94202899Y-77174481D01*
X94296269Y-77213156D01*
X94413577Y-77228600D01*
X94492223Y-77228600D01*
X94609531Y-77213156D01*
X94702900Y-77174481D01*
X94702900Y-78228600D01*
X95600728Y-78228600D01*
X95600744Y-78228599D01*
X95660272Y-78222198D01*
X95660279Y-78222196D01*
X95794986Y-78171954D01*
X95794993Y-78171950D01*
X95910087Y-78085790D01*
X95910090Y-78085787D01*
X95996250Y-77970693D01*
X95996254Y-77970686D01*
X96046496Y-77835979D01*
X96046498Y-77835972D01*
X96052899Y-77776444D01*
X96052900Y-77776427D01*
X96052900Y-76878600D01*
X94998782Y-76878600D01*
X95037456Y-76785231D01*
X95058077Y-76628600D01*
X99347952Y-76628600D01*
X99367712Y-76879672D01*
X99426503Y-77124556D01*
X99522880Y-77357231D01*
X99654466Y-77571958D01*
X99654477Y-77571974D01*
X99655164Y-77572778D01*
X99655166Y-77572778D01*
X100390126Y-76837819D01*
X100428801Y-76931188D01*
X100524975Y-77056525D01*
X100650312Y-77152699D01*
X100743679Y-77191372D01*
X100008719Y-77926332D01*
X100009536Y-77927030D01*
X100009538Y-77927032D01*
X100224268Y-78058619D01*
X100456943Y-78154996D01*
X100701827Y-78213787D01*
X100952900Y-78233547D01*
X101203972Y-78213787D01*
X101448856Y-78154996D01*
X101681531Y-78058619D01*
X101896260Y-77927032D01*
X101896271Y-77927024D01*
X101897079Y-77926332D01*
X101162120Y-77191372D01*
X101255488Y-77152699D01*
X101380825Y-77056525D01*
X101476999Y-76931189D01*
X101515673Y-76837819D01*
X102250632Y-77572779D01*
X102251324Y-77571971D01*
X102251332Y-77571960D01*
X102382919Y-77357231D01*
X102479296Y-77124556D01*
X102518322Y-76962000D01*
X111466417Y-76962000D01*
X111486699Y-77167932D01*
X111516733Y-77266944D01*
X111546768Y-77365954D01*
X111644315Y-77548450D01*
X111664281Y-77572779D01*
X111775589Y-77708410D01*
X111858469Y-77776427D01*
X111935550Y-77839685D01*
X112118046Y-77937232D01*
X112316066Y-77997300D01*
X112316065Y-77997300D01*
X112334529Y-77999118D01*
X112522000Y-78017583D01*
X112727934Y-77997300D01*
X112925954Y-77937232D01*
X113108450Y-77839685D01*
X113268410Y-77708410D01*
X113399685Y-77548450D01*
X113497232Y-77365954D01*
X113557300Y-77167934D01*
X113577583Y-76962000D01*
X113577583Y-76961999D01*
X134326417Y-76961999D01*
X134346699Y-77167932D01*
X134376733Y-77266944D01*
X134406768Y-77365954D01*
X134504315Y-77548450D01*
X134524281Y-77572779D01*
X134635589Y-77708410D01*
X134718469Y-77776427D01*
X134795550Y-77839685D01*
X134978046Y-77937232D01*
X135176066Y-77997300D01*
X135176065Y-77997300D01*
X135194529Y-77999118D01*
X135382000Y-78017583D01*
X135587934Y-77997300D01*
X135785954Y-77937232D01*
X135968450Y-77839685D01*
X136128410Y-77708410D01*
X136259685Y-77548450D01*
X136357232Y-77365954D01*
X136401581Y-77219752D01*
X141039500Y-77219752D01*
X141051131Y-77278229D01*
X141051132Y-77278230D01*
X141095447Y-77344552D01*
X141161769Y-77388867D01*
X141161770Y-77388868D01*
X141220247Y-77400499D01*
X141220250Y-77400500D01*
X141220252Y-77400500D01*
X143259750Y-77400500D01*
X143259751Y-77400499D01*
X143274568Y-77397552D01*
X143318229Y-77388868D01*
X143318229Y-77388867D01*
X143318231Y-77388867D01*
X143384552Y-77344552D01*
X143428867Y-77278231D01*
X143428867Y-77278229D01*
X143428868Y-77278229D01*
X143440499Y-77219752D01*
X143440500Y-77219750D01*
X143440500Y-77195370D01*
X143460185Y-77128331D01*
X143512989Y-77082576D01*
X143549928Y-77076518D01*
X144296923Y-76329523D01*
X144320507Y-76409844D01*
X144398239Y-76530798D01*
X144506900Y-76624952D01*
X144637685Y-76684680D01*
X144647466Y-76686086D01*
X143909942Y-77423609D01*
X143956768Y-77460055D01*
X143956770Y-77460056D01*
X144175385Y-77578364D01*
X144175396Y-77578369D01*
X144410506Y-77659083D01*
X144655707Y-77700000D01*
X144904293Y-77700000D01*
X145149493Y-77659083D01*
X145384603Y-77578369D01*
X145384614Y-77578364D01*
X145603228Y-77460057D01*
X145603231Y-77460055D01*
X145650056Y-77423609D01*
X144912533Y-76686086D01*
X144922315Y-76684680D01*
X145053100Y-76624952D01*
X145161761Y-76530798D01*
X145239493Y-76409844D01*
X145263076Y-76329524D01*
X146003434Y-77069882D01*
X146103731Y-76916369D01*
X146203587Y-76688717D01*
X146264612Y-76447738D01*
X146264614Y-76447729D01*
X146285141Y-76200005D01*
X146285141Y-76199994D01*
X146264614Y-75952270D01*
X146264612Y-75952261D01*
X146203587Y-75711282D01*
X146103731Y-75483630D01*
X146003434Y-75330116D01*
X145263076Y-76070475D01*
X145239493Y-75990156D01*
X145161761Y-75869202D01*
X145053100Y-75775048D01*
X144922315Y-75715320D01*
X144912534Y-75713913D01*
X145650057Y-74976390D01*
X145650056Y-74976389D01*
X145603229Y-74939943D01*
X145384614Y-74821635D01*
X145384603Y-74821630D01*
X145149493Y-74740916D01*
X144904293Y-74700000D01*
X144655707Y-74700000D01*
X144410506Y-74740916D01*
X144175396Y-74821630D01*
X144175390Y-74821632D01*
X143956761Y-74939949D01*
X143909942Y-74976388D01*
X143909942Y-74976390D01*
X144647466Y-75713913D01*
X144637685Y-75715320D01*
X144506900Y-75775048D01*
X144398239Y-75869202D01*
X144320507Y-75990156D01*
X144296923Y-76070475D01*
X143549245Y-75322797D01*
X143508577Y-75315301D01*
X143457620Y-75267498D01*
X143440500Y-75204628D01*
X143440500Y-75180249D01*
X143440499Y-75180247D01*
X143428868Y-75121770D01*
X143428867Y-75121769D01*
X143384552Y-75055447D01*
X143318230Y-75011132D01*
X143318229Y-75011131D01*
X143259752Y-74999500D01*
X143259748Y-74999500D01*
X141220252Y-74999500D01*
X141220247Y-74999500D01*
X141161770Y-75011131D01*
X141161769Y-75011132D01*
X141095447Y-75055447D01*
X141051132Y-75121769D01*
X141051131Y-75121770D01*
X141039500Y-75180247D01*
X141039500Y-77219752D01*
X136401581Y-77219752D01*
X136417300Y-77167934D01*
X136437583Y-76962000D01*
X136417300Y-76756066D01*
X136357232Y-76558046D01*
X136259685Y-76375550D01*
X136174613Y-76271889D01*
X136128410Y-76215589D01*
X135968452Y-76084317D01*
X135968453Y-76084317D01*
X135968450Y-76084315D01*
X135798554Y-75993502D01*
X135785956Y-75986769D01*
X135785955Y-75986768D01*
X135785954Y-75986768D01*
X135587934Y-75926700D01*
X135587932Y-75926699D01*
X135587934Y-75926699D01*
X135400463Y-75908235D01*
X135382000Y-75906417D01*
X135381999Y-75906417D01*
X135176067Y-75926699D01*
X134978043Y-75986769D01*
X134870891Y-76044044D01*
X134795550Y-76084315D01*
X134795548Y-76084316D01*
X134795547Y-76084317D01*
X134635589Y-76215589D01*
X134504317Y-76375547D01*
X134504315Y-76375550D01*
X134465734Y-76447729D01*
X134406769Y-76558043D01*
X134346699Y-76756067D01*
X134326417Y-76961999D01*
X113577583Y-76961999D01*
X113557300Y-76756066D01*
X113497232Y-76558046D01*
X113399685Y-76375550D01*
X113314613Y-76271889D01*
X113268410Y-76215589D01*
X113108452Y-76084317D01*
X113108453Y-76084317D01*
X113108450Y-76084315D01*
X112938554Y-75993502D01*
X112925956Y-75986769D01*
X112925955Y-75986768D01*
X112925954Y-75986768D01*
X112727934Y-75926700D01*
X112727932Y-75926699D01*
X112727934Y-75926699D01*
X112540463Y-75908235D01*
X112522000Y-75906417D01*
X112521999Y-75906417D01*
X112316067Y-75926699D01*
X112118043Y-75986769D01*
X112010891Y-76044044D01*
X111935550Y-76084315D01*
X111935548Y-76084316D01*
X111935547Y-76084317D01*
X111775589Y-76215589D01*
X111644317Y-76375547D01*
X111644315Y-76375550D01*
X111605734Y-76447729D01*
X111546769Y-76558043D01*
X111486699Y-76756067D01*
X111466417Y-76962000D01*
X102518322Y-76962000D01*
X102538087Y-76879672D01*
X102557847Y-76628600D01*
X102538087Y-76377527D01*
X102479296Y-76132643D01*
X102382919Y-75899968D01*
X102251332Y-75685238D01*
X102251330Y-75685236D01*
X102250632Y-75684419D01*
X102250631Y-75684419D01*
X101515672Y-76419378D01*
X101476999Y-76326012D01*
X101380825Y-76200675D01*
X101255488Y-76104501D01*
X101162119Y-76065826D01*
X101897078Y-75330866D01*
X101897078Y-75330864D01*
X101896274Y-75330177D01*
X101896258Y-75330166D01*
X101681531Y-75198580D01*
X101448856Y-75102203D01*
X101203972Y-75043412D01*
X100952899Y-75023652D01*
X100701827Y-75043412D01*
X100456943Y-75102203D01*
X100224268Y-75198580D01*
X100009537Y-75330168D01*
X100008720Y-75330866D01*
X100743680Y-76065826D01*
X100650312Y-76104501D01*
X100524975Y-76200675D01*
X100428801Y-76326011D01*
X100390126Y-76419380D01*
X99655166Y-75684420D01*
X99654468Y-75685237D01*
X99522880Y-75899968D01*
X99426503Y-76132643D01*
X99367712Y-76377527D01*
X99347952Y-76628600D01*
X95058077Y-76628600D01*
X95037456Y-76471969D01*
X94998782Y-76378600D01*
X96052900Y-76378600D01*
X96052900Y-75480772D01*
X96052899Y-75480755D01*
X96046498Y-75421227D01*
X96046496Y-75421220D01*
X95996254Y-75286513D01*
X95996250Y-75286506D01*
X95910090Y-75171412D01*
X95910087Y-75171409D01*
X95794993Y-75085249D01*
X95794986Y-75085245D01*
X95660279Y-75035003D01*
X95660272Y-75035001D01*
X95600744Y-75028600D01*
X94702900Y-75028600D01*
X94702900Y-76082718D01*
X94609531Y-76044044D01*
X94492223Y-76028600D01*
X94413577Y-76028600D01*
X94296269Y-76044044D01*
X94202899Y-76082718D01*
X94202900Y-75028600D01*
X93305055Y-75028600D01*
X93245527Y-75035001D01*
X93245520Y-75035003D01*
X93110813Y-75085245D01*
X93110806Y-75085249D01*
X92995712Y-75171409D01*
X92995709Y-75171412D01*
X92909549Y-75286506D01*
X92909545Y-75286513D01*
X92859303Y-75421220D01*
X92859301Y-75421227D01*
X92852900Y-75480755D01*
X92852900Y-76378600D01*
X93907018Y-76378600D01*
X93868344Y-76471969D01*
X93847723Y-76628600D01*
X93868344Y-76785231D01*
X93907018Y-76878600D01*
X92852900Y-76878600D01*
X92852900Y-77776444D01*
X88573547Y-77776444D01*
X85219104Y-74422000D01*
X111466417Y-74422000D01*
X111486699Y-74627932D01*
X111486700Y-74627934D01*
X111546768Y-74825954D01*
X111644315Y-75008450D01*
X111646516Y-75011132D01*
X111775589Y-75168410D01*
X111872209Y-75247702D01*
X111935550Y-75299685D01*
X112118046Y-75397232D01*
X112316066Y-75457300D01*
X112316065Y-75457300D01*
X112336347Y-75459297D01*
X112522000Y-75477583D01*
X112727934Y-75457300D01*
X112925954Y-75397232D01*
X113108450Y-75299685D01*
X113268410Y-75168410D01*
X113399685Y-75008450D01*
X113497232Y-74825954D01*
X113557300Y-74627934D01*
X113577583Y-74422000D01*
X113577583Y-74421999D01*
X134326417Y-74421999D01*
X134346699Y-74627932D01*
X134346700Y-74627934D01*
X134406768Y-74825954D01*
X134504315Y-75008450D01*
X134506516Y-75011132D01*
X134635589Y-75168410D01*
X134732209Y-75247702D01*
X134795550Y-75299685D01*
X134978046Y-75397232D01*
X135176066Y-75457300D01*
X135176065Y-75457300D01*
X135196347Y-75459297D01*
X135382000Y-75477583D01*
X135587934Y-75457300D01*
X135785954Y-75397232D01*
X135968450Y-75299685D01*
X136128410Y-75168410D01*
X136259685Y-75008450D01*
X136357232Y-74825954D01*
X136417300Y-74627934D01*
X136437583Y-74422000D01*
X136417300Y-74216066D01*
X136357232Y-74018046D01*
X136259685Y-73835550D01*
X136207702Y-73772209D01*
X136128410Y-73675589D01*
X135968452Y-73544317D01*
X135968453Y-73544317D01*
X135968450Y-73544315D01*
X135785954Y-73446768D01*
X135587934Y-73386700D01*
X135587932Y-73386699D01*
X135587934Y-73386699D01*
X135382000Y-73366417D01*
X135176067Y-73386699D01*
X134978043Y-73446769D01*
X134867898Y-73505643D01*
X134795550Y-73544315D01*
X134795548Y-73544316D01*
X134795547Y-73544317D01*
X134635589Y-73675589D01*
X134504317Y-73835547D01*
X134406769Y-74018043D01*
X134346699Y-74216067D01*
X134326417Y-74421999D01*
X113577583Y-74421999D01*
X113557300Y-74216066D01*
X113497232Y-74018046D01*
X113399685Y-73835550D01*
X113347702Y-73772209D01*
X113268410Y-73675589D01*
X113108452Y-73544317D01*
X113108453Y-73544317D01*
X113108450Y-73544315D01*
X112925954Y-73446768D01*
X112727934Y-73386700D01*
X112727932Y-73386699D01*
X112727934Y-73386699D01*
X112522000Y-73366417D01*
X112316067Y-73386699D01*
X112118043Y-73446769D01*
X112007898Y-73505643D01*
X111935550Y-73544315D01*
X111935548Y-73544316D01*
X111935547Y-73544317D01*
X111775589Y-73675589D01*
X111644317Y-73835547D01*
X111546769Y-74018043D01*
X111486699Y-74216067D01*
X111466417Y-74422000D01*
X85219104Y-74422000D01*
X83675705Y-72878601D01*
X93147432Y-72878601D01*
X93167264Y-73105286D01*
X93167266Y-73105297D01*
X93226158Y-73325088D01*
X93226161Y-73325097D01*
X93322331Y-73531332D01*
X93322332Y-73531334D01*
X93452854Y-73717741D01*
X93613758Y-73878645D01*
X93613761Y-73878647D01*
X93800166Y-74009168D01*
X94006404Y-74105339D01*
X94226208Y-74164235D01*
X94388130Y-74178401D01*
X94452898Y-74184068D01*
X94452900Y-74184068D01*
X94452902Y-74184068D01*
X94509572Y-74179109D01*
X94679592Y-74164235D01*
X94899396Y-74105339D01*
X95105634Y-74009168D01*
X95292039Y-73878647D01*
X95452947Y-73717739D01*
X95583468Y-73531334D01*
X95679639Y-73325096D01*
X95738535Y-73105292D01*
X95758368Y-72878601D01*
X99647432Y-72878601D01*
X99667264Y-73105286D01*
X99667266Y-73105297D01*
X99726158Y-73325088D01*
X99726161Y-73325097D01*
X99822331Y-73531332D01*
X99822332Y-73531334D01*
X99952854Y-73717741D01*
X100113758Y-73878645D01*
X100113761Y-73878647D01*
X100300166Y-74009168D01*
X100506404Y-74105339D01*
X100726208Y-74164235D01*
X100888130Y-74178401D01*
X100952898Y-74184068D01*
X100952900Y-74184068D01*
X100952902Y-74184068D01*
X101009573Y-74179109D01*
X101179592Y-74164235D01*
X101399396Y-74105339D01*
X101605634Y-74009168D01*
X101792039Y-73878647D01*
X101952947Y-73717739D01*
X102083468Y-73531334D01*
X102179639Y-73325096D01*
X102238535Y-73105292D01*
X102258368Y-72878600D01*
X102238535Y-72651908D01*
X102179639Y-72432104D01*
X102083468Y-72225866D01*
X101952947Y-72039461D01*
X101952945Y-72039458D01*
X101792041Y-71878554D01*
X101605634Y-71748032D01*
X101605632Y-71748031D01*
X101399397Y-71651861D01*
X101399388Y-71651858D01*
X101179597Y-71592966D01*
X101179593Y-71592965D01*
X101179592Y-71592965D01*
X101179591Y-71592964D01*
X101179586Y-71592964D01*
X100952902Y-71573132D01*
X100952898Y-71573132D01*
X100726213Y-71592964D01*
X100726202Y-71592966D01*
X100506411Y-71651858D01*
X100506402Y-71651861D01*
X100300167Y-71748031D01*
X100300165Y-71748032D01*
X100113758Y-71878554D01*
X99952854Y-72039458D01*
X99822332Y-72225865D01*
X99822331Y-72225867D01*
X99726161Y-72432102D01*
X99726158Y-72432111D01*
X99667266Y-72651902D01*
X99667264Y-72651913D01*
X99647432Y-72878598D01*
X99647432Y-72878601D01*
X95758368Y-72878601D01*
X95758368Y-72878600D01*
X95738535Y-72651908D01*
X95679639Y-72432104D01*
X95583468Y-72225866D01*
X95452947Y-72039461D01*
X95452945Y-72039458D01*
X95292041Y-71878554D01*
X95105634Y-71748032D01*
X95105632Y-71748031D01*
X94899397Y-71651861D01*
X94899388Y-71651858D01*
X94679597Y-71592966D01*
X94679593Y-71592965D01*
X94679592Y-71592965D01*
X94679591Y-71592964D01*
X94679586Y-71592964D01*
X94452902Y-71573132D01*
X94452898Y-71573132D01*
X94226213Y-71592964D01*
X94226202Y-71592966D01*
X94006411Y-71651858D01*
X94006402Y-71651861D01*
X93800167Y-71748031D01*
X93800165Y-71748032D01*
X93613758Y-71878554D01*
X93452854Y-72039458D01*
X93322332Y-72225865D01*
X93322331Y-72225867D01*
X93226161Y-72432102D01*
X93226158Y-72432111D01*
X93167266Y-72651902D01*
X93167264Y-72651913D01*
X93147432Y-72878598D01*
X93147432Y-72878601D01*
X83675705Y-72878601D01*
X81326383Y-70529279D01*
X104730721Y-70529279D01*
X104763209Y-73660000D01*
X106570128Y-71881999D01*
X111466417Y-71881999D01*
X111486699Y-72087932D01*
X111486700Y-72087934D01*
X111546768Y-72285954D01*
X111644315Y-72468450D01*
X111644317Y-72468452D01*
X111775589Y-72628410D01*
X111842819Y-72683583D01*
X111935550Y-72759685D01*
X112118046Y-72857232D01*
X112316066Y-72917300D01*
X112316065Y-72917300D01*
X112334529Y-72919118D01*
X112522000Y-72937583D01*
X112727934Y-72917300D01*
X112925954Y-72857232D01*
X113108450Y-72759685D01*
X113268410Y-72628410D01*
X113399685Y-72468450D01*
X113497232Y-72285954D01*
X113557300Y-72087934D01*
X113577583Y-71882000D01*
X134326417Y-71882000D01*
X134346699Y-72087932D01*
X134346700Y-72087934D01*
X134406768Y-72285954D01*
X134504315Y-72468450D01*
X134504317Y-72468452D01*
X134635589Y-72628410D01*
X134702819Y-72683583D01*
X134795550Y-72759685D01*
X134978046Y-72857232D01*
X135176066Y-72917300D01*
X135176065Y-72917300D01*
X135194529Y-72919118D01*
X135382000Y-72937583D01*
X135587934Y-72917300D01*
X135785954Y-72857232D01*
X135968450Y-72759685D01*
X136128410Y-72628410D01*
X136259685Y-72468450D01*
X136357232Y-72285954D01*
X136417300Y-72087934D01*
X136437583Y-71882000D01*
X136417300Y-71676066D01*
X136357232Y-71478046D01*
X136259685Y-71295550D01*
X136201001Y-71224043D01*
X136128410Y-71135589D01*
X135968452Y-71004317D01*
X135968453Y-71004317D01*
X135968450Y-71004315D01*
X135785954Y-70906768D01*
X135587934Y-70846700D01*
X135587932Y-70846699D01*
X135587934Y-70846699D01*
X135400463Y-70828235D01*
X135382000Y-70826417D01*
X135381999Y-70826417D01*
X135176067Y-70846699D01*
X134978043Y-70906769D01*
X134867898Y-70965643D01*
X134795550Y-71004315D01*
X134795548Y-71004316D01*
X134795547Y-71004317D01*
X134635589Y-71135589D01*
X134504317Y-71295547D01*
X134406769Y-71478043D01*
X134346699Y-71676067D01*
X134326417Y-71882000D01*
X113577583Y-71882000D01*
X113557300Y-71676066D01*
X113497232Y-71478046D01*
X113399685Y-71295550D01*
X113341001Y-71224043D01*
X113268410Y-71135589D01*
X113108452Y-71004317D01*
X113108453Y-71004317D01*
X113108450Y-71004315D01*
X112925954Y-70906768D01*
X112727934Y-70846700D01*
X112727932Y-70846699D01*
X112727934Y-70846699D01*
X112540463Y-70828235D01*
X112522000Y-70826417D01*
X112521999Y-70826417D01*
X112316067Y-70846699D01*
X112118043Y-70906769D01*
X112007898Y-70965643D01*
X111935550Y-71004315D01*
X111935548Y-71004316D01*
X111935547Y-71004317D01*
X111775589Y-71135589D01*
X111644317Y-71295547D01*
X111546769Y-71478043D01*
X111486699Y-71676067D01*
X111466417Y-71881999D01*
X106570128Y-71881999D01*
X107344520Y-71120000D01*
X109064099Y-69341999D01*
X111466417Y-69341999D01*
X111486699Y-69547932D01*
X111516733Y-69646944D01*
X111546768Y-69745954D01*
X111644315Y-69928450D01*
X111644317Y-69928452D01*
X111775589Y-70088410D01*
X111872209Y-70167702D01*
X111935550Y-70219685D01*
X112118046Y-70317232D01*
X112316066Y-70377300D01*
X112316065Y-70377300D01*
X112336347Y-70379297D01*
X112522000Y-70397583D01*
X112727934Y-70377300D01*
X112925954Y-70317232D01*
X113108450Y-70219685D01*
X113268410Y-70088410D01*
X113399685Y-69928450D01*
X113497232Y-69745954D01*
X113557300Y-69547934D01*
X113577583Y-69342000D01*
X134326417Y-69342000D01*
X134346699Y-69547932D01*
X134376733Y-69646944D01*
X134406768Y-69745954D01*
X134504315Y-69928450D01*
X134504317Y-69928452D01*
X134635589Y-70088410D01*
X134732209Y-70167702D01*
X134795550Y-70219685D01*
X134978046Y-70317232D01*
X135176066Y-70377300D01*
X135176065Y-70377300D01*
X135196348Y-70379297D01*
X135382000Y-70397583D01*
X135587934Y-70377300D01*
X135785954Y-70317232D01*
X135968450Y-70219685D01*
X136128410Y-70088410D01*
X136259685Y-69928450D01*
X136357232Y-69745954D01*
X136417300Y-69547934D01*
X136437583Y-69342000D01*
X136417300Y-69136066D01*
X136357232Y-68938046D01*
X136259685Y-68755550D01*
X136174613Y-68651889D01*
X136128410Y-68595589D01*
X135968452Y-68464317D01*
X135968453Y-68464317D01*
X135968450Y-68464315D01*
X135798554Y-68373502D01*
X135785956Y-68366769D01*
X135785955Y-68366768D01*
X135785954Y-68366768D01*
X135587934Y-68306700D01*
X135587932Y-68306699D01*
X135587934Y-68306699D01*
X135382000Y-68286417D01*
X135176067Y-68306699D01*
X134978043Y-68366769D01*
X134896376Y-68410422D01*
X134795550Y-68464315D01*
X134795548Y-68464316D01*
X134795547Y-68464317D01*
X134635589Y-68595589D01*
X134523516Y-68732153D01*
X134504315Y-68755550D01*
X134477068Y-68806525D01*
X134406769Y-68938043D01*
X134346699Y-69136067D01*
X134326417Y-69342000D01*
X113577583Y-69342000D01*
X113557300Y-69136066D01*
X113497232Y-68938046D01*
X113399685Y-68755550D01*
X113314613Y-68651889D01*
X113268410Y-68595589D01*
X113108452Y-68464317D01*
X113108453Y-68464317D01*
X113108450Y-68464315D01*
X112938554Y-68373502D01*
X112925956Y-68366769D01*
X112925955Y-68366768D01*
X112925954Y-68366768D01*
X112727934Y-68306700D01*
X112727932Y-68306699D01*
X112727934Y-68306699D01*
X112522000Y-68286417D01*
X112316067Y-68306699D01*
X112118043Y-68366769D01*
X112036376Y-68410422D01*
X111935550Y-68464315D01*
X111935548Y-68464316D01*
X111935547Y-68464317D01*
X111775589Y-68595589D01*
X111663516Y-68732153D01*
X111644315Y-68755550D01*
X111617068Y-68806525D01*
X111546769Y-68938043D01*
X111486699Y-69136067D01*
X111466417Y-69341999D01*
X109064099Y-69341999D01*
X111029330Y-67310000D01*
X110972260Y-66802000D01*
X111466417Y-66802000D01*
X111486699Y-67007932D01*
X111504298Y-67065949D01*
X111546768Y-67205954D01*
X111644315Y-67388450D01*
X111646516Y-67391132D01*
X111775589Y-67548410D01*
X111842819Y-67603583D01*
X111935550Y-67679685D01*
X112118046Y-67777232D01*
X112316066Y-67837300D01*
X112316065Y-67837300D01*
X112334529Y-67839118D01*
X112522000Y-67857583D01*
X112727934Y-67837300D01*
X112925954Y-67777232D01*
X113108450Y-67679685D01*
X113268410Y-67548410D01*
X113399685Y-67388450D01*
X113497232Y-67205954D01*
X113557300Y-67007934D01*
X113577583Y-66802000D01*
X113577583Y-66801999D01*
X134326417Y-66801999D01*
X134346699Y-67007932D01*
X134364298Y-67065949D01*
X134406768Y-67205954D01*
X134504315Y-67388450D01*
X134506516Y-67391132D01*
X134635589Y-67548410D01*
X134702819Y-67603583D01*
X134795550Y-67679685D01*
X134978046Y-67777232D01*
X135176066Y-67837300D01*
X135176065Y-67837300D01*
X135194529Y-67839118D01*
X135382000Y-67857583D01*
X135587934Y-67837300D01*
X135785954Y-67777232D01*
X135968450Y-67679685D01*
X136128410Y-67548410D01*
X136259685Y-67388450D01*
X136357232Y-67205954D01*
X136393466Y-67086504D01*
X136431764Y-67028066D01*
X136495576Y-66999610D01*
X136512127Y-66998500D01*
X138781792Y-66998500D01*
X138848831Y-67018185D01*
X138857278Y-67024124D01*
X138898740Y-67055939D01*
X138956829Y-67080000D01*
X139040198Y-67114533D01*
X139088682Y-67120916D01*
X139191999Y-67134518D01*
X139192000Y-67134518D01*
X139192001Y-67134518D01*
X139260499Y-67125500D01*
X139343802Y-67114533D01*
X139485259Y-67055939D01*
X139606731Y-66962731D01*
X139699939Y-66841259D01*
X139758533Y-66699802D01*
X139778518Y-66548000D01*
X139758533Y-66396198D01*
X139699939Y-66254741D01*
X139606731Y-66133269D01*
X139485259Y-66040061D01*
X139485258Y-66040060D01*
X139343802Y-65981467D01*
X139343800Y-65981466D01*
X139192001Y-65961482D01*
X139191999Y-65961482D01*
X139040199Y-65981466D01*
X139040197Y-65981467D01*
X138898740Y-66040060D01*
X138857278Y-66071876D01*
X138792109Y-66097070D01*
X138781792Y-66097500D01*
X136221452Y-66097500D01*
X136154413Y-66077815D01*
X136133450Y-66059155D01*
X136132713Y-66059893D01*
X136128410Y-66055590D01*
X136109488Y-66040061D01*
X135968450Y-65924315D01*
X135785954Y-65826768D01*
X135587934Y-65766700D01*
X135587932Y-65766699D01*
X135587934Y-65766699D01*
X135400463Y-65748235D01*
X135382000Y-65746417D01*
X135381999Y-65746417D01*
X135176067Y-65766699D01*
X134978043Y-65826769D01*
X134924590Y-65855341D01*
X134795550Y-65924315D01*
X134795548Y-65924316D01*
X134795547Y-65924317D01*
X134635589Y-66055589D01*
X134504317Y-66215547D01*
X134406769Y-66398043D01*
X134346699Y-66596067D01*
X134326417Y-66801999D01*
X113577583Y-66801999D01*
X113557300Y-66596066D01*
X113497232Y-66398046D01*
X113399685Y-66215550D01*
X113332159Y-66133269D01*
X113268410Y-66055589D01*
X113108452Y-65924317D01*
X113108453Y-65924317D01*
X113108450Y-65924315D01*
X112925954Y-65826768D01*
X112727934Y-65766700D01*
X112727932Y-65766699D01*
X112727934Y-65766699D01*
X112540463Y-65748235D01*
X112522000Y-65746417D01*
X112521999Y-65746417D01*
X112316067Y-65766699D01*
X112118043Y-65826769D01*
X112064590Y-65855341D01*
X111935550Y-65924315D01*
X111935548Y-65924316D01*
X111935547Y-65924317D01*
X111775589Y-66055589D01*
X111644317Y-66215547D01*
X111546769Y-66398043D01*
X111486699Y-66596067D01*
X111466417Y-66802000D01*
X110972260Y-66802000D01*
X110695757Y-64340757D01*
X104730721Y-70529279D01*
X81326383Y-70529279D01*
X80323548Y-69526444D01*
X92852900Y-69526444D01*
X92859301Y-69585972D01*
X92859303Y-69585979D01*
X92909545Y-69720686D01*
X92909549Y-69720693D01*
X92995709Y-69835787D01*
X92995712Y-69835790D01*
X93110806Y-69921950D01*
X93110813Y-69921954D01*
X93245520Y-69972196D01*
X93245527Y-69972198D01*
X93305055Y-69978599D01*
X93305072Y-69978600D01*
X94202900Y-69978600D01*
X94202899Y-68924481D01*
X94296269Y-68963156D01*
X94413577Y-68978600D01*
X94492223Y-68978600D01*
X94609531Y-68963156D01*
X94702900Y-68924481D01*
X94702900Y-69978600D01*
X95600728Y-69978600D01*
X95600744Y-69978599D01*
X95660272Y-69972198D01*
X95660279Y-69972196D01*
X95794986Y-69921954D01*
X95794993Y-69921950D01*
X95910087Y-69835790D01*
X95910090Y-69835787D01*
X95996250Y-69720693D01*
X95996254Y-69720686D01*
X96046496Y-69585979D01*
X96046498Y-69585972D01*
X96052899Y-69526444D01*
X96052900Y-69526427D01*
X96052900Y-68628600D01*
X94998782Y-68628600D01*
X95037456Y-68535231D01*
X95058077Y-68378600D01*
X99347952Y-68378600D01*
X99367712Y-68629672D01*
X99426503Y-68874556D01*
X99522880Y-69107231D01*
X99654466Y-69321958D01*
X99654477Y-69321974D01*
X99655164Y-69322778D01*
X99655166Y-69322778D01*
X100390126Y-68587818D01*
X100428801Y-68681188D01*
X100524975Y-68806525D01*
X100650312Y-68902699D01*
X100743679Y-68941372D01*
X100008719Y-69676332D01*
X100009536Y-69677030D01*
X100009538Y-69677032D01*
X100224268Y-69808619D01*
X100456943Y-69904996D01*
X100701827Y-69963787D01*
X100952900Y-69983547D01*
X101203972Y-69963787D01*
X101448856Y-69904996D01*
X101681531Y-69808619D01*
X101896260Y-69677032D01*
X101896271Y-69677024D01*
X101897079Y-69676332D01*
X101162120Y-68941372D01*
X101255488Y-68902699D01*
X101380825Y-68806525D01*
X101476999Y-68681189D01*
X101515673Y-68587820D01*
X102250632Y-69322779D01*
X102251324Y-69321971D01*
X102251332Y-69321960D01*
X102382919Y-69107231D01*
X102479296Y-68874556D01*
X102538087Y-68629672D01*
X102557847Y-68378600D01*
X102538087Y-68127527D01*
X102479296Y-67882643D01*
X102382919Y-67649968D01*
X102251332Y-67435238D01*
X102251330Y-67435236D01*
X102250632Y-67434419D01*
X101515672Y-68169379D01*
X101476999Y-68076012D01*
X101380825Y-67950675D01*
X101255488Y-67854501D01*
X101162119Y-67815826D01*
X101897078Y-67080866D01*
X101897078Y-67080864D01*
X101896274Y-67080177D01*
X101896258Y-67080166D01*
X101681531Y-66948580D01*
X101448856Y-66852203D01*
X101203972Y-66793412D01*
X100952899Y-66773652D01*
X100701827Y-66793412D01*
X100456943Y-66852203D01*
X100224268Y-66948580D01*
X100009537Y-67080168D01*
X100008720Y-67080866D01*
X100743680Y-67815826D01*
X100650312Y-67854501D01*
X100524975Y-67950675D01*
X100428801Y-68076011D01*
X100390127Y-68169379D01*
X99655166Y-67434420D01*
X99654468Y-67435237D01*
X99522880Y-67649968D01*
X99426503Y-67882643D01*
X99367712Y-68127527D01*
X99347952Y-68378600D01*
X95058077Y-68378600D01*
X95037456Y-68221969D01*
X94998782Y-68128600D01*
X96052900Y-68128600D01*
X96052900Y-67230772D01*
X96052899Y-67230755D01*
X96046498Y-67171227D01*
X96046496Y-67171220D01*
X95996254Y-67036513D01*
X95996250Y-67036506D01*
X95910090Y-66921412D01*
X95910087Y-66921409D01*
X95794993Y-66835249D01*
X95794986Y-66835245D01*
X95660279Y-66785003D01*
X95660272Y-66785001D01*
X95600744Y-66778600D01*
X94702900Y-66778600D01*
X94702900Y-67832718D01*
X94609531Y-67794044D01*
X94492223Y-67778600D01*
X94413577Y-67778600D01*
X94296269Y-67794044D01*
X94202899Y-67832718D01*
X94202900Y-66778600D01*
X93305055Y-66778600D01*
X93245527Y-66785001D01*
X93245520Y-66785003D01*
X93110813Y-66835245D01*
X93110806Y-66835249D01*
X92995712Y-66921409D01*
X92995709Y-66921412D01*
X92909549Y-67036506D01*
X92909545Y-67036513D01*
X92859303Y-67171220D01*
X92859301Y-67171227D01*
X92852900Y-67230755D01*
X92852900Y-68128600D01*
X93907018Y-68128600D01*
X93868344Y-68221969D01*
X93847723Y-68378600D01*
X93868344Y-68535231D01*
X93907018Y-68628600D01*
X92852900Y-68628600D01*
X92852900Y-69526444D01*
X80323548Y-69526444D01*
X76686819Y-65889715D01*
X76653334Y-65828392D01*
X76650500Y-65802034D01*
X76650500Y-64628601D01*
X93147432Y-64628601D01*
X93167264Y-64855286D01*
X93167266Y-64855297D01*
X93226158Y-65075088D01*
X93226161Y-65075097D01*
X93322331Y-65281332D01*
X93322332Y-65281334D01*
X93452854Y-65467741D01*
X93613758Y-65628645D01*
X93613761Y-65628647D01*
X93800166Y-65759168D01*
X94006404Y-65855339D01*
X94226208Y-65914235D01*
X94388130Y-65928401D01*
X94452898Y-65934068D01*
X94452900Y-65934068D01*
X94452902Y-65934068D01*
X94509573Y-65929109D01*
X94679592Y-65914235D01*
X94899396Y-65855339D01*
X95105634Y-65759168D01*
X95292039Y-65628647D01*
X95452947Y-65467739D01*
X95583468Y-65281334D01*
X95679639Y-65075096D01*
X95738535Y-64855292D01*
X95758368Y-64628601D01*
X99647432Y-64628601D01*
X99667264Y-64855286D01*
X99667266Y-64855297D01*
X99726158Y-65075088D01*
X99726161Y-65075097D01*
X99822331Y-65281332D01*
X99822332Y-65281334D01*
X99952854Y-65467741D01*
X100113758Y-65628645D01*
X100113761Y-65628647D01*
X100300166Y-65759168D01*
X100506404Y-65855339D01*
X100726208Y-65914235D01*
X100888130Y-65928401D01*
X100952898Y-65934068D01*
X100952900Y-65934068D01*
X100952902Y-65934068D01*
X101009573Y-65929109D01*
X101179592Y-65914235D01*
X101399396Y-65855339D01*
X101605634Y-65759168D01*
X101792039Y-65628647D01*
X101952947Y-65467739D01*
X102083468Y-65281334D01*
X102179639Y-65075096D01*
X102238535Y-64855292D01*
X102258368Y-64628600D01*
X102238535Y-64401908D01*
X102201047Y-64262000D01*
X111466417Y-64262000D01*
X111486699Y-64467932D01*
X111486700Y-64467934D01*
X111546768Y-64665954D01*
X111644315Y-64848450D01*
X111644317Y-64848452D01*
X111775589Y-65008410D01*
X111856849Y-65075097D01*
X111935550Y-65139685D01*
X112118046Y-65237232D01*
X112316066Y-65297300D01*
X112316065Y-65297300D01*
X112336348Y-65299297D01*
X112522000Y-65317583D01*
X112727934Y-65297300D01*
X112925954Y-65237232D01*
X113108450Y-65139685D01*
X113268410Y-65008410D01*
X113399685Y-64848450D01*
X113497232Y-64665954D01*
X113557300Y-64467934D01*
X113577583Y-64262000D01*
X113577583Y-64261999D01*
X134326417Y-64261999D01*
X134346699Y-64467932D01*
X134346700Y-64467934D01*
X134406768Y-64665954D01*
X134504315Y-64848450D01*
X134504317Y-64848452D01*
X134635589Y-65008410D01*
X134716849Y-65075097D01*
X134795550Y-65139685D01*
X134978046Y-65237232D01*
X135176066Y-65297300D01*
X135176065Y-65297300D01*
X135196347Y-65299297D01*
X135382000Y-65317583D01*
X135587934Y-65297300D01*
X135785954Y-65237232D01*
X135968450Y-65139685D01*
X136128410Y-65008410D01*
X136259685Y-64848450D01*
X136357232Y-64665954D01*
X136417300Y-64467934D01*
X136437583Y-64262000D01*
X136417300Y-64056066D01*
X136357232Y-63858046D01*
X136259685Y-63675550D01*
X136207702Y-63612209D01*
X136128410Y-63515589D01*
X135968452Y-63384317D01*
X135968453Y-63384317D01*
X135968450Y-63384315D01*
X135785954Y-63286768D01*
X135587934Y-63226700D01*
X135587932Y-63226699D01*
X135587934Y-63226699D01*
X135382000Y-63206417D01*
X135176067Y-63226699D01*
X134978043Y-63286769D01*
X134910014Y-63323132D01*
X134795550Y-63384315D01*
X134795548Y-63384316D01*
X134795547Y-63384317D01*
X134635589Y-63515589D01*
X134504317Y-63675547D01*
X134406769Y-63858043D01*
X134346699Y-64056067D01*
X134326417Y-64261999D01*
X113577583Y-64261999D01*
X113557300Y-64056066D01*
X113497232Y-63858046D01*
X113399685Y-63675550D01*
X113347702Y-63612209D01*
X113268410Y-63515589D01*
X113108452Y-63384317D01*
X113108453Y-63384317D01*
X113108450Y-63384315D01*
X112925954Y-63286768D01*
X112727934Y-63226700D01*
X112727932Y-63226699D01*
X112727934Y-63226699D01*
X112540463Y-63208235D01*
X112522000Y-63206417D01*
X112521999Y-63206417D01*
X112316067Y-63226699D01*
X112118043Y-63286769D01*
X112050014Y-63323132D01*
X111935550Y-63384315D01*
X111935548Y-63384316D01*
X111935547Y-63384317D01*
X111775589Y-63515589D01*
X111644317Y-63675547D01*
X111546769Y-63858043D01*
X111486699Y-64056067D01*
X111466417Y-64262000D01*
X102201047Y-64262000D01*
X102179639Y-64182104D01*
X102083468Y-63975866D01*
X101952947Y-63789461D01*
X101952945Y-63789458D01*
X101792041Y-63628554D01*
X101605634Y-63498032D01*
X101605632Y-63498031D01*
X101399397Y-63401861D01*
X101399388Y-63401858D01*
X101179597Y-63342966D01*
X101179593Y-63342965D01*
X101179592Y-63342965D01*
X101179591Y-63342964D01*
X101179586Y-63342964D01*
X100952902Y-63323132D01*
X100952898Y-63323132D01*
X100726213Y-63342964D01*
X100726202Y-63342966D01*
X100506411Y-63401858D01*
X100506402Y-63401861D01*
X100300167Y-63498031D01*
X100300165Y-63498032D01*
X100113758Y-63628554D01*
X99952854Y-63789458D01*
X99822332Y-63975865D01*
X99822331Y-63975867D01*
X99726161Y-64182102D01*
X99726158Y-64182111D01*
X99667266Y-64401902D01*
X99667264Y-64401913D01*
X99647432Y-64628598D01*
X99647432Y-64628601D01*
X95758368Y-64628601D01*
X95758368Y-64628600D01*
X95738535Y-64401908D01*
X95679639Y-64182104D01*
X95583468Y-63975866D01*
X95452947Y-63789461D01*
X95452945Y-63789458D01*
X95292041Y-63628554D01*
X95105634Y-63498032D01*
X95105632Y-63498031D01*
X94899397Y-63401861D01*
X94899388Y-63401858D01*
X94679597Y-63342966D01*
X94679593Y-63342965D01*
X94679592Y-63342965D01*
X94679591Y-63342964D01*
X94679586Y-63342964D01*
X94452902Y-63323132D01*
X94452898Y-63323132D01*
X94226213Y-63342964D01*
X94226202Y-63342966D01*
X94006411Y-63401858D01*
X94006402Y-63401861D01*
X93800167Y-63498031D01*
X93800165Y-63498032D01*
X93613758Y-63628554D01*
X93452854Y-63789458D01*
X93322332Y-63975865D01*
X93322331Y-63975867D01*
X93226161Y-64182102D01*
X93226158Y-64182111D01*
X93167266Y-64401902D01*
X93167264Y-64401913D01*
X93147432Y-64628598D01*
X93147432Y-64628601D01*
X76650500Y-64628601D01*
X76650500Y-62741752D01*
X78023000Y-62741752D01*
X78034631Y-62800229D01*
X78034632Y-62800230D01*
X78078947Y-62866552D01*
X78145269Y-62910867D01*
X78145270Y-62910868D01*
X78203747Y-62922499D01*
X78203750Y-62922500D01*
X78203752Y-62922500D01*
X80243250Y-62922500D01*
X80243251Y-62922499D01*
X80258068Y-62919552D01*
X80301729Y-62910868D01*
X80301729Y-62910867D01*
X80301731Y-62910867D01*
X80368052Y-62866552D01*
X80412367Y-62800231D01*
X80412367Y-62800229D01*
X80412368Y-62800229D01*
X80423999Y-62741752D01*
X80424000Y-62741750D01*
X80424000Y-62717370D01*
X80443685Y-62650331D01*
X80496489Y-62604576D01*
X80533428Y-62598518D01*
X81280423Y-61851523D01*
X81304007Y-61931844D01*
X81381739Y-62052798D01*
X81490400Y-62146952D01*
X81621185Y-62206680D01*
X81630966Y-62208086D01*
X80893442Y-62945609D01*
X80940268Y-62982055D01*
X80940270Y-62982056D01*
X81158885Y-63100364D01*
X81158896Y-63100369D01*
X81394006Y-63181083D01*
X81639207Y-63222000D01*
X81887793Y-63222000D01*
X82132993Y-63181083D01*
X82368103Y-63100369D01*
X82368114Y-63100364D01*
X82586728Y-62982057D01*
X82586731Y-62982055D01*
X82633556Y-62945609D01*
X81896033Y-62208086D01*
X81905815Y-62206680D01*
X82036600Y-62146952D01*
X82145261Y-62052798D01*
X82222993Y-61931844D01*
X82246577Y-61851523D01*
X82986934Y-62591882D01*
X83087231Y-62438369D01*
X83187087Y-62210717D01*
X83248112Y-61969738D01*
X83248114Y-61969729D01*
X83268641Y-61722005D01*
X83268641Y-61721994D01*
X83248114Y-61474270D01*
X83248112Y-61474261D01*
X83198017Y-61276444D01*
X92852900Y-61276444D01*
X92859301Y-61335972D01*
X92859303Y-61335979D01*
X92909545Y-61470686D01*
X92909549Y-61470693D01*
X92995709Y-61585787D01*
X92995712Y-61585790D01*
X93110806Y-61671950D01*
X93110813Y-61671954D01*
X93245520Y-61722196D01*
X93245527Y-61722198D01*
X93305055Y-61728599D01*
X93305072Y-61728600D01*
X94202900Y-61728600D01*
X94202899Y-60674481D01*
X94296269Y-60713156D01*
X94413577Y-60728600D01*
X94492223Y-60728600D01*
X94609531Y-60713156D01*
X94702900Y-60674481D01*
X94702900Y-61728600D01*
X95600728Y-61728600D01*
X95600744Y-61728599D01*
X95660272Y-61722198D01*
X95660279Y-61722196D01*
X95794986Y-61671954D01*
X95794993Y-61671950D01*
X95910087Y-61585790D01*
X95910090Y-61585787D01*
X95996250Y-61470693D01*
X95996254Y-61470686D01*
X96046496Y-61335979D01*
X96046498Y-61335972D01*
X96052899Y-61276444D01*
X96052900Y-61276427D01*
X96052900Y-60378600D01*
X94998782Y-60378600D01*
X95037456Y-60285231D01*
X95058077Y-60128600D01*
X99347952Y-60128600D01*
X99367712Y-60379672D01*
X99426503Y-60624556D01*
X99522880Y-60857231D01*
X99654466Y-61071958D01*
X99654477Y-61071974D01*
X99655164Y-61072778D01*
X99655166Y-61072778D01*
X100390126Y-60337818D01*
X100428801Y-60431188D01*
X100524975Y-60556525D01*
X100650312Y-60652699D01*
X100743679Y-60691372D01*
X100008719Y-61426332D01*
X100009536Y-61427030D01*
X100009538Y-61427032D01*
X100224268Y-61558619D01*
X100456943Y-61654996D01*
X100701827Y-61713787D01*
X100952899Y-61733547D01*
X101099617Y-61722000D01*
X111466417Y-61722000D01*
X111486699Y-61927932D01*
X111516733Y-62026944D01*
X111546768Y-62125954D01*
X111644315Y-62308450D01*
X111644317Y-62308452D01*
X111775589Y-62468410D01*
X111872209Y-62547702D01*
X111935550Y-62599685D01*
X112118046Y-62697232D01*
X112316066Y-62757300D01*
X112316065Y-62757300D01*
X112336347Y-62759297D01*
X112522000Y-62777583D01*
X112727934Y-62757300D01*
X112925954Y-62697232D01*
X113108450Y-62599685D01*
X113268410Y-62468410D01*
X113399685Y-62308450D01*
X113497232Y-62125954D01*
X113557300Y-61927934D01*
X113577583Y-61722000D01*
X134326417Y-61722000D01*
X134327370Y-61731671D01*
X134346699Y-61927932D01*
X134376733Y-62026944D01*
X134406768Y-62125954D01*
X134504315Y-62308450D01*
X134504317Y-62308452D01*
X134635589Y-62468410D01*
X134732209Y-62547702D01*
X134795550Y-62599685D01*
X134978046Y-62697232D01*
X135176066Y-62757300D01*
X135176065Y-62757300D01*
X135194529Y-62759118D01*
X135382000Y-62777583D01*
X135587934Y-62757300D01*
X135785954Y-62697232D01*
X135968450Y-62599685D01*
X136128410Y-62468410D01*
X136259685Y-62308450D01*
X136357232Y-62125954D01*
X136417300Y-61927934D01*
X136437583Y-61722000D01*
X136417300Y-61516066D01*
X136357232Y-61318046D01*
X136259685Y-61135550D01*
X136174613Y-61031889D01*
X136128410Y-60975589D01*
X136010677Y-60878969D01*
X135968450Y-60844315D01*
X135798554Y-60753502D01*
X135785956Y-60746769D01*
X135785955Y-60746768D01*
X135785954Y-60746768D01*
X135587934Y-60686700D01*
X135587932Y-60686699D01*
X135587934Y-60686699D01*
X135382000Y-60666417D01*
X135176067Y-60686699D01*
X135000692Y-60739898D01*
X134980875Y-60745910D01*
X134978043Y-60746769D01*
X134898104Y-60789498D01*
X134795550Y-60844315D01*
X134795548Y-60844316D01*
X134795547Y-60844317D01*
X134635589Y-60975589D01*
X134504317Y-61135547D01*
X134504315Y-61135550D01*
X134465729Y-61207739D01*
X134406769Y-61318043D01*
X134346699Y-61516067D01*
X134326417Y-61721998D01*
X134326417Y-61722000D01*
X113577583Y-61722000D01*
X113557300Y-61516066D01*
X113497232Y-61318046D01*
X113399685Y-61135550D01*
X113314613Y-61031889D01*
X113268410Y-60975589D01*
X113150677Y-60878969D01*
X113108450Y-60844315D01*
X112938554Y-60753502D01*
X112925956Y-60746769D01*
X112925955Y-60746768D01*
X112925954Y-60746768D01*
X112727934Y-60686700D01*
X112727932Y-60686699D01*
X112727934Y-60686699D01*
X112522000Y-60666417D01*
X112316067Y-60686699D01*
X112140692Y-60739898D01*
X112120875Y-60745910D01*
X112118043Y-60746769D01*
X112038104Y-60789498D01*
X111935550Y-60844315D01*
X111935548Y-60844316D01*
X111935547Y-60844317D01*
X111775589Y-60975589D01*
X111644317Y-61135547D01*
X111644315Y-61135550D01*
X111605729Y-61207739D01*
X111546769Y-61318043D01*
X111486699Y-61516067D01*
X111466417Y-61722000D01*
X101099617Y-61722000D01*
X101203972Y-61713787D01*
X101448856Y-61654996D01*
X101681531Y-61558619D01*
X101896260Y-61427032D01*
X101896271Y-61427024D01*
X101897079Y-61426332D01*
X101162120Y-60691372D01*
X101255488Y-60652699D01*
X101380825Y-60556525D01*
X101476999Y-60431189D01*
X101515673Y-60337819D01*
X102250632Y-61072779D01*
X102251324Y-61071971D01*
X102251332Y-61071960D01*
X102382919Y-60857231D01*
X102479296Y-60624556D01*
X102538087Y-60379672D01*
X102557847Y-60128600D01*
X102538087Y-59877527D01*
X102479296Y-59632643D01*
X102382919Y-59399968D01*
X102251332Y-59185238D01*
X102251330Y-59185236D01*
X102250632Y-59184419D01*
X101515672Y-59919378D01*
X101476999Y-59826012D01*
X101380825Y-59700675D01*
X101255488Y-59604501D01*
X101162119Y-59565826D01*
X101545945Y-59181999D01*
X111466417Y-59181999D01*
X111486699Y-59387932D01*
X111486700Y-59387934D01*
X111546768Y-59585954D01*
X111644315Y-59768450D01*
X111646516Y-59771132D01*
X111775589Y-59928410D01*
X111828667Y-59971969D01*
X111935550Y-60059685D01*
X112118046Y-60157232D01*
X112316066Y-60217300D01*
X112316065Y-60217300D01*
X112334529Y-60219118D01*
X112522000Y-60237583D01*
X112727934Y-60217300D01*
X112925954Y-60157232D01*
X113108450Y-60059685D01*
X113268410Y-59928410D01*
X113399685Y-59768450D01*
X113497232Y-59585954D01*
X113557300Y-59387934D01*
X113577583Y-59182000D01*
X134326417Y-59182000D01*
X134346699Y-59387932D01*
X134346700Y-59387934D01*
X134406768Y-59585954D01*
X134504315Y-59768450D01*
X134506516Y-59771132D01*
X134635589Y-59928410D01*
X134688667Y-59971969D01*
X134795550Y-60059685D01*
X134978046Y-60157232D01*
X135176066Y-60217300D01*
X135176065Y-60217300D01*
X135194529Y-60219118D01*
X135382000Y-60237583D01*
X135587934Y-60217300D01*
X135785954Y-60157232D01*
X135968450Y-60059685D01*
X136128410Y-59928410D01*
X136259685Y-59768450D01*
X136357232Y-59585954D01*
X136417300Y-59387934D01*
X136437583Y-59182000D01*
X136420313Y-59006654D01*
X136433332Y-58938008D01*
X136481397Y-58887298D01*
X136543716Y-58870500D01*
X138781792Y-58870500D01*
X138848831Y-58890185D01*
X138857278Y-58896124D01*
X138898740Y-58927939D01*
X138923049Y-58938008D01*
X139040198Y-58986533D01*
X139116099Y-58996525D01*
X139191999Y-59006518D01*
X139192000Y-59006518D01*
X139192001Y-59006518D01*
X139242600Y-58999856D01*
X139343802Y-58986533D01*
X139485259Y-58927939D01*
X139606731Y-58834731D01*
X139699939Y-58713259D01*
X139758533Y-58571802D01*
X139778518Y-58420000D01*
X139776275Y-58402966D01*
X139758533Y-58268199D01*
X139758533Y-58268198D01*
X139699939Y-58126741D01*
X139606731Y-58005269D01*
X139485259Y-57912061D01*
X139485258Y-57912060D01*
X139343802Y-57853467D01*
X139343800Y-57853466D01*
X139192001Y-57833482D01*
X139191999Y-57833482D01*
X139040199Y-57853466D01*
X139040197Y-57853467D01*
X138898740Y-57912060D01*
X138857278Y-57943876D01*
X138792109Y-57969070D01*
X138781792Y-57969500D01*
X136172783Y-57969500D01*
X136165844Y-57969110D01*
X136152630Y-57967621D01*
X136126965Y-57964729D01*
X136069644Y-57975573D01*
X136067362Y-57975961D01*
X136009715Y-57984651D01*
X136001556Y-57987167D01*
X135993529Y-57989976D01*
X135941940Y-58017241D01*
X135939872Y-58018284D01*
X135887358Y-58043575D01*
X135880308Y-58048380D01*
X135873460Y-58053435D01*
X135832240Y-58094656D01*
X135830571Y-58096264D01*
X135782024Y-58141309D01*
X135719492Y-58172478D01*
X135661688Y-58169072D01*
X135587932Y-58146699D01*
X135587933Y-58146699D01*
X135402281Y-58128414D01*
X135382000Y-58126417D01*
X135381999Y-58126417D01*
X135176067Y-58146699D01*
X134978043Y-58206769D01*
X134867898Y-58265643D01*
X134795550Y-58304315D01*
X134795548Y-58304316D01*
X134795547Y-58304317D01*
X134635589Y-58435589D01*
X134504317Y-58595547D01*
X134406769Y-58778043D01*
X134346699Y-58976067D01*
X134326417Y-59182000D01*
X113577583Y-59182000D01*
X113557300Y-58976066D01*
X113497232Y-58778046D01*
X113399685Y-58595550D01*
X113340680Y-58523652D01*
X113268410Y-58435589D01*
X113108452Y-58304317D01*
X113108453Y-58304317D01*
X113108450Y-58304315D01*
X112925954Y-58206768D01*
X112727934Y-58146700D01*
X112727932Y-58146699D01*
X112727934Y-58146699D01*
X112522000Y-58126417D01*
X112316067Y-58146699D01*
X112118043Y-58206769D01*
X112007898Y-58265643D01*
X111935550Y-58304315D01*
X111935548Y-58304316D01*
X111935547Y-58304317D01*
X111775589Y-58435589D01*
X111644317Y-58595547D01*
X111546769Y-58778043D01*
X111486699Y-58976067D01*
X111466417Y-59181999D01*
X101545945Y-59181999D01*
X101897078Y-58830866D01*
X101897078Y-58830864D01*
X101896274Y-58830177D01*
X101896258Y-58830166D01*
X101681531Y-58698580D01*
X101448856Y-58602203D01*
X101203972Y-58543412D01*
X100952899Y-58523652D01*
X100701827Y-58543412D01*
X100456943Y-58602203D01*
X100224268Y-58698580D01*
X100009537Y-58830168D01*
X100008720Y-58830866D01*
X100743680Y-59565826D01*
X100650312Y-59604501D01*
X100524975Y-59700675D01*
X100428801Y-59826011D01*
X100390127Y-59919379D01*
X99655166Y-59184420D01*
X99654468Y-59185237D01*
X99522880Y-59399968D01*
X99426503Y-59632643D01*
X99367712Y-59877527D01*
X99347952Y-60128600D01*
X95058077Y-60128600D01*
X95037456Y-59971969D01*
X94998782Y-59878600D01*
X96052900Y-59878600D01*
X96052900Y-58980772D01*
X96052899Y-58980755D01*
X96046498Y-58921227D01*
X96046496Y-58921220D01*
X95996254Y-58786513D01*
X95996250Y-58786506D01*
X95910090Y-58671412D01*
X95910087Y-58671409D01*
X95794993Y-58585249D01*
X95794986Y-58585245D01*
X95660279Y-58535003D01*
X95660272Y-58535001D01*
X95600744Y-58528600D01*
X94702900Y-58528600D01*
X94702900Y-59582718D01*
X94609531Y-59544044D01*
X94492223Y-59528600D01*
X94413577Y-59528600D01*
X94296269Y-59544044D01*
X94202899Y-59582718D01*
X94202900Y-58528600D01*
X93305055Y-58528600D01*
X93245527Y-58535001D01*
X93245520Y-58535003D01*
X93110813Y-58585245D01*
X93110806Y-58585249D01*
X92995712Y-58671409D01*
X92995709Y-58671412D01*
X92909549Y-58786506D01*
X92909545Y-58786513D01*
X92859303Y-58921220D01*
X92859301Y-58921227D01*
X92852900Y-58980755D01*
X92852900Y-59878600D01*
X93907018Y-59878600D01*
X93868344Y-59971969D01*
X93847723Y-60128600D01*
X93868344Y-60285231D01*
X93907018Y-60378600D01*
X92852900Y-60378600D01*
X92852900Y-61276444D01*
X83198017Y-61276444D01*
X83187087Y-61233282D01*
X83087231Y-61005630D01*
X82986934Y-60852116D01*
X82246576Y-61592474D01*
X82222993Y-61512156D01*
X82145261Y-61391202D01*
X82036600Y-61297048D01*
X81905815Y-61237320D01*
X81896034Y-61235913D01*
X82633557Y-60498390D01*
X82633556Y-60498389D01*
X82586729Y-60461943D01*
X82368114Y-60343635D01*
X82368103Y-60343630D01*
X82132993Y-60262916D01*
X81887793Y-60222000D01*
X81639207Y-60222000D01*
X81394006Y-60262916D01*
X81158896Y-60343630D01*
X81158890Y-60343632D01*
X80940261Y-60461949D01*
X80893442Y-60498388D01*
X80893442Y-60498390D01*
X81630966Y-61235913D01*
X81621185Y-61237320D01*
X81490400Y-61297048D01*
X81381739Y-61391202D01*
X81304007Y-61512156D01*
X81280423Y-61592475D01*
X80532745Y-60844797D01*
X80492077Y-60837301D01*
X80441120Y-60789498D01*
X80424000Y-60726628D01*
X80424000Y-60702249D01*
X80423999Y-60702247D01*
X80412368Y-60643770D01*
X80412367Y-60643769D01*
X80368052Y-60577447D01*
X80301730Y-60533132D01*
X80301729Y-60533131D01*
X80243252Y-60521500D01*
X80243248Y-60521500D01*
X78203752Y-60521500D01*
X78203747Y-60521500D01*
X78145270Y-60533131D01*
X78145269Y-60533132D01*
X78078947Y-60577447D01*
X78034632Y-60643769D01*
X78034631Y-60643770D01*
X78023000Y-60702247D01*
X78023000Y-62741752D01*
X76650500Y-62741752D01*
X76650500Y-58448782D01*
X76650889Y-58441843D01*
X76655270Y-58402965D01*
X76644416Y-58345607D01*
X76644037Y-58343367D01*
X76638152Y-58304317D01*
X76635348Y-58285713D01*
X76635346Y-58285709D01*
X76632836Y-58277571D01*
X76630023Y-58269532D01*
X76630023Y-58269528D01*
X76602760Y-58217948D01*
X76601727Y-58215900D01*
X76597330Y-58206769D01*
X76576425Y-58163358D01*
X76576423Y-58163356D01*
X76576423Y-58163355D01*
X76571642Y-58156342D01*
X76566566Y-58149465D01*
X76566565Y-58149462D01*
X76525345Y-58108242D01*
X76523752Y-58106590D01*
X76509597Y-58091334D01*
X76484059Y-58063809D01*
X76476792Y-58058014D01*
X76477312Y-58057361D01*
X76465067Y-58047964D01*
X75268908Y-56851805D01*
X75264271Y-56846617D01*
X75239879Y-56816030D01*
X75239878Y-56816029D01*
X75239877Y-56816028D01*
X75216973Y-56800412D01*
X75191669Y-56783161D01*
X75189803Y-56781836D01*
X75142886Y-56747210D01*
X75142882Y-56747207D01*
X75142877Y-56747205D01*
X75135297Y-56743198D01*
X75127675Y-56739528D01*
X75071941Y-56722337D01*
X75069752Y-56721617D01*
X75051297Y-56715160D01*
X75014695Y-56702352D01*
X75006326Y-56700768D01*
X74997904Y-56699500D01*
X74997902Y-56699500D01*
X74939578Y-56699500D01*
X74937294Y-56699457D01*
X74913402Y-56698563D01*
X74878989Y-56697275D01*
X74869756Y-56698316D01*
X74869662Y-56697486D01*
X74854364Y-56699500D01*
X74070208Y-56699500D01*
X74003169Y-56679815D01*
X73994722Y-56673876D01*
X73953259Y-56642060D01*
X73811802Y-56583467D01*
X73811800Y-56583466D01*
X73660001Y-56563482D01*
X73659999Y-56563482D01*
X73508199Y-56583466D01*
X73508197Y-56583467D01*
X73366741Y-56642060D01*
X73245269Y-56735269D01*
X73152060Y-56856741D01*
X73093467Y-56998197D01*
X73093466Y-56998199D01*
X73073482Y-57149998D01*
X73073482Y-57150001D01*
X73093466Y-57301800D01*
X73093467Y-57301802D01*
X73152060Y-57443258D01*
X73152061Y-57443259D01*
X73245269Y-57564731D01*
X73366741Y-57657939D01*
X73508198Y-57716533D01*
X73553864Y-57722545D01*
X73659999Y-57736518D01*
X73660000Y-57736518D01*
X73660001Y-57736518D01*
X73710600Y-57729856D01*
X73811802Y-57716533D01*
X73953259Y-57657939D01*
X73994722Y-57626124D01*
X74059891Y-57600930D01*
X74070208Y-57600500D01*
X74692034Y-57600500D01*
X74759073Y-57620185D01*
X74779715Y-57636819D01*
X75713181Y-58570284D01*
X75746666Y-58631607D01*
X75749500Y-58657965D01*
X75749500Y-65729633D01*
X75729815Y-65796672D01*
X75677011Y-65842427D01*
X75607853Y-65852371D01*
X75544297Y-65823346D01*
X75537819Y-65817314D01*
X71098819Y-61378314D01*
X71065334Y-61316991D01*
X71062500Y-61290633D01*
X71062500Y-59592207D01*
X71082185Y-59525168D01*
X71088114Y-59516733D01*
X71119939Y-59475259D01*
X71178533Y-59333802D01*
X71198092Y-59185236D01*
X71198518Y-59182001D01*
X71198518Y-59181998D01*
X71178533Y-59030199D01*
X71178533Y-59030198D01*
X71119939Y-58888741D01*
X71026731Y-58767269D01*
X70905259Y-58674061D01*
X70905258Y-58674060D01*
X70763802Y-58615467D01*
X70763800Y-58615466D01*
X70612001Y-58595482D01*
X70611999Y-58595482D01*
X70460199Y-58615466D01*
X70460197Y-58615467D01*
X70318741Y-58674060D01*
X70197269Y-58767269D01*
X70104060Y-58888741D01*
X70045467Y-59030197D01*
X70045466Y-59030199D01*
X70025482Y-59181998D01*
X70025482Y-59182001D01*
X50800000Y-59182001D01*
X50800000Y-55627794D01*
X50819685Y-55560755D01*
X50872489Y-55515000D01*
X50941647Y-55505056D01*
X51005203Y-55534081D01*
X51042977Y-55592859D01*
X51046658Y-55609599D01*
X51072129Y-55781308D01*
X51167625Y-56162549D01*
X51300016Y-56532559D01*
X51300023Y-56532575D01*
X51468062Y-56887864D01*
X51670109Y-57224958D01*
X51904228Y-57540632D01*
X52000068Y-57646376D01*
X52000069Y-57646376D01*
X52949658Y-56696786D01*
X52908350Y-56758610D01*
X52888947Y-56856155D01*
X52908350Y-56953700D01*
X52963605Y-57036395D01*
X53046300Y-57091650D01*
X53119221Y-57106155D01*
X53168469Y-57106155D01*
X53241390Y-57091650D01*
X53303205Y-57050346D01*
X52353622Y-57999929D01*
X52353622Y-57999930D01*
X52459367Y-58095771D01*
X52775041Y-58329890D01*
X53112135Y-58531937D01*
X53467424Y-58699976D01*
X53467440Y-58699983D01*
X53837450Y-58832374D01*
X54218691Y-58927870D01*
X54607449Y-58985538D01*
X55000000Y-59004823D01*
X55392550Y-58985538D01*
X55781308Y-58927870D01*
X56162549Y-58832374D01*
X56532559Y-58699983D01*
X56532575Y-58699976D01*
X56887864Y-58531937D01*
X57224958Y-58329890D01*
X57540632Y-58095770D01*
X57646376Y-57999929D01*
X56696790Y-57050343D01*
X56758610Y-57091650D01*
X56831531Y-57106155D01*
X56880779Y-57106155D01*
X56953700Y-57091650D01*
X57036395Y-57036395D01*
X57091650Y-56953700D01*
X57111053Y-56856155D01*
X57091650Y-56758610D01*
X57050343Y-56696790D01*
X57999929Y-57646376D01*
X58095770Y-57540632D01*
X58329890Y-57224958D01*
X58531937Y-56887864D01*
X58699976Y-56532575D01*
X58699983Y-56532559D01*
X58755070Y-56378601D01*
X93147432Y-56378601D01*
X93167264Y-56605286D01*
X93167266Y-56605297D01*
X93226158Y-56825088D01*
X93226161Y-56825097D01*
X93322331Y-57031332D01*
X93322332Y-57031334D01*
X93452854Y-57217741D01*
X93613758Y-57378645D01*
X93613761Y-57378647D01*
X93800166Y-57509168D01*
X94006404Y-57605339D01*
X94226208Y-57664235D01*
X94388130Y-57678401D01*
X94452898Y-57684068D01*
X94452900Y-57684068D01*
X94452902Y-57684068D01*
X94509572Y-57679109D01*
X94679592Y-57664235D01*
X94899396Y-57605339D01*
X95105634Y-57509168D01*
X95292039Y-57378647D01*
X95452947Y-57217739D01*
X95583468Y-57031334D01*
X95679639Y-56825096D01*
X95738535Y-56605292D01*
X95758368Y-56378601D01*
X99647432Y-56378601D01*
X99667264Y-56605286D01*
X99667266Y-56605297D01*
X99726158Y-56825088D01*
X99726161Y-56825097D01*
X99822331Y-57031332D01*
X99822332Y-57031334D01*
X99952854Y-57217741D01*
X100113758Y-57378645D01*
X100113761Y-57378647D01*
X100300166Y-57509168D01*
X100506404Y-57605339D01*
X100726208Y-57664235D01*
X100888130Y-57678401D01*
X100952898Y-57684068D01*
X100952900Y-57684068D01*
X100952902Y-57684068D01*
X101009573Y-57679109D01*
X101179592Y-57664235D01*
X101399396Y-57605339D01*
X101600093Y-57511752D01*
X111471500Y-57511752D01*
X111483131Y-57570229D01*
X111483132Y-57570230D01*
X111527447Y-57636552D01*
X111593769Y-57680867D01*
X111593770Y-57680868D01*
X111652247Y-57692499D01*
X111652250Y-57692500D01*
X111652252Y-57692500D01*
X113391750Y-57692500D01*
X113391751Y-57692499D01*
X113406568Y-57689552D01*
X113450229Y-57680868D01*
X113450229Y-57680867D01*
X113450231Y-57680867D01*
X113516552Y-57636552D01*
X113560867Y-57570231D01*
X113560867Y-57570229D01*
X113560868Y-57570229D01*
X113572499Y-57511752D01*
X113572500Y-57511750D01*
X113572500Y-55772249D01*
X113572499Y-55772247D01*
X113560868Y-55713770D01*
X113560867Y-55713769D01*
X113516552Y-55647447D01*
X113450230Y-55603132D01*
X113450229Y-55603131D01*
X113391752Y-55591500D01*
X113391748Y-55591500D01*
X111652252Y-55591500D01*
X111652247Y-55591500D01*
X111593770Y-55603131D01*
X111593769Y-55603132D01*
X111527447Y-55647447D01*
X111483132Y-55713769D01*
X111483131Y-55713770D01*
X111471500Y-55772247D01*
X111471500Y-57511752D01*
X101600093Y-57511752D01*
X101605634Y-57509168D01*
X101792039Y-57378647D01*
X101952947Y-57217739D01*
X102083468Y-57031334D01*
X102179639Y-56825096D01*
X102238535Y-56605292D01*
X102258368Y-56378600D01*
X102238535Y-56151908D01*
X102179639Y-55932104D01*
X102083468Y-55725866D01*
X101952947Y-55539461D01*
X101952945Y-55539458D01*
X101792041Y-55378554D01*
X101605634Y-55248032D01*
X101605632Y-55248031D01*
X101399397Y-55151861D01*
X101399388Y-55151858D01*
X101179597Y-55092966D01*
X101179593Y-55092965D01*
X101179592Y-55092965D01*
X101179591Y-55092964D01*
X101179586Y-55092964D01*
X100952902Y-55073132D01*
X100952898Y-55073132D01*
X100726213Y-55092964D01*
X100726202Y-55092966D01*
X100506411Y-55151858D01*
X100506402Y-55151861D01*
X100300167Y-55248031D01*
X100300165Y-55248032D01*
X100113758Y-55378554D01*
X99952854Y-55539458D01*
X99822332Y-55725865D01*
X99822331Y-55725867D01*
X99726161Y-55932102D01*
X99726158Y-55932111D01*
X99667266Y-56151902D01*
X99667264Y-56151913D01*
X99647432Y-56378598D01*
X99647432Y-56378601D01*
X95758368Y-56378601D01*
X95758368Y-56378600D01*
X95738535Y-56151908D01*
X95679639Y-55932104D01*
X95583468Y-55725866D01*
X95452947Y-55539461D01*
X95452945Y-55539458D01*
X95292041Y-55378554D01*
X95105634Y-55248032D01*
X95105632Y-55248031D01*
X94899397Y-55151861D01*
X94899388Y-55151858D01*
X94679597Y-55092966D01*
X94679593Y-55092965D01*
X94679592Y-55092965D01*
X94679591Y-55092964D01*
X94679586Y-55092964D01*
X94452902Y-55073132D01*
X94452898Y-55073132D01*
X94226213Y-55092964D01*
X94226202Y-55092966D01*
X94006411Y-55151858D01*
X94006402Y-55151861D01*
X93800167Y-55248031D01*
X93800165Y-55248032D01*
X93613758Y-55378554D01*
X93452854Y-55539458D01*
X93322332Y-55725865D01*
X93322331Y-55725867D01*
X93226161Y-55932102D01*
X93226158Y-55932111D01*
X93167266Y-56151902D01*
X93167264Y-56151913D01*
X93147432Y-56378598D01*
X93147432Y-56378601D01*
X58755070Y-56378601D01*
X58832374Y-56162549D01*
X58927870Y-55781308D01*
X58985538Y-55392550D01*
X58986363Y-55375752D01*
X78047500Y-55375752D01*
X78059131Y-55434229D01*
X78059132Y-55434230D01*
X78103447Y-55500552D01*
X78169769Y-55544867D01*
X78169770Y-55544868D01*
X78228247Y-55556499D01*
X78228250Y-55556500D01*
X78228252Y-55556500D01*
X80267750Y-55556500D01*
X80267751Y-55556499D01*
X80282568Y-55553552D01*
X80326229Y-55544868D01*
X80326229Y-55544867D01*
X80326231Y-55544867D01*
X80392552Y-55500552D01*
X80436867Y-55434231D01*
X80436867Y-55434229D01*
X80436868Y-55434229D01*
X80448499Y-55375752D01*
X80448500Y-55375750D01*
X80448500Y-55351370D01*
X80468185Y-55284331D01*
X80520989Y-55238576D01*
X80557928Y-55232518D01*
X81304923Y-54485523D01*
X81328507Y-54565844D01*
X81406239Y-54686798D01*
X81514900Y-54780952D01*
X81645685Y-54840680D01*
X81655466Y-54842086D01*
X80917942Y-55579609D01*
X80964768Y-55616055D01*
X80964770Y-55616056D01*
X81183385Y-55734364D01*
X81183396Y-55734369D01*
X81418506Y-55815083D01*
X81663707Y-55856000D01*
X81912293Y-55856000D01*
X82157493Y-55815083D01*
X82392603Y-55734369D01*
X82392614Y-55734364D01*
X82611228Y-55616057D01*
X82611231Y-55616055D01*
X82658056Y-55579609D01*
X81920533Y-54842086D01*
X81930315Y-54840680D01*
X82061100Y-54780952D01*
X82169761Y-54686798D01*
X82247493Y-54565844D01*
X82271076Y-54485524D01*
X83011434Y-55225882D01*
X83111731Y-55072369D01*
X83211587Y-54844717D01*
X83270076Y-54613752D01*
X141039500Y-54613752D01*
X141051131Y-54672229D01*
X141051132Y-54672230D01*
X141095447Y-54738552D01*
X141161769Y-54782867D01*
X141161770Y-54782868D01*
X141220247Y-54794499D01*
X141220250Y-54794500D01*
X141220252Y-54794500D01*
X143259750Y-54794500D01*
X143259751Y-54794499D01*
X143274568Y-54791552D01*
X143318229Y-54782868D01*
X143318229Y-54782867D01*
X143318231Y-54782867D01*
X143384552Y-54738552D01*
X143428867Y-54672231D01*
X143428867Y-54672229D01*
X143428868Y-54672229D01*
X143440499Y-54613752D01*
X143440500Y-54613750D01*
X143440500Y-54589370D01*
X143460185Y-54522331D01*
X143512989Y-54476576D01*
X143549928Y-54470518D01*
X144296923Y-53723523D01*
X144320507Y-53803844D01*
X144398239Y-53924798D01*
X144506900Y-54018952D01*
X144637685Y-54078680D01*
X144647466Y-54080086D01*
X143909942Y-54817609D01*
X143956768Y-54854055D01*
X143956770Y-54854056D01*
X144175385Y-54972364D01*
X144175396Y-54972369D01*
X144410506Y-55053083D01*
X144655707Y-55094000D01*
X144904293Y-55094000D01*
X145149493Y-55053083D01*
X145384603Y-54972369D01*
X145384614Y-54972364D01*
X145603228Y-54854057D01*
X145603231Y-54854055D01*
X145650056Y-54817609D01*
X144912533Y-54080086D01*
X144922315Y-54078680D01*
X145053100Y-54018952D01*
X145161761Y-53924798D01*
X145239493Y-53803844D01*
X145263077Y-53723523D01*
X146003434Y-54463882D01*
X146103731Y-54310369D01*
X146203587Y-54082717D01*
X146264612Y-53841738D01*
X146264614Y-53841729D01*
X146285141Y-53594005D01*
X146285141Y-53593994D01*
X146264614Y-53346270D01*
X146264612Y-53346261D01*
X146203587Y-53105282D01*
X146103731Y-52877630D01*
X146003434Y-52724116D01*
X145263076Y-53464474D01*
X145239493Y-53384156D01*
X145161761Y-53263202D01*
X145053100Y-53169048D01*
X144922315Y-53109320D01*
X144912534Y-53107913D01*
X145650057Y-52370390D01*
X145650056Y-52370389D01*
X145603229Y-52333943D01*
X145384614Y-52215635D01*
X145384603Y-52215630D01*
X145149493Y-52134916D01*
X144904293Y-52094000D01*
X144655707Y-52094000D01*
X144410506Y-52134916D01*
X144175396Y-52215630D01*
X144175390Y-52215632D01*
X143956761Y-52333949D01*
X143909942Y-52370388D01*
X143909942Y-52370390D01*
X144647466Y-53107913D01*
X144637685Y-53109320D01*
X144506900Y-53169048D01*
X144398239Y-53263202D01*
X144320507Y-53384156D01*
X144296923Y-53464475D01*
X143549245Y-52716797D01*
X143508577Y-52709301D01*
X143457620Y-52661498D01*
X143440500Y-52598628D01*
X143440500Y-52574249D01*
X143440499Y-52574247D01*
X143428868Y-52515770D01*
X143428867Y-52515769D01*
X143384552Y-52449447D01*
X143318230Y-52405132D01*
X143318229Y-52405131D01*
X143259752Y-52393500D01*
X143259748Y-52393500D01*
X141220252Y-52393500D01*
X141220247Y-52393500D01*
X141161770Y-52405131D01*
X141161769Y-52405132D01*
X141095447Y-52449447D01*
X141051132Y-52515769D01*
X141051131Y-52515770D01*
X141039500Y-52574247D01*
X141039500Y-54613752D01*
X83270076Y-54613752D01*
X83272612Y-54603738D01*
X83272614Y-54603729D01*
X83293141Y-54356005D01*
X83293141Y-54355994D01*
X83272614Y-54108270D01*
X83272612Y-54108261D01*
X83211587Y-53867282D01*
X83111731Y-53639630D01*
X83011434Y-53486116D01*
X82271076Y-54226475D01*
X82247493Y-54146156D01*
X82169761Y-54025202D01*
X82061100Y-53931048D01*
X81930315Y-53871320D01*
X81920531Y-53869913D01*
X82658056Y-53132389D01*
X82611229Y-53095943D01*
X82392614Y-52977635D01*
X82392603Y-52977630D01*
X82157493Y-52896916D01*
X81912293Y-52856000D01*
X81663707Y-52856000D01*
X81418506Y-52896916D01*
X81183396Y-52977630D01*
X81183390Y-52977632D01*
X80964761Y-53095949D01*
X80917942Y-53132388D01*
X80917941Y-53132389D01*
X81655466Y-53869913D01*
X81645685Y-53871320D01*
X81514900Y-53931048D01*
X81406239Y-54025202D01*
X81328507Y-54146156D01*
X81304923Y-54226475D01*
X80557245Y-53478797D01*
X80516577Y-53471301D01*
X80465620Y-53423498D01*
X80448500Y-53360628D01*
X80448500Y-53336249D01*
X80448499Y-53336247D01*
X80436868Y-53277770D01*
X80436867Y-53277769D01*
X80392552Y-53211447D01*
X80326230Y-53167132D01*
X80326229Y-53167131D01*
X80267752Y-53155500D01*
X80267748Y-53155500D01*
X78228252Y-53155500D01*
X78228247Y-53155500D01*
X78169770Y-53167131D01*
X78169769Y-53167132D01*
X78103447Y-53211447D01*
X78059132Y-53277769D01*
X78059131Y-53277770D01*
X78047500Y-53336247D01*
X78047500Y-55375752D01*
X58986363Y-55375752D01*
X59004823Y-55000000D01*
X58985538Y-54607449D01*
X58927870Y-54218691D01*
X58832374Y-53837450D01*
X58699983Y-53467440D01*
X58699976Y-53467424D01*
X58531937Y-53112135D01*
X58329890Y-52775041D01*
X58095771Y-52459367D01*
X57999930Y-52353622D01*
X57999929Y-52353622D01*
X57050346Y-53303204D01*
X57091650Y-53241390D01*
X57111053Y-53143845D01*
X57091650Y-53046300D01*
X57036395Y-52963605D01*
X56953700Y-52908350D01*
X56880779Y-52893845D01*
X56831531Y-52893845D01*
X56758610Y-52908350D01*
X56696787Y-52949658D01*
X57646376Y-52000069D01*
X57646376Y-52000068D01*
X57540632Y-51904228D01*
X57224958Y-51670109D01*
X56887864Y-51468062D01*
X56532575Y-51300023D01*
X56532559Y-51300016D01*
X56162549Y-51167625D01*
X55781308Y-51072129D01*
X55392550Y-51014461D01*
X55000000Y-50995176D01*
X54607449Y-51014461D01*
X54218691Y-51072129D01*
X53837450Y-51167625D01*
X53467440Y-51300016D01*
X53467424Y-51300023D01*
X53112135Y-51468062D01*
X52775041Y-51670109D01*
X52459368Y-51904228D01*
X52353622Y-52000069D01*
X53303209Y-52949656D01*
X53241390Y-52908350D01*
X53168469Y-52893845D01*
X53119221Y-52893845D01*
X53046300Y-52908350D01*
X52963605Y-52963605D01*
X52908350Y-53046300D01*
X52888947Y-53143845D01*
X52908350Y-53241390D01*
X52949656Y-53303209D01*
X52000069Y-52353622D01*
X51904228Y-52459368D01*
X51670109Y-52775041D01*
X51468062Y-53112135D01*
X51300023Y-53467424D01*
X51300016Y-53467440D01*
X51167625Y-53837450D01*
X51072129Y-54218691D01*
X51046658Y-54390400D01*
X51017349Y-54453826D01*
X50958403Y-54491337D01*
X50888534Y-54491025D01*
X50829925Y-54452988D01*
X50801185Y-54389304D01*
X50800000Y-54372205D01*
X50800000Y-50426760D01*
X50819685Y-50359721D01*
X50872489Y-50313966D01*
X50924000Y-50302760D01*
X92836811Y-50302760D01*
X92903850Y-50322445D01*
G37*
%TD.AperFunction*%
%TA.AperFunction,Conductor*%
G36*
X160335674Y-99530121D02*
G01*
X160273855Y-99488815D01*
X160200934Y-99474310D01*
X160151686Y-99474310D01*
X160078765Y-99488815D01*
X159996070Y-99544070D01*
X159940815Y-99626765D01*
X159921412Y-99724310D01*
X159940815Y-99821855D01*
X159982121Y-99883674D01*
X159368727Y-99270280D01*
X159513795Y-99154593D01*
X159692197Y-98962322D01*
X159722876Y-98917323D01*
X160335674Y-99530121D01*
G37*
%TD.AperFunction*%
%TA.AperFunction,Conductor*%
G36*
X156948113Y-98962322D02*
G01*
X157126515Y-99154593D01*
X157271582Y-99270279D01*
X156658191Y-99883670D01*
X156699495Y-99821855D01*
X156718898Y-99724310D01*
X156699495Y-99626765D01*
X156644240Y-99544070D01*
X156561545Y-99488815D01*
X156488624Y-99474310D01*
X156439376Y-99474310D01*
X156366455Y-99488815D01*
X156304631Y-99530123D01*
X156917433Y-98917322D01*
X156948113Y-98962322D01*
G37*
%TD.AperFunction*%
%TA.AperFunction,Conductor*%
G36*
X56957673Y-99022120D02*
G01*
X56895855Y-98980815D01*
X56822934Y-98966310D01*
X56773686Y-98966310D01*
X56700765Y-98980815D01*
X56618070Y-99036070D01*
X56562815Y-99118765D01*
X56543412Y-99216310D01*
X56562815Y-99313855D01*
X56604121Y-99375674D01*
X55990727Y-98762280D01*
X56135795Y-98646593D01*
X56314197Y-98454322D01*
X56344876Y-98409323D01*
X56957673Y-99022120D01*
G37*
%TD.AperFunction*%
%TA.AperFunction,Conductor*%
G36*
X53570113Y-98454322D02*
G01*
X53748515Y-98646593D01*
X53893582Y-98762279D01*
X53280191Y-99375670D01*
X53321495Y-99313855D01*
X53340898Y-99216310D01*
X53321495Y-99118765D01*
X53266240Y-99036070D01*
X53183545Y-98980815D01*
X53110624Y-98966310D01*
X53061376Y-98966310D01*
X52988455Y-98980815D01*
X52926631Y-99022123D01*
X53539433Y-98409322D01*
X53570113Y-98454322D01*
G37*
%TD.AperFunction*%
%TA.AperFunction,Conductor*%
G36*
X157271582Y-96466029D02*
G01*
X157126515Y-96581717D01*
X156948113Y-96773988D01*
X156917433Y-96818986D01*
X156304635Y-96206188D01*
X156366455Y-96247495D01*
X156439376Y-96262000D01*
X156488624Y-96262000D01*
X156561545Y-96247495D01*
X156644240Y-96192240D01*
X156699495Y-96109545D01*
X156718898Y-96012000D01*
X156699495Y-95914455D01*
X156658188Y-95852635D01*
X157271582Y-96466029D01*
G37*
%TD.AperFunction*%
%TA.AperFunction,Conductor*%
G36*
X159940815Y-95914455D02*
G01*
X159921412Y-96012000D01*
X159940815Y-96109545D01*
X159996070Y-96192240D01*
X160078765Y-96247495D01*
X160151686Y-96262000D01*
X160200934Y-96262000D01*
X160273855Y-96247495D01*
X160335669Y-96206191D01*
X159722875Y-96818985D01*
X159692197Y-96773988D01*
X159513795Y-96581717D01*
X159368727Y-96466029D01*
X159982123Y-95852633D01*
X159940815Y-95914455D01*
G37*
%TD.AperFunction*%
%TA.AperFunction,Conductor*%
G36*
X53893582Y-95958029D02*
G01*
X53748515Y-96073717D01*
X53570113Y-96265988D01*
X53539433Y-96310986D01*
X52926636Y-95698189D01*
X52988455Y-95739495D01*
X53061376Y-95754000D01*
X53110624Y-95754000D01*
X53183545Y-95739495D01*
X53266240Y-95684240D01*
X53321495Y-95601545D01*
X53340898Y-95504000D01*
X53321495Y-95406455D01*
X53280188Y-95344635D01*
X53893582Y-95958029D01*
G37*
%TD.AperFunction*%
%TA.AperFunction,Conductor*%
G36*
X56562815Y-95406455D02*
G01*
X56543412Y-95504000D01*
X56562815Y-95601545D01*
X56618070Y-95684240D01*
X56700765Y-95739495D01*
X56773686Y-95754000D01*
X56822934Y-95754000D01*
X56895855Y-95739495D01*
X56957668Y-95698192D01*
X56344875Y-96310985D01*
X56314197Y-96265988D01*
X56135795Y-96073717D01*
X55990727Y-95958029D01*
X56604123Y-95344633D01*
X56562815Y-95406455D01*
G37*
%TD.AperFunction*%
%TA.AperFunction,Conductor*%
G36*
X57015519Y-56661966D02*
G01*
X56953700Y-56620660D01*
X56880779Y-56606155D01*
X56831531Y-56606155D01*
X56758610Y-56620660D01*
X56675915Y-56675915D01*
X56620660Y-56758610D01*
X56601257Y-56856155D01*
X56620660Y-56953700D01*
X56661966Y-57015519D01*
X56048572Y-56402125D01*
X56193640Y-56286438D01*
X56372042Y-56094167D01*
X56402721Y-56049168D01*
X57015519Y-56661966D01*
G37*
%TD.AperFunction*%
%TA.AperFunction,Conductor*%
G36*
X53627958Y-56094167D02*
G01*
X53806360Y-56286438D01*
X53951427Y-56402124D01*
X53338036Y-57015515D01*
X53379340Y-56953700D01*
X53398743Y-56856155D01*
X53379340Y-56758610D01*
X53324085Y-56675915D01*
X53241390Y-56620660D01*
X53168469Y-56606155D01*
X53119221Y-56606155D01*
X53046300Y-56620660D01*
X52984476Y-56661968D01*
X53597278Y-56049167D01*
X53627958Y-56094167D01*
G37*
%TD.AperFunction*%
%TA.AperFunction,Conductor*%
G36*
X160179364Y-56096121D02*
G01*
X160117545Y-56054815D01*
X160044624Y-56040310D01*
X159995376Y-56040310D01*
X159922455Y-56054815D01*
X159839760Y-56110070D01*
X159784505Y-56192765D01*
X159765102Y-56290310D01*
X159784505Y-56387855D01*
X159825811Y-56449674D01*
X159212417Y-55836280D01*
X159357485Y-55720593D01*
X159535887Y-55528322D01*
X159566566Y-55483323D01*
X160179364Y-56096121D01*
G37*
%TD.AperFunction*%
%TA.AperFunction,Conductor*%
G36*
X156791803Y-55528322D02*
G01*
X156970205Y-55720593D01*
X157115272Y-55836279D01*
X156501881Y-56449670D01*
X156543185Y-56387855D01*
X156562588Y-56290310D01*
X156543185Y-56192765D01*
X156487930Y-56110070D01*
X156405235Y-56054815D01*
X156332314Y-56040310D01*
X156283066Y-56040310D01*
X156210145Y-56054815D01*
X156148321Y-56096123D01*
X156761123Y-55483322D01*
X156791803Y-55528322D01*
G37*
%TD.AperFunction*%
%TA.AperFunction,Conductor*%
G36*
X53951427Y-53597874D02*
G01*
X53806360Y-53713562D01*
X53627958Y-53905833D01*
X53597278Y-53950831D01*
X52984480Y-53338033D01*
X53046300Y-53379340D01*
X53119221Y-53393845D01*
X53168469Y-53393845D01*
X53241390Y-53379340D01*
X53324085Y-53324085D01*
X53379340Y-53241390D01*
X53398743Y-53143845D01*
X53379340Y-53046300D01*
X53338033Y-52984480D01*
X53951427Y-53597874D01*
G37*
%TD.AperFunction*%
%TA.AperFunction,Conductor*%
G36*
X56620660Y-53046300D02*
G01*
X56601257Y-53143845D01*
X56620660Y-53241390D01*
X56675915Y-53324085D01*
X56758610Y-53379340D01*
X56831531Y-53393845D01*
X56880779Y-53393845D01*
X56953700Y-53379340D01*
X57015514Y-53338036D01*
X56402720Y-53950830D01*
X56372042Y-53905833D01*
X56193640Y-53713562D01*
X56048572Y-53597874D01*
X56661968Y-52984478D01*
X56620660Y-53046300D01*
G37*
%TD.AperFunction*%
%TA.AperFunction,Conductor*%
G36*
X157115272Y-53032029D02*
G01*
X156970205Y-53147717D01*
X156791803Y-53339988D01*
X156761123Y-53384986D01*
X156148325Y-52772188D01*
X156210145Y-52813495D01*
X156283066Y-52828000D01*
X156332314Y-52828000D01*
X156405235Y-52813495D01*
X156487930Y-52758240D01*
X156543185Y-52675545D01*
X156562588Y-52578000D01*
X156543185Y-52480455D01*
X156501878Y-52418635D01*
X157115272Y-53032029D01*
G37*
%TD.AperFunction*%
%TA.AperFunction,Conductor*%
G36*
X159784505Y-52480455D02*
G01*
X159765102Y-52578000D01*
X159784505Y-52675545D01*
X159839760Y-52758240D01*
X159922455Y-52813495D01*
X159995376Y-52828000D01*
X160044624Y-52828000D01*
X160117545Y-52813495D01*
X160179359Y-52772191D01*
X159566565Y-53384985D01*
X159535887Y-53339988D01*
X159357485Y-53147717D01*
X159212417Y-53032029D01*
X159825813Y-52418633D01*
X159784505Y-52480455D01*
G37*
%TD.AperFunction*%
%TD*%
D24*
X50000000Y-50000000D02*
X163062000Y-50000000D01*
X163062000Y-102706000D01*
X50000000Y-102706000D01*
X50000000Y-50000000D01*
M02*
