%TF.GenerationSoftware,KiCad,Pcbnew,7.0.5*%
%TF.CreationDate,2024-07-10T14:16:31-04:00*%
%TF.ProjectId,homeWork2,686f6d65-576f-4726-9b32-2e6b69636164,V2*%
%TF.SameCoordinates,Original*%
%TF.FileFunction,Paste,Top*%
%TF.FilePolarity,Positive*%
%FSLAX46Y46*%
G04 Gerber Fmt 4.6, Leading zero omitted, Abs format (unit mm)*
G04 Created by KiCad (PCBNEW 7.0.5) date 2024-07-10 14:16:31*
%MOMM*%
%LPD*%
G01*
G04 APERTURE LIST*
G04 Aperture macros list*
%AMRoundRect*
0 Rectangle with rounded corners*
0 $1 Rounding radius*
0 $2 $3 $4 $5 $6 $7 $8 $9 X,Y pos of 4 corners*
0 Add a 4 corners polygon primitive as box body*
4,1,4,$2,$3,$4,$5,$6,$7,$8,$9,$2,$3,0*
0 Add four circle primitives for the rounded corners*
1,1,$1+$1,$2,$3*
1,1,$1+$1,$4,$5*
1,1,$1+$1,$6,$7*
1,1,$1+$1,$8,$9*
0 Add four rect primitives between the rounded corners*
20,1,$1+$1,$2,$3,$4,$5,0*
20,1,$1+$1,$4,$5,$6,$7,0*
20,1,$1+$1,$6,$7,$8,$9,0*
20,1,$1+$1,$8,$9,$2,$3,0*%
G04 Aperture macros list end*
%ADD10RoundRect,0.237500X-0.237500X0.250000X-0.237500X-0.250000X0.237500X-0.250000X0.237500X0.250000X0*%
%ADD11RoundRect,0.250000X0.900000X-1.000000X0.900000X1.000000X-0.900000X1.000000X-0.900000X-1.000000X0*%
%ADD12RoundRect,0.237500X-0.250000X-0.237500X0.250000X-0.237500X0.250000X0.237500X-0.250000X0.237500X0*%
%ADD13RoundRect,0.237500X-0.237500X0.300000X-0.237500X-0.300000X0.237500X-0.300000X0.237500X0.300000X0*%
%ADD14RoundRect,0.250000X-1.250000X-0.550000X1.250000X-0.550000X1.250000X0.550000X-1.250000X0.550000X0*%
%ADD15RoundRect,0.250000X0.550000X-1.250000X0.550000X1.250000X-0.550000X1.250000X-0.550000X-1.250000X0*%
%ADD16RoundRect,0.218750X0.218750X0.256250X-0.218750X0.256250X-0.218750X-0.256250X0.218750X-0.256250X0*%
%ADD17RoundRect,0.237500X0.250000X0.237500X-0.250000X0.237500X-0.250000X-0.237500X0.250000X-0.237500X0*%
%ADD18RoundRect,0.237500X0.237500X-0.250000X0.237500X0.250000X-0.237500X0.250000X-0.237500X-0.250000X0*%
%ADD19RoundRect,0.237500X0.237500X-0.300000X0.237500X0.300000X-0.237500X0.300000X-0.237500X-0.300000X0*%
%ADD20RoundRect,0.250000X1.250000X0.550000X-1.250000X0.550000X-1.250000X-0.550000X1.250000X-0.550000X0*%
%ADD21R,2.000000X3.000000*%
%ADD22R,2.000000X2.999999*%
%ADD23RoundRect,0.237500X0.300000X0.237500X-0.300000X0.237500X-0.300000X-0.237500X0.300000X-0.237500X0*%
%ADD24RoundRect,0.237500X-0.300000X-0.237500X0.300000X-0.237500X0.300000X0.237500X-0.300000X0.237500X0*%
%TA.AperFunction,Profile*%
%ADD25C,0.100000*%
%TD*%
G04 APERTURE END LIST*
D10*
%TO.C,R14*%
X138176000Y-69699500D03*
X138176000Y-71524500D03*
%TD*%
D11*
%TO.C,D2*%
X84524750Y-93942750D03*
X84524750Y-89642750D03*
%TD*%
D10*
%TO.C,R12*%
X138430000Y-52785000D03*
X138430000Y-54610000D03*
%TD*%
D12*
%TO.C,R2*%
X54864000Y-64008000D03*
X56689000Y-64008000D03*
%TD*%
D13*
%TO.C,C2*%
X63246000Y-79047000D03*
X63246000Y-80772000D03*
%TD*%
D14*
%TO.C,C4*%
X88470750Y-99220750D03*
X92870750Y-99220750D03*
%TD*%
D15*
%TO.C,C3*%
X104902000Y-94316000D03*
X104902000Y-89916000D03*
%TD*%
D16*
%TO.C,F1*%
X85099750Y-86792750D03*
X83524750Y-86792750D03*
%TD*%
D10*
%TO.C,R9*%
X138684000Y-77319500D03*
X138684000Y-79144500D03*
%TD*%
D17*
%TO.C,R10*%
X74064500Y-53340000D03*
X72239500Y-53340000D03*
%TD*%
D18*
%TO.C,R4*%
X103886000Y-64158500D03*
X103886000Y-62333500D03*
%TD*%
D19*
%TO.C,C1*%
X108712000Y-92370000D03*
X108712000Y-90645000D03*
%TD*%
D10*
%TO.C,R3*%
X103886000Y-54817000D03*
X103886000Y-56642000D03*
%TD*%
%TO.C,R1*%
X104140000Y-97045500D03*
X104140000Y-98870500D03*
%TD*%
D20*
%TO.C,C7*%
X100998750Y-99220750D03*
X96598750Y-99220750D03*
%TD*%
D18*
%TO.C,R7*%
X144375500Y-99822000D03*
X144375500Y-97997000D03*
%TD*%
%TO.C,R5*%
X103886000Y-72540500D03*
X103886000Y-70715500D03*
%TD*%
D21*
%TO.C,J1*%
X58100000Y-74136000D03*
X58100000Y-85136000D03*
X52100000Y-85136000D03*
D22*
X52100000Y-74136000D03*
%TD*%
D23*
%TO.C,C6*%
X97629250Y-95410750D03*
X95904250Y-95410750D03*
%TD*%
D18*
%TO.C,R6*%
X103886000Y-80869400D03*
X103886000Y-79044400D03*
%TD*%
D24*
%TO.C,C5*%
X92348250Y-95410750D03*
X94073250Y-95410750D03*
%TD*%
D10*
%TO.C,R11*%
X138430000Y-83265000D03*
X138430000Y-85090000D03*
%TD*%
D17*
%TO.C,R8*%
X74469000Y-59436000D03*
X72644000Y-59436000D03*
%TD*%
D19*
%TO.C,C8*%
X139803500Y-93422000D03*
X139803500Y-91697000D03*
%TD*%
D10*
%TO.C,R13*%
X138430000Y-60198000D03*
X138430000Y-62023000D03*
%TD*%
D15*
%TO.C,C9*%
X143613500Y-95013500D03*
X143613500Y-90613500D03*
%TD*%
D25*
X50000000Y-50000000D02*
X163062000Y-50000000D01*
X163062000Y-102706000D01*
X50000000Y-102706000D01*
X50000000Y-50000000D01*
M02*
