%TF.GenerationSoftware,KiCad,Pcbnew,7.0.5*%
%TF.CreationDate,2024-07-10T14:16:31-04:00*%
%TF.ProjectId,homeWork2,686f6d65-576f-4726-9b32-2e6b69636164,V2*%
%TF.SameCoordinates,Original*%
%TF.FileFunction,Legend,Bot*%
%TF.FilePolarity,Positive*%
%FSLAX46Y46*%
G04 Gerber Fmt 4.6, Leading zero omitted, Abs format (unit mm)*
G04 Created by KiCad (PCBNEW 7.0.5) date 2024-07-10 14:16:31*
%MOMM*%
%LPD*%
G01*
G04 APERTURE LIST*
%ADD10C,0.150000*%
%ADD11C,0.100000*%
%TA.AperFunction,Profile*%
%ADD12C,0.100000*%
%TD*%
G04 APERTURE END LIST*
D10*
%TO.C,*%
D11*
X132347639Y-56276419D02*
X132252401Y-56276419D01*
X132252401Y-56276419D02*
X132157163Y-56324038D01*
X132157163Y-56324038D02*
X132109544Y-56371657D01*
X132109544Y-56371657D02*
X132061925Y-56466895D01*
X132061925Y-56466895D02*
X132014306Y-56657371D01*
X132014306Y-56657371D02*
X132014306Y-56895466D01*
X132014306Y-56895466D02*
X132061925Y-57085942D01*
X132061925Y-57085942D02*
X132109544Y-57181180D01*
X132109544Y-57181180D02*
X132157163Y-57228800D01*
X132157163Y-57228800D02*
X132252401Y-57276419D01*
X132252401Y-57276419D02*
X132347639Y-57276419D01*
X132347639Y-57276419D02*
X132442877Y-57228800D01*
X132442877Y-57228800D02*
X132490496Y-57181180D01*
X132490496Y-57181180D02*
X132538115Y-57085942D01*
X132538115Y-57085942D02*
X132585734Y-56895466D01*
X132585734Y-56895466D02*
X132585734Y-56657371D01*
X132585734Y-56657371D02*
X132538115Y-56466895D01*
X132538115Y-56466895D02*
X132490496Y-56371657D01*
X132490496Y-56371657D02*
X132442877Y-56324038D01*
X132442877Y-56324038D02*
X132347639Y-56276419D01*
X131633353Y-56371657D02*
X131585734Y-56324038D01*
X131585734Y-56324038D02*
X131490496Y-56276419D01*
X131490496Y-56276419D02*
X131252401Y-56276419D01*
X131252401Y-56276419D02*
X131157163Y-56324038D01*
X131157163Y-56324038D02*
X131109544Y-56371657D01*
X131109544Y-56371657D02*
X131061925Y-56466895D01*
X131061925Y-56466895D02*
X131061925Y-56562133D01*
X131061925Y-56562133D02*
X131109544Y-56704990D01*
X131109544Y-56704990D02*
X131680972Y-57276419D01*
X131680972Y-57276419D02*
X131061925Y-57276419D01*
X130728591Y-56276419D02*
X130109544Y-56276419D01*
X130109544Y-56276419D02*
X130442877Y-56657371D01*
X130442877Y-56657371D02*
X130300020Y-56657371D01*
X130300020Y-56657371D02*
X130204782Y-56704990D01*
X130204782Y-56704990D02*
X130157163Y-56752609D01*
X130157163Y-56752609D02*
X130109544Y-56847847D01*
X130109544Y-56847847D02*
X130109544Y-57085942D01*
X130109544Y-57085942D02*
X130157163Y-57181180D01*
X130157163Y-57181180D02*
X130204782Y-57228800D01*
X130204782Y-57228800D02*
X130300020Y-57276419D01*
X130300020Y-57276419D02*
X130585734Y-57276419D01*
X130585734Y-57276419D02*
X130680972Y-57228800D01*
X130680972Y-57228800D02*
X130728591Y-57181180D01*
D10*
D11*
X131966687Y-80136419D02*
X132300020Y-79660228D01*
X132538115Y-80136419D02*
X132538115Y-79136419D01*
X132538115Y-79136419D02*
X132157163Y-79136419D01*
X132157163Y-79136419D02*
X132061925Y-79184038D01*
X132061925Y-79184038D02*
X132014306Y-79231657D01*
X132014306Y-79231657D02*
X131966687Y-79326895D01*
X131966687Y-79326895D02*
X131966687Y-79469752D01*
X131966687Y-79469752D02*
X132014306Y-79564990D01*
X132014306Y-79564990D02*
X132061925Y-79612609D01*
X132061925Y-79612609D02*
X132157163Y-79660228D01*
X132157163Y-79660228D02*
X132538115Y-79660228D01*
X131633353Y-79136419D02*
X130966687Y-80136419D01*
X130966687Y-79136419D02*
X131633353Y-80136419D01*
X130633353Y-79231657D02*
X130585734Y-79184038D01*
X130585734Y-79184038D02*
X130490496Y-79136419D01*
X130490496Y-79136419D02*
X130252401Y-79136419D01*
X130252401Y-79136419D02*
X130157163Y-79184038D01*
X130157163Y-79184038D02*
X130109544Y-79231657D01*
X130109544Y-79231657D02*
X130061925Y-79326895D01*
X130061925Y-79326895D02*
X130061925Y-79422133D01*
X130061925Y-79422133D02*
X130109544Y-79564990D01*
X130109544Y-79564990D02*
X130680972Y-80136419D01*
X130680972Y-80136419D02*
X130061925Y-80136419D01*
X131839639Y-81676419D02*
X131744401Y-81676419D01*
X131744401Y-81676419D02*
X131649163Y-81724038D01*
X131649163Y-81724038D02*
X131601544Y-81771657D01*
X131601544Y-81771657D02*
X131553925Y-81866895D01*
X131553925Y-81866895D02*
X131506306Y-82057371D01*
X131506306Y-82057371D02*
X131506306Y-82295466D01*
X131506306Y-82295466D02*
X131553925Y-82485942D01*
X131553925Y-82485942D02*
X131601544Y-82581180D01*
X131601544Y-82581180D02*
X131649163Y-82628800D01*
X131649163Y-82628800D02*
X131744401Y-82676419D01*
X131744401Y-82676419D02*
X131839639Y-82676419D01*
X131839639Y-82676419D02*
X131934877Y-82628800D01*
X131934877Y-82628800D02*
X131982496Y-82581180D01*
X131982496Y-82581180D02*
X132030115Y-82485942D01*
X132030115Y-82485942D02*
X132077734Y-82295466D01*
X132077734Y-82295466D02*
X132077734Y-82057371D01*
X132077734Y-82057371D02*
X132030115Y-81866895D01*
X132030115Y-81866895D02*
X131982496Y-81771657D01*
X131982496Y-81771657D02*
X131934877Y-81724038D01*
X131934877Y-81724038D02*
X131839639Y-81676419D01*
X130649163Y-82009752D02*
X130649163Y-82676419D01*
X130887258Y-81628800D02*
X131125353Y-82343085D01*
X131125353Y-82343085D02*
X130506306Y-82343085D01*
X132680972Y-61356419D02*
X132109544Y-61356419D01*
X132395258Y-62356419D02*
X132395258Y-61356419D01*
X131871448Y-61356419D02*
X131204782Y-62356419D01*
X131204782Y-61356419D02*
X131871448Y-62356419D01*
X130633353Y-61356419D02*
X130442877Y-61356419D01*
X130442877Y-61356419D02*
X130347639Y-61404038D01*
X130347639Y-61404038D02*
X130252401Y-61499276D01*
X130252401Y-61499276D02*
X130204782Y-61689752D01*
X130204782Y-61689752D02*
X130204782Y-62023085D01*
X130204782Y-62023085D02*
X130252401Y-62213561D01*
X130252401Y-62213561D02*
X130347639Y-62308800D01*
X130347639Y-62308800D02*
X130442877Y-62356419D01*
X130442877Y-62356419D02*
X130633353Y-62356419D01*
X130633353Y-62356419D02*
X130728591Y-62308800D01*
X130728591Y-62308800D02*
X130823829Y-62213561D01*
X130823829Y-62213561D02*
X130871448Y-62023085D01*
X130871448Y-62023085D02*
X130871448Y-61689752D01*
X130871448Y-61689752D02*
X130823829Y-61499276D01*
X130823829Y-61499276D02*
X130728591Y-61404038D01*
X130728591Y-61404038D02*
X130633353Y-61356419D01*
X132347639Y-68976419D02*
X132252401Y-68976419D01*
X132252401Y-68976419D02*
X132157163Y-69024038D01*
X132157163Y-69024038D02*
X132109544Y-69071657D01*
X132109544Y-69071657D02*
X132061925Y-69166895D01*
X132061925Y-69166895D02*
X132014306Y-69357371D01*
X132014306Y-69357371D02*
X132014306Y-69595466D01*
X132014306Y-69595466D02*
X132061925Y-69785942D01*
X132061925Y-69785942D02*
X132109544Y-69881180D01*
X132109544Y-69881180D02*
X132157163Y-69928800D01*
X132157163Y-69928800D02*
X132252401Y-69976419D01*
X132252401Y-69976419D02*
X132347639Y-69976419D01*
X132347639Y-69976419D02*
X132442877Y-69928800D01*
X132442877Y-69928800D02*
X132490496Y-69881180D01*
X132490496Y-69881180D02*
X132538115Y-69785942D01*
X132538115Y-69785942D02*
X132585734Y-69595466D01*
X132585734Y-69595466D02*
X132585734Y-69357371D01*
X132585734Y-69357371D02*
X132538115Y-69166895D01*
X132538115Y-69166895D02*
X132490496Y-69071657D01*
X132490496Y-69071657D02*
X132442877Y-69024038D01*
X132442877Y-69024038D02*
X132347639Y-68976419D01*
X131061925Y-69976419D02*
X131633353Y-69976419D01*
X131347639Y-69976419D02*
X131347639Y-68976419D01*
X131347639Y-68976419D02*
X131442877Y-69119276D01*
X131442877Y-69119276D02*
X131538115Y-69214514D01*
X131538115Y-69214514D02*
X131633353Y-69262133D01*
X130585734Y-69976419D02*
X130395258Y-69976419D01*
X130395258Y-69976419D02*
X130300020Y-69928800D01*
X130300020Y-69928800D02*
X130252401Y-69881180D01*
X130252401Y-69881180D02*
X130157163Y-69738323D01*
X130157163Y-69738323D02*
X130109544Y-69547847D01*
X130109544Y-69547847D02*
X130109544Y-69166895D01*
X130109544Y-69166895D02*
X130157163Y-69071657D01*
X130157163Y-69071657D02*
X130204782Y-69024038D01*
X130204782Y-69024038D02*
X130300020Y-68976419D01*
X130300020Y-68976419D02*
X130490496Y-68976419D01*
X130490496Y-68976419D02*
X130585734Y-69024038D01*
X130585734Y-69024038D02*
X130633353Y-69071657D01*
X130633353Y-69071657D02*
X130680972Y-69166895D01*
X130680972Y-69166895D02*
X130680972Y-69404990D01*
X130680972Y-69404990D02*
X130633353Y-69500228D01*
X130633353Y-69500228D02*
X130585734Y-69547847D01*
X130585734Y-69547847D02*
X130490496Y-69595466D01*
X130490496Y-69595466D02*
X130300020Y-69595466D01*
X130300020Y-69595466D02*
X130204782Y-69547847D01*
X130204782Y-69547847D02*
X130157163Y-69500228D01*
X130157163Y-69500228D02*
X130109544Y-69404990D01*
X132426972Y-76596419D02*
X131855544Y-76596419D01*
X132141258Y-77596419D02*
X132141258Y-76596419D01*
X131617448Y-76596419D02*
X130950782Y-77596419D01*
X130950782Y-76596419D02*
X131617448Y-77596419D01*
X130617448Y-76691657D02*
X130569829Y-76644038D01*
X130569829Y-76644038D02*
X130474591Y-76596419D01*
X130474591Y-76596419D02*
X130236496Y-76596419D01*
X130236496Y-76596419D02*
X130141258Y-76644038D01*
X130141258Y-76644038D02*
X130093639Y-76691657D01*
X130093639Y-76691657D02*
X130046020Y-76786895D01*
X130046020Y-76786895D02*
X130046020Y-76882133D01*
X130046020Y-76882133D02*
X130093639Y-77024990D01*
X130093639Y-77024990D02*
X130665067Y-77596419D01*
X130665067Y-77596419D02*
X130046020Y-77596419D01*
X131585639Y-74056419D02*
X131490401Y-74056419D01*
X131490401Y-74056419D02*
X131395163Y-74104038D01*
X131395163Y-74104038D02*
X131347544Y-74151657D01*
X131347544Y-74151657D02*
X131299925Y-74246895D01*
X131299925Y-74246895D02*
X131252306Y-74437371D01*
X131252306Y-74437371D02*
X131252306Y-74675466D01*
X131252306Y-74675466D02*
X131299925Y-74865942D01*
X131299925Y-74865942D02*
X131347544Y-74961180D01*
X131347544Y-74961180D02*
X131395163Y-75008800D01*
X131395163Y-75008800D02*
X131490401Y-75056419D01*
X131490401Y-75056419D02*
X131585639Y-75056419D01*
X131585639Y-75056419D02*
X131680877Y-75008800D01*
X131680877Y-75008800D02*
X131728496Y-74961180D01*
X131728496Y-74961180D02*
X131776115Y-74865942D01*
X131776115Y-74865942D02*
X131823734Y-74675466D01*
X131823734Y-74675466D02*
X131823734Y-74437371D01*
X131823734Y-74437371D02*
X131776115Y-74246895D01*
X131776115Y-74246895D02*
X131728496Y-74151657D01*
X131728496Y-74151657D02*
X131680877Y-74104038D01*
X131680877Y-74104038D02*
X131585639Y-74056419D01*
X130347544Y-74056419D02*
X130823734Y-74056419D01*
X130823734Y-74056419D02*
X130871353Y-74532609D01*
X130871353Y-74532609D02*
X130823734Y-74484990D01*
X130823734Y-74484990D02*
X130728496Y-74437371D01*
X130728496Y-74437371D02*
X130490401Y-74437371D01*
X130490401Y-74437371D02*
X130395163Y-74484990D01*
X130395163Y-74484990D02*
X130347544Y-74532609D01*
X130347544Y-74532609D02*
X130299925Y-74627847D01*
X130299925Y-74627847D02*
X130299925Y-74865942D01*
X130299925Y-74865942D02*
X130347544Y-74961180D01*
X130347544Y-74961180D02*
X130395163Y-75008800D01*
X130395163Y-75008800D02*
X130490401Y-75056419D01*
X130490401Y-75056419D02*
X130728496Y-75056419D01*
X130728496Y-75056419D02*
X130823734Y-75008800D01*
X130823734Y-75008800D02*
X130871353Y-74961180D01*
X132347639Y-71770419D02*
X132252401Y-71770419D01*
X132252401Y-71770419D02*
X132157163Y-71818038D01*
X132157163Y-71818038D02*
X132109544Y-71865657D01*
X132109544Y-71865657D02*
X132061925Y-71960895D01*
X132061925Y-71960895D02*
X132014306Y-72151371D01*
X132014306Y-72151371D02*
X132014306Y-72389466D01*
X132014306Y-72389466D02*
X132061925Y-72579942D01*
X132061925Y-72579942D02*
X132109544Y-72675180D01*
X132109544Y-72675180D02*
X132157163Y-72722800D01*
X132157163Y-72722800D02*
X132252401Y-72770419D01*
X132252401Y-72770419D02*
X132347639Y-72770419D01*
X132347639Y-72770419D02*
X132442877Y-72722800D01*
X132442877Y-72722800D02*
X132490496Y-72675180D01*
X132490496Y-72675180D02*
X132538115Y-72579942D01*
X132538115Y-72579942D02*
X132585734Y-72389466D01*
X132585734Y-72389466D02*
X132585734Y-72151371D01*
X132585734Y-72151371D02*
X132538115Y-71960895D01*
X132538115Y-71960895D02*
X132490496Y-71865657D01*
X132490496Y-71865657D02*
X132442877Y-71818038D01*
X132442877Y-71818038D02*
X132347639Y-71770419D01*
X131061925Y-72770419D02*
X131633353Y-72770419D01*
X131347639Y-72770419D02*
X131347639Y-71770419D01*
X131347639Y-71770419D02*
X131442877Y-71913276D01*
X131442877Y-71913276D02*
X131538115Y-72008514D01*
X131538115Y-72008514D02*
X131633353Y-72056133D01*
X130490496Y-72198990D02*
X130585734Y-72151371D01*
X130585734Y-72151371D02*
X130633353Y-72103752D01*
X130633353Y-72103752D02*
X130680972Y-72008514D01*
X130680972Y-72008514D02*
X130680972Y-71960895D01*
X130680972Y-71960895D02*
X130633353Y-71865657D01*
X130633353Y-71865657D02*
X130585734Y-71818038D01*
X130585734Y-71818038D02*
X130490496Y-71770419D01*
X130490496Y-71770419D02*
X130300020Y-71770419D01*
X130300020Y-71770419D02*
X130204782Y-71818038D01*
X130204782Y-71818038D02*
X130157163Y-71865657D01*
X130157163Y-71865657D02*
X130109544Y-71960895D01*
X130109544Y-71960895D02*
X130109544Y-72008514D01*
X130109544Y-72008514D02*
X130157163Y-72103752D01*
X130157163Y-72103752D02*
X130204782Y-72151371D01*
X130204782Y-72151371D02*
X130300020Y-72198990D01*
X130300020Y-72198990D02*
X130490496Y-72198990D01*
X130490496Y-72198990D02*
X130585734Y-72246609D01*
X130585734Y-72246609D02*
X130633353Y-72294228D01*
X130633353Y-72294228D02*
X130680972Y-72389466D01*
X130680972Y-72389466D02*
X130680972Y-72579942D01*
X130680972Y-72579942D02*
X130633353Y-72675180D01*
X130633353Y-72675180D02*
X130585734Y-72722800D01*
X130585734Y-72722800D02*
X130490496Y-72770419D01*
X130490496Y-72770419D02*
X130300020Y-72770419D01*
X130300020Y-72770419D02*
X130204782Y-72722800D01*
X130204782Y-72722800D02*
X130157163Y-72675180D01*
X130157163Y-72675180D02*
X130109544Y-72579942D01*
X130109544Y-72579942D02*
X130109544Y-72389466D01*
X130109544Y-72389466D02*
X130157163Y-72294228D01*
X130157163Y-72294228D02*
X130204782Y-72246609D01*
X130204782Y-72246609D02*
X130300020Y-72198990D01*
X132347639Y-66182419D02*
X132252401Y-66182419D01*
X132252401Y-66182419D02*
X132157163Y-66230038D01*
X132157163Y-66230038D02*
X132109544Y-66277657D01*
X132109544Y-66277657D02*
X132061925Y-66372895D01*
X132061925Y-66372895D02*
X132014306Y-66563371D01*
X132014306Y-66563371D02*
X132014306Y-66801466D01*
X132014306Y-66801466D02*
X132061925Y-66991942D01*
X132061925Y-66991942D02*
X132109544Y-67087180D01*
X132109544Y-67087180D02*
X132157163Y-67134800D01*
X132157163Y-67134800D02*
X132252401Y-67182419D01*
X132252401Y-67182419D02*
X132347639Y-67182419D01*
X132347639Y-67182419D02*
X132442877Y-67134800D01*
X132442877Y-67134800D02*
X132490496Y-67087180D01*
X132490496Y-67087180D02*
X132538115Y-66991942D01*
X132538115Y-66991942D02*
X132585734Y-66801466D01*
X132585734Y-66801466D02*
X132585734Y-66563371D01*
X132585734Y-66563371D02*
X132538115Y-66372895D01*
X132538115Y-66372895D02*
X132490496Y-66277657D01*
X132490496Y-66277657D02*
X132442877Y-66230038D01*
X132442877Y-66230038D02*
X132347639Y-66182419D01*
X131633353Y-66277657D02*
X131585734Y-66230038D01*
X131585734Y-66230038D02*
X131490496Y-66182419D01*
X131490496Y-66182419D02*
X131252401Y-66182419D01*
X131252401Y-66182419D02*
X131157163Y-66230038D01*
X131157163Y-66230038D02*
X131109544Y-66277657D01*
X131109544Y-66277657D02*
X131061925Y-66372895D01*
X131061925Y-66372895D02*
X131061925Y-66468133D01*
X131061925Y-66468133D02*
X131109544Y-66610990D01*
X131109544Y-66610990D02*
X131680972Y-67182419D01*
X131680972Y-67182419D02*
X131061925Y-67182419D01*
X130109544Y-67182419D02*
X130680972Y-67182419D01*
X130395258Y-67182419D02*
X130395258Y-66182419D01*
X130395258Y-66182419D02*
X130490496Y-66325276D01*
X130490496Y-66325276D02*
X130585734Y-66420514D01*
X130585734Y-66420514D02*
X130680972Y-66468133D01*
X132347639Y-58816419D02*
X132252401Y-58816419D01*
X132252401Y-58816419D02*
X132157163Y-58864038D01*
X132157163Y-58864038D02*
X132109544Y-58911657D01*
X132109544Y-58911657D02*
X132061925Y-59006895D01*
X132061925Y-59006895D02*
X132014306Y-59197371D01*
X132014306Y-59197371D02*
X132014306Y-59435466D01*
X132014306Y-59435466D02*
X132061925Y-59625942D01*
X132061925Y-59625942D02*
X132109544Y-59721180D01*
X132109544Y-59721180D02*
X132157163Y-59768800D01*
X132157163Y-59768800D02*
X132252401Y-59816419D01*
X132252401Y-59816419D02*
X132347639Y-59816419D01*
X132347639Y-59816419D02*
X132442877Y-59768800D01*
X132442877Y-59768800D02*
X132490496Y-59721180D01*
X132490496Y-59721180D02*
X132538115Y-59625942D01*
X132538115Y-59625942D02*
X132585734Y-59435466D01*
X132585734Y-59435466D02*
X132585734Y-59197371D01*
X132585734Y-59197371D02*
X132538115Y-59006895D01*
X132538115Y-59006895D02*
X132490496Y-58911657D01*
X132490496Y-58911657D02*
X132442877Y-58864038D01*
X132442877Y-58864038D02*
X132347639Y-58816419D01*
X131633353Y-58911657D02*
X131585734Y-58864038D01*
X131585734Y-58864038D02*
X131490496Y-58816419D01*
X131490496Y-58816419D02*
X131252401Y-58816419D01*
X131252401Y-58816419D02*
X131157163Y-58864038D01*
X131157163Y-58864038D02*
X131109544Y-58911657D01*
X131109544Y-58911657D02*
X131061925Y-59006895D01*
X131061925Y-59006895D02*
X131061925Y-59102133D01*
X131061925Y-59102133D02*
X131109544Y-59244990D01*
X131109544Y-59244990D02*
X131680972Y-59816419D01*
X131680972Y-59816419D02*
X131061925Y-59816419D01*
X130680972Y-58911657D02*
X130633353Y-58864038D01*
X130633353Y-58864038D02*
X130538115Y-58816419D01*
X130538115Y-58816419D02*
X130300020Y-58816419D01*
X130300020Y-58816419D02*
X130204782Y-58864038D01*
X130204782Y-58864038D02*
X130157163Y-58911657D01*
X130157163Y-58911657D02*
X130109544Y-59006895D01*
X130109544Y-59006895D02*
X130109544Y-59102133D01*
X130109544Y-59102133D02*
X130157163Y-59244990D01*
X130157163Y-59244990D02*
X130728591Y-59816419D01*
X130728591Y-59816419D02*
X130109544Y-59816419D01*
X132633353Y-91836419D02*
X132014306Y-91836419D01*
X132014306Y-91836419D02*
X132347639Y-92217371D01*
X132347639Y-92217371D02*
X132204782Y-92217371D01*
X132204782Y-92217371D02*
X132109544Y-92264990D01*
X132109544Y-92264990D02*
X132061925Y-92312609D01*
X132061925Y-92312609D02*
X132014306Y-92407847D01*
X132014306Y-92407847D02*
X132014306Y-92645942D01*
X132014306Y-92645942D02*
X132061925Y-92741180D01*
X132061925Y-92741180D02*
X132109544Y-92788800D01*
X132109544Y-92788800D02*
X132204782Y-92836419D01*
X132204782Y-92836419D02*
X132490496Y-92836419D01*
X132490496Y-92836419D02*
X132585734Y-92788800D01*
X132585734Y-92788800D02*
X132633353Y-92741180D01*
X131728591Y-91836419D02*
X131395258Y-92836419D01*
X131395258Y-92836419D02*
X131061925Y-91836419D01*
X130823829Y-91836419D02*
X130204782Y-91836419D01*
X130204782Y-91836419D02*
X130538115Y-92217371D01*
X130538115Y-92217371D02*
X130395258Y-92217371D01*
X130395258Y-92217371D02*
X130300020Y-92264990D01*
X130300020Y-92264990D02*
X130252401Y-92312609D01*
X130252401Y-92312609D02*
X130204782Y-92407847D01*
X130204782Y-92407847D02*
X130204782Y-92645942D01*
X130204782Y-92645942D02*
X130252401Y-92741180D01*
X130252401Y-92741180D02*
X130300020Y-92788800D01*
X130300020Y-92788800D02*
X130395258Y-92836419D01*
X130395258Y-92836419D02*
X130680972Y-92836419D01*
X130680972Y-92836419D02*
X130776210Y-92788800D01*
X130776210Y-92788800D02*
X130823829Y-92741180D01*
X132347639Y-86756419D02*
X132252401Y-86756419D01*
X132252401Y-86756419D02*
X132157163Y-86804038D01*
X132157163Y-86804038D02*
X132109544Y-86851657D01*
X132109544Y-86851657D02*
X132061925Y-86946895D01*
X132061925Y-86946895D02*
X132014306Y-87137371D01*
X132014306Y-87137371D02*
X132014306Y-87375466D01*
X132014306Y-87375466D02*
X132061925Y-87565942D01*
X132061925Y-87565942D02*
X132109544Y-87661180D01*
X132109544Y-87661180D02*
X132157163Y-87708800D01*
X132157163Y-87708800D02*
X132252401Y-87756419D01*
X132252401Y-87756419D02*
X132347639Y-87756419D01*
X132347639Y-87756419D02*
X132442877Y-87708800D01*
X132442877Y-87708800D02*
X132490496Y-87661180D01*
X132490496Y-87661180D02*
X132538115Y-87565942D01*
X132538115Y-87565942D02*
X132585734Y-87375466D01*
X132585734Y-87375466D02*
X132585734Y-87137371D01*
X132585734Y-87137371D02*
X132538115Y-86946895D01*
X132538115Y-86946895D02*
X132490496Y-86851657D01*
X132490496Y-86851657D02*
X132442877Y-86804038D01*
X132442877Y-86804038D02*
X132347639Y-86756419D01*
X131061925Y-87756419D02*
X131633353Y-87756419D01*
X131347639Y-87756419D02*
X131347639Y-86756419D01*
X131347639Y-86756419D02*
X131442877Y-86899276D01*
X131442877Y-86899276D02*
X131538115Y-86994514D01*
X131538115Y-86994514D02*
X131633353Y-87042133D01*
X130157163Y-86756419D02*
X130633353Y-86756419D01*
X130633353Y-86756419D02*
X130680972Y-87232609D01*
X130680972Y-87232609D02*
X130633353Y-87184990D01*
X130633353Y-87184990D02*
X130538115Y-87137371D01*
X130538115Y-87137371D02*
X130300020Y-87137371D01*
X130300020Y-87137371D02*
X130204782Y-87184990D01*
X130204782Y-87184990D02*
X130157163Y-87232609D01*
X130157163Y-87232609D02*
X130109544Y-87327847D01*
X130109544Y-87327847D02*
X130109544Y-87565942D01*
X130109544Y-87565942D02*
X130157163Y-87661180D01*
X130157163Y-87661180D02*
X130204782Y-87708800D01*
X130204782Y-87708800D02*
X130300020Y-87756419D01*
X130300020Y-87756419D02*
X130538115Y-87756419D01*
X130538115Y-87756419D02*
X130633353Y-87708800D01*
X130633353Y-87708800D02*
X130680972Y-87661180D01*
X132268306Y-89344038D02*
X132363544Y-89296419D01*
X132363544Y-89296419D02*
X132506401Y-89296419D01*
X132506401Y-89296419D02*
X132649258Y-89344038D01*
X132649258Y-89344038D02*
X132744496Y-89439276D01*
X132744496Y-89439276D02*
X132792115Y-89534514D01*
X132792115Y-89534514D02*
X132839734Y-89724990D01*
X132839734Y-89724990D02*
X132839734Y-89867847D01*
X132839734Y-89867847D02*
X132792115Y-90058323D01*
X132792115Y-90058323D02*
X132744496Y-90153561D01*
X132744496Y-90153561D02*
X132649258Y-90248800D01*
X132649258Y-90248800D02*
X132506401Y-90296419D01*
X132506401Y-90296419D02*
X132411163Y-90296419D01*
X132411163Y-90296419D02*
X132268306Y-90248800D01*
X132268306Y-90248800D02*
X132220687Y-90201180D01*
X132220687Y-90201180D02*
X132220687Y-89867847D01*
X132220687Y-89867847D02*
X132411163Y-89867847D01*
X131792115Y-90296419D02*
X131792115Y-89296419D01*
X131792115Y-89296419D02*
X131220687Y-90296419D01*
X131220687Y-90296419D02*
X131220687Y-89296419D01*
X130744496Y-90296419D02*
X130744496Y-89296419D01*
X130744496Y-89296419D02*
X130506401Y-89296419D01*
X130506401Y-89296419D02*
X130363544Y-89344038D01*
X130363544Y-89344038D02*
X130268306Y-89439276D01*
X130268306Y-89439276D02*
X130220687Y-89534514D01*
X130220687Y-89534514D02*
X130173068Y-89724990D01*
X130173068Y-89724990D02*
X130173068Y-89867847D01*
X130173068Y-89867847D02*
X130220687Y-90058323D01*
X130220687Y-90058323D02*
X130268306Y-90153561D01*
X130268306Y-90153561D02*
X130363544Y-90248800D01*
X130363544Y-90248800D02*
X130506401Y-90296419D01*
X130506401Y-90296419D02*
X130744496Y-90296419D01*
X131839639Y-84216419D02*
X131744401Y-84216419D01*
X131744401Y-84216419D02*
X131649163Y-84264038D01*
X131649163Y-84264038D02*
X131601544Y-84311657D01*
X131601544Y-84311657D02*
X131553925Y-84406895D01*
X131553925Y-84406895D02*
X131506306Y-84597371D01*
X131506306Y-84597371D02*
X131506306Y-84835466D01*
X131506306Y-84835466D02*
X131553925Y-85025942D01*
X131553925Y-85025942D02*
X131601544Y-85121180D01*
X131601544Y-85121180D02*
X131649163Y-85168800D01*
X131649163Y-85168800D02*
X131744401Y-85216419D01*
X131744401Y-85216419D02*
X131839639Y-85216419D01*
X131839639Y-85216419D02*
X131934877Y-85168800D01*
X131934877Y-85168800D02*
X131982496Y-85121180D01*
X131982496Y-85121180D02*
X132030115Y-85025942D01*
X132030115Y-85025942D02*
X132077734Y-84835466D01*
X132077734Y-84835466D02*
X132077734Y-84597371D01*
X132077734Y-84597371D02*
X132030115Y-84406895D01*
X132030115Y-84406895D02*
X131982496Y-84311657D01*
X131982496Y-84311657D02*
X131934877Y-84264038D01*
X131934877Y-84264038D02*
X131839639Y-84216419D01*
X131125353Y-84311657D02*
X131077734Y-84264038D01*
X131077734Y-84264038D02*
X130982496Y-84216419D01*
X130982496Y-84216419D02*
X130744401Y-84216419D01*
X130744401Y-84216419D02*
X130649163Y-84264038D01*
X130649163Y-84264038D02*
X130601544Y-84311657D01*
X130601544Y-84311657D02*
X130553925Y-84406895D01*
X130553925Y-84406895D02*
X130553925Y-84502133D01*
X130553925Y-84502133D02*
X130601544Y-84644990D01*
X130601544Y-84644990D02*
X131172972Y-85216419D01*
X131172972Y-85216419D02*
X130553925Y-85216419D01*
X132220687Y-64896419D02*
X132554020Y-64420228D01*
X132792115Y-64896419D02*
X132792115Y-63896419D01*
X132792115Y-63896419D02*
X132411163Y-63896419D01*
X132411163Y-63896419D02*
X132315925Y-63944038D01*
X132315925Y-63944038D02*
X132268306Y-63991657D01*
X132268306Y-63991657D02*
X132220687Y-64086895D01*
X132220687Y-64086895D02*
X132220687Y-64229752D01*
X132220687Y-64229752D02*
X132268306Y-64324990D01*
X132268306Y-64324990D02*
X132315925Y-64372609D01*
X132315925Y-64372609D02*
X132411163Y-64420228D01*
X132411163Y-64420228D02*
X132792115Y-64420228D01*
X131887353Y-63896419D02*
X131220687Y-64896419D01*
X131220687Y-63896419D02*
X131887353Y-64896419D01*
X130649258Y-63896419D02*
X130458782Y-63896419D01*
X130458782Y-63896419D02*
X130363544Y-63944038D01*
X130363544Y-63944038D02*
X130268306Y-64039276D01*
X130268306Y-64039276D02*
X130220687Y-64229752D01*
X130220687Y-64229752D02*
X130220687Y-64563085D01*
X130220687Y-64563085D02*
X130268306Y-64753561D01*
X130268306Y-64753561D02*
X130363544Y-64848800D01*
X130363544Y-64848800D02*
X130458782Y-64896419D01*
X130458782Y-64896419D02*
X130649258Y-64896419D01*
X130649258Y-64896419D02*
X130744496Y-64848800D01*
X130744496Y-64848800D02*
X130839734Y-64753561D01*
X130839734Y-64753561D02*
X130887353Y-64563085D01*
X130887353Y-64563085D02*
X130887353Y-64229752D01*
X130887353Y-64229752D02*
X130839734Y-64039276D01*
X130839734Y-64039276D02*
X130744496Y-63944038D01*
X130744496Y-63944038D02*
X130649258Y-63896419D01*
D10*
D11*
X117107639Y-73802419D02*
X117012401Y-73802419D01*
X117012401Y-73802419D02*
X116917163Y-73850038D01*
X116917163Y-73850038D02*
X116869544Y-73897657D01*
X116869544Y-73897657D02*
X116821925Y-73992895D01*
X116821925Y-73992895D02*
X116774306Y-74183371D01*
X116774306Y-74183371D02*
X116774306Y-74421466D01*
X116774306Y-74421466D02*
X116821925Y-74611942D01*
X116821925Y-74611942D02*
X116869544Y-74707180D01*
X116869544Y-74707180D02*
X116917163Y-74754800D01*
X116917163Y-74754800D02*
X117012401Y-74802419D01*
X117012401Y-74802419D02*
X117107639Y-74802419D01*
X117107639Y-74802419D02*
X117202877Y-74754800D01*
X117202877Y-74754800D02*
X117250496Y-74707180D01*
X117250496Y-74707180D02*
X117298115Y-74611942D01*
X117298115Y-74611942D02*
X117345734Y-74421466D01*
X117345734Y-74421466D02*
X117345734Y-74183371D01*
X117345734Y-74183371D02*
X117298115Y-73992895D01*
X117298115Y-73992895D02*
X117250496Y-73897657D01*
X117250496Y-73897657D02*
X117202877Y-73850038D01*
X117202877Y-73850038D02*
X117107639Y-73802419D01*
X116393353Y-73897657D02*
X116345734Y-73850038D01*
X116345734Y-73850038D02*
X116250496Y-73802419D01*
X116250496Y-73802419D02*
X116012401Y-73802419D01*
X116012401Y-73802419D02*
X115917163Y-73850038D01*
X115917163Y-73850038D02*
X115869544Y-73897657D01*
X115869544Y-73897657D02*
X115821925Y-73992895D01*
X115821925Y-73992895D02*
X115821925Y-74088133D01*
X115821925Y-74088133D02*
X115869544Y-74230990D01*
X115869544Y-74230990D02*
X116440972Y-74802419D01*
X116440972Y-74802419D02*
X115821925Y-74802419D01*
X114917163Y-73802419D02*
X115393353Y-73802419D01*
X115393353Y-73802419D02*
X115440972Y-74278609D01*
X115440972Y-74278609D02*
X115393353Y-74230990D01*
X115393353Y-74230990D02*
X115298115Y-74183371D01*
X115298115Y-74183371D02*
X115060020Y-74183371D01*
X115060020Y-74183371D02*
X114964782Y-74230990D01*
X114964782Y-74230990D02*
X114917163Y-74278609D01*
X114917163Y-74278609D02*
X114869544Y-74373847D01*
X114869544Y-74373847D02*
X114869544Y-74611942D01*
X114869544Y-74611942D02*
X114917163Y-74707180D01*
X114917163Y-74707180D02*
X114964782Y-74754800D01*
X114964782Y-74754800D02*
X115060020Y-74802419D01*
X115060020Y-74802419D02*
X115298115Y-74802419D01*
X115298115Y-74802419D02*
X115393353Y-74754800D01*
X115393353Y-74754800D02*
X115440972Y-74707180D01*
X117107639Y-66182419D02*
X117012401Y-66182419D01*
X117012401Y-66182419D02*
X116917163Y-66230038D01*
X116917163Y-66230038D02*
X116869544Y-66277657D01*
X116869544Y-66277657D02*
X116821925Y-66372895D01*
X116821925Y-66372895D02*
X116774306Y-66563371D01*
X116774306Y-66563371D02*
X116774306Y-66801466D01*
X116774306Y-66801466D02*
X116821925Y-66991942D01*
X116821925Y-66991942D02*
X116869544Y-67087180D01*
X116869544Y-67087180D02*
X116917163Y-67134800D01*
X116917163Y-67134800D02*
X117012401Y-67182419D01*
X117012401Y-67182419D02*
X117107639Y-67182419D01*
X117107639Y-67182419D02*
X117202877Y-67134800D01*
X117202877Y-67134800D02*
X117250496Y-67087180D01*
X117250496Y-67087180D02*
X117298115Y-66991942D01*
X117298115Y-66991942D02*
X117345734Y-66801466D01*
X117345734Y-66801466D02*
X117345734Y-66563371D01*
X117345734Y-66563371D02*
X117298115Y-66372895D01*
X117298115Y-66372895D02*
X117250496Y-66277657D01*
X117250496Y-66277657D02*
X117202877Y-66230038D01*
X117202877Y-66230038D02*
X117107639Y-66182419D01*
X116440972Y-66182419D02*
X115821925Y-66182419D01*
X115821925Y-66182419D02*
X116155258Y-66563371D01*
X116155258Y-66563371D02*
X116012401Y-66563371D01*
X116012401Y-66563371D02*
X115917163Y-66610990D01*
X115917163Y-66610990D02*
X115869544Y-66658609D01*
X115869544Y-66658609D02*
X115821925Y-66753847D01*
X115821925Y-66753847D02*
X115821925Y-66991942D01*
X115821925Y-66991942D02*
X115869544Y-67087180D01*
X115869544Y-67087180D02*
X115917163Y-67134800D01*
X115917163Y-67134800D02*
X116012401Y-67182419D01*
X116012401Y-67182419D02*
X116298115Y-67182419D01*
X116298115Y-67182419D02*
X116393353Y-67134800D01*
X116393353Y-67134800D02*
X116440972Y-67087180D01*
X114917163Y-66182419D02*
X115393353Y-66182419D01*
X115393353Y-66182419D02*
X115440972Y-66658609D01*
X115440972Y-66658609D02*
X115393353Y-66610990D01*
X115393353Y-66610990D02*
X115298115Y-66563371D01*
X115298115Y-66563371D02*
X115060020Y-66563371D01*
X115060020Y-66563371D02*
X114964782Y-66610990D01*
X114964782Y-66610990D02*
X114917163Y-66658609D01*
X114917163Y-66658609D02*
X114869544Y-66753847D01*
X114869544Y-66753847D02*
X114869544Y-66991942D01*
X114869544Y-66991942D02*
X114917163Y-67087180D01*
X114917163Y-67087180D02*
X114964782Y-67134800D01*
X114964782Y-67134800D02*
X115060020Y-67182419D01*
X115060020Y-67182419D02*
X115298115Y-67182419D01*
X115298115Y-67182419D02*
X115393353Y-67134800D01*
X115393353Y-67134800D02*
X115440972Y-67087180D01*
X117107639Y-63642419D02*
X117012401Y-63642419D01*
X117012401Y-63642419D02*
X116917163Y-63690038D01*
X116917163Y-63690038D02*
X116869544Y-63737657D01*
X116869544Y-63737657D02*
X116821925Y-63832895D01*
X116821925Y-63832895D02*
X116774306Y-64023371D01*
X116774306Y-64023371D02*
X116774306Y-64261466D01*
X116774306Y-64261466D02*
X116821925Y-64451942D01*
X116821925Y-64451942D02*
X116869544Y-64547180D01*
X116869544Y-64547180D02*
X116917163Y-64594800D01*
X116917163Y-64594800D02*
X117012401Y-64642419D01*
X117012401Y-64642419D02*
X117107639Y-64642419D01*
X117107639Y-64642419D02*
X117202877Y-64594800D01*
X117202877Y-64594800D02*
X117250496Y-64547180D01*
X117250496Y-64547180D02*
X117298115Y-64451942D01*
X117298115Y-64451942D02*
X117345734Y-64261466D01*
X117345734Y-64261466D02*
X117345734Y-64023371D01*
X117345734Y-64023371D02*
X117298115Y-63832895D01*
X117298115Y-63832895D02*
X117250496Y-63737657D01*
X117250496Y-63737657D02*
X117202877Y-63690038D01*
X117202877Y-63690038D02*
X117107639Y-63642419D01*
X116440972Y-63642419D02*
X115821925Y-63642419D01*
X115821925Y-63642419D02*
X116155258Y-64023371D01*
X116155258Y-64023371D02*
X116012401Y-64023371D01*
X116012401Y-64023371D02*
X115917163Y-64070990D01*
X115917163Y-64070990D02*
X115869544Y-64118609D01*
X115869544Y-64118609D02*
X115821925Y-64213847D01*
X115821925Y-64213847D02*
X115821925Y-64451942D01*
X115821925Y-64451942D02*
X115869544Y-64547180D01*
X115869544Y-64547180D02*
X115917163Y-64594800D01*
X115917163Y-64594800D02*
X116012401Y-64642419D01*
X116012401Y-64642419D02*
X116298115Y-64642419D01*
X116298115Y-64642419D02*
X116393353Y-64594800D01*
X116393353Y-64594800D02*
X116440972Y-64547180D01*
X114964782Y-63975752D02*
X114964782Y-64642419D01*
X115202877Y-63594800D02*
X115440972Y-64309085D01*
X115440972Y-64309085D02*
X114821925Y-64309085D01*
X117107639Y-68722419D02*
X117012401Y-68722419D01*
X117012401Y-68722419D02*
X116917163Y-68770038D01*
X116917163Y-68770038D02*
X116869544Y-68817657D01*
X116869544Y-68817657D02*
X116821925Y-68912895D01*
X116821925Y-68912895D02*
X116774306Y-69103371D01*
X116774306Y-69103371D02*
X116774306Y-69341466D01*
X116774306Y-69341466D02*
X116821925Y-69531942D01*
X116821925Y-69531942D02*
X116869544Y-69627180D01*
X116869544Y-69627180D02*
X116917163Y-69674800D01*
X116917163Y-69674800D02*
X117012401Y-69722419D01*
X117012401Y-69722419D02*
X117107639Y-69722419D01*
X117107639Y-69722419D02*
X117202877Y-69674800D01*
X117202877Y-69674800D02*
X117250496Y-69627180D01*
X117250496Y-69627180D02*
X117298115Y-69531942D01*
X117298115Y-69531942D02*
X117345734Y-69341466D01*
X117345734Y-69341466D02*
X117345734Y-69103371D01*
X117345734Y-69103371D02*
X117298115Y-68912895D01*
X117298115Y-68912895D02*
X117250496Y-68817657D01*
X117250496Y-68817657D02*
X117202877Y-68770038D01*
X117202877Y-68770038D02*
X117107639Y-68722419D01*
X116440972Y-68722419D02*
X115821925Y-68722419D01*
X115821925Y-68722419D02*
X116155258Y-69103371D01*
X116155258Y-69103371D02*
X116012401Y-69103371D01*
X116012401Y-69103371D02*
X115917163Y-69150990D01*
X115917163Y-69150990D02*
X115869544Y-69198609D01*
X115869544Y-69198609D02*
X115821925Y-69293847D01*
X115821925Y-69293847D02*
X115821925Y-69531942D01*
X115821925Y-69531942D02*
X115869544Y-69627180D01*
X115869544Y-69627180D02*
X115917163Y-69674800D01*
X115917163Y-69674800D02*
X116012401Y-69722419D01*
X116012401Y-69722419D02*
X116298115Y-69722419D01*
X116298115Y-69722419D02*
X116393353Y-69674800D01*
X116393353Y-69674800D02*
X116440972Y-69627180D01*
X115440972Y-68817657D02*
X115393353Y-68770038D01*
X115393353Y-68770038D02*
X115298115Y-68722419D01*
X115298115Y-68722419D02*
X115060020Y-68722419D01*
X115060020Y-68722419D02*
X114964782Y-68770038D01*
X114964782Y-68770038D02*
X114917163Y-68817657D01*
X114917163Y-68817657D02*
X114869544Y-68912895D01*
X114869544Y-68912895D02*
X114869544Y-69008133D01*
X114869544Y-69008133D02*
X114917163Y-69150990D01*
X114917163Y-69150990D02*
X115488591Y-69722419D01*
X115488591Y-69722419D02*
X114869544Y-69722419D01*
X117107639Y-76342419D02*
X117012401Y-76342419D01*
X117012401Y-76342419D02*
X116917163Y-76390038D01*
X116917163Y-76390038D02*
X116869544Y-76437657D01*
X116869544Y-76437657D02*
X116821925Y-76532895D01*
X116821925Y-76532895D02*
X116774306Y-76723371D01*
X116774306Y-76723371D02*
X116774306Y-76961466D01*
X116774306Y-76961466D02*
X116821925Y-77151942D01*
X116821925Y-77151942D02*
X116869544Y-77247180D01*
X116869544Y-77247180D02*
X116917163Y-77294800D01*
X116917163Y-77294800D02*
X117012401Y-77342419D01*
X117012401Y-77342419D02*
X117107639Y-77342419D01*
X117107639Y-77342419D02*
X117202877Y-77294800D01*
X117202877Y-77294800D02*
X117250496Y-77247180D01*
X117250496Y-77247180D02*
X117298115Y-77151942D01*
X117298115Y-77151942D02*
X117345734Y-76961466D01*
X117345734Y-76961466D02*
X117345734Y-76723371D01*
X117345734Y-76723371D02*
X117298115Y-76532895D01*
X117298115Y-76532895D02*
X117250496Y-76437657D01*
X117250496Y-76437657D02*
X117202877Y-76390038D01*
X117202877Y-76390038D02*
X117107639Y-76342419D01*
X116393353Y-76437657D02*
X116345734Y-76390038D01*
X116345734Y-76390038D02*
X116250496Y-76342419D01*
X116250496Y-76342419D02*
X116012401Y-76342419D01*
X116012401Y-76342419D02*
X115917163Y-76390038D01*
X115917163Y-76390038D02*
X115869544Y-76437657D01*
X115869544Y-76437657D02*
X115821925Y-76532895D01*
X115821925Y-76532895D02*
X115821925Y-76628133D01*
X115821925Y-76628133D02*
X115869544Y-76770990D01*
X115869544Y-76770990D02*
X116440972Y-77342419D01*
X116440972Y-77342419D02*
X115821925Y-77342419D01*
X114964782Y-76342419D02*
X115155258Y-76342419D01*
X115155258Y-76342419D02*
X115250496Y-76390038D01*
X115250496Y-76390038D02*
X115298115Y-76437657D01*
X115298115Y-76437657D02*
X115393353Y-76580514D01*
X115393353Y-76580514D02*
X115440972Y-76770990D01*
X115440972Y-76770990D02*
X115440972Y-77151942D01*
X115440972Y-77151942D02*
X115393353Y-77247180D01*
X115393353Y-77247180D02*
X115345734Y-77294800D01*
X115345734Y-77294800D02*
X115250496Y-77342419D01*
X115250496Y-77342419D02*
X115060020Y-77342419D01*
X115060020Y-77342419D02*
X114964782Y-77294800D01*
X114964782Y-77294800D02*
X114917163Y-77247180D01*
X114917163Y-77247180D02*
X114869544Y-77151942D01*
X114869544Y-77151942D02*
X114869544Y-76913847D01*
X114869544Y-76913847D02*
X114917163Y-76818609D01*
X114917163Y-76818609D02*
X114964782Y-76770990D01*
X114964782Y-76770990D02*
X115060020Y-76723371D01*
X115060020Y-76723371D02*
X115250496Y-76723371D01*
X115250496Y-76723371D02*
X115345734Y-76770990D01*
X115345734Y-76770990D02*
X115393353Y-76818609D01*
X115393353Y-76818609D02*
X115440972Y-76913847D01*
X117044115Y-56498609D02*
X116710782Y-56498609D01*
X116567925Y-57022419D02*
X117044115Y-57022419D01*
X117044115Y-57022419D02*
X117044115Y-56022419D01*
X117044115Y-56022419D02*
X116567925Y-56022419D01*
X116139353Y-56355752D02*
X116139353Y-57022419D01*
X116139353Y-56450990D02*
X116091734Y-56403371D01*
X116091734Y-56403371D02*
X115996496Y-56355752D01*
X115996496Y-56355752D02*
X115853639Y-56355752D01*
X115853639Y-56355752D02*
X115758401Y-56403371D01*
X115758401Y-56403371D02*
X115710782Y-56498609D01*
X115710782Y-56498609D02*
X115710782Y-57022419D01*
X117107639Y-81422419D02*
X117012401Y-81422419D01*
X117012401Y-81422419D02*
X116917163Y-81470038D01*
X116917163Y-81470038D02*
X116869544Y-81517657D01*
X116869544Y-81517657D02*
X116821925Y-81612895D01*
X116821925Y-81612895D02*
X116774306Y-81803371D01*
X116774306Y-81803371D02*
X116774306Y-82041466D01*
X116774306Y-82041466D02*
X116821925Y-82231942D01*
X116821925Y-82231942D02*
X116869544Y-82327180D01*
X116869544Y-82327180D02*
X116917163Y-82374800D01*
X116917163Y-82374800D02*
X117012401Y-82422419D01*
X117012401Y-82422419D02*
X117107639Y-82422419D01*
X117107639Y-82422419D02*
X117202877Y-82374800D01*
X117202877Y-82374800D02*
X117250496Y-82327180D01*
X117250496Y-82327180D02*
X117298115Y-82231942D01*
X117298115Y-82231942D02*
X117345734Y-82041466D01*
X117345734Y-82041466D02*
X117345734Y-81803371D01*
X117345734Y-81803371D02*
X117298115Y-81612895D01*
X117298115Y-81612895D02*
X117250496Y-81517657D01*
X117250496Y-81517657D02*
X117202877Y-81470038D01*
X117202877Y-81470038D02*
X117107639Y-81422419D01*
X115821925Y-82422419D02*
X116393353Y-82422419D01*
X116107639Y-82422419D02*
X116107639Y-81422419D01*
X116107639Y-81422419D02*
X116202877Y-81565276D01*
X116202877Y-81565276D02*
X116298115Y-81660514D01*
X116298115Y-81660514D02*
X116393353Y-81708133D01*
X114964782Y-81755752D02*
X114964782Y-82422419D01*
X115202877Y-81374800D02*
X115440972Y-82089085D01*
X115440972Y-82089085D02*
X114821925Y-82089085D01*
X117107639Y-86248419D02*
X117012401Y-86248419D01*
X117012401Y-86248419D02*
X116917163Y-86296038D01*
X116917163Y-86296038D02*
X116869544Y-86343657D01*
X116869544Y-86343657D02*
X116821925Y-86438895D01*
X116821925Y-86438895D02*
X116774306Y-86629371D01*
X116774306Y-86629371D02*
X116774306Y-86867466D01*
X116774306Y-86867466D02*
X116821925Y-87057942D01*
X116821925Y-87057942D02*
X116869544Y-87153180D01*
X116869544Y-87153180D02*
X116917163Y-87200800D01*
X116917163Y-87200800D02*
X117012401Y-87248419D01*
X117012401Y-87248419D02*
X117107639Y-87248419D01*
X117107639Y-87248419D02*
X117202877Y-87200800D01*
X117202877Y-87200800D02*
X117250496Y-87153180D01*
X117250496Y-87153180D02*
X117298115Y-87057942D01*
X117298115Y-87057942D02*
X117345734Y-86867466D01*
X117345734Y-86867466D02*
X117345734Y-86629371D01*
X117345734Y-86629371D02*
X117298115Y-86438895D01*
X117298115Y-86438895D02*
X117250496Y-86343657D01*
X117250496Y-86343657D02*
X117202877Y-86296038D01*
X117202877Y-86296038D02*
X117107639Y-86248419D01*
X115821925Y-87248419D02*
X116393353Y-87248419D01*
X116107639Y-87248419D02*
X116107639Y-86248419D01*
X116107639Y-86248419D02*
X116202877Y-86391276D01*
X116202877Y-86391276D02*
X116298115Y-86486514D01*
X116298115Y-86486514D02*
X116393353Y-86534133D01*
X115488591Y-86248419D02*
X114869544Y-86248419D01*
X114869544Y-86248419D02*
X115202877Y-86629371D01*
X115202877Y-86629371D02*
X115060020Y-86629371D01*
X115060020Y-86629371D02*
X114964782Y-86676990D01*
X114964782Y-86676990D02*
X114917163Y-86724609D01*
X114917163Y-86724609D02*
X114869544Y-86819847D01*
X114869544Y-86819847D02*
X114869544Y-87057942D01*
X114869544Y-87057942D02*
X114917163Y-87153180D01*
X114917163Y-87153180D02*
X114964782Y-87200800D01*
X114964782Y-87200800D02*
X115060020Y-87248419D01*
X115060020Y-87248419D02*
X115345734Y-87248419D01*
X115345734Y-87248419D02*
X115440972Y-87200800D01*
X115440972Y-87200800D02*
X115488591Y-87153180D01*
X117107639Y-83708419D02*
X117012401Y-83708419D01*
X117012401Y-83708419D02*
X116917163Y-83756038D01*
X116917163Y-83756038D02*
X116869544Y-83803657D01*
X116869544Y-83803657D02*
X116821925Y-83898895D01*
X116821925Y-83898895D02*
X116774306Y-84089371D01*
X116774306Y-84089371D02*
X116774306Y-84327466D01*
X116774306Y-84327466D02*
X116821925Y-84517942D01*
X116821925Y-84517942D02*
X116869544Y-84613180D01*
X116869544Y-84613180D02*
X116917163Y-84660800D01*
X116917163Y-84660800D02*
X117012401Y-84708419D01*
X117012401Y-84708419D02*
X117107639Y-84708419D01*
X117107639Y-84708419D02*
X117202877Y-84660800D01*
X117202877Y-84660800D02*
X117250496Y-84613180D01*
X117250496Y-84613180D02*
X117298115Y-84517942D01*
X117298115Y-84517942D02*
X117345734Y-84327466D01*
X117345734Y-84327466D02*
X117345734Y-84089371D01*
X117345734Y-84089371D02*
X117298115Y-83898895D01*
X117298115Y-83898895D02*
X117250496Y-83803657D01*
X117250496Y-83803657D02*
X117202877Y-83756038D01*
X117202877Y-83756038D02*
X117107639Y-83708419D01*
X115821925Y-84708419D02*
X116393353Y-84708419D01*
X116107639Y-84708419D02*
X116107639Y-83708419D01*
X116107639Y-83708419D02*
X116202877Y-83851276D01*
X116202877Y-83851276D02*
X116298115Y-83946514D01*
X116298115Y-83946514D02*
X116393353Y-83994133D01*
X115440972Y-83803657D02*
X115393353Y-83756038D01*
X115393353Y-83756038D02*
X115298115Y-83708419D01*
X115298115Y-83708419D02*
X115060020Y-83708419D01*
X115060020Y-83708419D02*
X114964782Y-83756038D01*
X114964782Y-83756038D02*
X114917163Y-83803657D01*
X114917163Y-83803657D02*
X114869544Y-83898895D01*
X114869544Y-83898895D02*
X114869544Y-83994133D01*
X114869544Y-83994133D02*
X114917163Y-84136990D01*
X114917163Y-84136990D02*
X115488591Y-84708419D01*
X115488591Y-84708419D02*
X114869544Y-84708419D01*
X117107639Y-78882419D02*
X117012401Y-78882419D01*
X117012401Y-78882419D02*
X116917163Y-78930038D01*
X116917163Y-78930038D02*
X116869544Y-78977657D01*
X116869544Y-78977657D02*
X116821925Y-79072895D01*
X116821925Y-79072895D02*
X116774306Y-79263371D01*
X116774306Y-79263371D02*
X116774306Y-79501466D01*
X116774306Y-79501466D02*
X116821925Y-79691942D01*
X116821925Y-79691942D02*
X116869544Y-79787180D01*
X116869544Y-79787180D02*
X116917163Y-79834800D01*
X116917163Y-79834800D02*
X117012401Y-79882419D01*
X117012401Y-79882419D02*
X117107639Y-79882419D01*
X117107639Y-79882419D02*
X117202877Y-79834800D01*
X117202877Y-79834800D02*
X117250496Y-79787180D01*
X117250496Y-79787180D02*
X117298115Y-79691942D01*
X117298115Y-79691942D02*
X117345734Y-79501466D01*
X117345734Y-79501466D02*
X117345734Y-79263371D01*
X117345734Y-79263371D02*
X117298115Y-79072895D01*
X117298115Y-79072895D02*
X117250496Y-78977657D01*
X117250496Y-78977657D02*
X117202877Y-78930038D01*
X117202877Y-78930038D02*
X117107639Y-78882419D01*
X116393353Y-78977657D02*
X116345734Y-78930038D01*
X116345734Y-78930038D02*
X116250496Y-78882419D01*
X116250496Y-78882419D02*
X116012401Y-78882419D01*
X116012401Y-78882419D02*
X115917163Y-78930038D01*
X115917163Y-78930038D02*
X115869544Y-78977657D01*
X115869544Y-78977657D02*
X115821925Y-79072895D01*
X115821925Y-79072895D02*
X115821925Y-79168133D01*
X115821925Y-79168133D02*
X115869544Y-79310990D01*
X115869544Y-79310990D02*
X116440972Y-79882419D01*
X116440972Y-79882419D02*
X115821925Y-79882419D01*
X115488591Y-78882419D02*
X114821925Y-78882419D01*
X114821925Y-78882419D02*
X115250496Y-79882419D01*
X117186972Y-60848419D02*
X116853639Y-61848419D01*
X116853639Y-61848419D02*
X116520306Y-60848419D01*
X116186972Y-61848419D02*
X116186972Y-60848419D01*
X116186972Y-60848419D02*
X115615544Y-61848419D01*
X115615544Y-61848419D02*
X115615544Y-60848419D01*
X117107639Y-71262419D02*
X117012401Y-71262419D01*
X117012401Y-71262419D02*
X116917163Y-71310038D01*
X116917163Y-71310038D02*
X116869544Y-71357657D01*
X116869544Y-71357657D02*
X116821925Y-71452895D01*
X116821925Y-71452895D02*
X116774306Y-71643371D01*
X116774306Y-71643371D02*
X116774306Y-71881466D01*
X116774306Y-71881466D02*
X116821925Y-72071942D01*
X116821925Y-72071942D02*
X116869544Y-72167180D01*
X116869544Y-72167180D02*
X116917163Y-72214800D01*
X116917163Y-72214800D02*
X117012401Y-72262419D01*
X117012401Y-72262419D02*
X117107639Y-72262419D01*
X117107639Y-72262419D02*
X117202877Y-72214800D01*
X117202877Y-72214800D02*
X117250496Y-72167180D01*
X117250496Y-72167180D02*
X117298115Y-72071942D01*
X117298115Y-72071942D02*
X117345734Y-71881466D01*
X117345734Y-71881466D02*
X117345734Y-71643371D01*
X117345734Y-71643371D02*
X117298115Y-71452895D01*
X117298115Y-71452895D02*
X117250496Y-71357657D01*
X117250496Y-71357657D02*
X117202877Y-71310038D01*
X117202877Y-71310038D02*
X117107639Y-71262419D01*
X116440972Y-71262419D02*
X115821925Y-71262419D01*
X115821925Y-71262419D02*
X116155258Y-71643371D01*
X116155258Y-71643371D02*
X116012401Y-71643371D01*
X116012401Y-71643371D02*
X115917163Y-71690990D01*
X115917163Y-71690990D02*
X115869544Y-71738609D01*
X115869544Y-71738609D02*
X115821925Y-71833847D01*
X115821925Y-71833847D02*
X115821925Y-72071942D01*
X115821925Y-72071942D02*
X115869544Y-72167180D01*
X115869544Y-72167180D02*
X115917163Y-72214800D01*
X115917163Y-72214800D02*
X116012401Y-72262419D01*
X116012401Y-72262419D02*
X116298115Y-72262419D01*
X116298115Y-72262419D02*
X116393353Y-72214800D01*
X116393353Y-72214800D02*
X116440972Y-72167180D01*
X115488591Y-71262419D02*
X114869544Y-71262419D01*
X114869544Y-71262419D02*
X115202877Y-71643371D01*
X115202877Y-71643371D02*
X115060020Y-71643371D01*
X115060020Y-71643371D02*
X114964782Y-71690990D01*
X114964782Y-71690990D02*
X114917163Y-71738609D01*
X114917163Y-71738609D02*
X114869544Y-71833847D01*
X114869544Y-71833847D02*
X114869544Y-72071942D01*
X114869544Y-72071942D02*
X114917163Y-72167180D01*
X114917163Y-72167180D02*
X114964782Y-72214800D01*
X114964782Y-72214800D02*
X115060020Y-72262419D01*
X115060020Y-72262419D02*
X115345734Y-72262419D01*
X115345734Y-72262419D02*
X115440972Y-72214800D01*
X115440972Y-72214800D02*
X115488591Y-72167180D01*
X116774306Y-88836038D02*
X116869544Y-88788419D01*
X116869544Y-88788419D02*
X117012401Y-88788419D01*
X117012401Y-88788419D02*
X117155258Y-88836038D01*
X117155258Y-88836038D02*
X117250496Y-88931276D01*
X117250496Y-88931276D02*
X117298115Y-89026514D01*
X117298115Y-89026514D02*
X117345734Y-89216990D01*
X117345734Y-89216990D02*
X117345734Y-89359847D01*
X117345734Y-89359847D02*
X117298115Y-89550323D01*
X117298115Y-89550323D02*
X117250496Y-89645561D01*
X117250496Y-89645561D02*
X117155258Y-89740800D01*
X117155258Y-89740800D02*
X117012401Y-89788419D01*
X117012401Y-89788419D02*
X116917163Y-89788419D01*
X116917163Y-89788419D02*
X116774306Y-89740800D01*
X116774306Y-89740800D02*
X116726687Y-89693180D01*
X116726687Y-89693180D02*
X116726687Y-89359847D01*
X116726687Y-89359847D02*
X116917163Y-89359847D01*
X116298115Y-89788419D02*
X116298115Y-88788419D01*
X116298115Y-88788419D02*
X115726687Y-89788419D01*
X115726687Y-89788419D02*
X115726687Y-88788419D01*
X115250496Y-89788419D02*
X115250496Y-88788419D01*
X115250496Y-88788419D02*
X115012401Y-88788419D01*
X115012401Y-88788419D02*
X114869544Y-88836038D01*
X114869544Y-88836038D02*
X114774306Y-88931276D01*
X114774306Y-88931276D02*
X114726687Y-89026514D01*
X114726687Y-89026514D02*
X114679068Y-89216990D01*
X114679068Y-89216990D02*
X114679068Y-89359847D01*
X114679068Y-89359847D02*
X114726687Y-89550323D01*
X114726687Y-89550323D02*
X114774306Y-89645561D01*
X114774306Y-89645561D02*
X114869544Y-89740800D01*
X114869544Y-89740800D02*
X115012401Y-89788419D01*
X115012401Y-89788419D02*
X115250496Y-89788419D01*
X117440972Y-91582419D02*
X117107639Y-92582419D01*
X117107639Y-92582419D02*
X116774306Y-91582419D01*
X116440972Y-92582419D02*
X116440972Y-91582419D01*
X115964782Y-92582419D02*
X115964782Y-91582419D01*
X115964782Y-91582419D02*
X115393354Y-92582419D01*
X115393354Y-92582419D02*
X115393354Y-91582419D01*
X117186972Y-58562419D02*
X116853639Y-59562419D01*
X116853639Y-59562419D02*
X116520306Y-58562419D01*
X116186972Y-59562419D02*
X116186972Y-58562419D01*
X116186972Y-58562419D02*
X115806020Y-58562419D01*
X115806020Y-58562419D02*
X115710782Y-58610038D01*
X115710782Y-58610038D02*
X115663163Y-58657657D01*
X115663163Y-58657657D02*
X115615544Y-58752895D01*
X115615544Y-58752895D02*
X115615544Y-58895752D01*
X115615544Y-58895752D02*
X115663163Y-58990990D01*
X115663163Y-58990990D02*
X115710782Y-59038609D01*
X115710782Y-59038609D02*
X115806020Y-59086228D01*
X115806020Y-59086228D02*
X116186972Y-59086228D01*
%TO.C,G\u002A\u002A\u002A*%
G36*
X67457336Y-51748191D02*
G01*
X67423446Y-51847066D01*
X67351638Y-51923307D01*
X67251966Y-51961583D01*
X67134480Y-51946562D01*
X67068194Y-51931707D01*
X66973207Y-51935579D01*
X66959059Y-51939279D01*
X66894771Y-51956091D01*
X66918725Y-52652772D01*
X66920181Y-52694175D01*
X66928577Y-52903373D01*
X66928714Y-52906145D01*
X66937595Y-53086151D01*
X66946585Y-53231749D01*
X66954899Y-53329404D01*
X66961887Y-53368354D01*
X66992349Y-53356994D01*
X67055030Y-53303077D01*
X67138325Y-53218468D01*
X67231084Y-53115551D01*
X67322163Y-53006712D01*
X67400412Y-52904337D01*
X67454685Y-52820812D01*
X67480769Y-52770293D01*
X67508282Y-52701797D01*
X67506746Y-52674944D01*
X67492341Y-52683949D01*
X67450043Y-52738348D01*
X67398457Y-52825644D01*
X67391781Y-52837911D01*
X67330638Y-52934854D01*
X67252464Y-53041503D01*
X67168609Y-53144512D01*
X67090424Y-53230537D01*
X67029262Y-53286231D01*
X66996472Y-53298249D01*
X66986091Y-53271291D01*
X66988097Y-53189633D01*
X67007909Y-53078929D01*
X67040252Y-52960719D01*
X67079851Y-52856545D01*
X67121432Y-52787947D01*
X67154200Y-52755885D01*
X67233676Y-52686954D01*
X67329135Y-52610323D01*
X67423383Y-52539216D01*
X67499225Y-52486855D01*
X67539469Y-52466463D01*
X67546906Y-52474218D01*
X67570813Y-52529832D01*
X67599742Y-52621413D01*
X67620484Y-52725211D01*
X67610092Y-52894456D01*
X67536873Y-53045080D01*
X67398769Y-53180547D01*
X67193719Y-53304320D01*
X67175093Y-53313660D01*
X67060554Y-53374206D01*
X66973594Y-53425312D01*
X66931790Y-53456750D01*
X66924928Y-53478650D01*
X66915201Y-53560493D01*
X66908414Y-53684678D01*
X66905730Y-53834330D01*
X66905198Y-54177163D01*
X67000752Y-54153633D01*
X67074750Y-54135778D01*
X67186928Y-54113078D01*
X67258813Y-54110079D01*
X67308347Y-54127391D01*
X67353469Y-54165623D01*
X67370870Y-54185096D01*
X67419374Y-54291553D01*
X67417563Y-54331906D01*
X67414274Y-54405197D01*
X67355422Y-54500503D01*
X67325238Y-54523474D01*
X67263151Y-54547652D01*
X67169412Y-54557593D01*
X67025326Y-54556467D01*
X66766210Y-54548195D01*
X66766210Y-54766467D01*
X66931258Y-54749059D01*
X66975150Y-54743971D01*
X67097498Y-54725909D01*
X67191796Y-54706920D01*
X67243870Y-54699056D01*
X67353825Y-54723383D01*
X67431629Y-54798295D01*
X67461149Y-54911536D01*
X67459715Y-54922603D01*
X67448474Y-55009371D01*
X67392800Y-55092507D01*
X67288442Y-55131358D01*
X67130668Y-55129037D01*
X67054148Y-55122253D01*
X66935200Y-55119741D01*
X66852105Y-55127951D01*
X66819096Y-55137798D01*
X66793466Y-55156696D01*
X66777834Y-55195713D01*
X66769729Y-55267193D01*
X66766678Y-55383479D01*
X66766210Y-55556914D01*
X66767817Y-55711702D01*
X66772474Y-55848374D01*
X66779444Y-55944696D01*
X66787989Y-55986098D01*
X66788584Y-55986645D01*
X66832599Y-55986646D01*
X66905828Y-55958203D01*
X66966420Y-55930133D01*
X67001854Y-55933535D01*
X67020759Y-55980691D01*
X67023510Y-56028587D01*
X67025547Y-56064061D01*
X66984051Y-56176492D01*
X66898175Y-56256966D01*
X66841587Y-56292460D01*
X66792803Y-56337259D01*
X66789477Y-56346435D01*
X66780681Y-56414426D01*
X66773516Y-56533538D01*
X66768648Y-56690149D01*
X66767017Y-56844575D01*
X66766742Y-56870635D01*
X66766453Y-57139924D01*
X66766210Y-57365779D01*
X67113680Y-57365779D01*
X67113680Y-57747995D01*
X66071272Y-57747995D01*
X66071272Y-57556887D01*
X66075778Y-57443140D01*
X66091961Y-57382936D01*
X66123392Y-57365779D01*
X66128139Y-57365559D01*
X66164210Y-57334112D01*
X66175513Y-57244164D01*
X66175513Y-57122550D01*
X65244645Y-57122550D01*
X65231391Y-57261538D01*
X65229203Y-57288738D01*
X65233607Y-57373626D01*
X65262488Y-57400526D01*
X65279641Y-57408590D01*
X65300234Y-57468947D01*
X65306840Y-57592563D01*
X65306840Y-57784600D01*
X64794323Y-57774984D01*
X64281805Y-57765368D01*
X64271303Y-57582947D01*
X64270538Y-57569065D01*
X64269564Y-57465523D01*
X64283117Y-57414298D01*
X64314737Y-57400526D01*
X64326082Y-57398698D01*
X64344394Y-57379618D01*
X64356692Y-57331533D01*
X64364093Y-57244325D01*
X64367714Y-57107877D01*
X64368673Y-56912071D01*
X64368673Y-56423616D01*
X64224336Y-56434301D01*
X64080000Y-56444985D01*
X63690216Y-57067637D01*
X63655838Y-57122344D01*
X63545507Y-57294955D01*
X63538129Y-57306498D01*
X63430962Y-57469516D01*
X63340786Y-57601875D01*
X63274054Y-57694049D01*
X63237214Y-57736515D01*
X63159509Y-57768976D01*
X63059022Y-57782742D01*
X62944049Y-57782742D01*
X62944049Y-57365779D01*
X61188267Y-57365779D01*
X61157131Y-57454298D01*
X61124101Y-57548200D01*
X61096718Y-57621538D01*
X61054953Y-57718939D01*
X61023351Y-57775829D01*
X60966708Y-57804518D01*
X60879567Y-57810576D01*
X60843976Y-57805202D01*
X60772924Y-57768097D01*
X60720494Y-57682141D01*
X60668621Y-57564168D01*
X59469357Y-57610976D01*
X59469357Y-57539513D01*
X59538851Y-57539513D01*
X59808139Y-57532521D01*
X60049876Y-57525702D01*
X60255119Y-57518203D01*
X60405684Y-57509943D01*
X60509313Y-57500172D01*
X60573748Y-57488141D01*
X60606731Y-57473099D01*
X60616005Y-57454298D01*
X60615899Y-57453136D01*
X60603034Y-57407389D01*
X60570929Y-57306621D01*
X60570387Y-57304972D01*
X61206731Y-57304972D01*
X61233106Y-57320702D01*
X61302257Y-57323045D01*
X61319643Y-57321997D01*
X61406490Y-57318975D01*
X61546595Y-57315525D01*
X61728405Y-57311887D01*
X61940368Y-57308300D01*
X62170930Y-57305006D01*
X62944049Y-57294955D01*
X62944049Y-56239892D01*
X62944035Y-56072573D01*
X62943729Y-55808507D01*
X62942618Y-55602557D01*
X62940182Y-55447306D01*
X62935898Y-55335335D01*
X62929245Y-55259228D01*
X62919703Y-55211567D01*
X62906749Y-55184933D01*
X62889864Y-55171909D01*
X62868525Y-55165078D01*
X62817649Y-55156816D01*
X62764284Y-55163076D01*
X62758025Y-55187804D01*
X62750770Y-55273976D01*
X62744586Y-55412528D01*
X62739783Y-55593887D01*
X62736673Y-55808479D01*
X62735567Y-56046727D01*
X62735567Y-56912630D01*
X61338669Y-56931442D01*
X61272714Y-57105177D01*
X61247614Y-57173261D01*
X61218205Y-57260156D01*
X61206731Y-57304972D01*
X60570387Y-57304972D01*
X60522762Y-57160130D01*
X60461715Y-56977218D01*
X60390966Y-56767185D01*
X60313695Y-56539333D01*
X60233082Y-56302963D01*
X60152306Y-56067374D01*
X60074548Y-55841869D01*
X60002986Y-55635747D01*
X59976808Y-55561052D01*
X60375955Y-55561052D01*
X60618793Y-56261924D01*
X60644945Y-56337237D01*
X60715254Y-56538015D01*
X60777131Y-56712286D01*
X60827042Y-56850243D01*
X60861454Y-56942082D01*
X60876834Y-56977998D01*
X60883147Y-56980618D01*
X60893010Y-56971658D01*
X60907980Y-56943468D01*
X60930550Y-56889405D01*
X60963216Y-56802829D01*
X61008472Y-56677096D01*
X61068814Y-56505563D01*
X61146737Y-56281589D01*
X61244735Y-55998531D01*
X61264659Y-55940284D01*
X61696450Y-55940284D01*
X61717223Y-55929604D01*
X61770568Y-55873436D01*
X61851552Y-55776107D01*
X61861321Y-55763892D01*
X61951699Y-55650329D01*
X62005860Y-55579849D01*
X62030582Y-55542288D01*
X62032644Y-55527482D01*
X62018823Y-55525266D01*
X62015711Y-55526089D01*
X61976642Y-55559714D01*
X61913409Y-55630250D01*
X61839888Y-55720732D01*
X61769958Y-55814194D01*
X61717493Y-55893670D01*
X61713180Y-55901152D01*
X61696450Y-55940284D01*
X61264659Y-55940284D01*
X61298270Y-55842022D01*
X61367618Y-55633551D01*
X61425359Y-55453062D01*
X61468592Y-55309936D01*
X61494417Y-55213552D01*
X61499931Y-55173292D01*
X61496078Y-55168355D01*
X61440191Y-55146253D01*
X61358977Y-55146058D01*
X61288210Y-55168568D01*
X61273779Y-55187733D01*
X61250252Y-55262543D01*
X61245727Y-55294887D01*
X61235521Y-55367831D01*
X61222939Y-55541565D01*
X60799447Y-55551309D01*
X60375955Y-55561052D01*
X59976808Y-55561052D01*
X59940800Y-55458310D01*
X59891171Y-55318858D01*
X59857277Y-55226693D01*
X59842298Y-55191114D01*
X59839759Y-55189421D01*
X59790013Y-55179050D01*
X59705631Y-55172656D01*
X59617031Y-55172721D01*
X59538851Y-55176723D01*
X59538851Y-57539513D01*
X59469357Y-57539513D01*
X59469357Y-56381861D01*
X59469244Y-56082003D01*
X59468631Y-55814384D01*
X59467134Y-55602669D01*
X59464373Y-55439761D01*
X59459964Y-55318564D01*
X59453528Y-55231981D01*
X59444681Y-55172916D01*
X59433042Y-55134271D01*
X59418230Y-55108949D01*
X59399863Y-55089855D01*
X59354740Y-55025520D01*
X59335028Y-54947827D01*
X59441620Y-54947827D01*
X59476983Y-55008720D01*
X59545102Y-55032095D01*
X59622612Y-55020912D01*
X59686208Y-54978559D01*
X59712585Y-54908426D01*
X59690379Y-54867573D01*
X59626747Y-54823400D01*
X59606165Y-54815346D01*
X59516911Y-54812792D01*
X59456113Y-54860951D01*
X59441620Y-54947827D01*
X59335028Y-54947827D01*
X59330369Y-54929462D01*
X59335586Y-54888797D01*
X59380748Y-54794633D01*
X59380875Y-54794506D01*
X59765401Y-54794506D01*
X60581258Y-54794506D01*
X60581258Y-54908426D01*
X60581258Y-55141976D01*
X60450957Y-55142508D01*
X60333792Y-55149859D01*
X60273394Y-55178469D01*
X60265983Y-55239110D01*
X60303618Y-55342564D01*
X60369379Y-55489445D01*
X60747503Y-55489445D01*
X60874714Y-55488117D01*
X61010103Y-55483267D01*
X61106553Y-55475694D01*
X61148791Y-55466280D01*
X61154412Y-55456217D01*
X61166952Y-55391642D01*
X61171956Y-55294887D01*
X61169614Y-55230551D01*
X61150922Y-55158484D01*
X61107735Y-55126276D01*
X61029263Y-55071686D01*
X60989803Y-54978373D01*
X60992590Y-54927790D01*
X61109129Y-54927790D01*
X61109363Y-54929761D01*
X61137134Y-55002906D01*
X61208003Y-55030643D01*
X61264454Y-55032805D01*
X61327098Y-55005646D01*
X61345691Y-54931958D01*
X61325376Y-54864861D01*
X61259470Y-54813670D01*
X61171603Y-54811992D01*
X61116970Y-54850415D01*
X61109129Y-54927790D01*
X60992590Y-54927790D01*
X60995905Y-54867642D01*
X61050723Y-54759760D01*
X61076045Y-54720193D01*
X61110474Y-54634078D01*
X61114155Y-54613299D01*
X61312981Y-54613299D01*
X61322551Y-54682514D01*
X61371751Y-54746137D01*
X61388635Y-54755782D01*
X61472941Y-54776582D01*
X61616190Y-54788944D01*
X61823461Y-54793401D01*
X62214364Y-54794506D01*
X62214364Y-54931958D01*
X62214364Y-55133094D01*
X62080237Y-55154542D01*
X62061319Y-55157728D01*
X62009189Y-55173292D01*
X61981700Y-55181499D01*
X61932202Y-55230268D01*
X61889129Y-55325192D01*
X61864765Y-55390644D01*
X61838291Y-55482539D01*
X61848877Y-55522736D01*
X61902492Y-55519199D01*
X62005105Y-55479888D01*
X62075229Y-55453010D01*
X62159276Y-55429751D01*
X62201780Y-55430532D01*
X62212205Y-55468735D01*
X62201162Y-55527482D01*
X62196328Y-55553198D01*
X62155307Y-55659544D01*
X62097095Y-55767992D01*
X62029643Y-55858757D01*
X62003797Y-55884557D01*
X61893154Y-55968664D01*
X61780027Y-56025533D01*
X61719620Y-56048319D01*
X61668900Y-56080854D01*
X61627817Y-56134345D01*
X61585423Y-56223643D01*
X61530771Y-56363596D01*
X61511523Y-56414920D01*
X61460499Y-56555561D01*
X61419743Y-56674321D01*
X61396703Y-56749752D01*
X61372904Y-56844575D01*
X62674815Y-56844575D01*
X62659969Y-55819541D01*
X62647846Y-54982574D01*
X63576504Y-54982574D01*
X63598841Y-55032370D01*
X63676709Y-55065552D01*
X63741180Y-55061947D01*
X63807286Y-55021945D01*
X63832674Y-54958789D01*
X63811608Y-54892996D01*
X63738351Y-54845079D01*
X63656116Y-54847015D01*
X63593505Y-54898857D01*
X63576504Y-54982574D01*
X62647846Y-54982574D01*
X62645122Y-54794506D01*
X63061407Y-54794506D01*
X63073786Y-54794496D01*
X63316469Y-54788745D01*
X63495958Y-54771537D01*
X63617575Y-54741590D01*
X63686642Y-54697619D01*
X63708481Y-54638338D01*
X63707046Y-54619281D01*
X63684956Y-54580961D01*
X63624261Y-54552099D01*
X63509749Y-54523939D01*
X63321988Y-54465833D01*
X63102283Y-54338760D01*
X62925087Y-54161665D01*
X62796876Y-53941467D01*
X62741686Y-53746960D01*
X63117784Y-53746960D01*
X63119265Y-53761097D01*
X63156768Y-53840612D01*
X63232224Y-53934502D01*
X63328750Y-54024135D01*
X63429462Y-54090881D01*
X63615699Y-54155082D01*
X63813546Y-54165712D01*
X63998536Y-54119929D01*
X64154788Y-54019300D01*
X64199147Y-53971191D01*
X64263229Y-53883592D01*
X64313553Y-53796823D01*
X64333926Y-53736451D01*
X64309372Y-53731088D01*
X64225576Y-53725602D01*
X64092978Y-53721252D01*
X63922698Y-53718385D01*
X63725855Y-53717352D01*
X63555096Y-53718548D01*
X63380451Y-53722628D01*
X63241937Y-53729084D01*
X63150675Y-53737376D01*
X63117784Y-53746960D01*
X62741686Y-53746960D01*
X62724128Y-53685081D01*
X62685440Y-53439376D01*
X62488406Y-53439376D01*
X62466665Y-53439433D01*
X62364228Y-53444524D01*
X62288229Y-53465590D01*
X62213252Y-53513458D01*
X62113881Y-53598958D01*
X62062152Y-53645794D01*
X61989931Y-53718408D01*
X61952541Y-53780299D01*
X61938515Y-53855243D01*
X61936388Y-53967016D01*
X61936388Y-54169062D01*
X61936388Y-54175493D01*
X62118810Y-54157605D01*
X62179868Y-54151001D01*
X62310426Y-54133596D01*
X62412097Y-54116002D01*
X62459831Y-54108387D01*
X62535855Y-54120948D01*
X62611891Y-54181215D01*
X62620109Y-54189719D01*
X62677376Y-54268560D01*
X62699450Y-54333345D01*
X62700821Y-54337368D01*
X62699117Y-54359587D01*
X62658655Y-54453745D01*
X62581629Y-54527371D01*
X62491158Y-54556323D01*
X62396560Y-54555078D01*
X62198208Y-54553878D01*
X61994969Y-54554203D01*
X61799237Y-54555878D01*
X61623411Y-54558729D01*
X61479886Y-54562580D01*
X61381060Y-54567256D01*
X61339329Y-54572583D01*
X61312981Y-54613299D01*
X61114155Y-54613299D01*
X61115065Y-54608160D01*
X61106262Y-54580919D01*
X61067017Y-54563934D01*
X60984337Y-54552737D01*
X60845227Y-54542858D01*
X60588324Y-54509647D01*
X60377766Y-54445871D01*
X60193364Y-54366543D01*
X59765401Y-54794506D01*
X59380875Y-54794506D01*
X59455118Y-54720390D01*
X59537720Y-54690266D01*
X59553479Y-54685663D01*
X59617537Y-54643800D01*
X59708636Y-54567667D01*
X59812515Y-54468761D01*
X59923155Y-54357129D01*
X62325614Y-54357129D01*
X62347951Y-54406926D01*
X62425819Y-54440107D01*
X62490291Y-54436503D01*
X62556397Y-54396500D01*
X62581785Y-54333345D01*
X62560719Y-54267551D01*
X62487462Y-54219634D01*
X62405227Y-54221570D01*
X62342616Y-54273413D01*
X62325614Y-54357129D01*
X59923155Y-54357129D01*
X60032051Y-54247256D01*
X59944402Y-54112605D01*
X59886753Y-54009983D01*
X59806806Y-53773464D01*
X59792051Y-53591692D01*
X60175277Y-53591692D01*
X60208464Y-53768461D01*
X60297321Y-53926482D01*
X60432929Y-54052242D01*
X60606369Y-54132226D01*
X60676541Y-54144766D01*
X60807328Y-54157197D01*
X60970740Y-54165683D01*
X61146778Y-54168868D01*
X61555937Y-54169062D01*
X61546011Y-53601361D01*
X61932632Y-53601361D01*
X61960079Y-53608252D01*
X62022272Y-53577635D01*
X62110123Y-53510132D01*
X62196223Y-53438540D01*
X62272293Y-53394543D01*
X62358166Y-53375843D01*
X62483652Y-53371364D01*
X62519541Y-53370920D01*
X62628858Y-53364318D01*
X62684981Y-53347660D01*
X62700821Y-53317762D01*
X62700630Y-53313407D01*
X62680209Y-53284631D01*
X62616885Y-53269829D01*
X62497552Y-53265642D01*
X62482438Y-53265691D01*
X62353048Y-53274125D01*
X62256170Y-53303724D01*
X62158770Y-53364089D01*
X62119001Y-53393894D01*
X62032482Y-53464860D01*
X61976537Y-53519282D01*
X61949020Y-53556340D01*
X61932632Y-53601361D01*
X61546011Y-53601361D01*
X61536799Y-53074534D01*
X61151503Y-53079125D01*
X60999656Y-53083633D01*
X60720897Y-53111347D01*
X60525874Y-53159139D01*
X60502977Y-53164750D01*
X60342856Y-53245137D01*
X60237495Y-53353807D01*
X60183857Y-53492054D01*
X60175277Y-53591692D01*
X59792051Y-53591692D01*
X59786880Y-53527993D01*
X59788210Y-53489773D01*
X59779454Y-53401680D01*
X59742598Y-53325497D01*
X59665743Y-53232161D01*
X59649213Y-53213336D01*
X59569700Y-53109505D01*
X59559880Y-53094170D01*
X59790598Y-53094170D01*
X59799453Y-53126654D01*
X59806591Y-53136940D01*
X59838301Y-53161401D01*
X59843054Y-53159139D01*
X59834199Y-53126654D01*
X59827061Y-53116368D01*
X59795351Y-53091907D01*
X59790598Y-53094170D01*
X59559880Y-53094170D01*
X59547306Y-53074534D01*
X59712585Y-53074534D01*
X59729959Y-53091907D01*
X59747332Y-53074534D01*
X59729959Y-53057160D01*
X59712585Y-53074534D01*
X59547306Y-53074534D01*
X59496987Y-52995956D01*
X59493774Y-52989929D01*
X59616864Y-52989929D01*
X59625718Y-53022413D01*
X59632857Y-53032699D01*
X59664566Y-53057160D01*
X59669319Y-53054898D01*
X59660465Y-53022413D01*
X59653326Y-53012128D01*
X59621617Y-52987666D01*
X59616864Y-52989929D01*
X59493774Y-52989929D01*
X59483304Y-52970293D01*
X59538851Y-52970293D01*
X59556224Y-52987666D01*
X59573598Y-52970293D01*
X59556224Y-52952920D01*
X59538851Y-52970293D01*
X59483304Y-52970293D01*
X59439919Y-52888925D01*
X59407343Y-52804648D01*
X59408106Y-52759359D01*
X59426559Y-52753354D01*
X59498596Y-52761328D01*
X59602243Y-52788762D01*
X59717140Y-52828963D01*
X59822925Y-52875233D01*
X59899239Y-52920877D01*
X59925390Y-52939204D01*
X60002785Y-52970293D01*
X60005820Y-52971512D01*
X60069134Y-52966350D01*
X60094801Y-52923449D01*
X60079426Y-52897225D01*
X60022462Y-52837545D01*
X59975030Y-52795860D01*
X60171719Y-52795860D01*
X60175878Y-52837096D01*
X60186329Y-52842533D01*
X60199042Y-52813932D01*
X60196535Y-52795537D01*
X60175878Y-52790767D01*
X60171719Y-52795860D01*
X59975030Y-52795860D01*
X59937901Y-52763229D01*
X59897232Y-52727065D01*
X60129548Y-52727065D01*
X60146922Y-52744438D01*
X60164295Y-52727065D01*
X60146922Y-52709691D01*
X60129548Y-52727065D01*
X59897232Y-52727065D01*
X59874666Y-52706998D01*
X59785140Y-52612145D01*
X59727828Y-52531836D01*
X59724700Y-52524945D01*
X59704946Y-52452976D01*
X59683135Y-52336726D01*
X59661201Y-52192313D01*
X59641080Y-52035854D01*
X59624706Y-51883465D01*
X59619136Y-51814606D01*
X59832718Y-51814606D01*
X59850158Y-51867158D01*
X59889782Y-51952046D01*
X59905726Y-51984004D01*
X59963753Y-52109574D01*
X60009654Y-52221334D01*
X60020602Y-52249345D01*
X60046196Y-52298244D01*
X60057579Y-52292728D01*
X60056735Y-52282286D01*
X60056230Y-52280574D01*
X60457584Y-52280574D01*
X60458204Y-52292728D01*
X60464486Y-52415790D01*
X60523004Y-52539316D01*
X60625149Y-52627552D01*
X60675519Y-52644991D01*
X60784729Y-52666643D01*
X60926192Y-52685198D01*
X61083074Y-52699484D01*
X61238541Y-52708326D01*
X61375759Y-52710553D01*
X61477894Y-52704990D01*
X61528112Y-52690467D01*
X61536104Y-52664599D01*
X61545435Y-52580113D01*
X61551811Y-52453479D01*
X61554172Y-52300560D01*
X61554172Y-51937759D01*
X61163269Y-51950357D01*
X60942648Y-51963772D01*
X60765076Y-51992232D01*
X60635968Y-52039110D01*
X60544936Y-52108265D01*
X60481591Y-52203554D01*
X60457584Y-52280574D01*
X60056230Y-52280574D01*
X60037412Y-52216733D01*
X59999334Y-52120100D01*
X59951276Y-52011563D01*
X59902013Y-51910295D01*
X59860319Y-51835473D01*
X59834969Y-51806271D01*
X59832718Y-51814606D01*
X59619136Y-51814606D01*
X59614013Y-51751263D01*
X59610936Y-51655366D01*
X59617408Y-51611890D01*
X59650931Y-51607942D01*
X59732097Y-51625340D01*
X59839031Y-51660000D01*
X59951759Y-51704596D01*
X60050311Y-51751802D01*
X60114713Y-51794293D01*
X60203685Y-51876749D01*
X60349038Y-51773229D01*
X60440023Y-51714948D01*
X60553538Y-51661324D01*
X60685039Y-51621329D01*
X60844791Y-51593234D01*
X61043062Y-51575307D01*
X61290116Y-51565821D01*
X61596219Y-51563043D01*
X62283857Y-51563043D01*
X62283857Y-51901474D01*
X62125780Y-51919292D01*
X62078721Y-51925236D01*
X62006367Y-51937759D01*
X61992812Y-51940105D01*
X61951339Y-51953472D01*
X61949749Y-51958786D01*
X61945743Y-52017322D01*
X61943105Y-52131510D01*
X61941932Y-52290927D01*
X61942321Y-52485149D01*
X61944369Y-52703754D01*
X61944667Y-52727065D01*
X61945779Y-52813932D01*
X61948863Y-53054898D01*
X61953762Y-53437674D01*
X62106326Y-53316911D01*
X62180199Y-53261579D01*
X62260526Y-53218793D01*
X62350459Y-53200200D01*
X62479855Y-53196148D01*
X62700821Y-53196148D01*
X62700821Y-51946080D01*
X62422845Y-51901630D01*
X62422845Y-51563043D01*
X63465253Y-51563043D01*
X63465253Y-51736777D01*
X63463961Y-51827976D01*
X63452483Y-51885842D01*
X63419158Y-51907515D01*
X63352325Y-51910986D01*
X63253511Y-51917045D01*
X63161217Y-51932412D01*
X63083037Y-51953364D01*
X63083037Y-53317762D01*
X63083037Y-53647858D01*
X64368673Y-53647858D01*
X64368673Y-52889094D01*
X64250654Y-52816154D01*
X64215841Y-52793009D01*
X64098618Y-52680419D01*
X64096952Y-52677207D01*
X64238204Y-52677207D01*
X64247059Y-52709691D01*
X64254197Y-52719977D01*
X64285907Y-52744438D01*
X64290660Y-52742176D01*
X64281805Y-52709691D01*
X64274667Y-52699405D01*
X64242957Y-52674944D01*
X64238204Y-52677207D01*
X64096952Y-52677207D01*
X64032723Y-52553379D01*
X64022708Y-52424915D01*
X64033727Y-52399375D01*
X64096531Y-52399375D01*
X64107193Y-52453386D01*
X64141600Y-52533601D01*
X64187208Y-52614087D01*
X64209046Y-52636229D01*
X64202772Y-52598269D01*
X64166298Y-52502814D01*
X64148860Y-52464122D01*
X64115444Y-52405365D01*
X64097274Y-52396218D01*
X64096531Y-52399375D01*
X64033727Y-52399375D01*
X64073125Y-52308056D01*
X64093462Y-52282935D01*
X64124557Y-52263930D01*
X64163312Y-52285589D01*
X64228996Y-52353535D01*
X64258370Y-52384689D01*
X64318606Y-52443233D01*
X64350810Y-52466463D01*
X64352264Y-52465614D01*
X64360585Y-52424350D01*
X64366452Y-52333411D01*
X64368673Y-52209913D01*
X64366405Y-52087519D01*
X64350690Y-51990271D01*
X64309164Y-51937551D01*
X64229502Y-51915683D01*
X64099384Y-51910986D01*
X64040108Y-51908750D01*
X64002527Y-51890933D01*
X63988530Y-51839606D01*
X63986457Y-51736777D01*
X63986457Y-51563043D01*
X65098358Y-51563043D01*
X65098358Y-51736777D01*
X65097344Y-51815317D01*
X65087655Y-51880174D01*
X65059420Y-51906087D01*
X65002804Y-51910986D01*
X64926406Y-51915778D01*
X64831088Y-51931884D01*
X64809139Y-51939135D01*
X64791246Y-51953166D01*
X64777566Y-51981614D01*
X64767388Y-52032346D01*
X64760004Y-52113230D01*
X64754704Y-52232134D01*
X64750780Y-52396925D01*
X64747522Y-52615470D01*
X64747277Y-52636229D01*
X64746029Y-52742176D01*
X64744221Y-52895637D01*
X64742190Y-53068611D01*
X64738709Y-53313910D01*
X64734579Y-53503939D01*
X64729067Y-53647667D01*
X64722702Y-53736451D01*
X64721440Y-53754061D01*
X64710965Y-53832091D01*
X64696909Y-53890725D01*
X64678539Y-53938929D01*
X64655122Y-53985674D01*
X64564490Y-54133238D01*
X64410912Y-54303556D01*
X64218310Y-54432762D01*
X63972742Y-54532017D01*
X63962729Y-54535508D01*
X63933724Y-54555866D01*
X63920039Y-54598348D01*
X63919632Y-54638338D01*
X63919222Y-54678592D01*
X63928824Y-54812235D01*
X63934315Y-54879745D01*
X63938268Y-54958789D01*
X63939738Y-54988176D01*
X63933020Y-55053271D01*
X63910795Y-55092822D01*
X63869694Y-55124619D01*
X63855531Y-55132974D01*
X63745032Y-55164160D01*
X63577742Y-55168536D01*
X63480436Y-55166653D01*
X63389204Y-55170585D01*
X63345922Y-55180248D01*
X63341935Y-55201416D01*
X63337389Y-55283927D01*
X63334225Y-55419253D01*
X63332571Y-55597637D01*
X63332560Y-55809325D01*
X63334322Y-56044564D01*
X63343639Y-56887981D01*
X63687815Y-56333577D01*
X64160191Y-56333577D01*
X64162320Y-56337415D01*
X64206703Y-56352977D01*
X64290492Y-56364707D01*
X64420793Y-56375491D01*
X64430409Y-56888008D01*
X64440024Y-57400526D01*
X64611901Y-57400526D01*
X64611901Y-57157297D01*
X64994117Y-57157297D01*
X64994276Y-57222154D01*
X64997655Y-57322906D01*
X65009627Y-57376123D01*
X65035601Y-57396949D01*
X65080985Y-57400526D01*
X65115847Y-57398880D01*
X65150662Y-57381340D01*
X65165036Y-57329901D01*
X65167852Y-57226791D01*
X65167852Y-57053056D01*
X66245007Y-57053056D01*
X66245007Y-57209418D01*
X66245033Y-57220650D01*
X66250536Y-57313067D01*
X66271072Y-57355548D01*
X66314500Y-57365779D01*
X66350327Y-57359716D01*
X66372181Y-57330298D01*
X66381828Y-57262153D01*
X66383994Y-57139924D01*
X66383994Y-56914069D01*
X64994117Y-56914069D01*
X64994117Y-57157297D01*
X64611901Y-57157297D01*
X64611901Y-56844575D01*
X64994117Y-56844575D01*
X66383994Y-56844575D01*
X66383994Y-56219130D01*
X66811234Y-56219130D01*
X66822344Y-56214654D01*
X66865754Y-56176002D01*
X66917590Y-56116638D01*
X66958583Y-56059765D01*
X66969465Y-56028587D01*
X66965211Y-56027204D01*
X66929092Y-56052507D01*
X66875629Y-56115317D01*
X66861898Y-56134167D01*
X66821345Y-56194716D01*
X66811234Y-56219130D01*
X66383994Y-56219130D01*
X66383994Y-55993275D01*
X66383963Y-55946586D01*
X66382154Y-55665071D01*
X66377653Y-55440798D01*
X66370586Y-55276822D01*
X66361075Y-55176196D01*
X66349247Y-55141976D01*
X66335367Y-55171642D01*
X66324111Y-55264195D01*
X66316987Y-55412941D01*
X66314500Y-55611059D01*
X66314500Y-56008741D01*
X66314500Y-56080143D01*
X64994117Y-56080143D01*
X64994117Y-56844575D01*
X64611901Y-56844575D01*
X64611901Y-56514479D01*
X64611497Y-56305180D01*
X64610115Y-56086117D01*
X64607892Y-55899698D01*
X64604976Y-55755136D01*
X64601517Y-55661644D01*
X64597661Y-55628433D01*
X64595047Y-55630196D01*
X64565006Y-55670189D01*
X64510415Y-55752249D01*
X64440075Y-55862191D01*
X64362787Y-55985827D01*
X64287354Y-56108970D01*
X64222576Y-56217434D01*
X64177254Y-56297032D01*
X64160191Y-56333577D01*
X63687815Y-56333577D01*
X63729212Y-56266894D01*
X63763412Y-56211790D01*
X63877197Y-56028250D01*
X63977717Y-55865797D01*
X64059116Y-55733916D01*
X64115539Y-55642089D01*
X64141129Y-55599800D01*
X64142679Y-55550900D01*
X64097404Y-55478186D01*
X64085924Y-55464285D01*
X64035294Y-55357440D01*
X64003178Y-55205063D01*
X63994852Y-55128511D01*
X64084694Y-55128511D01*
X64092842Y-55176380D01*
X64121426Y-55262025D01*
X64155351Y-55346447D01*
X64190110Y-55418844D01*
X64207535Y-55438055D01*
X64994117Y-55438055D01*
X64994117Y-56045396D01*
X65124418Y-56037742D01*
X65139597Y-56036939D01*
X65237076Y-56033125D01*
X65382635Y-56028599D01*
X65559243Y-56023863D01*
X65749863Y-56019415D01*
X66245007Y-56008741D01*
X66245007Y-55577409D01*
X66244994Y-55563847D01*
X66242717Y-55399787D01*
X66237079Y-55263744D01*
X66228886Y-55169541D01*
X66218946Y-55131001D01*
X66190832Y-55126942D01*
X66123392Y-55141023D01*
X66094987Y-55156377D01*
X66072045Y-55190182D01*
X66056650Y-55253879D01*
X66045809Y-55360664D01*
X66036525Y-55523733D01*
X66019152Y-55881344D01*
X65710556Y-55881241D01*
X65401961Y-55881137D01*
X65408510Y-55528603D01*
X65410182Y-55380970D01*
X65404159Y-55256556D01*
X65382435Y-55182489D01*
X65337708Y-55148292D01*
X65262680Y-55143488D01*
X65150052Y-55157597D01*
X64994117Y-55180981D01*
X64994117Y-55438055D01*
X64207535Y-55438055D01*
X64203556Y-55400840D01*
X64174106Y-55303962D01*
X64154207Y-55249268D01*
X64117604Y-55165330D01*
X64090815Y-55124675D01*
X64084694Y-55128511D01*
X63994852Y-55128511D01*
X63991237Y-55095271D01*
X63992707Y-55038085D01*
X64011933Y-55020243D01*
X64053070Y-55026914D01*
X64079535Y-55036688D01*
X64166686Y-55102624D01*
X64236332Y-55198153D01*
X64265489Y-55294336D01*
X64266654Y-55333502D01*
X64276209Y-55346717D01*
X64306916Y-55298337D01*
X64310714Y-55291137D01*
X64333639Y-55204672D01*
X64337964Y-55098750D01*
X64343637Y-55003266D01*
X64362740Y-54947827D01*
X65313850Y-54947827D01*
X65325411Y-54976384D01*
X65384021Y-55021561D01*
X65461751Y-55038408D01*
X65525308Y-55016165D01*
X65532263Y-55008173D01*
X65552443Y-54936524D01*
X65531987Y-54859127D01*
X65478907Y-54811351D01*
X65393734Y-54812673D01*
X65330747Y-54863978D01*
X65313850Y-54947827D01*
X64362740Y-54947827D01*
X64380269Y-54896958D01*
X64455414Y-54759967D01*
X64473588Y-54732054D01*
X64619047Y-54732054D01*
X64623636Y-54803193D01*
X64635701Y-54809087D01*
X64641162Y-54759760D01*
X64636318Y-54711961D01*
X64623636Y-54716326D01*
X64619047Y-54732054D01*
X64473588Y-54732054D01*
X64525062Y-54652998D01*
X64589789Y-54573513D01*
X64631728Y-54548177D01*
X64646648Y-54580951D01*
X64647300Y-54585322D01*
X64675302Y-54634017D01*
X64731856Y-54702565D01*
X64745677Y-54717042D01*
X64800531Y-54759760D01*
X64808638Y-54766073D01*
X64886780Y-54788897D01*
X65007016Y-54794506D01*
X65044039Y-54793698D01*
X65188569Y-54775153D01*
X65297290Y-54736929D01*
X65331990Y-54719826D01*
X65449131Y-54698886D01*
X65554256Y-54727231D01*
X65633082Y-54794268D01*
X65671325Y-54889402D01*
X65664371Y-54936524D01*
X65654703Y-55002038D01*
X65605520Y-55080565D01*
X65546331Y-55125788D01*
X65524341Y-55135638D01*
X65501324Y-55164004D01*
X65488077Y-55220804D01*
X65482020Y-55319715D01*
X65480574Y-55474413D01*
X65480574Y-55802167D01*
X65967031Y-55802167D01*
X65967031Y-55474413D01*
X65966418Y-55360846D01*
X65962119Y-55246358D01*
X65951435Y-55178121D01*
X65931749Y-55142416D01*
X65900442Y-55125524D01*
X65847089Y-55086676D01*
X65800974Y-55010075D01*
X65785519Y-54929246D01*
X65904344Y-54929246D01*
X65931722Y-55002410D01*
X66003078Y-55030643D01*
X66072070Y-55031691D01*
X66125825Y-54997962D01*
X66140766Y-54912671D01*
X66134711Y-54896156D01*
X67107738Y-54896156D01*
X67109341Y-54912671D01*
X67114971Y-54970654D01*
X67147012Y-55006818D01*
X67220994Y-55035123D01*
X67297338Y-55026922D01*
X67346155Y-54980892D01*
X67351107Y-54922603D01*
X67314554Y-54845173D01*
X67244474Y-54801458D01*
X67218495Y-54799816D01*
X67148705Y-54830770D01*
X67107738Y-54896156D01*
X66134711Y-54896156D01*
X66115354Y-54843364D01*
X66045674Y-54805568D01*
X65952673Y-54815531D01*
X65916521Y-54845006D01*
X65904344Y-54929246D01*
X65785519Y-54929246D01*
X65784538Y-54924117D01*
X65809011Y-54813898D01*
X65881140Y-54735356D01*
X65988556Y-54699828D01*
X66118889Y-54718653D01*
X66195344Y-54737207D01*
X66324501Y-54753491D01*
X66464642Y-54759760D01*
X66696717Y-54759760D01*
X66696717Y-54551278D01*
X66210260Y-54551278D01*
X66210260Y-54305458D01*
X67072991Y-54305458D01*
X67080224Y-54379956D01*
X67112265Y-54416120D01*
X67186247Y-54444426D01*
X67262591Y-54436225D01*
X67311408Y-54390194D01*
X67316360Y-54331906D01*
X67279807Y-54254476D01*
X67209727Y-54210760D01*
X67183748Y-54209119D01*
X67113958Y-54240073D01*
X67072991Y-54305458D01*
X66210260Y-54305458D01*
X66210260Y-54169062D01*
X66522982Y-54169062D01*
X66522982Y-53717352D01*
X66200186Y-53717352D01*
X66003577Y-53710177D01*
X65755697Y-53679091D01*
X65543933Y-53626295D01*
X65384110Y-53554937D01*
X65298607Y-53496808D01*
X65105627Y-53314903D01*
X64966509Y-53102765D01*
X64882790Y-52870292D01*
X64856007Y-52627382D01*
X64861416Y-52585827D01*
X65249489Y-52585827D01*
X65267076Y-52783554D01*
X65338987Y-52969890D01*
X65461843Y-53131447D01*
X65632262Y-53254836D01*
X65689961Y-53274813D01*
X65799536Y-53297229D01*
X65934583Y-53315935D01*
X66076323Y-53329240D01*
X66205979Y-53335452D01*
X66304771Y-53332879D01*
X66353920Y-53319832D01*
X66356584Y-53294179D01*
X66339837Y-53218825D01*
X66304157Y-53116190D01*
X66267949Y-53005456D01*
X66239785Y-52841747D01*
X66230428Y-52643679D01*
X66318289Y-52643679D01*
X66332676Y-52671539D01*
X66387110Y-52753125D01*
X66436934Y-52824139D01*
X66487944Y-52891965D01*
X66512721Y-52918173D01*
X66515731Y-52906145D01*
X66489077Y-52854907D01*
X66435495Y-52778218D01*
X66365564Y-52692318D01*
X66343081Y-52667099D01*
X66318289Y-52643679D01*
X66230428Y-52643679D01*
X66229990Y-52634406D01*
X66230010Y-52578443D01*
X66233937Y-52447916D01*
X66242411Y-52351459D01*
X66254130Y-52306770D01*
X66261204Y-52302841D01*
X66317994Y-52307233D01*
X66401804Y-52338059D01*
X66522982Y-52395844D01*
X66522982Y-51939279D01*
X66132079Y-51951138D01*
X66084780Y-51952766D01*
X65863963Y-51968412D01*
X65696015Y-51999141D01*
X65567396Y-52049968D01*
X65464568Y-52125908D01*
X65373994Y-52231978D01*
X65289608Y-52390098D01*
X65249489Y-52585827D01*
X64861416Y-52585827D01*
X64887696Y-52383933D01*
X64979393Y-52149845D01*
X65132636Y-51935014D01*
X65227744Y-51835958D01*
X65324673Y-51751809D01*
X65408041Y-51699439D01*
X67107738Y-51699439D01*
X67114971Y-51773937D01*
X67147012Y-51810101D01*
X67220994Y-51838407D01*
X67297338Y-51830206D01*
X67346155Y-51784175D01*
X67351107Y-51725887D01*
X67314554Y-51648456D01*
X67244474Y-51604741D01*
X67218495Y-51603099D01*
X67148705Y-51634054D01*
X67107738Y-51699439D01*
X65408041Y-51699439D01*
X65426376Y-51687921D01*
X65543638Y-51641052D01*
X65687244Y-51607961D01*
X65867982Y-51585406D01*
X66096636Y-51570145D01*
X66383994Y-51558936D01*
X66422756Y-51557663D01*
X66643414Y-51549242D01*
X66844530Y-51539683D01*
X67013620Y-51529706D01*
X67138202Y-51520036D01*
X67205795Y-51511392D01*
X67228070Y-51506853D01*
X67315219Y-51508878D01*
X67388216Y-51559604D01*
X67443254Y-51642012D01*
X67454378Y-51725887D01*
X67457336Y-51748191D01*
G37*
%TD*%
D12*
X50000000Y-50000000D02*
X163062000Y-50000000D01*
X163062000Y-102706000D01*
X50000000Y-102706000D01*
X50000000Y-50000000D01*
M02*
