M48
; DRILL file {KiCad 7.0.5} date Wed Jul 10 14:18:40 2024
; FORMAT={-:-/ absolute / inch / decimal}
; #@! TF.CreationDate,2024-07-10T14:18:40-04:00
; #@! TF.GenerationSoftware,Kicad,Pcbnew,7.0.5
; #@! TF.FileFunction,MixedPlating,1,2
FMAT,2
INCH
; #@! TA.AperFunction,Plated,PTH,ViaDrill
T1C0.0118
; #@! TA.AperFunction,Plated,PTH,ComponentDrill
T2C0.0197
; #@! TA.AperFunction,Plated,PTH,ComponentDrill
T3C0.0394
; #@! TA.AperFunction,Plated,PTH,ComponentDrill
T4C0.0433
; #@! TA.AperFunction,Plated,PTH,ComponentDrill
T5C0.0472
; #@! TA.AperFunction,Plated,PTH,ComponentDrill
T6C0.0591
; #@! TA.AperFunction,Plated,PTH,ComponentDrill
T7C0.1378
; #@! TA.AperFunction,NonPlated,NPTH,ComponentDrill
T8C0.0630
; #@! TA.AperFunction,NonPlated,NPTH,ComponentDrill
T9C0.0709
%
G90
G05
T1
X2.78Y-2.33
X2.9Y-2.25
X3.29Y-3.37
X3.42Y-3.26
X3.48Y-3.25
X4.13Y-3.39
X5.48Y-2.3
X5.48Y-2.62
X5.8Y-3.87
T2
X2.0597Y-3.8331
X2.062Y-2.1654
X2.09Y-3.76
X2.09Y-3.9062
X2.0923Y-2.0923
X2.0923Y-2.2384
X2.1631Y-3.7297
X2.1631Y-3.9364
X2.1654Y-2.062
X2.1654Y-2.2687
X2.2362Y-3.76
X2.2362Y-3.9062
X2.2384Y-2.0923
X2.2384Y-2.2384
X2.2664Y-3.8331
X2.2687Y-2.1654
X6.1236Y-2.1431
X6.1297Y-3.8531
X6.1538Y-2.07
X6.1538Y-2.2162
X6.16Y-3.78
X6.16Y-3.9262
X6.2269Y-2.0397
X6.2269Y-2.2464
X6.2331Y-3.7497
X6.2331Y-3.9564
X6.3Y-2.07
X6.3Y-2.2162
X6.3062Y-3.78
X6.3062Y-3.9262
X6.3303Y-2.1431
X6.3364Y-3.8531
T3
X2.1459Y-2.69
X2.2459Y-2.69
X3.119Y-2.43
X3.12Y-2.14
X3.219Y-2.43
X3.22Y-2.14
X4.43Y-2.23
X4.43Y-2.33
X4.43Y-2.43
X4.43Y-2.53
X4.43Y-2.63
X4.43Y-2.73
X4.43Y-2.83
X4.43Y-2.93
X4.43Y-3.03
X4.43Y-3.13
X4.43Y-3.23
X4.43Y-3.33
X4.43Y-3.43
X4.43Y-3.53
X4.43Y-3.63
X5.33Y-2.23
X5.33Y-2.33
X5.33Y-2.43
X5.33Y-2.53
X5.33Y-2.63
X5.33Y-2.73
X5.33Y-2.83
X5.33Y-2.93
X5.33Y-3.03
X5.33Y-3.13
X5.33Y-3.23
X5.33Y-3.33
X5.33Y-3.43
X5.33Y-3.53
X5.33Y-3.63
X5.6Y-2.11
X5.6Y-2.4
X5.6Y-3.0
X5.6Y-3.3
X5.6094Y-2.7
X5.7Y-2.11
X5.7Y-2.4
X5.7Y-3.0
X5.7Y-3.3
X5.7094Y-2.7
X6.25Y-2.52
X6.25Y-2.62
X6.25Y-2.72
X6.25Y-2.82
X6.25Y-3.07
X6.25Y-3.17
X6.25Y-3.27
X6.25Y-3.37
T4
X3.6293Y-3.6491
X3.7293Y-3.6491
X3.8293Y-3.6491
T5
X3.7186Y-2.0425
X3.7186Y-2.2196
X3.7186Y-2.3673
X3.7186Y-2.5444
X3.7186Y-2.6921
X3.7186Y-2.8692
X3.7186Y-3.0169
X3.7186Y-3.194
X3.9745Y-2.0425
X3.9745Y-2.2196
X3.9745Y-2.3673
X3.9745Y-2.5444
X3.9745Y-2.6921
X3.9745Y-2.8692
X3.9745Y-3.0169
X3.9745Y-3.194
T6
X2.54Y-3.3
X3.5984Y-3.417
X3.8484Y-3.417
X4.22Y-3.8566
X5.5Y-3.87
T7
X2.1631Y-3.8331
X2.1654Y-2.1654
X6.2269Y-2.1431
X6.2331Y-3.8531
T9
X2.2283Y-3.1353
T8
G00X2.0551Y-3.1353
M15
G01X2.0551Y-3.1353
M16
G05
T0
M30
